<?xml version="1.0" encoding="utf-8"?>
<!-- Generator: Adobe Illustrator 16.0.0, SVG Export Plug-In . SVG Version: 6.00 Build 0)  -->
<!DOCTYPE svg PUBLIC "-//W3C//DTD SVG 1.1//EN" "http://www.w3.org/Graphics/SVG/1.1/DTD/svg11.dtd">
<svg version="1.1" id="Calque_1" xmlns="http://www.w3.org/2000/svg" xmlns:xlink="http://www.w3.org/1999/xlink" x="0px" y="0px"
	 width="97.167px" height="73.924px" viewBox="0 0 97.167 73.924" enable-background="new 0 0 97.167 73.924" xml:space="preserve">
<path fill="none" stroke="#212121" stroke-width="3" d="M85.605,56.789c0,7.628-3.45,13.81-7.705,13.81H19.643
	c-4.255,0-7.705-6.182-7.705-13.81l0,0c0-7.634,3.45-13.815,7.705-13.815H77.9C82.155,42.974,85.605,49.155,85.605,56.789
	L85.605,56.789z"/>
<g>
	<path fill="#212121" stroke="#212121" d="M37.877,51.172h-3.721v-1.343h9.055v1.343h-3.737v10.885h-1.598V51.172z"/>
	<path fill="#212121" stroke="#212121" d="M53.406,61.512c-0.708,0.271-2.122,0.671-3.771,0.671c-1.853,0-3.376-0.471-4.574-1.615
		c-1.05-1.015-1.704-2.647-1.704-4.553c0-3.646,2.522-6.313,6.623-6.313c1.413,0,2.539,0.31,3.063,0.562l-0.399,1.289
		c-0.65-0.308-1.469-0.524-2.703-0.524c-2.973,0-4.915,1.849-4.915,4.915c0,3.102,1.849,4.935,4.716,4.935
		c1.034,0,1.742-0.145,2.106-0.326v-3.646H49.38v-1.27h4.025V61.512z"/>
	<path fill="#212121" stroke="#212121" d="M55.6,60.134c0.708,0.454,1.723,0.799,2.812,0.799c1.616,0,2.56-0.836,2.56-2.088
		c0-1.124-0.653-1.796-2.306-2.413c-1.994-0.725-3.228-1.778-3.228-3.481c0-1.906,1.578-3.321,3.955-3.321
		c1.23,0,2.159,0.289,2.684,0.6l-0.435,1.287c-0.38-0.236-1.198-0.58-2.303-0.58c-1.673,0-2.307,0.998-2.307,1.832
		c0,1.142,0.743,1.706,2.432,2.358c2.068,0.816,3.102,1.796,3.102,3.591c0,1.888-1.378,3.539-4.262,3.539
		c-1.179,0-2.467-0.362-3.121-0.799L55.6,60.134z"/>
</g>
<polygon fill="#212121" points="41.027,34.348 44.525,34.348 42.947,41.531 49.706,41.531 58.792,29.741 54.608,29.741 
	60.242,18.596 54.953,18.596 62.464,3.759 43.417,3.759 38.376,23.199 44.612,23.199 "/>
</svg>
