<?xml version="1.0" encoding="utf-8"?>
<!-- Generator: Adobe Illustrator 16.0.0, SVG Export Plug-In . SVG Version: 6.00 Build 0)  -->
<!DOCTYPE svg PUBLIC "-//W3C//DTD SVG 1.1//EN" "http://www.w3.org/Graphics/SVG/1.1/DTD/svg11.dtd">
<svg version="1.1" id="Calque_1" xmlns="http://www.w3.org/2000/svg" xmlns:xlink="http://www.w3.org/1999/xlink" x="0px" y="0px"
	 width="97.167px" height="73.924px" viewBox="0 0 97.167 73.924" enable-background="new 0 0 97.167 73.924" xml:space="preserve">
<path fill="none" stroke="#FF9800" stroke-width="3" d="M85.605,56.789c0,7.628-3.45,13.81-7.705,13.81H19.643
	c-4.255,0-7.705-6.182-7.705-13.81l0,0c0-7.634,3.45-13.815,7.705-13.815H77.9C82.155,42.974,85.605,49.155,85.605,56.789
	L85.605,56.789z"/>
<g>
	<path fill="#FF9800" stroke="#FF9800" d="M37.877,51.172h-3.721v-1.343h9.055v1.343h-3.737v10.886h-1.598L37.877,51.172
		L37.877,51.172z"/>
	<path fill="#FF9800" stroke="#FF9800" d="M53.406,61.513c-0.707,0.271-2.121,0.67-3.771,0.67c-1.852,0-3.375-0.471-4.573-1.615
		c-1.05-1.015-1.704-2.646-1.704-4.553c0-3.646,2.522-6.312,6.623-6.312c1.413,0,2.539,0.311,3.062,0.562l-0.398,1.288
		c-0.65-0.308-1.469-0.524-2.703-0.524c-2.973,0-4.915,1.85-4.915,4.916c0,3.102,1.849,4.935,4.716,4.935
		c1.034,0,1.742-0.146,2.106-0.326v-3.646H49.38v-1.27h4.024L53.406,61.513L53.406,61.513z"/>
	<path fill="#FF9800" stroke="#FF9800" d="M55.6,60.134c0.708,0.454,1.724,0.799,2.812,0.799c1.616,0,2.561-0.836,2.561-2.088
		c0-1.123-0.653-1.796-2.307-2.412c-1.994-0.726-3.228-1.779-3.228-3.481c0-1.906,1.578-3.321,3.955-3.321
		c1.229,0,2.159,0.289,2.685,0.6l-0.436,1.287c-0.38-0.235-1.198-0.58-2.303-0.58c-1.674,0-2.307,0.998-2.307,1.832
		c0,1.143,0.742,1.707,2.432,2.358c2.068,0.815,3.102,1.796,3.102,3.591c0,1.889-1.378,3.539-4.262,3.539
		c-1.18,0-2.467-0.361-3.121-0.799L55.6,60.134z"/>
</g>
<polygon fill="#FF9800" points="41.027,34.348 44.525,34.348 42.947,41.531 49.707,41.531 58.792,29.741 54.608,29.741 
	60.242,18.596 54.953,18.596 62.464,3.759 43.417,3.759 38.376,23.199 44.612,23.199 "/>
</svg>
