<?xml version="1.0" encoding="utf-8"?>
<!-- Generator: Adobe Illustrator 16.0.0, SVG Export Plug-In . SVG Version: 6.00 Build 0)  -->
<!DOCTYPE svg PUBLIC "-//W3C//DTD SVG 1.1//EN" "http://www.w3.org/Graphics/SVG/1.1/DTD/svg11.dtd">
<svg version="1.1" id="Calque_1" xmlns="http://www.w3.org/2000/svg" xmlns:xlink="http://www.w3.org/1999/xlink" x="0px" y="0px"
	 width="97.167px" height="73.924px" viewBox="0 0 97.167 73.924" enable-background="new 0 0 97.167 73.924" xml:space="preserve">
<path fill="none" stroke="#F44336" stroke-width="3" d="M47.563,22.461c-3.536-0.004-6.774-0.402-9.297-1.058
	c-2.114,2.084-3.417,4.869-3.417,7.938c0,6.449,5.711,11.679,12.756,11.679c7.042,0,12.756-5.229,12.756-11.679
	c0-3.069-1.304-5.852-3.417-7.936C54.407,22.067,51.136,22.466,47.563,22.461z"/>
<path fill="none" stroke="#F44336" stroke-width="3" d="M47.653,51.35c3.476,0.008,6.666,0.387,9.169,1.018
	c2.187-2.098,3.538-4.932,3.538-8.059c0-6.451-5.714-11.679-12.756-11.679c-7.045,0-12.756,5.228-12.756,11.679
	c0,3.121,1.347,5.952,3.528,8.05C40.898,51.722,44.13,51.344,47.653,51.35z"/>
<path fill="none" stroke="#F44336" stroke-width="4" d="M33.057,1.723L33,17.894c-0.008,2.512,6.513,4.558,14.562,4.567
	c8.054,0.011,14.584-2.02,14.591-4.53L62.21,1.712"/>
<path fill="none" stroke="#F44336" stroke-width="4" d="M62.15,71.778l0.062-15.923c0.011-2.476-6.512-4.489-14.559-4.506
	c-8.054-0.015-14.586,1.981-14.593,4.457l-0.063,15.972"/>
</svg>
