<?xml version="1.0" encoding="utf-8"?>
<!-- Generator: Adobe Illustrator 16.0.0, SVG Export Plug-In . SVG Version: 6.00 Build 0)  -->
<!DOCTYPE svg PUBLIC "-//W3C//DTD SVG 1.1//EN" "http://www.w3.org/Graphics/SVG/1.1/DTD/svg11.dtd">
<svg version="1.1" id="Calque_1" xmlns="http://www.w3.org/2000/svg" xmlns:xlink="http://www.w3.org/1999/xlink" x="0px" y="0px"
	 width="97.167px" height="73.924px" viewBox="0 0 97.167 73.924" enable-background="new 0 0 97.167 73.924" xml:space="preserve">
<polygon fill="none" stroke="#FF9800" stroke-width="2" stroke-linecap="round" stroke-linejoin="round" stroke-miterlimit="1" points="
	71.125,50.263 58.283,50.251 45.432,50.234 51.873,39.976 58.302,29.711 64.718,39.98 "/>
<rect x="2.327" y="36.3" transform="matrix(1 -0.0026 0.0026 1 -0.0973 0.0355)" fill="#212121" stroke="#FF9800" stroke-width="3" width="22.611" height="2.508"/>
<rect x="22.337" y="24.837" transform="matrix(0.8111 -0.5849 0.5849 0.8111 -7.1605 30.0105)" fill="#212121" stroke="#FF9800" stroke-width="3" stroke-linecap="round" width="41.098" height="2.51"/>
<ellipse transform="matrix(1 -0.0026 0.0026 1 -0.0981 0.066)" fill="#FF9800" stroke="#FF9800" cx="25.195" cy="37.555" rx="5.979" ry="5.741"/>
<rect x="78.272" y="36.295" transform="matrix(1 -0.0027 0.0027 1 -0.1027 0.2373)" fill="#212121" stroke="#FF9800" stroke-width="3" width="16.379" height="2.506"/>
<rect x="56.508" y="34.427" fill="none" width="7.276" height="14.748"/>
<text transform="matrix(0.9623 0 0 1 56.5083 47.3008)" fill="#FF9800" stroke="#FF9800" stroke-width="0.5" font-family="'Myriad-Roman'" font-size="15.4919">!</text>
</svg>
