<?xml version="1.0" encoding="utf-8"?>
<!-- Generator: Adobe Illustrator 16.0.0, SVG Export Plug-In . SVG Version: 6.00 Build 0)  -->
<!DOCTYPE svg PUBLIC "-//W3C//DTD SVG 1.1//EN" "http://www.w3.org/Graphics/SVG/1.1/DTD/svg11.dtd">
<svg version="1.1" id="Calque_1" xmlns="http://www.w3.org/2000/svg" xmlns:xlink="http://www.w3.org/1999/xlink" x="0px" y="0px"
	 width="97.167px" height="73.924px" viewBox="0 0 97.167 73.924" enable-background="new 0 0 97.167 73.924" xml:space="preserve">
<g>
	<path fill="#212121" stroke="#212121" d="M37.838,46.996l2.674-4.006L43.195,39l2.663,4.013l2.658,4.01l-3.617-0.013l-0.02,5.502
		c-0.009,0.811-0.78,1.475-1.734,1.472c-0.946-0.013-1.709-0.684-1.706-1.5L41.458,47L37.838,46.996z"/>
	<path fill="#212121" stroke="#212121" d="M50.458,46.989L53,43.187l2.545-3.787l2.531,3.8l2.528,3.822l-3.435-0.017l-0.02,5.225
		c-0.006,0.774-0.74,1.406-1.647,1.406c-0.9-0.021-1.63-0.655-1.627-1.438l0.025-5.205L50.458,46.989z"/>
</g>
<rect x="2.327" y="36.601" transform="matrix(1 -0.0026 0.0026 1 -0.0972 0.0354)" fill="none" stroke="#212121" stroke-width="3" width="22.816" height="2.531"/>
<rect x="22.518" y="24.87" transform="matrix(0.8111 -0.5849 0.5849 0.8111 -7.117 30.2325)" fill="none" stroke="#212121" stroke-width="3" stroke-linecap="round" width="41.469" height="2.532"/>
<ellipse transform="matrix(1 -0.0027 0.0027 1 -0.1004 0.068)" fill="#212121" stroke="#212121" cx="25.401" cy="37.627" rx="6.033" ry="5.793"/>
<rect x="72.668" y="36.602" transform="matrix(1 -0.0027 0.0027 1 -0.1018 0.2268)" fill="none" stroke="#212121" stroke-width="3" width="22.817" height="2.528"/>
<ellipse transform="matrix(1 -0.0028 0.0028 1 -0.1029 0.1946)" fill="#212121" stroke="#212121" cx="70.665" cy="37.508" rx="6.033" ry="5.794"/>
</svg>
