<?xml version="1.0" encoding="utf-8"?>
<!-- Generator: Adobe Illustrator 16.0.0, SVG Export Plug-In . SVG Version: 6.00 Build 0)  -->
<!DOCTYPE svg PUBLIC "-//W3C//DTD SVG 1.1//EN" "http://www.w3.org/Graphics/SVG/1.1/DTD/svg11.dtd">
<svg version="1.1" id="Calque_1" xmlns="http://www.w3.org/2000/svg" xmlns:xlink="http://www.w3.org/1999/xlink" x="0px" y="0px"
	 width="97.167px" height="73.924px" viewBox="0 0 97.167 73.924" enable-background="new 0 0 97.167 73.924" xml:space="preserve">
<polygon fill="#FF9800" points="40.944,34.539 44.474,34.539 42.882,41.788 49.701,41.788 58.871,29.892 54.649,29.892 
	60.333,18.644 54.997,18.644 62.577,3.673 43.356,3.673 38.27,23.291 44.562,23.291 "/>
<g>
	<path fill="#FF9800" stroke="#FF9800" d="M32.868,51.516h-3.754v-1.354h9.137v1.354H34.48V62.5h-1.612V51.516z"/>
	<path fill="#FF9800" stroke="#FF9800" d="M48.537,61.95c-0.712,0.275-2.142,0.679-3.806,0.679c-1.87,0-3.406-0.476-4.613-1.631
		c-1.062-1.023-1.722-2.67-1.722-4.593c0-3.681,2.544-6.372,6.682-6.372c1.428,0,2.562,0.312,3.094,0.566l-0.402,1.302
		c-0.66-0.312-1.481-0.53-2.727-0.53c-3.004,0-4.964,1.865-4.964,4.96c0,3.131,1.869,4.98,4.762,4.98
		c1.044,0,1.755-0.147,2.122-0.33v-3.68h-2.49V56.02h4.063V61.95z"/>
	<path fill="#FF9800" stroke="#FF9800" d="M50.956,50.345c0.694-0.166,1.811-0.274,2.909-0.274c1.593,0,2.62,0.274,3.371,0.896
		c0.642,0.478,1.043,1.208,1.043,2.179c0,1.209-0.806,2.252-2.087,2.709v0.057c1.17,0.273,2.542,1.243,2.542,3.073
		c0,1.063-0.419,1.868-1.06,2.473c-0.841,0.786-2.232,1.154-4.248,1.154c-1.098,0-1.94-0.073-2.471-0.148V50.345z M52.548,55.397
		h1.446c1.665,0,2.653-0.897,2.653-2.088c0-1.427-1.08-2.015-2.691-2.015c-0.732,0-1.15,0.057-1.408,0.111V55.397z M52.548,61.294
		c0.328,0.053,0.767,0.071,1.337,0.071c1.647,0,3.165-0.604,3.165-2.398c0-1.665-1.445-2.38-3.186-2.38h-1.316V61.294z"/>
	<path fill="#FF9800" stroke="#FF9800" d="M63.018,51.516h-3.75v-1.354h9.134v1.354h-3.771V62.5h-1.613V51.516z"/>
</g>
<path fill="none" stroke="#FF9800" stroke-width="3" d="M85.928,57.187c0,7.697-3.48,13.935-7.774,13.935h-58.79
	c-4.294,0-7.775-6.237-7.775-13.935l0,0c0-7.703,3.481-13.941,7.775-13.941h58.79C82.448,43.245,85.928,49.483,85.928,57.187
	L85.928,57.187z"/>
</svg>
