<?xml version="1.0" encoding="utf-8"?>
<!-- Generator: Adobe Illustrator 16.0.0, SVG Export Plug-In . SVG Version: 6.00 Build 0)  -->
<!DOCTYPE svg PUBLIC "-//W3C//DTD SVG 1.1//EN" "http://www.w3.org/Graphics/SVG/1.1/DTD/svg11.dtd">
<svg version="1.1" id="Calque_1" xmlns="http://www.w3.org/2000/svg" xmlns:xlink="http://www.w3.org/1999/xlink" x="0px" y="0px"
	 width="97.167px" height="73.924px" viewBox="0 0 97.167 73.924" enable-background="new 0 0 97.167 73.924" xml:space="preserve">
<g>
	<path fill="#FDD835" d="M27.585,22.247"/>
	<path fill="#FDD835" d="M41.406,4.883c0-1.563-1.316-2.829-2.938-2.829c-1.621,0-2.935,1.265-2.935,2.829v3.332v0.001v11.811h5.836
		V8.636c0.021-0.141,0.038-0.28,0.038-0.421V4.883z"/>
	<path fill="#FDD835" d="M65.46,4.883c0-1.563-1.312-2.829-2.933-2.829s-2.937,1.265-2.937,2.829v3.328c0,0.003,0,0.005,0,0.005
		v11.811h5.834V8.636c0.022-0.141,0.035-0.28,0.035-0.424V4.883z"/>
	<path fill="#FDD835" d="M72.622,22.247H27.907v7.688l-0.054,0.013c0,0,0.02,0,0.054,0.004v0.027h0.144
		c0.621,0.177,2.474,1.3,2.474,8.473c0,8.612,10.809,14.352,10.809,14.352h0.003c-0.187,0.445-0.29,0.937-0.29,1.452
		c0,2.017,1.584,3.651,3.541,3.651h11.817c1.954,0,3.542-1.635,3.542-3.651c0-0.59-0.137-1.147-0.38-1.641l0.806,0.084
		c0,0,9.505-5.743,9.505-14.355c0-6.343,1.276-7.952,1.947-8.364h0.796V22.247z"/>
	<rect x="48.348" y="60.484" fill="#FDD835" width="4.295" height="11.385"/>
</g>
</svg>
