<?xml version="1.0" encoding="utf-8"?>
<!-- Generator: Adobe Illustrator 16.0.0, SVG Export Plug-In . SVG Version: 6.00 Build 0)  -->
<!DOCTYPE svg PUBLIC "-//W3C//DTD SVG 1.1//EN" "http://www.w3.org/Graphics/SVG/1.1/DTD/svg11.dtd">
<svg version="1.1" id="Calque_1" xmlns="http://www.w3.org/2000/svg" xmlns:xlink="http://www.w3.org/1999/xlink" x="0px" y="0px"
	 width="97.167px" height="73.924px" viewBox="0 0 97.167 73.924" enable-background="new 0 0 97.167 73.924" xml:space="preserve">
<g>
	<path fill="#FFFFFF" d="M65.803,28.669c-4.735-2.688-10.187-4.288-16.006-4.462V37.43c3.542,0.175,6.863,1.193,9.766,2.876
		L65.803,28.669z"/>
	<path fill="#FFFFFF" d="M38.323,40.049c3.043-1.672,6.527-2.629,10.227-2.66V24.187c-5.977,0.031-11.585,1.57-16.46,4.25
		L38.323,40.049z"/>
	<path fill="#FFFFFF" d="M79.628,43.38l-10.837,7.368c1.153,2.694,1.796,5.669,1.796,8.795c0,0.629-0.041,1.244-0.093,1.86h12.221
		c0.13-1.193,0.205-2.407,0.205-3.639C82.92,52.619,81.738,47.739,79.628,43.38z"/>
	<path fill="#FFFFFF" d="M29.091,49.887l-10.815-7.352c-2.375,4.571-3.722,9.748-3.722,15.229c0,1.231,0.072,2.445,0.204,3.639
		h12.221c-0.05-0.616-0.092-1.231-0.092-1.86C26.885,56.076,27.692,52.81,29.091,49.887z"/>
	<path fill="#FFFFFF" d="M79.019,42.196c-2.811-5.276-7.01-9.718-12.118-12.877l-6.257,11.653c3.214,2.123,5.83,5.081,7.573,8.568
		L79.019,42.196z"/>
	<path fill="#FFFFFF" d="M85.888,39.352l1.785-1.159l-0.797-1.375l-1.713,1.115c-3.33-6.189-8.354-11.421-14.498-15.135l1.597-2.869
		l-1.302-0.82l-1.621,2.92c-5.728-3.181-12.341-5.072-19.401-5.263V13.21h-1.509v3.532c-7.108,0.048-13.786,1.823-19.592,4.899
		l-1.539-2.766l-1.301,0.82l1.495,2.685c-6.076,3.515-11.106,8.497-14.555,14.419l-2.081-1.348l-0.796,1.372l2.109,1.368
		c-2.756,5.222-4.313,11.109-4.313,17.347c0,1.992,0.157,3.952,0.463,5.864h3.881c-0.277-1.728-0.422-3.499-0.422-5.301
		c0-19.373,16.547-35.079,36.959-35.079c20.409,0,36.956,15.706,36.956,35.079c0,1.802-0.144,3.573-0.42,5.301h3.877
		c0.308-1.912,0.466-3.872,0.466-5.864C89.617,49.76,88.276,44.282,85.888,39.352z"/>
	<path fill="#FFFFFF" d="M13.521,61.731c0,0.886-0.665,1.604-1.482,1.604H3.297c-0.817,0-1.482-0.718-1.482-1.604l0,0
		c0-0.889,0.665-1.611,1.482-1.611h8.741C12.855,60.12,13.521,60.843,13.521,61.731L13.521,61.731z"/>
	<path fill="#FFFFFF" d="M96.167,61.731c0,0.886-0.663,1.604-1.484,1.604h-8.74c-0.82,0-1.483-0.718-1.483-1.604l0,0
		c0-0.889,0.663-1.611,1.483-1.611h8.74C95.504,60.12,96.167,60.843,96.167,61.731L96.167,61.731z"/>
	<path fill="#FFFFFF" d="M48.796,52.804c-4.874,0-8.82,4.28-8.82,9.56c0,5.28,3.947,9.561,8.82,9.561
		c4.868,0,8.817-4.28,8.817-9.561C57.614,57.084,53.665,52.804,48.796,52.804z M48.796,66.761c-2.241,0-4.06-1.969-4.06-4.397
		c0-2.431,1.819-4.4,4.06-4.4c2.242,0,4.059,1.97,4.059,4.4C52.855,64.792,51.039,66.761,48.796,66.761z"/>
	<path fill="#FFFFFF" d="M28.205,39.509l5.56,3.929c1.062-1.016,2.224-1.929,3.472-2.716L30.98,29.062
		c-5.023,3.005-9.189,7.252-12.072,12.304l10.783,7.33c0.561-1.013,1.208-1.966,1.915-2.872L28.205,39.509z"/>
	<polyline fill="#FFFFFF" points="40.986,61.259 30.065,41.636 48.101,53.969 	"/>
</g>
</svg>
