<?xml version="1.0" encoding="utf-8"?>
<!-- Generator: Adobe Illustrator 16.0.0, SVG Export Plug-In . SVG Version: 6.00 Build 0)  -->
<!DOCTYPE svg PUBLIC "-//W3C//DTD SVG 1.1//EN" "http://www.w3.org/Graphics/SVG/1.1/DTD/svg11.dtd">
<svg version="1.1" id="Calque_1" xmlns="http://www.w3.org/2000/svg" xmlns:xlink="http://www.w3.org/1999/xlink" x="0px" y="0px"
	 width="97.167px" height="73.924px" viewBox="0 0 97.167 73.924" enable-background="new 0 0 97.167 73.924" xml:space="preserve">
<polygon fill="none" stroke="#3F51B5" stroke-width="2" stroke-linecap="round" stroke-linejoin="round" stroke-miterlimit="1" points="
	54.525,28.176 45.156,28.191 35.783,28.202 40.46,20.708 45.13,13.21 49.829,20.688 "/>
<rect x="36.618" y="61.959" transform="matrix(-0.0026 -1 1 -0.0026 -17.6372 108.2206)" fill="#212121" stroke="#3F51B5" stroke-width="3" width="17.068" height="1.894"/>
<rect x="20.99" y="39.878" transform="matrix(-0.5849 -0.8111 0.8111 -0.5849 24.7353 94.3078)" fill="#212121" stroke="#3F51B5" stroke-width="3" stroke-linecap="round" width="31.022" height="1.893"/>
<ellipse transform="matrix(-0.0025 -1 1 -0.0025 -8.9107 99.4694)" fill="#3F51B5" stroke="#3F51B5" cx="45.153" cy="54.179" rx="4.514" ry="4.333"/>
<rect x="38.967" y="6.986" transform="matrix(-0.0027 -1 1 -0.0027 37.3378 53.1015)" fill="#212121" stroke="#3F51B5" stroke-width="3" width="12.363" height="1.892"/>
<polygon fill="none" points="46.776,26.41 46.764,17.064 43.989,17.079 44.003,26.42 "/>
<text transform="matrix(0.9623 -0.0023 0.0024 1 44.0317 25.5781)" fill="#3F51B5" stroke="#3F51B5" stroke-width="0.5" font-family="'Myriad-Roman'" font-size="10.2099">!</text>
</svg>
