<?xml version="1.0" encoding="utf-8"?>
<!-- Generator: Adobe Illustrator 16.0.0, SVG Export Plug-In . SVG Version: 6.00 Build 0)  -->
<!DOCTYPE svg PUBLIC "-//W3C//DTD SVG 1.1//EN" "http://www.w3.org/Graphics/SVG/1.1/DTD/svg11.dtd">
<svg version="1.1" id="Calque_1" xmlns="http://www.w3.org/2000/svg" xmlns:xlink="http://www.w3.org/1999/xlink" x="0px" y="0px"
	 width="97.167px" height="73.924px" viewBox="0 0 97.167 73.924" enable-background="new 0 0 97.167 73.924" xml:space="preserve">
<g>
	<path fill="#3F51B5" stroke="#3F51B5" d="M51.488,44.883L48.53,42.87l-2.948-2.016l2.965-2.003l2.962-1.999l-0.011,2.721
		l4.065,0.014c0.599,0.008,1.088,0.588,1.086,1.305c-0.009,0.712-0.504,1.286-1.107,1.282l-4.05-0.015L51.488,44.883z"/>
	<path fill="#3F51B5" stroke="#3F51B5" d="M51.483,35.393l-2.809-1.913l-2.798-1.914l2.807-1.903l2.823-1.9l-0.013,2.583
		l3.859,0.014c0.572,0.005,1.039,0.558,1.039,1.24c-0.015,0.676-0.483,1.226-1.062,1.223l-3.846-0.019L51.483,35.393z"/>
</g>
<rect x="36.164" y="62.072" transform="matrix(-0.0025 -1 1 -0.0025 -18.1501 107.9094)" fill="#3F51B5" stroke="#3F51B5" stroke-width="3" width="17.158" height="1.87"/>
<polygon fill="#3F51B5" stroke="#3F51B5" stroke-width="3" stroke-linecap="round" points="27.879,27.605 45.795,52.9 
	44.278,54.015 26.364,28.72 "/>
<ellipse transform="matrix(-0.0025 -1 1 -0.0025 -9.5538 98.938)" fill="#3F51B5" stroke="#3F51B5" cx="44.567" cy="54.234" rx="4.537" ry="4.279"/>
<rect x="36.164" y="9.177" transform="matrix(-0.0026 -1 1 -0.0026 34.7503 54.8811)" fill="#3F51B5" stroke="#3F51B5" stroke-width="3" width="17.158" height="1.868"/>
<ellipse transform="matrix(-0.0027 -1 1 -0.0027 24.4039 64.731)" fill="#3F51B5" stroke="#3F51B5" cx="44.479" cy="20.197" rx="4.537" ry="4.281"/>
</svg>
