<?xml version="1.0" encoding="utf-8"?>
<!-- Generator: Adobe Illustrator 16.0.0, SVG Export Plug-In . SVG Version: 6.00 Build 0)  -->
<!DOCTYPE svg PUBLIC "-//W3C//DTD SVG 1.1//EN" "http://www.w3.org/Graphics/SVG/1.1/DTD/svg11.dtd">
<svg version="1.1" id="Calque_1" xmlns="http://www.w3.org/2000/svg" xmlns:xlink="http://www.w3.org/1999/xlink" x="0px" y="0px"
	 width="97.167px" height="73.924px" viewBox="0 0 97.167 73.924" enable-background="new 0 0 97.167 73.924" xml:space="preserve">
<polygon fill="none" stroke="#FFFFFF" stroke-width="2" stroke-linecap="round" stroke-linejoin="round" stroke-miterlimit="1" points="
	58.287,36.017 48.896,36.031 39.5,36.042 44.188,28.529 48.871,21.014 53.581,28.511 "/>
<rect x="36.028" y="62.338" transform="matrix(-0.0026 -1 1 -0.0026 -18.5887 108.0323)" fill="#212121" stroke="#FFFFFF" stroke-width="3" width="17.11" height="1.898"/>
<rect x="20.363" y="40.204" transform="matrix(-0.5849 -0.8111 0.8111 -0.5849 23.5329 94.35)" fill="#212121" stroke="#FFFFFF" stroke-width="3" stroke-linecap="round" width="31.097" height="1.898"/>
<ellipse transform="matrix(-0.0026 -1 1 -0.0026 -9.8394 99.2632)" fill="#FFFFFF" stroke="#FFFFFF" cx="44.583" cy="54.539" rx="4.524" ry="4.344"/>
<rect x="38.383" y="7.234" transform="matrix(-0.0027 -1 1 -0.0027 36.518 52.7836)" fill="#212121" stroke="#FFFFFF" stroke-width="3" width="12.393" height="1.896"/>
<rect x="45.605" y="26.802" transform="matrix(0.0023 1 -1 0.0023 78.9238 -21.0031)" fill="none" width="8.767" height="4.502"/>
<text transform="matrix(0.9623 -0.0023 0.0024 1 47.772 33.2046)" fill="#FFFFFF" stroke="#FFFFFF" stroke-width="0.5" font-family="'Myriad-Roman'" font-size="10.2341">!</text>
</svg>
