<?xml version="1.0" encoding="utf-8"?>
<!-- Generator: Adobe Illustrator 16.0.0, SVG Export Plug-In . SVG Version: 6.00 Build 0)  -->
<!DOCTYPE svg PUBLIC "-//W3C//DTD SVG 1.1//EN" "http://www.w3.org/Graphics/SVG/1.1/DTD/svg11.dtd">
<svg version="1.1" id="Calque_1" xmlns="http://www.w3.org/2000/svg" xmlns:xlink="http://www.w3.org/1999/xlink" x="0px" y="0px"
	 width="526px" height="248px" viewBox="0 0 526 248" enable-background="new 0 0 526 248" xml:space="preserve">
<g>
	<path fill="#FFFFFF" d="M100.426,174.079h53.347c7.465,0.208,14.83-0.388,22.099-1.8c19.733-5.85,28.258-18.017,25.542-36.503
		c-0.618-2.475-1.571-4.819-2.863-7.046c-3.514-5.376-8.502-9.198-14.976-11.463c4.807-2.182,8.516-5.399,11.136-9.667
		c1.992-4.015,2.776-8.223,2.344-12.616c-0.751-7.342-4.445-13.241-11.049-17.674c-1.896-1.33-3.927-2.484-6.065-3.459
		c-2.993-1.114-6.108-1.839-9.331-2.181c-4.568-0.472-9.129-0.685-13.694-0.64h-56.49V174.079L100.426,174.079z M134.164,130.78
		h19.031c2.752-0.084,5.447,0.254,8.068,1.026c1.893,0.558,3.464,1.558,4.708,3.011c1.136,1.492,1.727,3.117,1.777,4.868
		c0.143,1.833-0.183,3.609-1.005,5.317c-1.037,1.92-2.68,3.268-4.913,4.033c-2.38,0.771-4.841,1.175-7.415,1.219h-0.931h-19.319
		V130.78L134.164,130.78z M134.164,94.473h15.962c2.525-0.047,5,0.185,7.416,0.701c1.521,0.342,2.885,0.96,4.07,1.857
		c1.243,1.023,1.968,2.285,2.209,3.778c0.289,1.795,0.145,3.52-0.421,5.187c-0.712,1.833-2.066,3.141-4.07,3.908
		c-1.717,0.64-3.479,1.021-5.277,1.15c-1.283,0.134-2.55,0.19-3.781,0.19h-16.109V94.473L134.164,94.473z"/>
	<path fill="#FFFFFF" d="M226.192,163.402c0-5.778-5.543-10.467-12.355-10.467c-6.833,0-12.364,4.689-12.364,10.467
		c0,5.793,5.53,10.486,12.364,10.486C220.649,173.888,226.192,169.195,226.192,163.402"/>
	<path fill="#FFFFFF" d="M271.787,173.872l3.409-20.899l-2.816,0.039h-1.448c-0.834,0-1.691-0.028-2.562-0.077
		c-1.253-0.107-2.438-0.422-3.575-0.932c-0.867-0.454-1.473-1.107-1.809-1.972c-0.196-0.538-0.343-1.073-0.4-1.611
		c-0.108-0.937-0.083-1.878,0.084-2.82l4.541-28.232h12.294l2.644-16.191h-12.281l3.625-22.353h-30.359l-3.647,22.353h-11.339
		l-2.644,16.191h11.351l-5.3,32.664c-0.303,1.938-0.544,3.878-0.762,5.844c-0.122,0.776-0.17,1.55-0.134,2.335
		c0.062,1.314,0.229,2.615,0.546,3.896c1.254,4.896,4.369,8.45,9.369,10.682c2.633,1.125,5.385,1.812,8.249,2.049
		c1.821,0.189,3.659,0.267,5.518,0.245c1.436,0,2.874-0.029,4.3-0.079c1.896-0.11,3.763-0.246,5.65-0.403
		C266.801,174.384,269.312,174.14,271.787,173.872"/>
	<path fill="#FFFFFF" d="M288.609,174.079h31.179l11.884-72.902h-31.399L288.609,174.079L288.609,174.079z M301.118,93.122h31.58
		l3.004-20.097h-31.21L301.118,93.122L301.118,93.122z"/>
	<path fill="#FFFFFF" d="M340.728,174.079h27.846l1.714-10.155l1.065,1.693c0.967,1.368,2.073,2.608,3.333,3.706
		c2.74,2.387,5.928,4.146,9.538,5.277c5.267,1.555,10.652,2.089,16.159,1.612c5.167-0.46,9.95-1.926,14.346-4.388
		c4.61-2.579,8.378-5.91,11.3-9.991c1.584-2.255,2.959-4.601,4.13-7.048c0.979-2.176,1.815-4.394,2.465-6.647
		c1.558-5.532,2.342-11.149,2.381-16.875c0-2.47-0.206-4.929-0.632-7.362c-0.445-2.584-1.17-5.083-2.148-7.497
		c-1.679-4.217-4.334-7.839-7.98-10.873c-3.442-2.792-7.426-4.688-11.931-5.683c-4.88-1.052-9.781-1.18-14.708-0.401
		c-3.504,0.567-6.715,1.747-9.614,3.541c-1.569,0.996-3.019,2.123-4.347,3.383l-1.619,1.535l5.965-32.379h-31.253L340.728,174.079
		L340.728,174.079z M377.824,135.894c0.242-1.265,0.545-2.507,0.942-3.746c0.627-2.119,1.569-4.104,2.861-5.956
		c1.171-1.642,2.646-3.027,4.434-4.154c1.532-0.967,3.233-1.553,5.121-1.767c2.064-0.246,4.105-0.098,6.11,0.443
		c1.763,0.51,3.233,1.391,4.431,2.654c1.317,1.395,2.209,2.981,2.69,4.758c0.306,1.067,0.495,2.17,0.585,3.294
		c0.241,2.476,0.117,4.926-0.366,7.376c-0.239,1.178-0.53,2.361-0.894,3.541c-0.65,2.095-1.614,4.083-2.87,5.963
		c-1.186,1.663-2.685,3.071-4.483,4.228c-1.644,1.021-3.467,1.615-5.469,1.772c-2.003,0.216-3.948,0.01-5.833-0.601
		c-1.825-0.622-3.343-1.626-4.576-3.022c-1.28-1.48-2.149-3.128-2.597-4.956c-0.483-2.095-0.64-4.217-0.448-6.364
		C377.485,138.207,377.607,137.054,377.824,135.894"/>
	<g>
		<defs>
			<polyline id="SVGID_1_" points="10.533,235.609 516.62,235.609 516.62,14.828 10.533,14.828 10.533,235.609 			"/>
		</defs>
		<clipPath id="SVGID_2_">
			<use xlink:href="#SVGID_1_"  overflow="visible"/>
		</clipPath>
		<path clip-path="url(#SVGID_2_)" fill="#FFFFFF" d="M20.473,96.329c16.93-29.578,54.903-46.319,86.913-57.364
			c48.601-16.768,101.446-22.599,152.985-22.799c30.028,0.123,59.885,2.377,89.479,7.187c0.673,0.11,3.031,0.965,4.897,1.493
			c-28.807-4.549-57.858-6.733-87.08-6.849c-0.609-0.002-1.221-0.118-1.83-0.289c0.612,0.174,1.221,0.291,1.83,0.289
			c-64.333,0.248-132.037,9.15-189.388,37.96c-33.812,16.987-69.903,48.786-54.25,87.939c7.288,18.231,24.474,31.912,41.314,42.363
			c28.809,17.882,63.257,28.208,96.802,34.621c70.635,13.506,146.28,11.89,216.251-4.151
			c46.287-10.615,115.593-33.421,128.321-82.92c0.731-0.01,7.293,1.841,7.295,1.83c-11.094,43.152-66.053,64.989-106.496,77.16
			c-66.884,20.126-140.57,22.811-209.855,14.312c-47.028-5.771-96.522-17.738-137.14-41.197
			C27.33,166.744-0.47,132.917,20.473,96.329 M354.748,24.846c0.799,0.126,1.6,0.208,2.4,0.337
			C356.903,25.379,355.922,25.176,354.748,24.846"/>
	</g>
</g>
</svg>
