<?xml version="1.0" encoding="utf-8"?>
<!-- Generator: Adobe Illustrator 16.0.0, SVG Export Plug-In . SVG Version: 6.00 Build 0)  -->
<!DOCTYPE svg PUBLIC "-//W3C//DTD SVG 1.1//EN" "http://www.w3.org/Graphics/SVG/1.1/DTD/svg11.dtd">
<svg version="1.1" id="Calque_1" xmlns="http://www.w3.org/2000/svg" xmlns:xlink="http://www.w3.org/1999/xlink" x="0px" y="0px"
	 width="200px" height="200px" viewBox="0 0 200 200" enable-background="new 0 0 200 200" xml:space="preserve">
<g>
	<path fill="#1F183D" d="M75.575,108.266h9.6c1.343,0.037,2.668-0.07,3.976-0.322c3.55-1.053,5.085-3.242,4.594-6.568
		c-0.108-0.446-0.281-0.869-0.513-1.269c-0.632-0.967-1.531-1.654-2.696-2.062c0.866-0.392,1.532-0.972,2.005-1.74
		c0.358-0.722,0.499-1.479,0.422-2.27c-0.136-1.322-0.801-2.383-1.988-3.181c-0.342-0.24-0.707-0.446-1.092-0.622
		c-0.539-0.201-1.099-0.332-1.678-0.393c-0.823-0.083-1.643-0.123-2.464-0.114H75.575V108.266L75.575,108.266z M81.647,100.475
		h3.425c0.493-0.014,0.978,0.047,1.451,0.186c0.34,0.1,0.623,0.279,0.846,0.541c0.204,0.27,0.311,0.561,0.318,0.877
		c0.027,0.328-0.032,0.648-0.179,0.955c-0.187,0.346-0.482,0.59-0.885,0.727c-0.429,0.139-0.871,0.213-1.333,0.219h-0.167h-3.476
		V100.475L81.647,100.475z M81.647,93.942h2.872c0.455-0.008,0.899,0.033,1.334,0.126c0.273,0.062,0.519,0.172,0.732,0.334
		c0.224,0.184,0.355,0.411,0.399,0.68c0.052,0.323,0.024,0.634-0.078,0.934c-0.128,0.329-0.371,0.565-0.731,0.702
		c-0.31,0.116-0.627,0.184-0.95,0.208c-0.232,0.023-0.459,0.034-0.682,0.034h-2.897V93.942L81.647,93.942z"/>
	<path fill="#425FA9" d="M98.205,106.346c0-1.041-0.996-1.885-2.223-1.885c-1.229,0-2.226,0.844-2.226,1.885
		s0.996,1.887,2.226,1.887C97.209,108.232,98.205,107.387,98.205,106.346"/>
	<path fill="#1F183D" d="M106.409,108.229l0.613-3.76l-0.506,0.008h-0.261c-0.151,0-0.305-0.006-0.46-0.016
		c-0.228-0.018-0.439-0.074-0.644-0.168c-0.157-0.08-0.266-0.199-0.326-0.354c-0.036-0.096-0.062-0.193-0.071-0.289
		c-0.021-0.17-0.016-0.338,0.014-0.508l0.818-5.081h2.21l0.477-2.913h-2.209l0.651-4.022h-5.461l-0.656,4.022h-2.04l-0.477,2.913
		h2.043l-0.954,5.878c-0.056,0.348-0.099,0.697-0.138,1.051c-0.022,0.139-0.031,0.279-0.024,0.422
		c0.011,0.236,0.042,0.469,0.1,0.699c0.225,0.881,0.785,1.521,1.685,1.922c0.474,0.203,0.969,0.326,1.484,0.369
		c0.328,0.033,0.658,0.049,0.992,0.043c0.26,0,0.518-0.004,0.775-0.012c0.34-0.021,0.676-0.045,1.017-0.074
		C105.512,108.32,105.963,108.275,106.409,108.229"/>
	<path fill="#1F183D" d="M109.438,108.266h5.609l2.139-13.117h-5.649L109.438,108.266L109.438,108.266z M111.688,93.699h5.683
		l0.54-3.616h-5.616L111.688,93.699L111.688,93.699z"/>
	<path fill="#1F183D" d="M118.814,108.266h5.01l0.31-1.826l0.19,0.305c0.175,0.246,0.373,0.469,0.6,0.666
		c0.494,0.43,1.067,0.746,1.717,0.949c0.948,0.281,1.917,0.377,2.907,0.291c0.931-0.082,1.791-0.348,2.581-0.789
		c0.83-0.465,1.509-1.064,2.034-1.799c0.285-0.406,0.533-0.826,0.743-1.268c0.177-0.391,0.326-0.791,0.444-1.195
		c0.28-0.996,0.422-2.008,0.428-3.037c0-0.445-0.036-0.889-0.113-1.326c-0.081-0.464-0.211-0.915-0.388-1.349
		c-0.303-0.758-0.779-1.411-1.436-1.956c-0.619-0.502-1.336-0.844-2.146-1.023c-0.878-0.189-1.76-0.212-2.646-0.072
		c-0.632,0.103-1.209,0.315-1.729,0.638c-0.283,0.179-0.544,0.382-0.784,0.609l-0.29,0.276l1.074-5.827h-5.625L118.814,108.266
		L118.814,108.266z M125.49,101.395c0.043-0.227,0.098-0.45,0.168-0.673c0.114-0.381,0.283-0.738,0.517-1.071
		c0.209-0.295,0.475-0.544,0.796-0.748c0.276-0.173,0.582-0.279,0.921-0.317c0.373-0.045,0.739-0.018,1.1,0.08
		c0.318,0.091,0.583,0.25,0.798,0.477c0.237,0.252,0.398,0.537,0.485,0.857c0.055,0.191,0.088,0.391,0.104,0.592
		c0.044,0.447,0.021,0.888-0.065,1.328c-0.044,0.211-0.098,0.426-0.161,0.637c-0.118,0.377-0.29,0.734-0.517,1.074
		c-0.213,0.299-0.481,0.551-0.807,0.76c-0.295,0.186-0.624,0.289-0.983,0.318c-0.361,0.039-0.711,0.002-1.05-0.107
		c-0.328-0.111-0.602-0.293-0.823-0.545c-0.23-0.266-0.388-0.562-0.468-0.891c-0.087-0.377-0.115-0.76-0.08-1.146
		C125.428,101.812,125.45,101.604,125.49,101.395"/>
</g>
<radialGradient id="SVGID_1_" cx="271.748" cy="-167.1885" r="53.155" gradientTransform="matrix(0.0052 -1.0683 1.1712 0.0047 294.7529 388.5625)" gradientUnits="userSpaceOnUse">
	<stop  offset="0" style="stop-color:#A595C7"/>
	<stop  offset="0.14" style="stop-color:#907EB2"/>
	<stop  offset="0.3771" style="stop-color:#726197"/>
	<stop  offset="0.6051" style="stop-color:#5D4E86"/>
	<stop  offset="0.8179" style="stop-color:#52447D"/>
	<stop  offset="1" style="stop-color:#4F4079"/>
</radialGradient>
<path fill="url(#SVGID_1_)" d="M79.84,136.039c7.311,3.084,14.943,5.535,22.785,7.215c7.837,1.67,15.895,2.588,23.973,2.441
	c8.057-0.164,16.21-1.365,23.707-4.355c3.734-1.496,7.278-3.465,10.342-5.973c3.066-2.5,5.612-5.557,7.332-8.963
	c1.737-3.402,2.638-7.131,2.748-10.834c0.112-3.713-0.522-7.398-1.664-10.906c-2.314-7.035-6.514-13.366-11.501-18.971
	c-5.01-5.612-10.882-10.526-17.223-14.809c-6.351-4.28-13.188-7.918-20.329-10.935c7.044,3.198,13.754,7.004,19.927,11.415
	c6.169,4.416,11.827,9.434,16.585,15.077c4.733,5.635,8.619,11.933,10.62,18.715c0.99,3.379,1.479,6.875,1.263,10.32
	c-0.205,3.441-1.144,6.824-2.817,9.875c-1.66,3.057-4.044,5.758-6.901,7.963c-2.857,2.209-6.167,3.939-9.671,5.238
	c-7.039,2.598-14.773,3.551-22.439,3.508c-7.682-0.053-15.367-1.127-22.821-2.918c-7.458-1.799-14.702-4.336-21.611-7.469
	c-6.991-2.973-13.682-6.559-19.875-10.754c-6.185-4.197-11.892-9.01-16.733-14.453c-4.815-5.439-8.819-11.551-10.981-18.19
	c-1.071-3.311-1.654-6.747-1.541-10.163c0.107-3.412,0.938-6.796,2.52-9.887c1.572-3.096,3.886-5.871,6.708-8.166
	c2.819-2.301,6.12-4.133,9.636-5.535c7.059-2.802,14.883-3.956,22.663-4.092c7.803-0.129,15.633,0.777,23.264,2.424
	c7.629,1.653,15.075,4.062,22.206,7.091c-7.034-3.21-14.419-5.82-22.048-7.679c-7.622-1.85-15.495-2.974-23.431-3.049
	c-7.912-0.059-15.958,0.896-23.429,3.635c-3.722,1.37-7.276,3.21-10.388,5.607c-3.107,2.388-5.74,5.355-7.573,8.714
	c-1.845,3.353-2.88,7.076-3.111,10.819c-0.24,3.749,0.283,7.505,1.328,11.1c2.113,7.209,6.167,13.772,11.05,19.616
	c4.912,5.857,10.72,11.031,17.042,15.576C65.778,128.834,72.638,132.748,79.84,136.039z"/>
<radialGradient id="SVGID_2_" cx="87.0762" cy="112.0664" r="52.1761" gradientTransform="matrix(1.0322 0 0 1.0683 13.1094 -18.7656)" gradientUnits="userSpaceOnUse">
	<stop  offset="0" style="stop-color:#A595C7"/>
	<stop  offset="0.14" style="stop-color:#907EB2"/>
	<stop  offset="0.3771" style="stop-color:#726197"/>
	<stop  offset="0.6051" style="stop-color:#5D4E86"/>
	<stop  offset="0.8179" style="stop-color:#52447D"/>
	<stop  offset="1" style="stop-color:#4F4079"/>
</radialGradient>
<path fill="url(#SVGID_2_)" d="M66.33,82.755c-2.897,6.56-5.193,13.405-6.755,20.432c-1.556,7.023-2.396,14.24-2.224,21.475
	c0.185,7.209,1.354,14.504,4.219,21.205c1.433,3.336,3.314,6.502,5.706,9.232c2.382,2.732,5.292,5,8.53,6.525
	c3.233,1.541,6.771,2.332,10.286,2.414c3.521,0.086,7.012-0.502,10.334-1.543c6.661-2.1,12.654-5.887,17.95-10.373
	c5.303-4.512,9.943-9.789,13.979-15.486c4.032-5.701,7.461-11.842,10.291-18.246c-3.002,6.318-6.589,12.342-10.749,17.891
	c-4.161,5.539-8.901,10.629-14.235,14.914c-5.325,4.26-11.284,7.768-17.708,9.586c-3.204,0.904-6.516,1.357-9.786,1.18
	c-3.264-0.172-6.475-0.998-9.376-2.48c-2.904-1.475-5.476-3.598-7.579-6.146c-2.107-2.549-3.759-5.502-5.005-8.635
	c-2.49-6.291-3.427-13.213-3.414-20.074c0.021-6.883,1.01-13.764,2.68-20.445c1.68-6.685,4.056-13.182,7.001-19.381
	c2.793-6.271,6.168-12.279,10.122-17.842c3.959-5.556,8.499-10.685,13.646-15.042c5.141-4.335,10.921-7.947,17.208-9.912
	c3.137-0.974,6.394-1.51,9.633-1.423c3.236,0.083,6.449,0.809,9.385,2.214c2.944,1.394,5.585,3.453,7.772,5.97
	c2.195,2.513,3.945,5.459,5.287,8.6c2.688,6.308,3.812,13.309,3.972,20.272c0.15,6.987-0.68,14-2.211,20.839
	c-1.539,6.842-3.797,13.516-6.644,19.916c3.02-6.314,5.467-12.939,7.202-19.773c1.728-6.834,2.76-13.887,2.799-20.992
	c0.026-7.086-0.908-14.285-3.534-20.962c-1.313-3.323-3.074-6.5-5.359-9.271c-2.276-2.775-5.104-5.118-8.296-6.744
	c-3.186-1.639-6.722-2.549-10.271-2.741c-3.557-0.198-7.116,0.286-10.521,1.239c-6.832,1.924-13.04,5.581-18.565,9.979
	c-5.534,4.422-10.418,9.646-14.707,15.323C73.109,70.133,69.422,76.292,66.33,82.755z"/>
<radialGradient id="SVGID_3_" cx="251.2129" cy="-190.6748" r="53.1547" gradientTransform="matrix(-0.5782 -0.7262 0.9157 -0.7302 414.8506 142.2168)" gradientUnits="userSpaceOnUse">
	<stop  offset="0" style="stop-color:#A595C7"/>
	<stop  offset="0.14" style="stop-color:#907EB2"/>
	<stop  offset="0.3771" style="stop-color:#726197"/>
	<stop  offset="0.6051" style="stop-color:#5D4E86"/>
	<stop  offset="0.8179" style="stop-color:#52447D"/>
	<stop  offset="1" style="stop-color:#4F4079"/>
</radialGradient>
<path fill="url(#SVGID_3_)" d="M100.023,137.967c7.38-2.488,14.667-5.613,21.695-9.385c7.023-3.779,13.802-8.203,20.022-13.361
	c6.192-5.152,11.896-11.072,16.112-17.792c2.092-3.349,3.784-6.9,4.809-10.518c1.022-3.609,1.344-7.274,0.83-10.656
	c-0.499-3.391-1.829-6.479-3.763-9.052c-1.933-2.587-4.442-4.68-7.24-6.337c-5.637-3.312-12.366-4.968-19.305-5.643
	c-6.967-0.659-14.223-0.309-21.5,0.765c-7.28,1.079-14.598,2.9-21.807,5.328c7.231-2.246,14.538-3.87,21.757-4.752
	c7.214-0.875,14.363-1.021,21.145-0.181c6.76,0.851,13.227,2.68,18.481,6.015c2.614,1.667,4.898,3.728,6.607,6.194
	c1.717,2.46,2.827,5.333,3.186,8.448c0.369,3.11-0.014,6.43-1.042,9.712c-1.026,3.283-2.661,6.527-4.686,9.599
	c-4.071,6.167-9.581,11.656-15.582,16.427c-6.021,4.775-12.597,8.857-19.384,12.314c-6.797,3.451-13.826,6.273-20.919,8.479
	c-7.072,2.365-14.242,4.131-21.358,5.168c-7.109,1.033-14.18,1.35-20.923,0.695c-6.716-0.664-13.168-2.295-18.473-5.434
	c-2.641-1.57-4.964-3.529-6.74-5.914c-1.776-2.377-2.972-5.186-3.423-8.27c-0.459-3.078-0.169-6.406,0.779-9.725
	c0.944-3.324,2.519-6.629,4.495-9.78c3.979-6.317,9.449-11.998,15.439-16.962c6.015-4.972,12.612-9.263,19.459-12.926
	c6.851-3.662,13.967-6.691,21.18-9.109c-7.237,2.232-14.415,5.092-21.376,8.61c-6.952,3.52-13.703,7.69-19.929,12.609
	c-6.204,4.913-11.955,10.6-16.289,17.131c-2.152,3.256-3.92,6.729-5.04,10.299c-1.122,3.562-1.559,7.219-1.157,10.639
	c0.388,3.426,1.612,6.594,3.47,9.271c1.856,2.686,4.312,4.902,7.086,6.678c5.575,3.559,12.314,5.463,19.305,6.359
	c7.021,0.889,14.368,0.752,21.774-0.129C85.133,141.896,92.615,140.248,100.023,137.967z"/>
<defs>
	<filter id="Adobe_OpacityMaskFilter" filterUnits="userSpaceOnUse" x="49.064" y="61.351" width="41.497" height="37.852">
		<feColorMatrix  type="matrix" values="1 0 0 0 0  0 1 0 0 0  0 0 1 0 0  0 0 0 1 0"/>
	</filter>
</defs>
<mask maskUnits="userSpaceOnUse" x="49.064" y="61.351" width="41.497" height="37.852" id="SVGID_4_">
	<g filter="url(#Adobe_OpacityMaskFilter)">
		
			<radialGradient id="SVGID_5_" cx="32.9561" cy="193.8672" r="17.7124" gradientTransform="matrix(-0.9521 -0.6223 0.6822 -0.8684 -31.0669 269.1396)" gradientUnits="userSpaceOnUse">
			<stop  offset="0" style="stop-color:#FFFFFF"/>
			<stop  offset="0.2606" style="stop-color:#C1C1C1"/>
			<stop  offset="0.8601" style="stop-color:#262727"/>
			<stop  offset="1" style="stop-color:#010202"/>
		</radialGradient>
		<path fill="url(#SVGID_5_)" d="M52.946,69.257c6.678-8.5,19.633-10.452,28.949-4.363c9.315,6.087,11.455,17.907,4.78,26.403
			c-6.671,8.496-19.634,10.45-28.948,4.361C48.415,89.57,46.275,77.757,52.946,69.257z"/>
	</g>
</mask>
<path mask="url(#SVGID_4_)" fill="#FFFFFF" d="M52.946,69.257c6.678-8.5,19.633-10.452,28.949-4.363
	c9.315,6.087,11.455,17.907,4.78,26.403c-6.671,8.496-19.634,10.45-28.948,4.361C48.415,89.57,46.275,77.757,52.946,69.257z"/>
<defs>
	<filter id="Adobe_OpacityMaskFilter_1_" filterUnits="userSpaceOnUse" x="135.154" y="117.278" width="41.496" height="37.851">
		<feColorMatrix  type="matrix" values="1 0 0 0 0  0 1 0 0 0  0 0 1 0 0  0 0 0 1 0"/>
	</filter>
</defs>
<mask maskUnits="userSpaceOnUse" x="135.154" y="117.278" width="41.496" height="37.851" id="SVGID_6_">
	<g filter="url(#Adobe_OpacityMaskFilter_1_)">
		
			<radialGradient id="SVGID_7_" cx="-57.2788" cy="194.1289" r="17.7122" gradientTransform="matrix(-0.9521 -0.6223 0.6822 -0.8684 -31.0669 269.1396)" gradientUnits="userSpaceOnUse">
			<stop  offset="0" style="stop-color:#FFFFFF"/>
			<stop  offset="0.2606" style="stop-color:#C1C1C1"/>
			<stop  offset="0.8601" style="stop-color:#262727"/>
			<stop  offset="1" style="stop-color:#010202"/>
		</radialGradient>
		<path fill="url(#SVGID_7_)" d="M139.037,125.184c6.675-8.498,19.633-10.451,28.95-4.363c9.314,6.09,11.453,17.908,4.777,26.404
			c-6.67,8.496-19.635,10.449-28.946,4.359C134.505,145.496,132.365,133.684,139.037,125.184z"/>
	</g>
</mask>
<path mask="url(#SVGID_6_)" fill="#FFFFFF" d="M139.037,125.184c6.675-8.498,19.633-10.451,28.95-4.363
	c9.314,6.09,11.453,17.908,4.777,26.404c-6.67,8.496-19.635,10.449-28.946,4.359C134.505,145.496,132.365,133.684,139.037,125.184z"
	/>
<defs>
	<filter id="Adobe_OpacityMaskFilter_2_" filterUnits="userSpaceOnUse" x="28.316" y="121.267" width="41.497" height="37.852">
		<feColorMatrix  type="matrix" values="1 0 0 0 0  0 1 0 0 0  0 0 1 0 0  0 0 0 1 0"/>
	</filter>
</defs>
<mask maskUnits="userSpaceOnUse" x="28.316" y="121.267" width="41.497" height="37.852" id="SVGID_8_">
	<g filter="url(#Adobe_OpacityMaskFilter_2_)">
		
			<radialGradient id="SVGID_9_" cx="14.6909" cy="137.9609" r="17.7122" gradientTransform="matrix(-0.9521 -0.6223 0.6822 -0.8684 -31.0669 269.1396)" gradientUnits="userSpaceOnUse">
			<stop  offset="0" style="stop-color:#FFFFFF"/>
			<stop  offset="0.2606" style="stop-color:#C1C1C1"/>
			<stop  offset="0.8601" style="stop-color:#262727"/>
			<stop  offset="1" style="stop-color:#010202"/>
		</radialGradient>
		<path fill="url(#SVGID_9_)" d="M32.198,129.172c6.679-8.5,19.634-10.451,28.949-4.361c9.317,6.088,11.455,17.906,4.779,26.402
			c-6.67,8.496-19.634,10.451-28.946,4.361C27.667,149.484,25.528,137.672,32.198,129.172z"/>
	</g>
</mask>
<path mask="url(#SVGID_8_)" fill="#FFFFFF" d="M32.198,129.172c6.679-8.5,19.634-10.451,28.949-4.361
	c9.317,6.088,11.455,17.906,4.779,26.402c-6.67,8.496-19.634,10.451-28.946,4.361C27.667,149.484,25.528,137.672,32.198,129.172z"/>
<defs>
	<filter id="Adobe_OpacityMaskFilter_3_" filterUnits="userSpaceOnUse" x="136.517" y="46.652" width="41.498" height="37.85">
		<feColorMatrix  type="matrix" values="1 0 0 0 0  0 1 0 0 0  0 0 1 0 0  0 0 0 1 0"/>
	</filter>
</defs>
<mask maskUnits="userSpaceOnUse" x="136.517" y="46.652" width="41.498" height="37.85" id="SVGID_10_">
	<g filter="url(#Adobe_OpacityMaskFilter_3_)">
		
			<radialGradient id="SVGID_11_" cx="-19.7207" cy="248.543" r="17.7119" gradientTransform="matrix(-0.9521 -0.6223 0.6822 -0.8684 -31.0669 269.1396)" gradientUnits="userSpaceOnUse">
			<stop  offset="0" style="stop-color:#FFFFFF"/>
			<stop  offset="0.2606" style="stop-color:#C1C1C1"/>
			<stop  offset="0.8601" style="stop-color:#262727"/>
			<stop  offset="1" style="stop-color:#010202"/>
		</radialGradient>
		<path fill="url(#SVGID_11_)" d="M140.399,54.559c6.678-8.5,19.633-10.451,28.95-4.363c9.315,6.088,11.455,17.907,4.778,26.402
			c-6.67,8.495-19.633,10.451-28.945,4.361C135.867,74.872,133.728,63.057,140.399,54.559z"/>
	</g>
</mask>
<path mask="url(#SVGID_10_)" fill="#FFFFFF" d="M140.399,54.559c6.678-8.5,19.633-10.451,28.95-4.363
	c9.315,6.088,11.455,17.907,4.778,26.402c-6.67,8.495-19.633,10.451-28.945,4.361C135.867,74.872,133.728,63.057,140.399,54.559z"/>
<defs>
	<filter id="Adobe_OpacityMaskFilter_4_" filterUnits="userSpaceOnUse" x="21.986" y="39.673" width="41.496" height="37.851">
		<feColorMatrix  type="matrix" values="1 0 0 0 0  0 1 0 0 0  0 0 1 0 0  0 0 0 1 0"/>
	</filter>
</defs>
<mask maskUnits="userSpaceOnUse" x="21.986" y="39.673" width="41.496" height="37.851" id="SVGID_12_">
	<g filter="url(#Adobe_OpacityMaskFilter_4_)">
		
			<radialGradient id="SVGID_13_" cx="63.5674" cy="196.8945" r="17.7124" gradientTransform="matrix(-0.9521 -0.6223 0.6822 -0.8684 -31.0669 269.1396)" gradientUnits="userSpaceOnUse">
			<stop  offset="0" style="stop-color:#FFFFFF"/>
			<stop  offset="0.2606" style="stop-color:#C1C1C1"/>
			<stop  offset="0.8601" style="stop-color:#262727"/>
			<stop  offset="1" style="stop-color:#010202"/>
		</radialGradient>
		<path fill="url(#SVGID_13_)" d="M25.867,47.579c6.676-8.5,19.633-10.45,28.95-4.363c9.316,6.089,11.456,17.906,4.779,26.404
			c-6.67,8.495-19.635,10.45-28.948,4.36C21.337,67.893,19.196,56.077,25.867,47.579z"/>
	</g>
</mask>
<path mask="url(#SVGID_12_)" fill="#FFFFFF" d="M25.867,47.579c6.676-8.5,19.633-10.45,28.95-4.363
	c9.316,6.089,11.456,17.906,4.779,26.404c-6.67,8.495-19.635,10.45-28.948,4.36C21.337,67.893,19.196,56.077,25.867,47.579z"/>
<g>
	
		<radialGradient id="SVGID_14_" cx="91.2427" cy="69.3726" r="3.2186" gradientTransform="matrix(1.1712 0 0 1.0683 3.8125 -18.7656)" gradientUnits="userSpaceOnUse">
		<stop  offset="0" style="stop-color:#CACCE8"/>
		<stop  offset="0.1464" style="stop-color:#908CAD"/>
		<stop  offset="0.2942" style="stop-color:#665D82"/>
		<stop  offset="0.4423" style="stop-color:#483E64"/>
		<stop  offset="0.5882" style="stop-color:#342A50"/>
		<stop  offset="0.7313" style="stop-color:#281F45"/>
		<stop  offset="0.8701" style="stop-color:#211A3F"/>
		<stop  offset="1" style="stop-color:#1F183D"/>
	</radialGradient>
	<path fill="url(#SVGID_14_)" d="M114.574,56.173c0,1.615-1.436,2.922-3.205,2.922c-1.767,0-3.203-1.307-3.203-2.922
		c0-1.611,1.437-2.921,3.203-2.921C113.139,53.252,114.574,54.562,114.574,56.173z"/>
	<g opacity="0.3">
		
			<radialGradient id="SVGID_15_" cx="94.1338" cy="69.4746" r="0.0758" gradientTransform="matrix(1.1712 0 0 1.0683 3.8125 -18.7656)" gradientUnits="userSpaceOnUse">
			<stop  offset="0" style="stop-color:#CACCE8"/>
			<stop  offset="0.1464" style="stop-color:#908CAD"/>
			<stop  offset="0.2942" style="stop-color:#665D82"/>
			<stop  offset="0.4423" style="stop-color:#483E64"/>
			<stop  offset="0.5882" style="stop-color:#342A50"/>
			<stop  offset="0.7313" style="stop-color:#281F45"/>
			<stop  offset="0.8701" style="stop-color:#211A3F"/>
			<stop  offset="1" style="stop-color:#1F183D"/>
		</radialGradient>
		<path fill="url(#SVGID_15_)" d="M114.023,55.563c0.031-0.017,0.064-0.025,0.1-0.031c-0.006-0.023-0.017-0.042-0.019-0.066
			c-0.003-0.025,0.009-0.047,0.014-0.072C114.104,55.461,114.073,55.519,114.023,55.563z"/>
		
			<radialGradient id="SVGID_16_" cx="91.2456" cy="69.3726" r="3.2117" gradientTransform="matrix(1.1712 0 0 1.0683 3.8125 -18.7656)" gradientUnits="userSpaceOnUse">
			<stop  offset="0" style="stop-color:#CACCE8"/>
			<stop  offset="0.1464" style="stop-color:#908CAD"/>
			<stop  offset="0.2942" style="stop-color:#665D82"/>
			<stop  offset="0.4423" style="stop-color:#483E64"/>
			<stop  offset="0.5882" style="stop-color:#342A50"/>
			<stop  offset="0.7313" style="stop-color:#281F45"/>
			<stop  offset="0.8701" style="stop-color:#211A3F"/>
			<stop  offset="1" style="stop-color:#1F183D"/>
		</radialGradient>
		<path fill="url(#SVGID_16_)" d="M109.258,54.176c-0.053,0.065-0.127,0.106-0.207,0.12c0.122-0.019,0.251,0.023,0.326,0.121
			c0.039,0.054,0.054,0.119,0.049,0.18c0.019-0.004,0.038-0.003,0.055-0.004c-0.003-0.03-0.005-0.064,0-0.098
			c0.037-0.17,0.215-0.281,0.396-0.248c0.184,0.032,0.3,0.196,0.264,0.365c-0.031,0.151-0.182,0.25-0.342,0.247
			c0.03,0.041,0.053,0.087,0.063,0.139c0.01,0.06-0.005,0.117-0.025,0.169c0.153,0.018,0.284,0.122,0.313,0.27
			c0.035,0.18-0.097,0.353-0.293,0.385c-0.063,0.01-0.126,0-0.182-0.02c0.003,0.014,0.007,0.026,0.007,0.04
			c0.032,0.023,0.06,0.051,0.081,0.083c0.089,0.141,0.035,0.323-0.119,0.409c-0.155,0.087-0.355,0.041-0.445-0.099
			c-0.005-0.011-0.005-0.023-0.012-0.034c-0.017-0.004-0.031-0.002-0.048-0.008c-0.035-0.017-0.066-0.039-0.095-0.062
			c-0.078,0.036-0.172,0.047-0.261,0.023c-0.189-0.052-0.296-0.235-0.241-0.41c0.041-0.119,0.148-0.201,0.273-0.225
			c-0.025-0.009-0.052-0.016-0.073-0.028c-0.136-0.083-0.172-0.256-0.077-0.384c0.09-0.127,0.275-0.163,0.41-0.078
			c0.022,0.013,0.037,0.031,0.052,0.049c-0.004-0.06,0.01-0.116,0.033-0.166c0-0.011,0.005-0.021,0.005-0.032
			c-0.127,0.024-0.262-0.018-0.338-0.119c-0.099-0.134-0.061-0.321,0.089-0.416c0.039-0.022,0.079-0.04,0.122-0.046
			c-0.038,0.006-0.077,0.005-0.116-0.003c-0.073,0.079-0.151,0.152-0.217,0.24c-0.004,0.003-0.005,0.009-0.01,0.013
			c-0.248,0.333-0.41,0.724-0.488,1.14c0.082,0.012,0.163,0.042,0.222,0.099c0.056,0.049,0.081,0.111,0.096,0.173
			c0.028,0.036,0.048,0.078,0.057,0.126c0.027,0.166-0.092,0.32-0.271,0.345c-0.045,0.006-0.089,0.004-0.131-0.006
			c0.072,0.74,0.436,1.403,1,1.88c-0.041-0.051-0.069-0.108-0.072-0.175c-0.006-0.134,0.081-0.25,0.208-0.303
			c-0.144-0.097-0.203-0.268-0.132-0.425c0.003-0.005,0.01-0.007,0.01-0.013c-0.121,0.095-0.297,0.105-0.423,0.008
			c-0.146-0.108-0.167-0.307-0.049-0.44c0.017-0.015,0.033-0.026,0.052-0.038c-0.118-0.046-0.205-0.143-0.218-0.267
			c-0.019-0.177,0.126-0.336,0.322-0.355c0.197-0.017,0.375,0.113,0.389,0.291c0.012,0.117-0.05,0.221-0.144,0.288
			c0.023,0.009,0.052,0.018,0.073,0.036c0.122,0.092,0.149,0.241,0.089,0.368c0.109-0.089,0.271-0.118,0.41-0.063
			c0.199,0.078,0.291,0.288,0.206,0.467c-0.012,0.024-0.033,0.042-0.047,0.061c0.11,0,0.214,0.043,0.29,0.117
			c0.011-0.033,0.026-0.067,0.051-0.097c0.112-0.133,0.32-0.158,0.466-0.055c0.029,0.021,0.049,0.046,0.066,0.071
			c0-0.017-0.002-0.035-0.002-0.052c0.014-0.079,0.062-0.147,0.119-0.2c-0.046-0.039-0.077-0.088-0.098-0.141
			c-0.031,0.008-0.064,0.016-0.1,0.013c-0.16-0.008-0.281-0.128-0.298-0.273c-0.012,0.002-0.021,0.013-0.035,0.015
			c-0.115,0.021-0.227-0.022-0.302-0.098c-0.048,0.003-0.095-0.005-0.145-0.02c-0.205-0.067-0.309-0.273-0.233-0.458
			c0.04-0.105,0.132-0.177,0.238-0.212c0-0.007-0.005-0.016-0.005-0.023c0.02-0.191,0.2-0.333,0.409-0.317
			c0.004,0,0.007,0.003,0.009,0.003c-0.04-0.148,0.031-0.306,0.187-0.377c0.182-0.084,0.399-0.018,0.488,0.146
			c0.093,0.163,0.017,0.364-0.165,0.445c-0.059,0.029-0.127,0.034-0.191,0.03c0.015,0.04,0.021,0.084,0.017,0.128
			c-0.007,0.103-0.069,0.188-0.153,0.246c0.045,0.042,0.082,0.091,0.095,0.152c0.002,0.008,0,0.014,0,0.021
			c0.04-0.012,0.083-0.02,0.128-0.017c0.11,0.008,0.195,0.067,0.251,0.146c0.141-0.061,0.313-0.046,0.438,0.057
			c0.161,0.133,0.173,0.361,0.026,0.507c-0.01,0.008-0.017,0.01-0.026,0.016c0.097,0.08,0.152,0.192,0.133,0.316
			c-0.036,0.197-0.235,0.333-0.451,0.303c-0.12-0.015-0.216-0.081-0.273-0.167c-0.003,0.06-0.021,0.119-0.062,0.168
			c-0.111,0.135-0.321,0.159-0.468,0.055c-0.007-0.004-0.012-0.014-0.019-0.021c-0.023,0.118-0.104,0.222-0.233,0.271
			c-0.128,0.05-0.263,0.025-0.371-0.04c-0.046,0.023-0.099,0.04-0.158,0.041c-0.051,0-0.101-0.009-0.146-0.025
			c0.347,0.259,0.749,0.454,1.196,0.563c0.037-0.116,0.132-0.215,0.269-0.249c0.215-0.055,0.438,0.058,0.496,0.255
			c0.011,0.032,0.008,0.067,0.008,0.1c0.021,0,0.037,0.005,0.054,0.005c0.099,0,0.192-0.018,0.288-0.025
			c-0.019-0.049-0.027-0.1-0.02-0.152c0.001-0.01,0.009-0.02,0.012-0.031c-0.042-0.023-0.077-0.052-0.104-0.094
			c-0.077-0.131-0.018-0.297,0.13-0.371c0.146-0.072,0.326-0.027,0.404,0.105c0.016,0.03,0.023,0.06,0.028,0.093
			c0.035,0.007,0.071,0.014,0.104,0.03c0.009-0.031,0.021-0.062,0.045-0.092c0.08-0.102,0.211-0.148,0.335-0.132
			c0.017-0.049,0.045-0.095,0.09-0.127c0.117-0.08,0.283-0.056,0.369,0.056c0.031,0.041,0.044,0.089,0.046,0.136
			c0.017,0.012,0.033,0.018,0.049,0.032c0.016,0.016,0.024,0.037,0.038,0.057c0.385-0.242,0.7-0.562,0.938-0.932
			c-0.01-0.044-0.01-0.089,0.005-0.135c0.019-0.053,0.058-0.091,0.104-0.122c-0.07-0.113-0.062-0.252,0.022-0.361
			c-0.034-0.031-0.064-0.068-0.079-0.115c-0.045-0.145,0.043-0.3,0.198-0.341c0.055-0.014,0.106-0.01,0.158,0.002
			c0.021-0.132,0.045-0.267,0.045-0.405c0-0.007-0.002-0.016-0.005-0.024c-0.108,0.017-0.222-0.007-0.307-0.068
			c-0.102,0.027-0.213,0.013-0.293-0.057c-0.125-0.104-0.132-0.286-0.013-0.405c0.004-0.004,0.01-0.005,0.013-0.011
			c-0.06,0.035-0.128,0.056-0.207,0.054c-0.197-0.011-0.348-0.163-0.337-0.341c0.012-0.178,0.183-0.315,0.379-0.304
			c0.193,0.011,0.34,0.156,0.334,0.328c0.037-0.095,0.113-0.173,0.216-0.212c-0.219-0.524-0.6-0.973-1.087-1.302
			c-0.035,0.021-0.075,0.036-0.12,0.042c-0.166,0.023-0.324-0.077-0.349-0.228c-0.004-0.026,0.002-0.048,0.004-0.07
			c-0.433-0.199-0.916-0.323-1.434-0.323c-0.02,0-0.037,0.005-0.06,0.005c0.111,0.105,0.13,0.265,0.032,0.388
			c-0.107,0.136-0.315,0.168-0.464,0.073c-0.142-0.096-0.172-0.277-0.075-0.413c-0.56,0.091-1.065,0.319-1.48,0.64
			C109.324,54.022,109.312,54.106,109.258,54.176z M111.909,55.631c0.043-0.16,0.219-0.26,0.393-0.221
			c0.174,0.041,0.277,0.199,0.232,0.362c-0.045,0.161-0.22,0.262-0.393,0.222C111.969,55.955,111.864,55.793,111.909,55.631z
			 M112.769,57.215c-0.146,0.138-0.388,0.144-0.539,0.012c-0.15-0.133-0.155-0.354-0.009-0.494c0.148-0.137,0.388-0.143,0.539-0.01
			C112.912,56.857,112.914,57.076,112.769,57.215z M112.714,55.996c0.019-0.062,0.057-0.11,0.104-0.149
			c-0.055-0.033-0.107-0.07-0.139-0.126c-0.103-0.171-0.032-0.387,0.154-0.481c0.189-0.094,0.426-0.032,0.527,0.141
			c0.094,0.153,0.044,0.337-0.104,0.442c0.104,0.072,0.16,0.193,0.13,0.318c-0.045,0.165-0.23,0.267-0.418,0.228
			C112.786,56.331,112.669,56.164,112.714,55.996z M113.733,57.934c-0.01,0.177-0.174,0.313-0.373,0.307
			c-0.198-0.008-0.35-0.159-0.342-0.336c0.011-0.178,0.177-0.316,0.373-0.307C113.59,57.605,113.743,57.755,113.733,57.934z
			 M111.335,54.652c0.188,0.017,0.325,0.156,0.331,0.321c0.009-0.013,0.019-0.026,0.031-0.037c-0.002-0.002-0.006-0.003-0.006-0.007
			c-0.124-0.141-0.092-0.349,0.064-0.461c0.04-0.028,0.085-0.048,0.132-0.06c-0.059-0.05-0.104-0.115-0.113-0.195
			c-0.006-0.05,0.002-0.1,0.021-0.146c-0.015-0.037-0.021-0.075-0.02-0.117c0.015-0.152,0.156-0.269,0.321-0.26
			c0.017,0,0.033,0.009,0.049,0.013c0.121-0.087,0.292-0.095,0.409-0.002c0.059,0.047,0.092,0.111,0.104,0.177
			c0.026-0.001,0.046-0.007,0.071-0.005c0.153,0.018,0.26,0.151,0.238,0.296c0,0.002-0.002,0.004-0.002,0.005
			c0.098-0.001,0.193,0.03,0.269,0.094c0.046,0.042,0.074,0.092,0.092,0.142c0.005,0,0.01-0.002,0.01-0.002
			c0.198-0.025,0.38,0.098,0.406,0.275c0.028,0.178-0.108,0.341-0.307,0.365c-0.164,0.023-0.314-0.067-0.373-0.199
			c-0.125,0.027-0.258,0.007-0.355-0.079c-0.114-0.101-0.143-0.253-0.084-0.381c-0.064-0.015-0.121-0.048-0.158-0.096
			c-0.042,0.096-0.132,0.168-0.249,0.194c0.013,0.012,0.032,0.019,0.046,0.037c0.114,0.132,0.091,0.322-0.046,0.438
			c0.058,0.084,0.069,0.19,0.022,0.289c-0.079,0.152-0.276,0.216-0.438,0.147c-0.109-0.047-0.169-0.143-0.18-0.249
			c-0.068,0.11-0.203,0.18-0.354,0.169c-0.201-0.019-0.35-0.18-0.334-0.365C110.953,54.771,111.132,54.635,111.335,54.652z
			 M110.925,54.113c0.188,0.004,0.335,0.145,0.33,0.316c-0.007,0.173-0.163,0.311-0.351,0.308c-0.188-0.002-0.334-0.145-0.328-0.317
			C110.581,54.248,110.738,54.111,110.925,54.113z M110.278,54.867c0.147-0.1,0.354-0.073,0.461,0.06
			c0.105,0.134,0.072,0.321-0.079,0.418c-0.148,0.1-0.355,0.072-0.46-0.061C110.094,55.152,110.129,54.965,110.278,54.867z"/>
	</g>
</g>
<g>
	
		<radialGradient id="SVGID_17_" cx="34.7495" cy="118.8018" r="5.0575" gradientTransform="matrix(1.1712 0 0 1.0683 3.8125 -18.7656)" gradientUnits="userSpaceOnUse">
		<stop  offset="0" style="stop-color:#CACCE8"/>
		<stop  offset="0.1464" style="stop-color:#908CAD"/>
		<stop  offset="0.2942" style="stop-color:#665D82"/>
		<stop  offset="0.4423" style="stop-color:#483E64"/>
		<stop  offset="0.5882" style="stop-color:#342A50"/>
		<stop  offset="0.7313" style="stop-color:#281F45"/>
		<stop  offset="0.8701" style="stop-color:#211A3F"/>
		<stop  offset="1" style="stop-color:#1F183D"/>
	</radialGradient>
	<ellipse fill="url(#SVGID_17_)" cx="45.6" cy="109.451" rx="5.034" ry="4.594"/>
	<g opacity="0.3">
		
			<radialGradient id="SVGID_18_" cx="39.2935" cy="118.9609" r="0.118" gradientTransform="matrix(1.1712 0 0 1.0683 3.8125 -18.7656)" gradientUnits="userSpaceOnUse">
			<stop  offset="0" style="stop-color:#CACCE8"/>
			<stop  offset="0.1464" style="stop-color:#908CAD"/>
			<stop  offset="0.2942" style="stop-color:#665D82"/>
			<stop  offset="0.4423" style="stop-color:#483E64"/>
			<stop  offset="0.5882" style="stop-color:#342A50"/>
			<stop  offset="0.7313" style="stop-color:#281F45"/>
			<stop  offset="0.8701" style="stop-color:#211A3F"/>
			<stop  offset="1" style="stop-color:#1F183D"/>
		</radialGradient>
		<path fill="url(#SVGID_18_)" d="M49.773,108.49c0.045-0.023,0.099-0.037,0.154-0.049c-0.009-0.031-0.026-0.062-0.027-0.102
			c-0.004-0.039,0.01-0.076,0.019-0.113C49.9,108.33,49.848,108.42,49.773,108.49z"/>
		
			<radialGradient id="SVGID_19_" cx="34.7534" cy="118.8018" r="5.0472" gradientTransform="matrix(1.1712 0 0 1.0683 3.8125 -18.7656)" gradientUnits="userSpaceOnUse">
			<stop  offset="0" style="stop-color:#CACCE8"/>
			<stop  offset="0.1464" style="stop-color:#908CAD"/>
			<stop  offset="0.2942" style="stop-color:#665D82"/>
			<stop  offset="0.4423" style="stop-color:#483E64"/>
			<stop  offset="0.5882" style="stop-color:#342A50"/>
			<stop  offset="0.7313" style="stop-color:#281F45"/>
			<stop  offset="0.8701" style="stop-color:#211A3F"/>
			<stop  offset="1" style="stop-color:#1F183D"/>
		</radialGradient>
		<path fill="url(#SVGID_19_)" d="M42.28,106.312c-0.082,0.102-0.201,0.168-0.326,0.189c0.192-0.031,0.394,0.035,0.512,0.188
			c0.063,0.086,0.085,0.184,0.08,0.283c0.029-0.004,0.058-0.004,0.087-0.004c-0.008-0.051-0.013-0.104-0.002-0.154
			c0.056-0.268,0.334-0.441,0.621-0.393c0.287,0.049,0.473,0.309,0.417,0.576c-0.05,0.236-0.282,0.395-0.537,0.389
			c0.046,0.062,0.085,0.135,0.097,0.217c0.017,0.094-0.004,0.184-0.041,0.268c0.242,0.027,0.449,0.188,0.494,0.42
			c0.056,0.285-0.15,0.557-0.457,0.607c-0.104,0.016-0.2-0.002-0.291-0.033c0.006,0.021,0.011,0.043,0.013,0.066
			c0.051,0.035,0.093,0.078,0.128,0.127c0.141,0.223,0.056,0.508-0.188,0.645c-0.246,0.135-0.558,0.062-0.698-0.156
			c-0.011-0.018-0.012-0.037-0.021-0.055c-0.024-0.006-0.048-0.002-0.073-0.012c-0.057-0.023-0.105-0.062-0.153-0.1
			c-0.124,0.057-0.267,0.076-0.408,0.037c-0.299-0.08-0.468-0.369-0.378-0.643c0.062-0.189,0.233-0.316,0.426-0.355
			c-0.037-0.01-0.078-0.02-0.114-0.043c-0.213-0.133-0.267-0.404-0.122-0.604c0.143-0.201,0.433-0.258,0.645-0.125
			c0.034,0.021,0.058,0.051,0.083,0.08c-0.007-0.096,0.014-0.182,0.054-0.264c0-0.016,0.003-0.033,0.003-0.049
			c-0.198,0.039-0.405-0.029-0.526-0.186c-0.161-0.213-0.098-0.504,0.14-0.654c0.059-0.037,0.123-0.062,0.189-0.072
			c-0.062,0.006-0.12,0.006-0.183-0.006c-0.115,0.125-0.239,0.242-0.34,0.375c-0.004,0.008-0.008,0.016-0.015,0.02
			c-0.388,0.529-0.647,1.141-0.768,1.795c0.129,0.018,0.253,0.064,0.35,0.154c0.084,0.08,0.126,0.176,0.15,0.273
			c0.042,0.059,0.076,0.123,0.09,0.197c0.044,0.264-0.147,0.506-0.428,0.545c-0.071,0.01-0.138,0.006-0.203-0.01
			c0.108,1.164,0.684,2.203,1.569,2.955c-0.061-0.078-0.109-0.168-0.114-0.273c-0.006-0.211,0.13-0.396,0.33-0.479
			c-0.225-0.152-0.321-0.422-0.206-0.666c0.002-0.008,0.011-0.014,0.017-0.02c-0.193,0.146-0.472,0.164-0.671,0.012
			c-0.225-0.174-0.259-0.484-0.075-0.691c0.025-0.027,0.054-0.043,0.083-0.062c-0.185-0.072-0.327-0.221-0.346-0.418
			c-0.028-0.279,0.201-0.531,0.511-0.559c0.311-0.025,0.583,0.178,0.611,0.457c0.018,0.186-0.079,0.348-0.229,0.453
			c0.042,0.016,0.083,0.029,0.12,0.057c0.187,0.143,0.234,0.379,0.137,0.576c0.173-0.139,0.424-0.186,0.645-0.1
			c0.313,0.125,0.456,0.453,0.322,0.736c-0.017,0.037-0.047,0.064-0.071,0.094c0.172,0,0.336,0.07,0.454,0.188
			c0.019-0.055,0.044-0.107,0.082-0.154c0.177-0.209,0.505-0.246,0.735-0.088c0.044,0.033,0.073,0.072,0.104,0.115
			c0-0.027-0.009-0.055-0.003-0.082c0.02-0.129,0.094-0.232,0.187-0.316c-0.074-0.061-0.122-0.137-0.153-0.221
			c-0.051,0.016-0.103,0.025-0.158,0.021c-0.252-0.012-0.442-0.199-0.468-0.428c-0.02,0.004-0.034,0.02-0.056,0.021
			c-0.182,0.035-0.357-0.031-0.473-0.154c-0.077,0.002-0.153-0.004-0.229-0.029c-0.32-0.105-0.486-0.43-0.369-0.723
			c0.065-0.164,0.208-0.277,0.375-0.33c0.002-0.012-0.003-0.025-0.002-0.037c0.027-0.301,0.313-0.523,0.642-0.5
			c0.005,0.002,0.008,0.006,0.015,0.006c-0.064-0.232,0.044-0.48,0.29-0.594c0.285-0.131,0.63-0.027,0.771,0.23
			c0.141,0.256,0.026,0.57-0.26,0.699c-0.097,0.045-0.201,0.055-0.3,0.047c0.02,0.062,0.031,0.133,0.024,0.201
			c-0.013,0.162-0.109,0.299-0.242,0.389c0.072,0.062,0.13,0.143,0.152,0.238c0,0.012-0.002,0.021,0,0.033
			c0.063-0.021,0.13-0.029,0.198-0.025c0.172,0.012,0.31,0.102,0.396,0.229c0.222-0.096,0.492-0.07,0.685,0.088
			c0.253,0.211,0.272,0.57,0.041,0.799c-0.01,0.014-0.025,0.018-0.038,0.027c0.15,0.123,0.238,0.301,0.207,0.498
			c-0.05,0.311-0.369,0.521-0.709,0.475c-0.188-0.025-0.337-0.129-0.43-0.264c-0.005,0.092-0.029,0.186-0.096,0.264
			c-0.176,0.211-0.504,0.25-0.733,0.086c-0.014-0.01-0.02-0.023-0.031-0.033c-0.04,0.186-0.163,0.35-0.368,0.428
			c-0.202,0.074-0.414,0.039-0.582-0.064c-0.073,0.037-0.155,0.061-0.243,0.064c-0.084,0.002-0.164-0.014-0.234-0.041
			c0.543,0.41,1.177,0.713,1.878,0.887c0.06-0.182,0.209-0.34,0.426-0.393c0.335-0.086,0.684,0.094,0.776,0.402
			c0.017,0.051,0.015,0.104,0.015,0.156c0.03,0,0.056,0.01,0.085,0.01c0.155,0,0.299-0.029,0.449-0.043
			c-0.027-0.074-0.039-0.154-0.029-0.236c0.001-0.018,0.012-0.033,0.017-0.051c-0.067-0.037-0.121-0.082-0.163-0.148
			c-0.119-0.205-0.029-0.467,0.203-0.58c0.23-0.113,0.513-0.045,0.635,0.164c0.026,0.047,0.04,0.096,0.047,0.146
			c0.055,0.01,0.111,0.021,0.16,0.047c0.017-0.049,0.036-0.098,0.073-0.145c0.124-0.162,0.331-0.23,0.526-0.207
			c0.025-0.078,0.069-0.148,0.143-0.199c0.183-0.129,0.441-0.088,0.578,0.086c0.053,0.066,0.071,0.141,0.075,0.215
			c0.023,0.02,0.055,0.029,0.075,0.051c0.025,0.027,0.038,0.061,0.059,0.09c0.606-0.379,1.103-0.883,1.479-1.465
			c-0.017-0.068-0.02-0.141,0.006-0.211c0.03-0.08,0.09-0.143,0.16-0.191c-0.11-0.178-0.095-0.396,0.036-0.566
			c-0.054-0.051-0.1-0.107-0.121-0.182c-0.075-0.229,0.064-0.471,0.31-0.537c0.085-0.023,0.169-0.014,0.247,0.008
			c0.035-0.211,0.071-0.418,0.071-0.639c0-0.014-0.004-0.025-0.006-0.039c-0.171,0.023-0.346-0.01-0.485-0.105
			c-0.158,0.039-0.33,0.018-0.458-0.09c-0.195-0.166-0.208-0.451-0.021-0.639c0.003-0.004,0.012-0.008,0.021-0.014
			c-0.094,0.053-0.202,0.088-0.324,0.084c-0.311-0.018-0.549-0.258-0.533-0.537c0.021-0.281,0.285-0.492,0.598-0.479
			c0.303,0.018,0.531,0.246,0.527,0.518c0.053-0.15,0.175-0.271,0.334-0.334c-0.346-0.824-0.941-1.529-1.708-2.047
			c-0.056,0.033-0.119,0.057-0.189,0.066c-0.261,0.039-0.509-0.123-0.548-0.359c-0.003-0.039,0.004-0.076,0.009-0.109
			c-0.683-0.316-1.44-0.506-2.254-0.506c-0.032,0-0.062,0.006-0.093,0.006c0.171,0.164,0.203,0.416,0.05,0.609
			c-0.171,0.217-0.498,0.266-0.732,0.115c-0.224-0.15-0.276-0.436-0.119-0.648c-0.88,0.143-1.668,0.502-2.327,1.008
			C42.386,106.07,42.363,106.199,42.28,106.312z M46.449,108.598c0.068-0.25,0.343-0.408,0.617-0.346
			c0.27,0.061,0.434,0.316,0.365,0.568c-0.069,0.254-0.345,0.41-0.616,0.348C46.544,109.107,46.378,108.852,46.449,108.598z
			 M47.8,111.088c-0.232,0.217-0.612,0.227-0.847,0.018c-0.238-0.209-0.245-0.555-0.016-0.775c0.229-0.215,0.61-0.227,0.847-0.016
			C48.021,110.523,48.029,110.869,47.8,111.088z M47.713,109.174c0.027-0.098,0.09-0.174,0.166-0.24
			c-0.086-0.049-0.168-0.109-0.22-0.195c-0.162-0.271-0.052-0.607,0.245-0.758c0.297-0.146,0.668-0.049,0.831,0.221
			c0.145,0.24,0.064,0.531-0.168,0.695c0.168,0.115,0.253,0.307,0.201,0.5c-0.067,0.26-0.36,0.424-0.652,0.361
			C47.825,109.695,47.644,109.434,47.713,109.174z M49.315,112.215c-0.014,0.279-0.276,0.496-0.586,0.484
			c-0.31-0.014-0.55-0.25-0.538-0.529c0.016-0.279,0.276-0.494,0.586-0.482C49.089,111.701,49.326,111.938,49.315,112.215z
			 M45.546,107.061c0.294,0.025,0.509,0.244,0.518,0.504c0.015-0.023,0.033-0.043,0.05-0.059c-0.004-0.004-0.01-0.008-0.011-0.012
			c-0.19-0.221-0.145-0.547,0.103-0.723c0.064-0.045,0.135-0.076,0.207-0.094c-0.091-0.078-0.162-0.184-0.178-0.309
			c-0.009-0.08,0.008-0.158,0.036-0.229c-0.022-0.057-0.036-0.119-0.031-0.186c0.022-0.238,0.248-0.42,0.504-0.406
			c0.027,0.002,0.051,0.014,0.077,0.018c0.192-0.135,0.457-0.146,0.644,0c0.095,0.072,0.146,0.174,0.164,0.277
			c0.036-0.004,0.071-0.014,0.109-0.008c0.242,0.029,0.41,0.234,0.377,0.465c-0.001,0.002-0.004,0.006-0.004,0.012
			c0.153-0.006,0.304,0.043,0.421,0.146c0.072,0.062,0.117,0.141,0.146,0.223c0.006,0,0.012-0.006,0.017-0.006
			c0.311-0.039,0.595,0.154,0.636,0.434c0.044,0.277-0.173,0.533-0.482,0.572c-0.26,0.035-0.493-0.104-0.59-0.312
			c-0.19,0.045-0.399,0.01-0.553-0.125c-0.183-0.158-0.225-0.396-0.134-0.598c-0.103-0.023-0.188-0.076-0.248-0.152
			c-0.066,0.15-0.208,0.266-0.392,0.305c0.023,0.021,0.051,0.033,0.073,0.059c0.18,0.211,0.142,0.506-0.072,0.691
			c0.09,0.131,0.112,0.297,0.033,0.451c-0.124,0.238-0.431,0.34-0.688,0.23c-0.173-0.074-0.267-0.225-0.281-0.389
			c-0.109,0.172-0.322,0.283-0.555,0.262c-0.32-0.025-0.554-0.281-0.525-0.57C44.943,107.244,45.227,107.033,45.546,107.061z
			 M44.9,106.211c0.294,0.006,0.526,0.23,0.518,0.5c-0.008,0.27-0.253,0.484-0.548,0.482c-0.295-0.006-0.527-0.229-0.517-0.5
			C44.361,106.424,44.606,106.207,44.9,106.211z M43.881,107.395c0.233-0.154,0.561-0.111,0.726,0.098
			c0.167,0.209,0.113,0.502-0.122,0.658c-0.232,0.154-0.559,0.111-0.725-0.096C43.594,107.846,43.648,107.549,43.881,107.395z"/>
	</g>
</g>
<g>
	
		<radialGradient id="SVGID_20_" cx="115.5391" cy="150.5068" r="5.7989" gradientTransform="matrix(1.1712 0 0 1.0683 3.8125 -18.7656)" gradientUnits="userSpaceOnUse">
		<stop  offset="0" style="stop-color:#CACCE8"/>
		<stop  offset="0.1464" style="stop-color:#908CAD"/>
		<stop  offset="0.2942" style="stop-color:#665D82"/>
		<stop  offset="0.4423" style="stop-color:#483E64"/>
		<stop  offset="0.5882" style="stop-color:#342A50"/>
		<stop  offset="0.7313" style="stop-color:#281F45"/>
		<stop  offset="0.8701" style="stop-color:#211A3F"/>
		<stop  offset="1" style="stop-color:#1F183D"/>
	</radialGradient>
	<ellipse fill="url(#SVGID_20_)" cx="140.382" cy="143.514" rx="5.771" ry="5.266"/>
	<g opacity="0.3">
		
			<radialGradient id="SVGID_21_" cx="120.748" cy="150.6904" r="0.1351" gradientTransform="matrix(1.1712 0 0 1.0683 3.8125 -18.7656)" gradientUnits="userSpaceOnUse">
			<stop  offset="0" style="stop-color:#CACCE8"/>
			<stop  offset="0.1464" style="stop-color:#908CAD"/>
			<stop  offset="0.2942" style="stop-color:#665D82"/>
			<stop  offset="0.4423" style="stop-color:#483E64"/>
			<stop  offset="0.5882" style="stop-color:#342A50"/>
			<stop  offset="0.7313" style="stop-color:#281F45"/>
			<stop  offset="0.8701" style="stop-color:#211A3F"/>
			<stop  offset="1" style="stop-color:#1F183D"/>
		</radialGradient>
		<path fill="url(#SVGID_21_)" d="M145.165,142.412c0.054-0.029,0.113-0.043,0.172-0.055c-0.006-0.039-0.024-0.076-0.028-0.117
			c-0.002-0.045,0.017-0.088,0.025-0.131C145.309,142.229,145.25,142.332,145.165,142.412z"/>
		
			<radialGradient id="SVGID_22_" cx="115.5459" cy="150.5068" r="5.7864" gradientTransform="matrix(1.1712 0 0 1.0683 3.8125 -18.7656)" gradientUnits="userSpaceOnUse">
			<stop  offset="0" style="stop-color:#CACCE8"/>
			<stop  offset="0.1464" style="stop-color:#908CAD"/>
			<stop  offset="0.2942" style="stop-color:#665D82"/>
			<stop  offset="0.4423" style="stop-color:#483E64"/>
			<stop  offset="0.5882" style="stop-color:#342A50"/>
			<stop  offset="0.7313" style="stop-color:#281F45"/>
			<stop  offset="0.8701" style="stop-color:#211A3F"/>
			<stop  offset="1" style="stop-color:#1F183D"/>
		</radialGradient>
		<path fill="url(#SVGID_22_)" d="M136.576,139.914c-0.096,0.119-0.229,0.191-0.374,0.217c0.222-0.035,0.451,0.041,0.588,0.215
			c0.073,0.1,0.096,0.213,0.087,0.326c0.038-0.006,0.069-0.004,0.101-0.006c-0.008-0.057-0.013-0.117,0-0.176
			c0.066-0.307,0.384-0.504,0.712-0.447c0.328,0.053,0.54,0.352,0.477,0.658c-0.057,0.271-0.323,0.451-0.613,0.443
			c0.053,0.074,0.093,0.156,0.113,0.252c0.017,0.107-0.01,0.209-0.05,0.305c0.278,0.031,0.515,0.217,0.566,0.482
			c0.063,0.326-0.172,0.637-0.526,0.695c-0.117,0.018-0.227-0.002-0.329-0.037c0.003,0.025,0.014,0.049,0.016,0.074
			c0.054,0.039,0.104,0.088,0.144,0.146c0.164,0.256,0.066,0.582-0.216,0.738c-0.28,0.154-0.637,0.074-0.799-0.18
			c-0.012-0.02-0.015-0.039-0.022-0.061c-0.028-0.008-0.057-0.006-0.084-0.016c-0.066-0.027-0.122-0.068-0.175-0.111
			c-0.142,0.062-0.305,0.086-0.468,0.043c-0.342-0.092-0.538-0.426-0.434-0.74c0.07-0.217,0.267-0.361,0.489-0.406
			c-0.045-0.012-0.091-0.023-0.131-0.049c-0.243-0.15-0.307-0.461-0.139-0.691c0.162-0.23,0.498-0.293,0.738-0.143
			c0.04,0.023,0.066,0.057,0.096,0.09c-0.011-0.107,0.016-0.207,0.061-0.299c0-0.02,0.003-0.039,0.003-0.057
			c-0.226,0.045-0.464-0.035-0.603-0.215c-0.185-0.242-0.111-0.576,0.16-0.748c0.068-0.043,0.142-0.072,0.217-0.084
			c-0.07,0.01-0.139,0.006-0.21-0.006c-0.132,0.143-0.273,0.275-0.39,0.43c-0.003,0.008-0.009,0.014-0.015,0.023
			c-0.447,0.605-0.745,1.307-0.882,2.055c0.146,0.021,0.29,0.074,0.398,0.178c0.099,0.09,0.146,0.201,0.173,0.314
			c0.047,0.066,0.09,0.141,0.102,0.225c0.053,0.301-0.167,0.578-0.486,0.623c-0.08,0.012-0.159,0.008-0.233-0.012
			c0.125,1.338,0.783,2.529,1.798,3.391c-0.07-0.092-0.127-0.193-0.131-0.314c-0.008-0.24,0.147-0.453,0.376-0.551
			c-0.257-0.172-0.367-0.48-0.235-0.76c0.004-0.01,0.017-0.016,0.019-0.025c-0.221,0.172-0.54,0.189-0.767,0.016
			c-0.261-0.197-0.3-0.555-0.085-0.795c0.025-0.027,0.062-0.047,0.095-0.07c-0.214-0.08-0.378-0.256-0.399-0.477
			c-0.032-0.322,0.231-0.609,0.587-0.641c0.356-0.033,0.668,0.201,0.699,0.521c0.021,0.211-0.089,0.398-0.263,0.518
			c0.047,0.02,0.096,0.037,0.138,0.066c0.215,0.166,0.267,0.436,0.158,0.662c0.198-0.16,0.481-0.211,0.739-0.113
			c0.357,0.141,0.519,0.518,0.367,0.844c-0.021,0.043-0.053,0.072-0.079,0.105c0.198,0.002,0.382,0.082,0.519,0.215
			c0.021-0.062,0.048-0.121,0.093-0.176c0.203-0.24,0.578-0.285,0.843-0.098c0.052,0.037,0.085,0.082,0.117,0.127
			c0-0.033-0.009-0.062-0.001-0.094c0.021-0.145,0.107-0.264,0.214-0.359c-0.087-0.072-0.142-0.16-0.177-0.254
			c-0.06,0.018-0.118,0.029-0.18,0.027c-0.29-0.02-0.505-0.234-0.536-0.492c-0.022,0.006-0.04,0.018-0.065,0.023
			c-0.206,0.039-0.407-0.037-0.541-0.174c-0.087,0.002-0.175-0.008-0.261-0.037c-0.369-0.121-0.561-0.494-0.429-0.828
			c0.078-0.189,0.242-0.318,0.435-0.381c0-0.012-0.006-0.027-0.004-0.041c0.03-0.344,0.355-0.6,0.735-0.57
			c0.005,0,0.012,0.004,0.017,0.004c-0.075-0.266,0.05-0.551,0.333-0.68c0.328-0.15,0.72-0.031,0.883,0.264s0.028,0.654-0.3,0.803
			c-0.109,0.051-0.227,0.061-0.345,0.053c0.026,0.07,0.038,0.15,0.031,0.23c-0.017,0.188-0.127,0.342-0.28,0.445
			c0.084,0.074,0.15,0.164,0.174,0.273c0.002,0.012,0,0.025,0,0.039c0.073-0.023,0.148-0.033,0.229-0.029
			c0.198,0.012,0.356,0.115,0.453,0.262c0.255-0.109,0.566-0.08,0.785,0.102c0.29,0.242,0.312,0.65,0.05,0.916
			c-0.016,0.012-0.033,0.018-0.046,0.029c0.175,0.141,0.272,0.346,0.238,0.57c-0.062,0.354-0.423,0.598-0.814,0.545
			c-0.213-0.029-0.385-0.146-0.491-0.301c-0.007,0.105-0.035,0.211-0.114,0.301c-0.199,0.242-0.575,0.287-0.839,0.1
			c-0.015-0.012-0.021-0.027-0.033-0.039c-0.046,0.211-0.191,0.402-0.423,0.488c-0.229,0.09-0.475,0.047-0.668-0.072
			c-0.08,0.043-0.177,0.07-0.28,0.074c-0.093,0.002-0.185-0.018-0.268-0.047c0.626,0.469,1.352,0.82,2.155,1.018
			c0.068-0.209,0.238-0.389,0.486-0.451c0.387-0.098,0.788,0.107,0.893,0.459c0.021,0.061,0.017,0.123,0.017,0.182
			c0.032,0,0.063,0.012,0.098,0.012c0.178,0,0.344-0.033,0.516-0.051c-0.033-0.084-0.047-0.174-0.035-0.271
			c0.002-0.018,0.014-0.035,0.021-0.055c-0.076-0.043-0.142-0.096-0.186-0.172c-0.139-0.234-0.034-0.535,0.23-0.666
			c0.262-0.131,0.59-0.049,0.729,0.188c0.03,0.057,0.047,0.111,0.054,0.17c0.062,0.012,0.128,0.025,0.186,0.053
			c0.019-0.057,0.037-0.115,0.081-0.166c0.143-0.186,0.379-0.266,0.605-0.238c0.03-0.086,0.078-0.17,0.164-0.227
			c0.211-0.146,0.504-0.1,0.662,0.1c0.06,0.074,0.082,0.16,0.082,0.246c0.031,0.021,0.064,0.033,0.088,0.059
			c0.029,0.029,0.044,0.068,0.066,0.102c0.698-0.436,1.265-1.014,1.694-1.678c-0.019-0.08-0.021-0.162,0.01-0.244
			c0.034-0.09,0.103-0.162,0.182-0.219c-0.123-0.209-0.108-0.453,0.042-0.648c-0.059-0.059-0.113-0.125-0.138-0.209
			c-0.084-0.264,0.072-0.539,0.351-0.613c0.104-0.027,0.198-0.018,0.288,0.006c0.037-0.242,0.082-0.48,0.082-0.73
			c0-0.018-0.005-0.031-0.007-0.047c-0.198,0.029-0.398-0.01-0.557-0.123c-0.181,0.051-0.381,0.023-0.524-0.098
			c-0.225-0.191-0.241-0.518-0.026-0.734c0.005-0.006,0.015-0.01,0.026-0.016c-0.109,0.062-0.233,0.102-0.373,0.096
			c-0.354-0.018-0.628-0.293-0.61-0.615c0.022-0.32,0.33-0.564,0.684-0.547c0.349,0.018,0.61,0.281,0.606,0.59
			c0.061-0.17,0.198-0.311,0.388-0.381c-0.399-0.945-1.084-1.752-1.962-2.346c-0.064,0.037-0.137,0.062-0.215,0.076
			c-0.305,0.045-0.587-0.141-0.628-0.412c-0.007-0.043,0.001-0.086,0.005-0.127c-0.779-0.359-1.649-0.58-2.581-0.58
			c-0.037,0-0.069,0.01-0.107,0.01c0.197,0.188,0.233,0.475,0.057,0.697c-0.194,0.248-0.572,0.305-0.838,0.131
			c-0.256-0.172-0.316-0.498-0.135-0.744c-1.008,0.166-1.916,0.578-2.667,1.156C136.695,139.639,136.672,139.787,136.576,139.914z
			 M141.353,142.535c0.08-0.289,0.395-0.469,0.707-0.398c0.311,0.07,0.499,0.361,0.423,0.652c-0.082,0.291-0.399,0.471-0.71,0.4
			C141.461,143.117,141.272,142.826,141.353,142.535z M142.903,145.389c-0.266,0.248-0.701,0.258-0.971,0.021
			c-0.274-0.24-0.282-0.637-0.019-0.887c0.265-0.25,0.699-0.26,0.971-0.021C143.158,144.742,143.165,145.139,142.903,145.389z
			 M142.802,143.191c0.031-0.109,0.103-0.199,0.191-0.271c-0.101-0.053-0.193-0.125-0.25-0.225
			c-0.187-0.309-0.062-0.697,0.276-0.867c0.342-0.17,0.768-0.057,0.953,0.252c0.164,0.277,0.073,0.607-0.192,0.797
			c0.192,0.133,0.29,0.35,0.232,0.57c-0.08,0.303-0.413,0.486-0.749,0.416C142.933,143.795,142.727,143.494,142.802,143.191z
			 M144.64,146.682c-0.016,0.318-0.315,0.566-0.669,0.555c-0.356-0.016-0.633-0.287-0.619-0.605
			c0.019-0.322,0.315-0.568,0.676-0.555C144.382,146.092,144.655,146.361,144.64,146.682z M140.318,140.773
			c0.338,0.027,0.581,0.279,0.593,0.578c0.02-0.027,0.039-0.049,0.058-0.072c-0.003-0.002-0.008-0.002-0.013-0.01
			c-0.217-0.256-0.165-0.627,0.118-0.828c0.075-0.053,0.157-0.088,0.239-0.109c-0.105-0.09-0.188-0.209-0.204-0.35
			c-0.012-0.092,0.007-0.182,0.04-0.266c-0.028-0.068-0.04-0.135-0.035-0.211c0.022-0.273,0.283-0.484,0.578-0.465
			c0.031,0,0.06,0.014,0.09,0.02c0.217-0.154,0.52-0.168,0.736-0.002c0.108,0.084,0.165,0.199,0.187,0.318
			c0.043-0.004,0.083-0.014,0.125-0.008c0.278,0.033,0.471,0.27,0.434,0.531c0,0.004-0.001,0.006-0.001,0.012
			c0.17-0.004,0.344,0.053,0.478,0.17c0.084,0.074,0.135,0.162,0.166,0.256c0.01,0,0.019-0.006,0.021-0.006
			c0.354-0.045,0.68,0.176,0.729,0.494c0.052,0.32-0.196,0.615-0.553,0.66c-0.3,0.037-0.564-0.119-0.676-0.361
			c-0.22,0.053-0.462,0.012-0.636-0.141c-0.206-0.182-0.258-0.455-0.154-0.686c-0.115-0.027-0.216-0.09-0.283-0.176
			c-0.077,0.174-0.238,0.305-0.45,0.352c0.027,0.021,0.062,0.035,0.087,0.066c0.204,0.24,0.162,0.58-0.087,0.789
			c0.106,0.152,0.13,0.344,0.04,0.52c-0.141,0.273-0.497,0.391-0.788,0.264c-0.196-0.084-0.308-0.258-0.324-0.447
			c-0.126,0.199-0.366,0.326-0.634,0.303c-0.369-0.029-0.636-0.322-0.605-0.654C139.63,140.984,139.95,140.74,140.318,140.773z
			 M139.578,139.801c0.34,0.006,0.602,0.26,0.592,0.57c-0.007,0.311-0.288,0.557-0.625,0.553c-0.339-0.006-0.604-0.262-0.595-0.572
			C138.962,140.043,139.24,139.795,139.578,139.801z M138.413,141.156c0.266-0.178,0.639-0.127,0.829,0.111
			c0.194,0.238,0.128,0.576-0.139,0.752c-0.27,0.18-0.643,0.129-0.829-0.107C138.081,141.674,138.143,141.334,138.413,141.156z"/>
	</g>
</g>
</svg>
