<?xml version="1.0" encoding="utf-8"?>
<!-- Generator: Adobe Illustrator 16.0.0, SVG Export Plug-In . SVG Version: 6.00 Build 0)  -->
<!DOCTYPE svg PUBLIC "-//W3C//DTD SVG 1.1//EN" "http://www.w3.org/Graphics/SVG/1.1/DTD/svg11.dtd">
<svg version="1.1" xmlns="http://www.w3.org/2000/svg" xmlns:xlink="http://www.w3.org/1999/xlink" x="0px" y="0px" width="800px"
	 height="400px" viewBox="0 0 800 400" enable-background="new 0 0 800 400" xml:space="preserve">
<rect x="243.241" y="122" fill="none" width="406.555" height="129.103"/>
<text transform="matrix(1.1838 0 0 1 243.2407 231.0371)" fill="#2196F3" font-family="'MicroFLF'" font-size="124.1876">CTIVE</text>
<g>
	<path fill="#2196F3" d="M207.292,225.299c-0.01,0-0.024-0.004-0.034-0.004c0.636-0.481,0.981-0.931,0.886-1.297
		c-0.095-0.355-0.6-0.576-1.366-0.679l-50.372,2.328l48.963-64.93l-18.114-36.991c-0.001,0.005-0.003,0.011-0.006,0.017
		c-0.299-0.738-0.65-1.186-1.023-1.184c-0.374,0.002-0.718,0.453-1.012,1.193c-0.002-0.001-0.003-0.006-0.005-0.009l-54.191,134.464
		c-0.225,0.614-0.266,1.093-0.029,1.329c0.267,0.265,0.831,0.193,1.565-0.116c-0.003,0.01-0.012,0.025-0.015,0.039L207.292,225.299z
		"/>
	<path fill="#90A4AE" d="M244.61,257.196c0.686,0.403,1.237,0.553,1.536,0.323c0.28-0.21,0.295-0.729,0.127-1.421l-38.818-89.686
		l-22.588,30.306l59.76,60.555C244.625,257.247,244.613,257.218,244.61,257.196z"/>
</g>
</svg>
