<?xml version="1.0" encoding="utf-8"?>
<!-- Generator: Adobe Illustrator 16.0.0, SVG Export Plug-In . SVG Version: 6.00 Build 0)  -->
<!DOCTYPE svg PUBLIC "-//W3C//DTD SVG 1.1//EN" "http://www.w3.org/Graphics/SVG/1.1/DTD/svg11.dtd">
<svg version="1.1" id="Calque_1" xmlns="http://www.w3.org/2000/svg" xmlns:xlink="http://www.w3.org/1999/xlink" x="0px" y="0px"
	 width="111.742px" height="96.766px" viewBox="0 0 111.742 96.766" enable-background="new 0 0 111.742 96.766"
	 xml:space="preserve">
<g>
	<path fill="#212121" d="M39.019,65.66H6.782c-0.988,0-1.791,0.877-1.791,1.955v19.541c0,1.076,0.803,1.951,1.791,1.951h32.237
		c0.985,0,1.79-0.875,1.79-1.951V67.615C40.808,66.537,40.004,65.66,39.019,65.66z M37.225,85.2H8.574V69.57h28.651V85.2z"/>
	<path fill="#212121" d="M56.927,36.353H6.782c-0.988,0-1.791,0.873-1.791,1.954v19.538c0,1.08,0.803,1.953,1.791,1.953h50.145
		c0.985,0,1.79-0.873,1.79-1.953V38.307C58.717,37.226,57.912,36.353,56.927,36.353z M55.133,55.893H8.574V40.26h46.559V55.893z"/>
	<path fill="#212121" d="M108.504,27.468L97.758,7.93c-0.294-0.534-0.816-0.865-1.383-0.886c-0.605-0.018-1.172,0.32-1.482,0.886
		L84.146,27.468c-0.476,0.862-0.221,1.981,0.575,2.5c0.257,0.17,0.553,0.261,0.855,0.261h8.956v56.927
		c-0.015,1.076,0.774,1.964,1.764,1.979c0.99,0.018,1.803-0.848,1.817-1.928c0-0.018,0-0.035,0-0.052V30.23h8.955
		c0.923,0,1.673-0.819,1.673-1.824C108.742,28.075,108.657,27.751,108.504,27.468z"/>
	<path fill="#212121" d="M74.833,7.044H6.782c-0.988,0-1.791,0.875-1.791,1.954v19.54c0,1.077,0.803,1.954,1.791,1.954h68.051
		c0.988,0,1.792-0.877,1.792-1.954V8.997C76.625,7.919,75.821,7.044,74.833,7.044z M73.042,26.582H8.574v-15.63h64.468V26.582z"/>
</g>
<polygon fill="#212121" points="7.183,9.894 6.407,27.751 26.28,28.991 50.344,28.216 69.752,28.527 74.877,26.353 74.721,17.193 
	73.789,9.894 "/>
<polygon fill="#212121" points="7.494,39.085 6.717,57.404 19.293,57.25 37.925,57.25 55.314,57.25 56.399,52.902 56.711,44.207 
	55.159,38.462 "/>
<polyline fill="#212121" points="7.494,68.429 6.562,86.75 14.325,86.594 31.402,87.059 38.856,86.439 39.01,78.675 38.392,68.893 
	7.028,68.429 "/>
</svg>
