<?xml version="1.0" encoding="iso-8859-1"?>
<!-- Generator: Adobe Illustrator 16.0.0, SVG Export Plug-In . SVG Version: 6.00 Build 0)  -->
<!DOCTYPE svg PUBLIC "-//W3C//DTD SVG 1.1//EN" "http://www.w3.org/Graphics/SVG/1.1/DTD/svg11.dtd">
<svg version="1.1" id="Capa_1" xmlns="http://www.w3.org/2000/svg" xmlns:xlink="http://www.w3.org/1999/xlink" x="0px" y="0px"
	 width="612px" height="612.001px" fill="#212121" viewBox="0 0 612 612.001" style="enable-background:new 0 0 612 612.001;" xml:space="preserve"
	>
<g>
	<path d="M305.058,329.286V570.82l192.293-36.491V416.644c0-4.926,4.291-8.752,9.185-8.19l23.658,3.661
		c4.162,0.478,7.305,4.001,7.305,8.19v136.717c0,3.885-2.713,7.243-6.512,8.061l-210.5,45.261
		c-10.172,2.188-20.691,2.211-30.873,0.069L81.373,566.609c-3.738-0.786-6.446-4.037-6.545-7.854L71.23,419.907
		c-0.112-4.354,3.181-8.046,7.521-8.427l176.886-15.543c3.068-0.269,5.73-2.226,6.902-5.074l26.648-64.716
		C292.628,317.796,305.058,320.254,305.058,329.286z M69.23,250.204L13.721,368.855c-2.713,5.798,1.928,12.34,8.297,11.697
		l208.464-21.064c2.946-0.298,5.505-2.152,6.707-4.858l67.075-151.111l-229.056,42.07C72.587,246.071,70.36,247.79,69.23,250.204z
		 M304.264,203.518l70.976,155.837c1.24,2.723,3.859,4.561,6.842,4.801l208.069,16.732c6.271,0.505,10.773-5.916,8.163-11.64
		L544.05,250.284c-1.122-2.46-3.38-4.213-6.041-4.692L304.264,203.518z M245.942,80.473l51.515,89.207
		c3.967,6.869,13.882,6.868,17.848,0l51.504-89.207c3.967-6.87-0.991-15.457-8.923-15.457h-25.748v-54.71
		C332.138,4.614,327.525,0,321.833,0h-30.914c-5.691,0-10.305,4.614-10.305,10.305v54.71h-25.749
		C246.933,65.015,241.975,73.603,245.942,80.473z"/>
</g>
<g>
</g>
<g>
</g>
<g>
</g>
<g>
</g>
<g>
</g>
<g>
</g>
<g>
</g>
<g>
</g>
<g>
</g>
<g>
</g>
<g>
</g>
<g>
</g>
<g>
</g>
<g>
</g>
<g>
</g>
</svg>
