<?xml version="1.0" encoding="utf-8"?>
<!-- Generator: Adobe Illustrator 16.0.0, SVG Export Plug-In . SVG Version: 6.00 Build 0)  -->
<!DOCTYPE svg PUBLIC "-//W3C//DTD SVG 1.1//EN" "http://www.w3.org/Graphics/SVG/1.1/DTD/svg11.dtd">
<svg version="1.1" id="Calque_1" xmlns="http://www.w3.org/2000/svg" xmlns:xlink="http://www.w3.org/1999/xlink" x="0px" y="0px"
	 width="111.742px" height="96.766px" viewBox="0 0 111.742 96.766" enable-background="new 0 0 111.742 96.766"
	 xml:space="preserve">
<path fill="#FFFFFF" d="M99.56,4.057c-2.11-2.11-5.533-2.11-7.646,0L62.48,33.495l-5.305-5.306c-1.767-1.764-4.637-1.764-6.404,0
	l-3.189,3.192c-7.726,1.839-15.449,3.679-23.172,5.523l-12.343,2.94c-1.034,0.245-1.875,0.995-2.24,1.992
	c-0.365,0.998-0.207,2.11,0.422,2.97c13.66,18.563,29.999,34.902,48.567,48.562c0.547,0.407,1.211,0.617,1.876,0.617
	c0.364,0,0.737-0.064,1.093-0.193c0.994-0.366,1.74-1.208,1.988-2.241l3.686-15.461c1.596-6.685,3.188-13.37,4.781-20.055
	l3.189-3.189c1.767-1.767,1.767-4.633,0-6.401l-5.305-5.303L99.56,11.707C101.672,9.594,101.672,6.17,99.56,4.057L99.56,4.057z
	 M58.735,85.377c-2.581-1.981-5.105-4.024-7.589-6.111l4.175-11.765l-8.248,8.249c-2.972-2.623-5.867-5.332-8.689-8.11l4.144-6.55
	l-6.569,4.124c-2.584-2.623-5.102-5.312-7.556-8.066l8.282-8.279l-11.835,4.199c-2.265-2.675-4.468-5.397-6.609-8.178l28.218-6.726
	l18.999,18.999L58.735,85.377z M58.735,85.377"/>
</svg>
