<?xml version="1.0" encoding="utf-8"?>
<!-- Generator: Adobe Illustrator 16.0.0, SVG Export Plug-In . SVG Version: 6.00 Build 0)  -->
<!DOCTYPE svg PUBLIC "-//W3C//DTD SVG 1.1//EN" "http://www.w3.org/Graphics/SVG/1.1/DTD/svg11.dtd">
<svg version="1.1" id="Calque_1" xmlns="http://www.w3.org/2000/svg" xmlns:xlink="http://www.w3.org/1999/xlink" x="0px" y="0px"
	 width="85.336px" height="69.699px" viewBox="0 0 85.336 69.699" enable-background="new 0 0 85.336 69.699" xml:space="preserve">
<g id="Calque_x0020_1">
	<g>
		<path fill="#FFFFFF" d="M49.276,4.43L29.301,9.159h-0.215v44.674l20.19,15.676V53.833h0.012V9.159L49.276,4.43z M39.9,53.968
			L36.06,52.5v-5.787l3.841,0.807L39.9,53.968L39.9,53.968z M39.9,42.216l-3.841-0.852v-5.787l3.841,0.188V42.216L39.9,42.216z
			 M39.9,30.543l-3.841-0.298v-5.787l3.841-0.367V30.543z M39.9,19.313l-3.84,0.217v-5.786l3.841-0.88L39.9,19.313L39.9,19.313z"/>
		<path fill="#FFFFFF" d="M51.475,4.5v61.291h0.001l0.019,3.908l19.055-3.908h0.757V4.5H51.475L51.475,4.5z M60.454,59.271
			l-4.865,0.803l0.024-7.873l4.841-0.459V59.271z M55.566,46.33l-0.008-7.785l4.896-0.121l0.029,7.443L55.566,46.33L55.566,46.33z
			 M60.415,32.491l-4.858,0.502l0.101-7.89l4.831-0.159L60.415,32.491L60.415,32.491z M60.523,19.249H55.52V11.72h5.004
			L60.523,19.249L60.523,19.249z M67.267,58.294l-4.865,0.804l0.024-7.874l4.841-0.459V58.294z M62.379,46.099l-0.008-7.782
			l4.896-0.121l0.029,7.44L62.379,46.099z M67.227,32.031l-4.857,0.505l0.101-7.892l4.831-0.158L67.227,32.031L67.227,32.031z
			 M67.336,19.249h-5.002V11.72h5.002V19.249z"/>
		<path fill="#FFFFFF" d="M71.236,2.839h-19.69V0h19.69V2.839z"/>
		<path fill="#FFFFFF" d="M29.041,4.961l-0.025,3.03l20.199-5.05V0.095L29.041,4.961z"/>
		<path fill="#FFFFFF" d="M13.133,14.216l-12.95,3.063h-0.14V46.24l13.09,10.16V46.24h0.008V17.279L13.133,14.216z M7.055,46.328
			l-2.489-0.955v-3.748l2.489,0.521v4.185V46.328z M7.055,38.71l-2.489-0.556v-3.75l2.489,0.124V38.71z M7.055,31.14l-2.49-0.19
			v-3.752l2.489-0.239L7.055,31.14L7.055,31.14z M7.055,23.861l-2.489,0.142v-3.751l2.489-0.571V23.861L7.055,23.861z"/>
		<path fill="#FFFFFF" d="M14.559,14.261V53.99l0.011,2.533l12.354-2.533h0.488V14.261H14.559z M20.379,49.765l-3.154,0.521
			l0.016-5.104l3.139-0.296L20.379,49.765L20.379,49.765z M17.21,41.376l-0.004-5.047l3.174-0.08l0.018,4.824L17.21,41.376z
			 M20.354,32.405l-3.15,0.328l0.066-5.117l3.131-0.103L20.354,32.405z M20.424,23.821h-3.245V18.94h3.245V23.821L20.424,23.821z
			 M24.795,49.132l-3.154,0.521l0.016-5.105l3.139-0.299L24.795,49.132L24.795,49.132z M21.626,41.228l-0.004-5.046l3.175-0.079
			l0.019,4.824L21.626,41.228L21.626,41.228z M24.771,32.106l-3.151,0.33l0.065-5.116l3.133-0.104L24.771,32.106z M24.841,23.821
			h-3.244V18.94h3.244V23.821L24.841,23.821z"/>
		<path fill="#FFFFFF" d="M27.367,13.184H14.604v-1.841h12.764L27.367,13.184L27.367,13.184z"/>
		<path fill="#FFFFFF" d="M0.015,14.561L0,16.524l13.093-3.274v-1.848L0.015,14.561z"/>
		<path fill="#FFFFFF" d="M72.467,23.268v39.733l0.011,2.531l12.354-2.531h0.488V23.268H72.467z M78.286,58.774l-3.152,0.522
			l0.016-5.104l3.139-0.297v4.879H78.286z M75.12,50.384l-0.007-5.045l3.175-0.08l0.019,4.828L75.12,50.384z M78.261,41.417
			l-3.149,0.326l0.066-5.119l3.131-0.102L78.261,41.417z M78.333,32.828h-3.246v-4.876h3.246V32.828z M82.704,58.144l-3.154,0.521
			l0.016-5.104l3.139-0.297V58.144L82.704,58.144z M79.534,50.237l-0.005-5.047l3.177-0.08l0.019,4.828l-3.188,0.299H79.534z
			 M82.678,41.115l-3.149,0.33l0.063-5.115l3.133-0.103L82.678,41.115z M82.749,32.828h-3.244v-4.876h3.244V32.828z"/>
		<path fill="#FFFFFF" d="M85.336,22.31H72.43v-1.842h12.906V22.31z"/>
	</g>
</g>
</svg>
