<?xml version="1.0" encoding="utf-8"?>
<!-- Generator: Adobe Illustrator 16.0.0, SVG Export Plug-In . SVG Version: 6.00 Build 0)  -->
<!DOCTYPE svg PUBLIC "-//W3C//DTD SVG 1.1//EN" "http://www.w3.org/Graphics/SVG/1.1/DTD/svg11.dtd">
<svg version="1.1" id="Calque_1" xmlns="http://www.w3.org/2000/svg" xmlns:xlink="http://www.w3.org/1999/xlink" x="0px" y="0px"
	 width="83.875px" height="68.796px" viewBox="0 0 83.875 68.796" enable-background="new 0 0 83.875 68.796" xml:space="preserve">
<g id="Calque_x0020_1">
	<path fill="#FFFFFF" d="M80.734,61.884V13.509h-19.32V4.711h2.355V0H20.105v4.711h2.357v8.798H3.141v48.375H0v6.912h83.875v-6.912
		H80.734z M18.973,53.039h-8.48v-8.48h8.48V53.039z M18.973,40.812h-8.48v-8.478h8.48V40.812z M18.973,28.574h-8.48v-8.482h8.48
		V28.574z M29.214,7.834h8.482v8.479h-8.482V7.834z M29.214,20.092h8.482v8.482h-8.482V20.092z M29.214,32.334h8.482v8.478h-8.482
		V32.334z M47.945,62.082H35.932V48.416h12.013V62.082L47.945,62.082z M54.661,40.812H46.18v-8.478h8.481V40.812L54.661,40.812z
		 M54.661,28.574H46.18v-8.482h8.481V28.574L54.661,28.574z M54.661,16.313H46.18V7.834h8.481V16.313L54.661,16.313z M74.73,53.039
		h-8.481v-8.48h8.481V53.039z M74.73,40.812h-8.481v-8.478h8.481V40.812z M74.73,28.574h-8.481v-8.482h8.481V28.574z"/>
</g>
</svg>
