<?xml version="1.0" encoding="utf-8"?>
<!-- Generator: Adobe Illustrator 16.0.0, SVG Export Plug-In . SVG Version: 6.00 Build 0)  -->
<!DOCTYPE svg PUBLIC "-//W3C//DTD SVG 1.1//EN" "http://www.w3.org/Graphics/SVG/1.1/DTD/svg11.dtd">
<svg version="1.1" id="Calque_1" xmlns="http://www.w3.org/2000/svg" xmlns:xlink="http://www.w3.org/1999/xlink" x="0px" y="0px"
	 width="111.742px" height="96.766px" viewBox="0 0 111.742 96.766" enable-background="new 0 0 111.742 96.766"
	 xml:space="preserve">
<g>
	<rect x="42.47" y="87.772" fill="#212121" width="30.059" height="7.351"/>
	<path fill="#212121" d="M76.052,57.838c-0.031-0.408-0.104-0.694-0.216-0.907c0-0.02,0.01-0.033,0.01-0.055
		c0-1.354-2.254-2.456-5.031-2.456c-0.458,0-0.889,0.04-1.31,0.094c-0.11-1.31-2.302-2.356-5.008-2.356
		c-0.629,0-1.223,0.064-1.774,0.165c-0.146-0.071-0.282-0.16-0.403-0.307c-0.106-0.13-0.305-0.219-0.546-0.286
		c-0.9-0.657-2.438-1.094-4.182-1.094c-1.673,0-3.145,0.401-4.06,1.017c-0.104-0.066-0.176-0.148-0.157-0.259
		c0.206-1.252-0.834-14.979-2.497-22.886c-0.196-0.925-0.433-1.632-0.695-2.181c-0.061-0.146-0.147-0.278-0.234-0.412
		c-0.132-0.22-0.271-0.409-0.412-0.555c-0.032-0.033-0.065-0.064-0.102-0.093c-0.234-0.218-0.478-0.384-0.729-0.45
		c-0.395-0.176-0.821-0.29-1.285-0.272c-1.592,0.063-2.834,1.386-2.773,2.958l0.005,0.15c-0.003,0.005-0.018,0.024-0.018,0.024
		s0.026,0.496,0.068,1.334l0.091,2.273c0,0.045,0.024,0.079,0.028,0.12c0.464,9.711,1.509,35.161-0.187,36.421
		c-2.009,1.496,0.227-1.746-9.36-6.448c-7.213-3.539-7.644,5.945-4.093,6.71c9.935,2.132,9.163,11.758,10.371,14.092h31.549
		C78.128,73.744,76.248,60.615,76.052,57.838z"/>
	<path fill="#212121" d="M40.581,36.359c-0.028-0.62-0.06-1.236-0.084-1.815c-0.01-0.107-0.073-0.194-0.073-0.3l-0.216-5.549
		c-0.103-2.069-0.168-3.269-0.168-3.269s0.032-0.047,0.042-0.066l-0.018-0.368c-0.15-3.845,2.892-7.089,6.794-7.244
		c1.135-0.035,2.177,0.235,3.141,0.665c0.62,0.167,1.217,0.565,1.795,1.098c0.085,0.073,0.162,0.159,0.244,0.229
		c0.348,0.372,0.683,0.82,1.006,1.363c0.209,0.328,0.422,0.639,0.576,1.016c0.641,1.348,1.222,3.064,1.701,5.331
		c0.496,2.354,0.964,4.92,1.412,7.605c5.315-3.185,8.91-8.943,8.91-15.595c0-10.076-8.17-18.244-18.246-18.244
		c-10.075,0-18.242,8.168-18.242,18.244C29.155,27.119,33.886,33.655,40.581,36.359z"/>
</g>
</svg>
