<?xml version="1.0" encoding="utf-8"?>
<!-- Generator: Adobe Illustrator 16.0.0, SVG Export Plug-In . SVG Version: 6.00 Build 0)  -->
<!DOCTYPE svg PUBLIC "-//W3C//DTD SVG 1.1//EN" "http://www.w3.org/Graphics/SVG/1.1/DTD/svg11.dtd">
<svg version="1.1" id="Calque_1" xmlns="http://www.w3.org/2000/svg" xmlns:xlink="http://www.w3.org/1999/xlink" x="0px" y="0px"
	 width="60.583px" height="65.32px" viewBox="0 0 60.583 65.32" enable-background="new 0 0 60.583 65.32" xml:space="preserve">
<g id="Calque_x0020_1">
	<path fill="#FFFFFF" d="M59.868,45.251c-1.199,5.98-13.969,10.688-29.576,10.688c-15.605,0-28.373-4.707-29.575-10.687
		C0.276,46.294,0,47.457,0,48.705v3.18c0,3.334,1.777,6.156,4.22,7.189c4.596,3.686,14.554,6.246,26.131,6.246
		c11.67,0,21.696-2.6,26.246-6.332c2.321-1.109,3.985-3.873,3.985-7.104v-3.18c0-1.248-0.275-2.41-0.717-3.453H59.868z"/>
	<path fill="#FFFFFF" d="M59.868,29.746c-1.199,5.98-13.969,10.688-29.576,10.688c-15.605,0-28.373-4.707-29.575-10.685
		C0.276,30.789,0,31.953,0,33.201v3.18c0,3.334,1.777,6.156,4.22,7.188c4.596,3.688,14.554,6.246,26.131,6.246
		c11.67,0,21.696-2.599,26.246-6.332c2.321-1.109,3.985-3.871,3.985-7.103v-3.18c0-1.248-0.275-2.412-0.717-3.455H59.868z"/>
	<path fill="#FFFFFF" d="M59.868,14.24c-1.199,5.982-13.969,10.69-29.576,10.69c-15.605,0-28.373-4.708-29.575-10.686
		C0.276,15.285,0,16.448,0,17.696v3.178c0,3.338,1.777,6.158,4.22,7.19c4.596,3.687,14.554,6.246,26.131,6.246
		c11.67,0,21.696-2.599,26.246-6.332c2.321-1.11,3.985-3.873,3.985-7.104v-3.178c0-1.248-0.275-2.411-0.717-3.456H59.868z"/>
	<path fill="#FFFFFF" d="M59.152,10.812c0,5.97-12.92,10.812-28.86,10.812c-15.939,0-28.86-4.842-28.86-10.812
		C1.431,4.841,14.352,0,30.292,0S59.152,4.841,59.152,10.812z"/>
</g>
</svg>
