<?xml version="1.0" encoding="utf-8"?>
<!-- Generator: Adobe Illustrator 16.0.0, SVG Export Plug-In . SVG Version: 6.00 Build 0)  -->
<!DOCTYPE svg PUBLIC "-//W3C//DTD SVG 1.1//EN" "http://www.w3.org/Graphics/SVG/1.1/DTD/svg11.dtd">
<svg version="1.1" id="Calque_1" xmlns="http://www.w3.org/2000/svg" xmlns:xlink="http://www.w3.org/1999/xlink" x="0px" y="0px"
	 width="97.167px" height="73.924px" viewBox="0 0 97.167 73.924" enable-background="new 0 0 97.167 73.924" xml:space="preserve">
<g>
	<polygon fill="#9E9E9E" points="51.887,13.445 48.39,13.451 44.883,13.454 46.628,7.231 48.364,1.01 50.128,7.226 	"/>
	<polygon fill="#9E9E9E" points="71.064,40.835 71.058,37.335 71.052,33.833 77.277,35.576 83.498,37.314 77.282,39.077 	"/>
	<polygon fill="#9E9E9E" points="66.811,51.038 68.43,47.938 70.05,44.83 74.754,49.262 79.462,53.691 73.134,52.366 	"/>
	<polygon fill="#9E9E9E" points="29.005,22.882 27.384,25.988 25.766,29.092 21.061,24.662 16.353,20.229 22.682,21.557 	"/>
	<polygon fill="#9E9E9E" points="67.18,23.767 68.798,26.871 70.418,29.977 75.121,25.547 79.829,21.115 73.503,22.443 	"/>
	<polygon fill="#9E9E9E" points="38.504,15.324 35.558,17.214 32.612,19.106 30.727,12.926 28.838,6.744 33.673,11.036 	"/>
	<polygon fill="#9E9E9E" points="57.079,15.202 60.027,17.1 62.971,18.984 64.858,12.806 66.744,6.621 61.913,10.911 	"/>
	<circle fill="#9E9E9E" cx="47.807" cy="37.199" r="20.401"/>
	<polygon fill="#9E9E9E" points="44.883,60.09 48.386,60.087 51.887,60.081 50.148,66.306 48.406,72.529 46.645,66.312 	"/>
	<polygon fill="#9E9E9E" points="57.929,58.998 60.841,57.051 63.752,55.109 65.749,61.255 67.744,67.402 62.835,63.202 	"/>
	<polygon fill="#9E9E9E" points="25.107,40.835 25.11,37.335 25.116,33.838 18.892,35.576 12.67,37.317 18.889,39.079 	"/>
	<polygon fill="#9E9E9E" points="29.426,52.136 27.809,49.032 26.188,45.926 21.483,50.354 16.775,54.786 23.101,53.461 	"/>
	<polygon fill="#9E9E9E" points="38.698,59.015 35.747,57.115 32.803,55.229 30.918,61.409 29.033,67.594 33.861,63.303 	"/>
</g>
</svg>
