<?xml version="1.0" encoding="iso-8859-1"?>
<!-- Generator: Adobe Illustrator 19.0.0, SVG Export Plug-In . SVG Version: 6.00 Build 0)  -->
<svg xmlns="http://www.w3.org/2000/svg" xmlns:xlink="http://www.w3.org/1999/xlink" version="1.1" id="Layer_1" x="0px" y="0px" viewBox="0 0 512 512" style="enable-background:new 0 0 512 512;" xml:space="preserve" width="512" height="512">
<g>
	<polygon style="fill:#A3BBC0;" points="474.25,31 391.5,60 308.75,31 271,31 86,256 271,481 308.75,481 323.75,452 338.75,481    376.5,481 391.5,452 406.5,481 444.25,481 459.25,452 474.25,481 512,481 512,31  "/>
	<polygon style="fill:#BDDBE0;" points="241,31 203.25,31 188.25,60 173.25,31 135.5,31 120.5,60 105.5,31 67.75,31 52.75,60    37.75,31 0,31 0,481 37.75,481 52.75,452 67.75,481 105.5,481 120.5,452 135.5,481 173.25,481 188.25,452 203.25,481 241,481    256,452 256,60  "/>
	<rect x="37.75" y="421" style="fill:#A3BBC0;" width="30" height="60"/>
	<rect x="105.5" y="421" style="fill:#A3BBC0;" width="30" height="60"/>
	<rect x="173.25" y="421" style="fill:#A3BBC0;" width="30" height="60"/>
	<polygon style="fill:#8B9EA4;" points="271,421 256,421 246,451 256,481 271,481  "/>
	<rect x="241" y="421" style="fill:#A3BBC0;" width="15" height="60"/>
	<rect x="308.75" y="421" style="fill:#8B9EA4;" width="30" height="60"/>
	<rect x="376.5" y="421" style="fill:#8B9EA4;" width="30" height="60"/>
	<rect x="444.25" y="421" style="fill:#8B9EA4;" width="30" height="60"/>
	<rect x="37.75" y="31" style="fill:#A3BBC0;" width="30" height="60"/>
	<rect x="105.5" y="31" style="fill:#A3BBC0;" width="30" height="60"/>
	<rect x="173.25" y="31" style="fill:#A3BBC0;" width="30" height="60"/>
	<polygon style="fill:#8B9EA4;" points="271,31 256,31 246,61 256,91 271,91  "/>
	<rect x="241" y="31" style="fill:#A3BBC0;" width="15" height="60"/>
	<rect x="308.75" y="31" style="fill:#D6FAFF;" width="165.5" height="110"/>
	<polygon style="fill:#BDDBE0;" points="512,121 256,121 146,256 256,391 512,391  "/>
	<rect y="121" style="fill:#D6FAFF;" width="256" height="270"/>
	<polygon style="fill:#0CBF4E;" points="331.25,181 256,181 196,256 256,331 331.25,331  "/>
	<rect x="60" y="181" style="fill:#5DC75D;" width="196" height="150"/>
</g>















</svg>
