<?xml version="1.0"?>
<svg xmlns="http://www.w3.org/2000/svg" xmlns:xlink="http://www.w3.org/1999/xlink" version="1.1" id="Capa_1" x="0px" y="0px" viewBox="0 0 512 512" style="enable-background:new 0 0 512 512;" xml:space="preserve" width="512px" height="512px"><g><g>
	<g>
		<path d="M512,150.904v-30h-62.972V62.972h-57.933V0h-30v62.972h-30.048V0h-30v62.972H271V0h-30v62.972h-30.048V0h-30v62.972    h-30.048V0h-30v62.972H62.972v57.932H0v30h62.972v30.048H0v30h62.972V241H0v30h62.972v30.048H0v30h62.972v30.048H0v30h62.972    v57.932h57.932V512h30v-62.972h30.048V512h30v-62.972H241V512h30v-62.972h30.048V512h30v-62.972h30.048V512h30v-62.972h57.933    v-57.932H512v-30h-62.972v-30.048H512v-30h-62.972V271H512v-30h-62.972v-30.048H512v-30h-62.972v-30.048H512z M419.028,419.028    H92.972V92.972h326.056V419.028z" data-original="#000000" class="active-path" data-old_color="#FCF8F8" fill="#FFFFFF"/>
	</g>
</g><g>
	<g>
		<path d="M122.972,122.972v266.056h266.056V122.972H122.972z M359.028,359.028H152.972V152.972h206.056V359.028z" data-original="#000000" class="active-path" data-old_color="#FCF8F8" fill="#FFFFFF"/>
	</g>
</g></g> </svg>
