<?xml version="1.0" encoding="utf-8"?>
<!-- Generator: Adobe Illustrator 16.0.0, SVG Export Plug-In . SVG Version: 6.00 Build 0)  -->
<!DOCTYPE svg PUBLIC "-//W3C//DTD SVG 1.1//EN" "http://www.w3.org/Graphics/SVG/1.1/DTD/svg11.dtd">
<svg version="1.1" id="Calque_1" xmlns="http://www.w3.org/2000/svg" xmlns:xlink="http://www.w3.org/1999/xlink" x="0px" y="0px"
	 width="81.118px" height="81.631px" viewBox="0 0 81.118 81.631" enable-background="new 0 0 81.118 81.631" xml:space="preserve">
<g id="Calque_x0020_1">
	<g>
		<g>
			<path fill="#FFFFFF" d="M78.28,66.181c-0.336-0.437-0.941-1.098-1.348-1.47l-41.72-38.394c-0.405-0.373-0.579-1.099-0.388-1.615
				c0,0,1.487-4.001,1.487-6.78C36.312,8.025,28.181,0,18.155,0c-2.194,0-5.257,0.874-5.257,0.874
				c-0.529,0.151-0.648,0.597-0.265,0.992L23.992,13.55c0.383,0.395,0.374,1.031-0.021,1.414l-8.992,8.737
				c-0.395,0.383-1.031,0.374-1.414-0.021L2.066,11.845c-0.383-0.395-0.831-0.288-0.995,0.237c0,0-1.071,3.429-1.071,5.839
				c0,9.9,8.13,17.929,18.155,17.929c2.639,0,6.448-1.274,6.448-1.274c0.521-0.175,1.254,0.013,1.628,0.416l37.398,40.375
				c0.375,0.403,1.01,1.04,1.412,1.415c0,0,3.57,3.33,6.729,3.33c4.861,0,8.807-3.791,8.807-8.471c0-2.486-2.297-5.463-2.297-5.463
				V66.181z M71.963,75.946c-2.282,0-4.133-1.854-4.133-4.137c0-2.281,1.851-4.134,4.133-4.134c2.281,0,4.134,1.853,4.134,4.134
				C76.097,74.092,74.245,75.946,71.963,75.946z"/>
		</g>
		<path fill="#FFFFFF" d="M39.62,53.155L15.372,77.3c-0.602,0.604-1.58,0.6-2.182-0.004c-0.604-0.607-0.6-1.584,0.004-2.186
			L37.43,50.972l-3.657-3.638L9.427,71.585c-0.604,0.6-1.583,0.598-2.187-0.01c-0.602-0.605-0.599-1.582,0.005-2.186l24.337-24.236
			l-2.011-2.004l-1.184-1.32c-0.514,0.354-1.013,0.738-1.472,1.197L6.207,63.781c-4.015,4.024-4.05,10.616-0.077,14.722
			c3.971,4.111,10.448,4.178,14.466,0.15l20.708-20.752c0.526-0.524,0.976-1.105,1.366-1.709L39.62,53.155z"/>
		<path fill="#FFFFFF" d="M47.435,33.529l18.077-17.922l0.076-4.093l10.431-7.959L81.12,8.19l-7.342,10.276l-4.558,0.23
			L50.991,37.005L47.435,33.529L47.435,33.529z"/>
	</g>
</g>
</svg>
