<?xml version="1.0" encoding="utf-8"?>
<!-- Generator: Adobe Illustrator 16.0.0, SVG Export Plug-In . SVG Version: 6.00 Build 0)  -->
<!DOCTYPE svg PUBLIC "-//W3C//DTD SVG 1.1//EN" "http://www.w3.org/Graphics/SVG/1.1/DTD/svg11.dtd">
<svg version="1.1" id="Calque_1" xmlns="http://www.w3.org/2000/svg" xmlns:xlink="http://www.w3.org/1999/xlink" x="0px" y="0px"
	 width="81.118px" height="81.629px" viewBox="0 0 81.118 81.629" enable-background="new 0 0 81.118 81.629" xml:space="preserve">
<g id="Calque_x0020_1">
	<g>
		<g>
			<path fill="#212121" d="M78.28,66.181c-0.336-0.437-0.941-1.099-1.348-1.47l-41.72-38.395c-0.404-0.373-0.578-1.099-0.387-1.615
				c0,0,1.486-4.001,1.486-6.78C36.312,8.025,28.181,0,18.155,0c-2.194,0-5.258,0.874-5.258,0.874
				c-0.529,0.151-0.648,0.597-0.265,0.992L23.991,13.55c0.384,0.395,0.375,1.031-0.02,1.414l-8.992,8.737
				c-0.395,0.383-1.031,0.374-1.414-0.021l-11.5-11.836c-0.383-0.395-0.83-0.288-0.994,0.237c0,0-1.071,3.429-1.071,5.839
				c0,9.9,8.13,17.929,18.155,17.929c2.639,0,6.448-1.274,6.448-1.274c0.521-0.175,1.254,0.013,1.628,0.417l37.398,40.375
				c0.375,0.402,1.01,1.039,1.412,1.414c0,0,3.57,3.33,6.729,3.33c4.861,0,8.807-3.791,8.807-8.471
				C80.577,69.155,78.28,66.18,78.28,66.181L78.28,66.181z M71.963,75.946c-2.282,0-4.133-1.854-4.133-4.137
				c0-2.281,1.851-4.133,4.133-4.133c2.281,0,4.134,1.852,4.134,4.133C76.097,74.092,74.245,75.946,71.963,75.946z"/>
		</g>
		<path fill="#212121" d="M39.62,53.155L15.372,77.299c-0.602,0.604-1.58,0.601-2.182-0.004c-0.604-0.606-0.6-1.584,0.004-2.186
			L37.43,50.972l-3.657-3.638L9.427,71.584c-0.604,0.601-1.583,0.599-2.187-0.01c-0.602-0.604-0.599-1.582,0.005-2.186
			l24.337-24.236l-2.011-2.004l-1.184-1.32c-0.514,0.354-1.013,0.739-1.472,1.198L6.207,63.782
			c-4.015,4.023-4.05,10.615-0.077,14.721c3.971,4.111,10.448,4.179,14.466,0.15l20.708-20.751c0.526-0.524,0.976-1.106,1.366-1.71
			L39.62,53.155z"/>
		<path fill="#212121" d="M47.435,33.529l18.077-17.922l0.076-4.093l10.431-7.959L81.12,8.19l-7.342,10.276l-4.558,0.23
			L50.991,37.005L47.435,33.529L47.435,33.529z"/>
	</g>
</g>
</svg>
