<?xml version="1.0" encoding="utf-8"?>
<!-- Generator: Adobe Illustrator 16.0.0, SVG Export Plug-In . SVG Version: 6.00 Build 0)  -->
<!DOCTYPE svg PUBLIC "-//W3C//DTD SVG 1.1//EN" "http://www.w3.org/Graphics/SVG/1.1/DTD/svg11.dtd">
<svg version="1.1" id="Calque_1" xmlns="http://www.w3.org/2000/svg" xmlns:xlink="http://www.w3.org/1999/xlink" x="0px" y="0px"
	 width="111.742px" height="96.766px" viewBox="0 0 111.742 96.766" enable-background="new 0 0 111.742 96.766"
	 xml:space="preserve">
<g>
	<polygon fill="#FFFFFF" stroke="#FFFFFF" stroke-linecap="round" stroke-linejoin="round" stroke-miterlimit="1" points="
		60.508,46.522 85.903,18.365 94.566,26.158 69.17,54.315 	"/>
	<polygon fill="#FFFFFF" stroke="#FFFFFF" stroke-linecap="round" stroke-linejoin="round" stroke-miterlimit="1" points="
		88.95,14.995 93.051,10.45 101.711,18.244 97.611,22.789 	"/>
	<polygon fill="#FFFFFF" stroke="#FFFFFF" stroke-linecap="round" stroke-linejoin="round" points="66.012,57.529 61.817,53.767 
		57.621,50.006 54.25,57.118 56.777,59.372 59.293,61.638 	"/>
	<polygon fill="#FFFFFF" stroke="#FFFFFF" stroke-linecap="round" stroke-linejoin="round" points="51.326,65.399 51.711,63.595 
		52.093,61.792 53.462,63.026 54.834,64.259 53.08,64.829 	"/>
</g>
<rect x="12.233" y="4.351" fill="none" stroke="#FFFFFF" stroke-width="7" stroke-linecap="round" stroke-linejoin="round" width="64.809" height="88.415"/>
<path fill="none" stroke="#212121" stroke-width="0.75" d="M29.577,66.456"/>
<line fill="none" stroke="#FFFFFF" stroke-width="2" stroke-linecap="round" stroke-linejoin="round" x1="49.691" y1="75.542" x2="12.161" y2="75.542"/>
<line fill="none" stroke="#FFFFFF" stroke-width="2" stroke-linecap="round" stroke-linejoin="round" x1="49.41" y1="80.548" x2="12.443" y2="80.548"/>
<line fill="none" stroke="#FFFFFF" stroke-width="2" stroke-linecap="round" stroke-linejoin="round" x1="49.852" y1="85.555" x2="12" y2="85.555"/>
<line fill="none" stroke="#FFFFFF" stroke-width="3" stroke-linecap="round" stroke-linejoin="round" x1="77.522" y1="24.267" x2="44.28" y2="24.267"/>
<line fill="none" stroke="#FFFFFF" stroke-width="2" stroke-linecap="round" stroke-linejoin="round" x1="50.076" y1="91.418" x2="50.128" y2="24.685"/>
<line fill="none" stroke="#FFFFFF" stroke-width="2" stroke-linecap="round" stroke-linejoin="round" x1="49.691" y1="70.536" x2="12.161" y2="70.536"/>
<line fill="none" stroke="#FFFFFF" stroke-width="2" stroke-linecap="round" stroke-linejoin="round" x1="49.691" y1="65.53" x2="12.161" y2="65.53"/>
<line fill="none" stroke="#FFFFFF" stroke-width="4" stroke-linecap="round" stroke-linejoin="round" stroke-dasharray="7" x1="33.103" y1="21.791" x2="12.594" y2="21.791"/>
<line fill="none" stroke="#FFFFFF" stroke-width="4" stroke-linecap="round" stroke-linejoin="round" stroke-dasharray="7" x1="33.052" y1="64.102" x2="33.12" y2="22.435"/>
</svg>
