<?xml version="1.0" encoding="utf-8"?>
<!-- Generator: Adobe Illustrator 16.0.0, SVG Export Plug-In . SVG Version: 6.00 Build 0)  -->
<!DOCTYPE svg PUBLIC "-//W3C//DTD SVG 1.1//EN" "http://www.w3.org/Graphics/SVG/1.1/DTD/svg11.dtd">
<svg version="1.1" id="Calque_1" xmlns="http://www.w3.org/2000/svg" xmlns:xlink="http://www.w3.org/1999/xlink" x="0px" y="0px"
	 width="111.445px" height="105.971px" viewBox="0 0 111.445 105.971" enable-background="new 0 0 111.445 105.971"
	 xml:space="preserve">
<g id="Calque_x0020_1">
	<g>
		<path fill="#212121" d="M0,36.845v16.258h7.608V36.845H0z M3.841,51.176l-2.41,0.022L2.616,49.1L3.802,47l1.226,2.077l1.225,2.077
			L3.841,51.176L3.841,51.176z M5.045,40.996l-1.204,2.09l-1.206-2.09L1.43,38.909h2.411h2.41L5.045,40.996z"/>
		<path fill="#212121" d="M25.005,105.97v-92.47h75.744v92.47h10.616c0.048-0.671,0.08-1.352,0.08-2.041V21.02
			C111.446,9.413,104.426,0,95.764,0H29.988C21.328,0,14.307,9.413,14.307,21.02v82.909c0,0.689,0.032,1.37,0.08,2.041H25.005
			L25.005,105.97z"/>
		<g>
			<path fill="#212121" d="M93.097,93.248h-26.45V22.052h26.45V93.248z"/>
			<path fill="#212121" d="M59.107,93.248H32.658V22.052h26.448V93.248z"/>
		</g>
	</g>
</g>
</svg>
