<?xml version="1.0" encoding="utf-8"?>
<!-- Generator: Adobe Illustrator 16.0.0, SVG Export Plug-In . SVG Version: 6.00 Build 0)  -->
<!DOCTYPE svg PUBLIC "-//W3C//DTD SVG 1.1//EN" "http://www.w3.org/Graphics/SVG/1.1/DTD/svg11.dtd">
<svg version="1.1" id="Calque_1" xmlns="http://www.w3.org/2000/svg" xmlns:xlink="http://www.w3.org/1999/xlink" x="0px" y="0px"
	 width="111.742px" height="96.766px" viewBox="0 0 111.742 96.766" enable-background="new 0 0 111.742 96.766"
	 xml:space="preserve">
<path fill="#FFFFFF" d="M46.864,43.762h19.821V20.818h4.213L56.774,5.344L42.652,20.818h4.212V43.762z M46.864,43.762"/>
<path fill="#FFFFFF" d="M91.879,34.859H72.698v14.919H40.851V34.859H21.67l35.104,31.595L91.879,34.859z M91.879,34.859"/>
<path fill="#FFFFFF" d="M69.064,63.482l27.308,24.583v-49.16L69.064,63.482z M69.064,63.482"/>
<path fill="#FFFFFF" d="M56.774,74.548l-7.797-7.016L21.67,92.11h70.209L64.571,67.532L56.774,74.548z M56.774,74.548"/>
<path fill="#FFFFFF" d="M17.176,38.905v49.16l27.308-24.583L17.176,38.905z M17.176,38.905"/>
</svg>
