<?xml version="1.0" encoding="utf-8"?>
<!-- Generator: Adobe Illustrator 16.0.0, SVG Export Plug-In . SVG Version: 6.00 Build 0)  -->
<!DOCTYPE svg PUBLIC "-//W3C//DTD SVG 1.1//EN" "http://www.w3.org/Graphics/SVG/1.1/DTD/svg11.dtd">
<svg version="1.1" id="Calque_1" xmlns="http://www.w3.org/2000/svg" xmlns:xlink="http://www.w3.org/1999/xlink" x="0px" y="0px"
	 width="111.742px" height="96.766px" viewBox="0 0 111.742 96.766" enable-background="new 0 0 111.742 96.766"
	 xml:space="preserve">
<path fill="#FFFFFF" d="M69.16,64.457l27.763,24.988V39.47L69.16,64.457z M69.16,64.457"/>
<path fill="#FFFFFF" d="M56.665,75.706l-7.926-7.134L20.976,93.56h71.375L64.589,68.573L56.665,75.706z M56.665,75.706"/>
<path fill="#FFFFFF" d="M16.408,39.47v49.976L44.17,64.457L16.408,39.47z M16.408,39.47"/>
<path fill="#FFFFFF" d="M71.02,27.199H66.74V3.872H46.588v23.328h-4.283l14.359,15.731L71.02,27.199z M71.02,27.199"/>
<path fill="#FFFFFF" d="M92.352,35.356H71.854L56.665,52.002L41.476,35.356h-20.5l35.689,32.12L92.352,35.356z M92.352,35.356"/>
</svg>
