<?xml version="1.0" encoding="utf-8"?>
<!-- Generator: Adobe Illustrator 16.0.0, SVG Export Plug-In . SVG Version: 6.00 Build 0)  -->
<!DOCTYPE svg PUBLIC "-//W3C//DTD SVG 1.1//EN" "http://www.w3.org/Graphics/SVG/1.1/DTD/svg11.dtd">
<svg version="1.1" id="Calque_1" xmlns="http://www.w3.org/2000/svg" xmlns:xlink="http://www.w3.org/1999/xlink" x="0px" y="0px"
	 width="104.838px" height="82.075px" viewBox="0 0 104.838 82.075" enable-background="new 0 0 104.838 82.075"
	 xml:space="preserve">
<g id="Calque_x0020_1">
	<path fill="#FFFFFF" stroke="#FFFFFF" stroke-width="0.5" stroke-linecap="round" stroke-linejoin="round" d="M7.492,27.107"/>
	<path fill="#212121" d="M104.838,82.075H0v-4.586h104.838V82.075z"/>
	<path fill="#212121" d="M5.102,1.778V70.35h22.447V1.778H5.102z M19.554,65.193h-6.459c-1.956,0-3.543-1.75-3.543-3.909
		c0-2.16,1.587-3.908,3.543-3.908h6.459c1.956,0,3.544,1.748,3.544,3.908C23.098,63.443,21.509,65.193,19.554,65.193z
		 M25.464,35.959H7.188V3.781h18.276V35.959z"/>
	<path fill="#212121" d="M20.259,27.262c0,2.174-1.762,3.935-3.934,3.935c-2.172,0-3.934-1.761-3.934-3.935
		c0-2.173,1.762-3.933,3.934-3.933C18.497,23.329,20.259,25.089,20.259,27.262z"/>
	<path fill="#212121" d="M38.411,1.778V70.35h22.445V1.778H38.411z M52.863,65.193h-6.458c-1.957,0-3.544-1.75-3.544-3.909
		c0-2.16,1.587-3.908,3.544-3.908h6.458c1.957,0,3.544,1.748,3.544,3.908C56.407,63.443,54.819,65.193,52.863,65.193z
		 M58.772,35.959H40.496V3.781h18.276V35.959z"/>
	<path fill="#212121" d="M53.567,27.262c0,2.174-1.761,3.935-3.934,3.935c-2.17,0-3.934-1.761-3.934-3.935
		c0-2.173,1.764-3.933,3.934-3.933C51.806,23.329,53.567,25.089,53.567,27.262z"/>
	<path fill="#212121" stroke="#FFFFFF" stroke-width="0.5" stroke-linecap="round" stroke-linejoin="round" d="M82.333,70.351"/>
	<path fill="#212121" d="M70.681,2.072l6.332,68.278l22.353-2.072L93.03,0L70.681,2.072z M90.926,63.881l-6.431,0.597
		c-1.947,0.181-3.691-1.417-3.891-3.563c-0.199-2.149,1.221-4.037,3.17-4.22l6.43-0.595c1.947-0.18,3.691,1.415,3.891,3.564
		C94.295,61.813,92.876,63.7,90.926,63.881L90.926,63.881z M94.112,34.229l-18.198,1.687l-2.972-32.04L91.14,2.188L94.112,34.229z"
		/>
	<path fill="#212121" d="M88.312,26.037c0.199,2.166-1.394,4.081-3.555,4.282c-2.162,0.201-4.08-1.39-4.281-3.554
		c-0.199-2.164,1.394-4.079,3.555-4.28C86.192,22.286,88.108,23.877,88.312,26.037z"/>
</g>
</svg>
