<?xml version="1.0" encoding="utf-8"?>
<!-- Generator: Adobe Illustrator 16.0.0, SVG Export Plug-In . SVG Version: 6.00 Build 0)  -->
<!DOCTYPE svg PUBLIC "-//W3C//DTD SVG 1.1//EN" "http://www.w3.org/Graphics/SVG/1.1/DTD/svg11.dtd">
<svg version="1.1" id="Calque_1" xmlns="http://www.w3.org/2000/svg" xmlns:xlink="http://www.w3.org/1999/xlink" x="0px" y="0px"
	 width="111.742px" height="96.766px" viewBox="0 0 111.742 96.766" enable-background="new 0 0 111.742 96.766"
	 xml:space="preserve">
<path fill="#FFFFFF" d="M27.206,5.295c0-0.991-0.803-1.794-1.795-1.794H13.064c-0.991,0-1.794,0.803-1.794,1.794V17.64
	c0,0.992,0.803,1.794,1.794,1.794h12.347c0.992,0,1.795-0.803,1.795-1.794V5.295z"/>
<path fill="#FFFFFF" d="M26.936,77.41c0-0.99-0.803-1.793-1.794-1.793H12.795C11.803,75.617,11,76.42,11,77.41v12.348
	c0,0.992,0.803,1.794,1.795,1.794h12.346c0.991,0,1.794-0.804,1.794-1.794V77.41z"/>
<path fill="#FFFFFF" d="M99.322,77.41c0-0.99-0.805-1.793-1.796-1.793H85.181c-0.992,0-1.796,0.803-1.796,1.793v12.348
	c0,0.992,0.804,1.794,1.796,1.794h12.346c0.991,0,1.796-0.804,1.796-1.794V77.41z"/>
<path fill="#FFFFFF" d="M99.322,5.295c0-0.992-0.805-1.794-1.796-1.794H85.181c-0.992,0-1.796,0.803-1.796,1.794V17.64
	c0,0.992,0.804,1.794,1.796,1.794h12.346c0.991,0,1.796-0.803,1.796-1.794V5.295z"/>
<path fill="#FFFFFF" d="M85.173,70.813c0.95-0.034,1.996-0.696,1.996-1.963V26.326c0-1.942-1.575-2.029-2.221-2.029h-6.423V17.8
	c0-1.917-1.398-2.146-2.03-2.146H34.001c-1.019,0-2.204,0.774-2.204,2.167v6.206h-6.389l-0.037,0.025
	c-0.949,0.035-1.947,0.778-1.947,2.044v42.522c0,1.943,1.477,2.134,2.121,2.134h6.252v6.395c0,1.916,1.57,2.25,2.204,2.25h42.493
	c1.02,0,2.03-0.879,2.03-2.273v-6.371h6.562L85.173,70.813z"/>
</svg>
