<?xml version="1.0" encoding="utf-8"?>
<!-- Generator: Adobe Illustrator 16.0.0, SVG Export Plug-In . SVG Version: 6.00 Build 0)  -->
<!DOCTYPE svg PUBLIC "-//W3C//DTD SVG 1.1//EN" "http://www.w3.org/Graphics/SVG/1.1/DTD/svg11.dtd">
<svg version="1.1" id="Calque_1" xmlns="http://www.w3.org/2000/svg" xmlns:xlink="http://www.w3.org/1999/xlink" x="0px" y="0px"
	 width="85.824px" height="105.096px" viewBox="0 0 85.824 105.096" enable-background="new 0 0 85.824 105.096"
	 xml:space="preserve">
<g id="Calque_x0020_1">
	<g>
		<path fill="#212121" d="M53.612,19.734V9.673c0-5.34-3.922-9.673-8.76-9.673c-4.836,0-8.756,4.333-8.756,9.673v10.062
			L53.612,19.734L53.612,19.734z"/>
		<g>
			<path fill="#212121" d="M36.097,74.508v17.258c0,5.344,3.92,9.674,8.756,9.674c4.838,0,8.76-4.33,8.76-9.674V74.508H36.097z"/>
			<path fill="#212121" d="M53.612,53.836V40.4H36.097v13.437H53.612L53.612,53.836z"/>
		</g>
		<path fill="none" stroke="#212121" stroke-width="2" stroke-linecap="round" stroke-linejoin="round" d="M30.768,19.734h38.341
			v-0.008l0.008,0.008h0.016v0.011l15.691,10.313L69.132,40.381v0.02h-0.027l-0.003,0.009V40.4H30.768V19.734z"/>
		<path fill="none" stroke="#212121" stroke-width="2" stroke-linecap="round" stroke-linejoin="round" d="M57.074,53.459H17.302
			v-0.008l-0.006,0.008h-0.02v0.012L1,63.784l16.276,10.323v0.021h0.029l0.002,0.006v-0.006h39.767V53.459z"/>
		<path fill="#212121" d="M70.882,105.096c-0.963-6.57-4.816-11.502-9.442-11.502H28.266c-4.623,0-8.478,4.932-9.441,11.502H70.882
			L70.882,105.096z"/>
	</g>
</g>
</svg>
