<?xml version="1.0" encoding="utf-8"?>
<!-- Generator: Adobe Illustrator 16.0.0, SVG Export Plug-In . SVG Version: 6.00 Build 0)  -->
<!DOCTYPE svg PUBLIC "-//W3C//DTD SVG 1.1//EN" "http://www.w3.org/Graphics/SVG/1.1/DTD/svg11.dtd">
<svg version="1.1" id="Calque_1" xmlns="http://www.w3.org/2000/svg" xmlns:xlink="http://www.w3.org/1999/xlink" x="0px" y="0px"
	 width="86px" height="83.545px" viewBox="0 0 86 83.545" enable-background="new 0 0 86 83.545" xml:space="preserve">
<g id="Calque_x0020_1">
	<g>
		<path fill="none" stroke="#FFFFFF" stroke-width="2" d="M78.73,54.944H7.268V3.959h71.464v50.985H78.73z"/>
		<path fill="none" stroke="#FFFFFF" stroke-width="3" d="M0,56.606h86"/>
		<path fill="none" stroke="#FFFFFF" stroke-width="3" d="M0,1.5h86"/>
		<g>
			<path fill="#FFFFFF" stroke="#FFFFFF" stroke-linecap="round" stroke-linejoin="round" d="M45.148,83.045h-3.687v-21.09h3.687
				V83.045z"/>
			<g>
				<path fill="#FFFFFF" stroke="#FFFFFF" stroke-linecap="round" stroke-linejoin="round" d="M62.195,80.676l-1.584,2.339
					l-17.453-11.83l1.584-2.338L62.195,80.676z"/>
				<path fill="#FFFFFF" stroke="#FFFFFF" stroke-linecap="round" stroke-linejoin="round" d="M23.805,80.676l1.583,2.339
					l17.454-11.83l-1.584-2.338L23.805,80.676L23.805,80.676z"/>
			</g>
		</g>
		<path fill="none" stroke="#FFFFFF" stroke-width="2" stroke-linecap="round" stroke-linejoin="round" d="M17.303,37.127
			c0,0,12.285,2.869,15.971-0.818c3.686-3.686,1.844-14.537,17.201-8.394c15.356,6.142,18.224-12.693,18.224-12.693"/>
	</g>
</g>
</svg>
