<?xml version="1.0" encoding="utf-8"?>
<!-- Generator: Adobe Illustrator 16.0.0, SVG Export Plug-In . SVG Version: 6.00 Build 0)  -->
<!DOCTYPE svg PUBLIC "-//W3C//DTD SVG 1.1//EN" "http://www.w3.org/Graphics/SVG/1.1/DTD/svg11.dtd">
<svg version="1.1" id="Calque_1" xmlns="http://www.w3.org/2000/svg" xmlns:xlink="http://www.w3.org/1999/xlink" x="0px" y="0px"
	 width="111.742px" height="96.766px" viewBox="0 0 111.742 96.766" enable-background="new 0 0 111.742 96.766"
	 xml:space="preserve">
<path fill="#FFFFFF" d="M99.974,6H12.028C8.704,6,6,8.704,6,12.029v71.78c0,3.324,2.704,6.027,6.028,6.027h87.946
	c3.324,0,6.028-2.703,6.028-6.027v-71.78C106.002,8.704,103.298,6,99.974,6L99.974,6z M79.378,85.007h-5.399
	c-1.084,0-1.963-0.879-1.963-1.965c0-1.083,0.879-1.962,1.963-1.962h5.399c1.083,0,1.962,0.879,1.962,1.962
	C81.34,84.128,80.463,85.007,79.378,85.007L79.378,85.007z M94.918,85.007h-5.399c-1.085,0-1.964-0.879-1.964-1.965
	c0-1.083,0.881-1.962,1.964-1.962h5.397c1.086,0,1.963,0.879,1.963,1.962C96.881,84.128,96.004,85.007,94.918,85.007L94.918,85.007z
	 M98.988,77.793H13.013V52.044c0,0-0.036-0.831,0.879-0.831h8.132c0.841,0,1.513,0.763,1.513,0.763l3.115,3.523
	c0.458,0.517,1.144,0.743,1.793,0.593c0.65-0.149,1.167-0.656,1.351-1.318c0,0,2.601-9.518,3.508-12.679
	c0.22-0.763,0.476-0.259,0.476-0.259l2.412,5.792c0.323,0.774,1.104,1.292,1.942,1.292h7.786c0.58,0,0.69,0.593,0.69,0.593
	l3.456,13.619c0.239,0.937,1.012,1.368,1.672,1.38c0.01,0,0.02,0,0.029,0c0.654,0,1.425-0.403,1.692-1.316
	c0,0,3.922-13.246,5.208-17.668c0.232-0.799,0.563,0.029,0.563,0.029l2.573,5.258c0.349,0.717,1.121,1.197,1.917,1.197h8.393
	c0.901,0,1.713-0.604,1.974-1.467c0,0,2.462-8.191,3.296-10.918c0.158-0.52,0.271,0.14,0.271,0.14l3.274,13.201
	c0.188,0.763,0.79,1.308,1.535,1.388c0.745,0.082,1.45-0.32,1.798-1.023l2.797-5.656c0,0,0.093-0.272,0.489-0.272h10.998
	c0.456,0,0.441,0.387,0.441,0.387v30.004H98.988z M98.988,43.64c0,0.421-0.441,0.396-0.441,0.396H86.43
	c-0.795,0-1.562,0.477-1.916,1.188c0,0-0.867,1.733-1.145,2.318c-0.24,0.504-0.325-0.025-0.325-0.025l-3.67-14.801
	c-0.231-0.94-1.001-1.378-1.661-1.394c-0.664-0.021-1.455,0.38-1.732,1.305l-4.728,15.66c0,0-0.056,0.357-0.582,0.357h-5.762
	c-0.41,0-0.59-0.35-0.59-0.35l-4.2-8.58c-0.337-0.692-1.029-1.101-1.762-1.037c-0.732,0.06-1.348,0.577-1.566,1.318l-4.685,15.894
	c0,0-0.188,0.887-0.409-0.021c-0.534-2.2-2.227-8.775-2.227-8.775c-0.228-0.892-1.061-1.54-1.981-1.54h-7.704
	c-0.79,0-1.038-0.551-1.038-0.551l-3.869-9.287c-0.308-0.737-0.999-1.184-1.758-1.135c-0.76,0.048-1.388,0.577-1.601,1.345
	c0,0-2.979,10.369-3.836,13.86c-0.364,1.482-1.14,0.504-1.14,0.504l-1.475-1.668c-0.424-0.481-1.085-0.779-1.727-0.779h-9.382
	c-0.982,0-0.946-0.782-0.946-0.782V18.043h85.976L98.988,43.64L98.988,43.64z"/>
</svg>
