<?xml version="1.0" encoding="utf-8"?>
<!-- Generator: Adobe Illustrator 16.0.0, SVG Export Plug-In . SVG Version: 6.00 Build 0)  -->
<!DOCTYPE svg PUBLIC "-//W3C//DTD SVG 1.1//EN" "http://www.w3.org/Graphics/SVG/1.1/DTD/svg11.dtd">
<svg version="1.1" id="Calque_1" xmlns="http://www.w3.org/2000/svg" xmlns:xlink="http://www.w3.org/1999/xlink" x="0px" y="0px"
	 width="63.115px" height="102.458px" viewBox="0 0 63.115 102.458" enable-background="new 0 0 63.115 102.458"
	 xml:space="preserve">
<g id="Calque_x0020_1">
	<path fill="none" stroke="#FFFFFF" stroke-width="2" d="M49.931,59.236V10.697c0-5.358-4.546-9.702-10.154-9.702
		c-5.609,0-10.154,4.344-10.154,9.702v48.539c-7.228,3.701-12.187,11.201-12.187,19.882c0,12.34,10.003,22.342,22.341,22.342
		c12.338,0,22.34-10.002,22.34-22.342C62.116,70.437,57.157,62.937,49.931,59.236z"/>
	<path fill="#FFFFFF" stroke="#FFFFFF" stroke-width="0.25" d="M17.954,36.304c0,0.878-0.776,1.588-1.735,1.588H4.78
		c-0.958,0-1.737-0.71-1.737-1.588c0-0.875,0.779-1.589,1.737-1.589h11.438C17.177,34.715,17.953,35.43,17.954,36.304L17.954,36.304
		z"/>
	<path fill="#FFFFFF" stroke="#FFFFFF" stroke-width="0.25" d="M17.954,44.938c0,0.777-0.561,1.408-1.251,1.408H8.451
		c-0.692,0-1.251-0.631-1.251-1.408c0-0.776,0.56-1.404,1.251-1.404h8.251C17.392,43.534,17.953,44.161,17.954,44.938L17.954,44.938
		z"/>
	<path fill="#FFFFFF" stroke="#FFFFFF" stroke-width="0.25" d="M17.954,27.669c0,0.879-0.93,1.589-2.078,1.589H2.188
		c-1.148,0-2.078-0.71-2.078-1.589c0-0.876,0.93-1.588,2.078-1.588h13.688C17.024,26.081,17.954,26.793,17.954,27.669z"/>
	<path fill="#FFFFFF" stroke="#FFFFFF" stroke-width="0.25" d="M42.45,66.387V45.709h-5.256v20.663
		C31.03,67.575,26.374,73,26.374,79.518c0,7.4,6.001,13.4,13.4,13.4c7.404,0,13.401-6,13.401-13.4
		c0-6.484-4.606-11.893-10.727-13.133L42.45,66.387z"/>
</g>
</svg>
