<?xml version="1.0" encoding="iso-8859-1"?>
<!-- Generator: Adobe Illustrator 19.0.0, SVG Export Plug-In . SVG Version: 6.00 Build 0)  -->
<svg version="1.1" id="Capa_1" xmlns="http://www.w3.org/2000/svg" xmlns:xlink="http://www.w3.org/1999/xlink" x="0px" y="0px"
	 viewBox="0 0 512.002 512.002" style="enable-background:new 0 0 512.002 512.002;" xml:space="preserve">
<linearGradient id="SVGID_1_" gradientUnits="userSpaceOnUse" x1="243.097" y1="106.6264" x2="330.117" y2="-38.4036" gradientTransform="matrix(1.0667 0 0 -1.0667 3.2666 557.5331)">
	<stop  offset="0" style="stop-color:#FFC200"/>
	<stop  offset="0.268" style="stop-color:#FFBB00"/>
	<stop  offset="0.659" style="stop-color:#FFA801"/>
	<stop  offset="1" style="stop-color:#FF9102"/>
</linearGradient>
<circle style="fill:url(#SVGID_1_);" cx="271.126" cy="458.059" r="53.943"/>
<linearGradient id="SVGID_2_" gradientUnits="userSpaceOnUse" x1="329.4405" y1="27.8793" x2="213.7505" y2="143.5693" gradientTransform="matrix(1.0667 0 0 -1.0667 3.2666 557.5331)">
	<stop  offset="0" style="stop-color:#FFC200;stop-opacity:0"/>
	<stop  offset="0.203" style="stop-color:#FFBB00;stop-opacity:0.203"/>
	<stop  offset="0.499" style="stop-color:#FFA700;stop-opacity:0.499"/>
	<stop  offset="0.852" style="stop-color:#FF8800;stop-opacity:0.852"/>
	<stop  offset="1" style="stop-color:#FF7800"/>
</linearGradient>
<path style="fill:url(#SVGID_2_);" d="M271.128,404.113c-28.098,0-51.168,21.486-53.702,48.922l58.724,58.724
	c27.437-2.534,48.922-25.604,48.922-53.702C325.071,428.264,300.92,404.113,271.128,404.113z"/>
<linearGradient id="SVGID_3_" gradientUnits="userSpaceOnUse" x1="200.407" y1="224.9864" x2="417.617" y2="-137.0336" gradientTransform="matrix(1.0667 0 0 -1.0667 3.2666 557.5331)">
	<stop  offset="0" style="stop-color:#FFC200"/>
	<stop  offset="0.268" style="stop-color:#FFBB00"/>
	<stop  offset="0.659" style="stop-color:#FFA801"/>
	<stop  offset="1" style="stop-color:#FF9102"/>
</linearGradient>
<path style="fill:url(#SVGID_3_);" d="M447.896,363.984H94.358c-24.145,0-43.719,19.573-43.719,43.719s19.573,43.719,43.719,43.719
	h353.537c24.145,0,43.719-19.573,43.719-43.719S472.042,363.984,447.896,363.984z"/>
<linearGradient id="SVGID_4_" gradientUnits="userSpaceOnUse" x1="199.7254" y1="310.434" x2="397.8954" y2="123.774" gradientTransform="matrix(1.0667 0 0 -1.0667 3.2666 557.5331)">
	<stop  offset="0" style="stop-color:#FFC200"/>
	<stop  offset="0.268" style="stop-color:#FFBB00"/>
	<stop  offset="0.659" style="stop-color:#FFA801"/>
	<stop  offset="1" style="stop-color:#FF9102"/>
</linearGradient>
<path style="fill:url(#SVGID_4_);" d="M422.591,330.999v-87.638c0-70.877-48.681-130.359-114.427-146.884
	c3.749-6.381,5.921-13.814,5.921-21.748c0-23.722-19.235-42.958-42.958-42.958c-23.723,0-42.958,19.235-42.958,42.958
	c0,7.934,2.171,15.367,5.921,21.748c-65.745,16.525-114.413,76.007-114.413,146.884v87.638c0,18.973-15.38,34.353-34.353,34.353
	H456.93C437.958,365.352,422.591,349.972,422.591,330.999z M271.128,91.897c-9.486,0-17.183-7.683-17.183-17.17
	c0-9.5,7.697-17.183,17.183-17.183s17.183,7.683,17.183,17.183C288.31,84.213,280.613,91.897,271.128,91.897z"/>
<linearGradient id="SVGID_5_" gradientUnits="userSpaceOnUse" x1="330.6714" y1="128.2206" x2="-1.8287" y2="85.9506" gradientTransform="matrix(1.0667 0 0 -1.0667 3.2666 557.5331)">
	<stop  offset="0" style="stop-color:#FFC200;stop-opacity:0"/>
	<stop  offset="0.203" style="stop-color:#FFBB00;stop-opacity:0.203"/>
	<stop  offset="0.499" style="stop-color:#FFA700;stop-opacity:0.499"/>
	<stop  offset="0.852" style="stop-color:#FF8800;stop-opacity:0.852"/>
	<stop  offset="1" style="stop-color:#FF7800"/>
</linearGradient>
<path style="fill:url(#SVGID_5_);" d="M51.183,416.391c3.3,20.876,21.372,36.839,43.177,34.866h353.537
	c21.804,1.973,39.875-13.99,43.177-34.866H51.183z"/>
<linearGradient id="SVGID_6_" gradientUnits="userSpaceOnUse" x1="304.8369" y1="160.4757" x2="239.7869" y2="225.5257" gradientTransform="matrix(1.0667 0 0 -1.0667 3.2666 557.5331)">
	<stop  offset="0" style="stop-color:#FFC200;stop-opacity:0"/>
	<stop  offset="0.13" style="stop-color:#FDBB00;stop-opacity:0.13"/>
	<stop  offset="0.32" style="stop-color:#F7A701;stop-opacity:0.32"/>
	<stop  offset="0.547" style="stop-color:#EE8702;stop-opacity:0.547"/>
	<stop  offset="0.799" style="stop-color:#E25B04;stop-opacity:0.799"/>
	<stop  offset="1" style="stop-color:#D63305"/>
</linearGradient>
<path style="fill:url(#SVGID_6_);" d="M491.615,407.703c0-24.145-19.573-43.719-43.719-43.719h-0.56
	c-14.298-4.154-24.746-17.344-24.746-32.985v-87.638c0-33.382-10.805-64.233-29.1-89.261L96.166,451.423h121.438
	c-0.267,2.175-0.42,4.386-0.42,6.634c0,29.792,24.151,53.943,53.943,53.943s53.943-24.151,53.943-53.943
	c0-2.247-0.154-4.458-0.421-6.634h123.246C472.042,451.423,491.615,431.848,491.615,407.703z"/>
<linearGradient id="SVGID_7_" gradientUnits="userSpaceOnUse" x1="227.8685" y1="249.7073" x2="258.8985" y2="218.6873" gradientTransform="matrix(1.0667 0 0 -1.0667 3.2666 557.5331)">
	<stop  offset="0" style="stop-color:#D63305"/>
	<stop  offset="0.366" style="stop-color:#CF3004"/>
	<stop  offset="0.899" style="stop-color:#BC2602"/>
	<stop  offset="1" style="stop-color:#B72401"/>
</linearGradient>
<path style="fill:url(#SVGID_7_);" d="M76.523,495.423L76.523,495.423c-6.725-6.725-6.725-17.631,0-24.356L426.22,121.369
	c6.725-6.725,17.631-6.725,24.356,0l0,0c6.725,6.725,6.725,17.631,0,24.356L100.879,495.423
	C94.154,502.149,83.249,502.149,76.523,495.423z"/>
<linearGradient id="SVGID_8_" gradientUnits="userSpaceOnUse" x1="97.6784" y1="435.9772" x2="133.6684" y2="399.9872" gradientTransform="matrix(1.0667 0 0 -1.0667 3.2666 557.5331)">
	<stop  offset="0" style="stop-color:#1ACEB8"/>
	<stop  offset="1" style="stop-color:#0BBFBA"/>
</linearGradient>
<path style="fill:url(#SVGID_8_);" d="M166.558,54.518c-41.413,23.247-74.363,59.843-92.985,103.915
	c-3.658,8.657,0.54,18.639,9.236,22.203l0.494,0.203c8.665,3.55,18.464-0.637,22.118-9.258
	c15.646-36.907,43.277-67.55,77.979-87.013c7.433-4.17,10.633-13.189,7.459-21.099l-0.202-0.501
	C186.836,53.44,175.508,49.494,166.558,54.518z"/>
<linearGradient id="SVGID_9_" gradientUnits="userSpaceOnUse" x1="35.847" y1="498.1548" x2="105.08" y2="428.9189" gradientTransform="matrix(1.0667 0 0 -1.0667 3.2666 557.5331)">
	<stop  offset="0" style="stop-color:#1ACEB8"/>
	<stop  offset="1" style="stop-color:#0BBFBA"/>
</linearGradient>
<path style="fill:url(#SVGID_9_);" d="M145.622,2.013C90.256,31.131,46.171,78.879,21.732,136.866
	c-3.71,8.803,0.525,18.947,9.364,22.571l0.006,0.002c8.731,3.58,18.716-0.537,22.38-9.233
	C74.84,99.509,113.419,57.78,161.857,32.379c7.778-4.079,11.138-13.44,7.869-21.591l0,0C165.907,1.27,154.699-2.761,145.622,2.013z"
	/>
<g>
</g>
<g>
</g>
<g>
</g>
<g>
</g>
<g>
</g>
<g>
</g>
<g>
</g>
<g>
</g>
<g>
</g>
<g>
</g>
<g>
</g>
<g>
</g>
<g>
</g>
<g>
</g>
<g>
</g>
</svg>
