<?xml version="1.0" encoding="utf-8"?>
<!-- Generator: Adobe Illustrator 16.0.0, SVG Export Plug-In . SVG Version: 6.00 Build 0)  -->
<!DOCTYPE svg PUBLIC "-//W3C//DTD SVG 1.1//EN" "http://www.w3.org/Graphics/SVG/1.1/DTD/svg11.dtd">
<svg version="1.1" id="Calque_1" xmlns="http://www.w3.org/2000/svg" xmlns:xlink="http://www.w3.org/1999/xlink" x="0px" y="0px"
	 width="48.619px" height="91.363px" viewBox="0 0 48.619 91.363" enable-background="new 0 0 48.619 91.363" xml:space="preserve">
<g id="Calque_x0020_1">
	<g>
		<path fill="#212121" d="M2.521,75.204v13.632h43.578V75.204H2.521z M24.31,87.36c-2.223,0-4.023-1.825-4.023-4.08
			c0-2.258,1.801-4.087,4.023-4.087s4.021,1.829,4.021,4.087C28.331,85.535,26.531,87.36,24.31,87.36z"/>
		<g>
			<path fill="none" stroke="#212121" stroke-width="3" d="M47.119,84.613c0,2.886-2.378,5.25-5.283,5.25H6.783
				c-2.907,0-5.283-2.364-5.283-5.25V6.75c0-2.886,2.376-5.25,5.283-5.25h35.053c2.905,0,5.283,2.364,5.283,5.25V84.613z"/>
		</g>
		<path fill="#212121" d="M2.521,2.615v8.416h43.576V2.615H2.521z M30.687,7.365H17.933c-0.317,0-0.569-0.51-0.569-1.147
			c0-0.619,0.252-1.133,0.569-1.133h12.753c0.313,0,0.57,0.514,0.57,1.133C31.257,6.856,31,7.365,30.687,7.365z"/>
	</g>
</g>
</svg>
