<?xml version="1.0" encoding="utf-8"?>
<!-- Generator: Adobe Illustrator 16.0.0, SVG Export Plug-In . SVG Version: 6.00 Build 0)  -->
<!DOCTYPE svg PUBLIC "-//W3C//DTD SVG 1.1//EN" "http://www.w3.org/Graphics/SVG/1.1/DTD/svg11.dtd">
<svg version="1.1" id="Calque_1" xmlns="http://www.w3.org/2000/svg" xmlns:xlink="http://www.w3.org/1999/xlink" x="0px" y="0px"
	 width="111.742px" height="96.766px" viewBox="0 0 111.742 96.766" enable-background="new 0 0 111.742 96.766"
	 xml:space="preserve">
<g>
	<path fill="#FFFFFF" d="M103.226,24.463c1.183,0,2.149-0.968,2.149-2.147V15.03c0-1.18-0.967-2.146-2.149-2.146H8.767
		c-1.182,0-2.148,0.967-2.148,2.146v7.286c0,1.18,0.966,2.147,2.148,2.147H103.226z"/>
	<path fill="#FFFFFF" d="M105.358,64.969c0-0.592-0.484-1.075-1.078-1.075H7.679c-0.592,0-1.077,0.482-1.077,1.075v8.244
		c0,0.592,0.485,1.076,1.077,1.076h43.798c0.591,0,1.073,0.041,1.072,0.091c0,0,0,0,0,0.047c0,1.299,0.923,1.822,0.923,1.822
		c0.516,0.291,1.425,0.53,2.016,0.53h4.577c0.594,0,1.499-0.239,2.017-0.53c0,0,0.924-0.523,0.924-1.822c0-0.047,0-0.047,0-0.047
		c-0.003-0.05,0.478-0.091,1.074-0.091h6.209c0.594,0,1.076,0.041,1.073,0.091c0,0,0,0,0,0.047c0,1.299,0.923,1.822,0.923,1.822
		c0.518,0.291,1.424,0.53,2.019,0.53h4.576c0.592,0,1.5-0.239,2.016-0.53c0,0,0.923-0.523,0.923-1.822c0-0.047,0-0.047,0-0.047
		c-0.002-0.05,0.481-0.091,1.073-0.091h21.388c0.595,0,1.078-0.483,1.078-1.076v-8.244H105.358z"/>
	<path fill="#FFFFFF" d="M107.603,35.266v-6.188c0-1.783-1.447-3.234-3.235-3.234H7.625c-1.789,0-3.236,1.451-3.236,3.234v6.188
		h9.337v1.297H4.389v0.923h9.337v1.297H4.389v0.923h9.337v1.294H4.389v0.926h9.337v1.297H4.389v0.922h9.337v1.297H4.389v0.922h9.337
		v1.297H4.389v0.924h9.337v1.297H4.389v9.236c0,1.787,1.447,3.233,3.236,3.233h96.742c1.789,0,3.235-1.446,3.235-3.233v-9.236
		h-9.088v-1.297h9.088v-0.924h-9.088v-1.297h9.088v-0.922h-9.088v-1.297h9.088v-0.922h-9.088v-1.297h9.088v-0.926h-9.088v-1.294
		h9.088v-0.923h-9.088v-1.297h9.088v-0.923h-9.088v-1.297H107.603z M63.911,32.101h2.372v0.971h-2.372V32.101z M59.569,32.101h2.373
		v0.971h-2.373V32.101z M55.229,32.101h2.376v0.971h-2.376V32.101z M50.892,32.101h2.374v0.971h-2.374V32.101z M90.712,51.289
		H22.791V33.93h67.921V51.289z"/>
</g>
<g>
	<path fill="#FFFFFF" d="M37.865,40.551h4.518v1.279h-1.45v3.597h-1.622V41.83h-1.447V40.551z"/>
	<path fill="#FFFFFF" d="M48.124,45.427h-1.646c-0.049-0.142-0.075-0.441-0.075-0.898c0-0.332-0.05-0.55-0.156-0.65
		c-0.104-0.102-0.3-0.154-0.592-0.154H45.56h-0.513v1.703h-1.621V40.55h2.294c0.712,0,1.229,0.078,1.553,0.227
		c0.448,0.208,0.672,0.596,0.672,1.16c0,0.341-0.08,0.614-0.238,0.814c-0.158,0.195-0.356,0.32-0.595,0.376
		c0.333,0.098,0.554,0.242,0.667,0.424c0.111,0.181,0.167,0.464,0.167,0.852v0.492c0,0.262,0.059,0.393,0.176,0.393L48.124,45.427
		L48.124,45.427z M46.422,42.192c0-0.334-0.225-0.502-0.676-0.502h-0.7v0.963h0.629C46.175,42.653,46.422,42.5,46.422,42.192z"/>
	<path fill="#FFFFFF" d="M49.256,41.757h1.62v3.67h-1.62V41.757z"/>
	<path fill="#FFFFFF" d="M52.242,45.427V40.55h2.238c0.783,0,1.395,0.199,1.835,0.601c0.44,0.4,0.661,0.979,0.661,1.74
		c0,0.834-0.217,1.465-0.647,1.893c-0.432,0.432-1.073,0.642-1.923,0.642L52.242,45.427L52.242,45.427z M53.862,44.289h0.32
		c0.782,0,1.172-0.433,1.172-1.311c0-0.527-0.096-0.875-0.289-1.04c-0.192-0.165-0.49-0.25-0.89-0.25h-0.314V44.289L53.862,44.289z"
		/>
	<path fill="#FFFFFF" d="M58.075,40.551h1.619v3.723h-1.619V40.551z"/>
	<path fill="#FFFFFF" d="M61.057,40.551h1.621v2.991c0,0.273,0.062,0.48,0.188,0.613c0.125,0.135,0.31,0.205,0.553,0.205
		c0.237,0,0.419-0.07,0.551-0.205c0.135-0.133,0.202-0.349,0.202-0.645v-2.96h1.619v2.775c0,0.766-0.181,1.33-0.545,1.691
		c-0.365,0.355-0.966,0.534-1.802,0.534c-0.846,0-1.455-0.178-1.83-0.534c-0.37-0.361-0.557-0.925-0.557-1.691V40.551z"/>
	<path fill="#FFFFFF" d="M67.087,40.551h1.949l0.859,3.047h0.006l0.861-3.047h1.949v4.877h-1.439v-2.821h-0.004l-0.811,2.821h-1.116
		l-0.812-2.821h-0.004v2.821h-1.439V40.551L67.087,40.551z"/>
	<path fill="#FFFFFF" d="M50.861,40.267c0,0.44-0.356,0.797-0.795,0.797c-0.441,0-0.796-0.357-0.796-0.797
		c0-0.438,0.355-0.795,0.796-0.795C50.505,39.472,50.861,39.83,50.861,40.267z"/>
	<circle fill="#FFFFFF" cx="58.884" cy="45.743" r="0.797"/>
</g>
</svg>
