<?xml version="1.0" encoding="utf-8"?>
<!-- Generator: Adobe Illustrator 16.0.0, SVG Export Plug-In . SVG Version: 6.00 Build 0)  -->
<!DOCTYPE svg PUBLIC "-//W3C//DTD SVG 1.1//EN" "http://www.w3.org/Graphics/SVG/1.1/DTD/svg11.dtd">
<svg version="1.1" id="Calque_1" xmlns="http://www.w3.org/2000/svg" xmlns:xlink="http://www.w3.org/1999/xlink" x="0px" y="0px"
	 width="79.504px" height="100.602px" viewBox="0 0 79.504 100.602" enable-background="new 0 0 79.504 100.602"
	 xml:space="preserve">
<g id="Calque_x0020_1">
	<g>
		<path fill="#FFFFFF" d="M49.92,87.877c0,0.939-0.715,1.705-1.598,1.705H29.655c-0.88,0-1.599-0.766-1.599-1.705
			c0-0.943,0.719-1.707,1.599-1.707h18.667C49.205,86.17,49.92,86.934,49.92,87.877z"/>
		<path fill="#FFFFFF" d="M44.702,96.698c0,2.154-0.376,3.902-0.835,3.902H34.11c-0.459,0-0.837-1.748-0.837-3.902
			c0-2.164,0.378-3.91,0.837-3.91h9.757C44.326,92.788,44.702,94.534,44.702,96.698z"/>
		<path fill="#FFFFFF" d="M39.864,14.694c-14.482-0.063-26.266,10.939-26.33,24.584c-0.019,4.521,1.273,8.747,3.506,12.402
			c4.264,10.384,11.275,23.892,11.68,24.671h7.15L30.308,59.69c-0.279-0.838,0.146-1.732,0.95-2.002
			c0.807-0.27,1.681,0.193,1.963,1.031l5.882,17.633h0.789L44.1,58.813c0.207-0.855,1.041-1.395,1.865-1.195
			c0.827,0.199,1.323,1.055,1.119,1.916l-4.037,16.818h6.857c0.961-1.729,7.929-14.354,12.298-24.232
			c2.356-3.688,3.746-7.988,3.769-12.605c0.059-13.641-11.632-24.756-26.104-24.818L39.864,14.694z"/>
		<path fill="#FFFFFF" d="M49.92,82.42c0,0.939-0.718,1.705-1.602,1.705H29.655c-0.882,0-1.599-0.766-1.599-1.705
			c0-0.941,0.717-1.705,1.599-1.705h18.664C49.202,80.715,49.92,81.479,49.92,82.42z"/>
		<g>
			<path fill="#FFFFFF" d="M7.825,37.603c0,1.033-0.86,1.863-1.918,1.863H1.919C0.857,39.466,0,38.636,0,37.603
				c0-1.026,0.857-1.861,1.919-1.861h3.987C6.964,35.74,7.824,36.575,7.825,37.603L7.825,37.603z"/>
			<path fill="#FFFFFF" d="M79.504,37.603c0,1.033-0.857,1.863-1.919,1.863h-3.983c-1.062,0-1.92-0.831-1.92-1.863
				c0-1.026,0.856-1.861,1.92-1.861h3.983C78.646,35.74,79.504,36.575,79.504,37.603z"/>
			<path fill="#FFFFFF" d="M39.733,7.59c-1.059,0.008-1.923-0.822-1.926-1.854L37.786,1.87c-0.003-1.028,0.851-1.867,1.91-1.87
				c1.062-0.008,1.924,0.825,1.932,1.853l0.017,3.868C41.65,6.75,40.792,7.587,39.733,7.59L39.733,7.59z"/>
			<path fill="#FFFFFF" d="M15.118,17.272c-0.724,0.75-1.941,0.795-2.713,0.095l-2.917-2.642c-0.776-0.7-0.818-1.877-0.096-2.632
				c0.725-0.751,1.938-0.793,2.714-0.092l2.917,2.637C15.799,15.339,15.843,16.517,15.118,17.272L15.118,17.272z"/>
			<path fill="#FFFFFF" d="M63.323,16.311c0.772,0.702,1.991,0.665,2.712-0.088l2.724-2.826c0.724-0.753,0.683-1.93-0.091-2.633
				c-0.775-0.702-1.986-0.663-2.714,0.091L63.23,13.68C62.506,14.431,62.546,15.607,63.323,16.311L63.323,16.311z"/>
			<path fill="#FFFFFF" d="M9.293,26.996c-0.36,0.969-1.457,1.471-2.458,1.121l-3.749-1.305c-1-0.346-1.519-1.412-1.16-2.384
				c0.355-0.967,1.457-1.472,2.457-1.121l3.75,1.307C9.131,24.962,9.652,26.029,9.293,26.996z"/>
			<path fill="#FFFFFF" d="M69.693,25.993c0.358,0.966,1.455,1.472,2.455,1.123l3.752-1.306c1-0.348,1.52-1.412,1.162-2.382
				c-0.359-0.967-1.459-1.472-2.457-1.124l-3.754,1.304C69.857,23.96,69.338,25.023,69.693,25.993L69.693,25.993z"/>
			<path fill="#FFFFFF" d="M26.299,9.751c-0.944,0.469-2.102,0.107-2.587-0.804L21.89,5.506c-0.486-0.913-0.113-2.036,0.828-2.508
				c0.942-0.473,2.099-0.113,2.584,0.806l1.824,3.439C27.612,8.156,27.242,9.279,26.299,9.751z"/>
			<path fill="#FFFFFF" d="M52.836,10.039c0.943,0.469,2.1,0.11,2.584-0.808l1.826-3.438c0.48-0.915,0.115-2.037-0.829-2.509
				c-0.946-0.471-2.101-0.113-2.587,0.806l-1.823,3.438C51.52,8.444,51.893,9.567,52.836,10.039L52.836,10.039z"/>
		</g>
	</g>
</g>
</svg>
