<?xml version="1.0" encoding="utf-8"?>
<!-- Generator: Adobe Illustrator 16.0.0, SVG Export Plug-In . SVG Version: 6.00 Build 0)  -->
<!DOCTYPE svg PUBLIC "-//W3C//DTD SVG 1.1//EN" "http://www.w3.org/Graphics/SVG/1.1/DTD/svg11.dtd">
<svg version="1.1" id="Calque_1" xmlns="http://www.w3.org/2000/svg" xmlns:xlink="http://www.w3.org/1999/xlink" x="0px" y="0px"
	 width="111.742px" height="96.766px" viewBox="0 0 111.742 96.766" enable-background="new 0 0 111.742 96.766"
	 xml:space="preserve">
<g>
	<path fill="#212121" d="M98.05,43.229c-1.825-1.831-3.989-2.765-6.504-2.765c-2.508,0-4.626,0.894-6.446,2.714
		c-1.82,1.815-2.709,3.99-2.709,6.498c0,2.514,0.873,4.646,2.657,6.452c1.81,1.824,3.99,2.706,6.498,2.706
		c2.515,0,4.679-0.891,6.504-2.706c1.82-1.833,2.707-3.938,2.707-6.452C100.757,47.169,99.871,45.045,98.05,43.229L98.05,43.229z"/>
	<path fill="#212121" d="M80.468,67.305c-2.358,0-4.327,0.784-5.954,2.414c-1.625,1.616-2.416,3.539-2.416,5.852
		c0,2.32,0.78,4.295,2.416,5.965c1.61,1.628,3.596,2.406,5.954,2.406c2.318,0,4.236-0.789,5.862-2.406
		c1.672-1.682,2.513-3.645,2.513-5.965c0-2.312-0.852-4.225-2.513-5.852C84.695,68.104,82.787,67.305,80.468,67.305L80.468,67.305z"
		/>
	<path fill="#212121" d="M81.699,34.362c2.708,0,5.072-0.985,7.042-2.949c1.969-1.975,2.954-4.339,2.954-7.093
		c0-2.802-0.984-5.165-2.954-7.14c-1.918-1.923-4.282-2.897-7.042-2.897c-2.805,0-5.17,0.975-7.088,2.897
		c-1.969,1.975-2.954,4.338-2.954,7.14c0,2.754,0.985,5.118,2.954,7.093C76.581,33.377,78.945,34.362,81.699,34.362L81.699,34.362z"
		/>
	<path fill="#212121" d="M54.477,77.987c-2.072,0-3.856,0.725-5.318,2.217c-1.441,1.456-2.164,3.245-2.164,5.363
		c0,2.072,0.723,3.855,2.164,5.263c1.468,1.451,3.252,2.175,5.318,2.175c2.119,0,3.877-0.754,5.313-2.175
		c1.467-1.437,2.216-3.19,2.216-5.263c0-2.118-0.738-3.938-2.216-5.416C58.363,78.721,56.596,77.987,54.477,77.987L54.477,77.987z"
		/>
	<path fill="#212121" d="M54.477,3c-3.005,0-5.564,1.041-7.683,3.149c-2.119,2.123-3.15,4.636-3.15,7.636
		c0,3.006,1.031,5.611,3.15,7.733c2.118,2.109,4.677,3.15,7.683,3.15c3,0,5.56-1.041,7.678-3.15
		c2.117-2.122,3.199-4.728,3.199-7.733c0-3-1.082-5.513-3.199-7.636C60.036,4.041,57.477,3,54.477,3L54.477,3z"/>
	<path fill="#212121" d="M28.525,29.29c1.332,0,2.559-0.442,3.548-1.427c1.97-1.964,1.97-5.169,0-7.134
		c-0.99-0.984-2.216-1.43-3.548-1.43c-1.277,0-2.493,0.456-3.493,1.43c-2.052,1.985-2.052,5.149,0,7.134
		C26.032,28.839,27.248,29.29,28.525,29.29L28.525,29.29z"/>
	<g>
		<path fill="#212121" d="M28.525,68.335c-1.821,0-3.371,0.713-4.724,2.024c-1.303,1.252-1.969,2.805-1.969,4.621
			c0,1.826,0.64,3.4,1.969,4.729c1.329,1.332,2.903,2.017,4.724,2.017c1.824,0,3.4-0.685,4.728-2.017
			c1.328-1.328,1.97-2.901,1.97-4.729c0-1.816-0.667-3.369-1.97-4.621C31.899,69.048,30.35,68.335,28.525,68.335L28.525,68.335z"/>
	</g>
	<path fill="#212121" d="M20.944,45.537c-1.133-1.133-2.461-1.718-4.087-1.718c-1.62,0-3.051,0.585-4.186,1.718
		C11.543,46.676,11,48.05,11,49.677c0,1.62,0.543,3.046,1.671,4.179c1.134,1.141,2.565,1.685,4.186,1.685
		c1.626,0,2.954-0.544,4.087-1.685c1.134-1.133,1.724-2.559,1.724-4.179C22.668,48.05,22.079,46.676,20.944,45.537L20.944,45.537z"
		/>
</g>
</svg>
