<?xml version="1.0" encoding="utf-8"?>
<!-- Generator: Adobe Illustrator 16.0.0, SVG Export Plug-In . SVG Version: 6.00 Build 0)  -->
<!DOCTYPE svg PUBLIC "-//W3C//DTD SVG 1.1//EN" "http://www.w3.org/Graphics/SVG/1.1/DTD/svg11.dtd">
<svg version="1.1" id="Calque_1" xmlns="http://www.w3.org/2000/svg" xmlns:xlink="http://www.w3.org/1999/xlink" x="0px" y="0px"
	 width="97.167px" height="73.924px" viewBox="0 0 97.167 73.924" enable-background="new 0 0 97.167 73.924" xml:space="preserve">
<g>
	<path fill="#212121" d="M21.807,32.162v40.762h52.848V32.162H21.807z M50.755,52.077v10.935h-5.052V52.077
		c-1.666-0.904-2.802-2.643-2.802-4.667c0-2.947,2.382-5.335,5.331-5.335c2.945,0,5.331,2.388,5.331,5.335
		C53.562,49.435,52.422,51.173,50.755,52.077z"/>
	<path fill="#212121" d="M35.721,29.811v-5.054c0-8.464,5.585-15.328,12.479-15.328c6.896,0,12.482,6.863,12.482,15.328v5.054h7.662
		v-8.294c0-11.125-9.02-20.144-20.144-20.144s-20.145,9.019-20.145,20.144v8.294H35.721z"/>
</g>
</svg>
