<?xml version="1.0" encoding="utf-8"?>
<!-- Generator: Adobe Illustrator 16.0.0, SVG Export Plug-In . SVG Version: 6.00 Build 0)  -->
<!DOCTYPE svg PUBLIC "-//W3C//DTD SVG 1.1//EN" "http://www.w3.org/Graphics/SVG/1.1/DTD/svg11.dtd">
<svg version="1.1" id="Calque_1" xmlns="http://www.w3.org/2000/svg" xmlns:xlink="http://www.w3.org/1999/xlink" x="0px" y="0px"
	 width="111.742px" height="96.766px" viewBox="0 0 111.742 96.766" enable-background="new 0 0 111.742 96.766"
	 xml:space="preserve">
<path fill="#FFFFFF" d="M38.004,42.455c-0.498,0.083-0.995,0.15-1.484,0.199c-0.49,0.049-0.943,0.074-1.357,0.074
	c-1.794,0-3.239-0.244-4.335-0.734c-1.099-0.49-1.917-1.3-2.467-2.429h6.604v-4.013h-7.476c-0.016-0.165-0.032-0.39-0.048-0.671
	c-0.018-0.283-0.027-0.555-0.027-0.822c0-0.498,0.027-0.972,0.076-1.42h9.345v-4.011h-8.424c1.147-2.459,3.364-3.689,6.655-3.689
	c0.93,0,1.869,0.093,2.816,0.274c0.946,0.184,1.802,0.408,2.566,0.673v-4.984c-0.3-0.133-0.673-0.262-1.122-0.388
	c-0.449-0.125-0.93-0.229-1.444-0.312c-0.515-0.081-1.05-0.147-1.607-0.198c-0.558-0.05-1.085-0.075-1.583-0.075
	c-3.307,0-6.015,0.751-8.124,2.255c-2.109,1.504-3.581,3.651-4.413,6.442h-3.291v4.01h2.618c-0.05,0.498-0.074,1.013-0.074,1.545
	c0,0.233,0.003,0.46,0.012,0.685c0.009,0.225,0.021,0.453,0.038,0.685h-2.593v4.012h3.217c1.511,5.449,5.696,8.174,12.558,8.174
	c0.515,0,1.051-0.022,1.609-0.063c0.556-0.042,1.1-0.105,1.631-0.188c0.532-0.083,1.044-0.187,1.535-0.311
	c0.49-0.126,0.917-0.264,1.282-0.412V41.78c-0.365,0.134-0.781,0.258-1.245,0.375C38.983,42.273,38.501,42.373,38.004,42.455
	L38.004,42.455z"/>
<path fill="#FFFFFF" d="M101.677,73.535L64.193,45.354c-1.555,5.269-4.637,9.776-8.665,13.053l37.147,27.929
	c3.392,2.548,8.156,1.748,10.639-1.78C105.803,81.019,105.068,76.089,101.677,73.535z"/>
<path fill="#FFFFFF" d="M35.031,4.604C18.894,3.253,4.708,15.239,3.354,31.384c-1.352,16.141,10.64,30.325,26.78,31.678
	c16.144,1.352,30.328-10.637,31.68-26.779C63.168,20.137,51.175,5.958,35.031,4.604z M30.563,57.939
	C17.251,56.823,7.365,45.121,8.479,31.812C9.595,18.5,21.292,8.615,34.603,9.729c13.314,1.118,23.203,12.812,22.088,26.125
	C55.574,49.162,43.875,59.052,30.563,57.939z"/>
</svg>
