<?xml version="1.0" encoding="utf-8"?>
<!-- Generator: Adobe Illustrator 16.0.0, SVG Export Plug-In . SVG Version: 6.00 Build 0)  -->
<!DOCTYPE svg PUBLIC "-//W3C//DTD SVG 1.1//EN" "http://www.w3.org/Graphics/SVG/1.1/DTD/svg11.dtd">
<svg version="1.1" id="Calque_1" xmlns="http://www.w3.org/2000/svg" xmlns:xlink="http://www.w3.org/1999/xlink" x="0px" y="0px"
	 width="105.922px" height="87.285px" viewBox="0 0 105.922 87.285" enable-background="new 0 0 105.922 87.285"
	 xml:space="preserve">
<g id="Calque_x0020_1">
	<g>
		<path fill="#212121" d="M102.763,72.458L63.598,43.011c-1.624,5.508-4.846,10.216-9.053,13.64l38.813,29.183
			c3.543,2.664,8.522,1.826,11.117-1.86C107.077,80.278,106.308,75.126,102.763,72.458L102.763,72.458z"/>
		<path fill="#212121" d="M33.101,0C16.235-1.412,1.414,11.112,0,27.981c-1.413,16.864,11.116,31.687,27.981,33.101
			C44.85,62.496,59.67,49.966,61.084,33.1C62.499,16.23,49.968,1.414,33.101,0z M28.431,55.728
			C14.521,54.562,4.19,42.336,5.356,28.43C6.521,14.52,18.743,4.19,32.651,5.354C46.563,6.521,56.896,18.74,55.73,32.65
			C54.563,46.557,42.34,56.891,28.431,55.728L28.431,55.728z"/>
	</g>
</g>
</svg>
