<?xml version="1.0" encoding="utf-8"?>
<!-- Generator: Adobe Illustrator 16.0.0, SVG Export Plug-In . SVG Version: 6.00 Build 0)  -->
<!DOCTYPE svg PUBLIC "-//W3C//DTD SVG 1.1//EN" "http://www.w3.org/Graphics/SVG/1.1/DTD/svg11.dtd">
<svg version="1.1" id="Calque_1" xmlns="http://www.w3.org/2000/svg" xmlns:xlink="http://www.w3.org/1999/xlink" x="0px" y="0px"
	 width="111.742px" height="96.766px" viewBox="0 0 111.742 96.766" enable-background="new 0 0 111.742 96.766"
	 xml:space="preserve">
<g>
	<path fill="#212121" d="M73.858,27.861c-5.171-2.935-11.122-4.686-17.476-4.875v14.437c3.868,0.189,7.49,1.298,10.661,3.136
		L73.858,27.861z"/>
	<path fill="#212121" d="M43.859,40.283c3.32-1.834,7.124-2.875,11.163-2.911V22.96c-6.523,0.033-12.648,1.716-17.969,4.642
		L43.859,40.283z"/>
	<path fill="#212121" d="M88.952,43.915L77.119,51.96c1.259,2.942,1.961,6.188,1.961,9.6c0,0.692-0.043,1.358-0.098,2.03h13.339
		c0.143-1.302,0.222-2.623,0.222-3.968C92.544,54,91.254,48.678,88.952,43.915z"/>
	<path fill="#212121" d="M33.778,51.022l-11.808-8.026c-2.591,4.992-4.062,10.634-4.062,16.626c0,1.344,0.077,2.666,0.22,3.967
		h13.343c-0.058-0.672-0.102-1.338-0.102-2.029C31.371,57.779,32.25,54.21,33.778,51.022z"/>
	<path fill="#212121" d="M88.288,42.622c-3.071-5.759-7.654-10.61-13.231-14.055l-6.83,12.725c3.506,2.316,6.362,5.542,8.268,9.347
		L88.288,42.622z"/>
	<path fill="#212121" d="M95.787,39.518l1.947-1.266l-0.869-1.499l-1.87,1.213c-3.633-6.759-9.12-12.468-15.827-16.52l1.743-3.133
		l-1.424-0.897l-1.771,3.19c-6.25-3.471-13.468-5.536-21.181-5.75v-3.878h-1.645v3.857c-7.761,0.055-15.05,1.99-21.391,5.352
		l-1.678-3.021l-1.42,0.896l1.63,2.931c-6.635,3.839-12.125,9.271-15.891,15.74l-2.271-1.473l-0.871,1.501l2.304,1.492
		c-3.007,5.705-4.708,12.13-4.708,18.936c0,2.182,0.171,4.315,0.506,6.401h4.236c-0.304-1.881-0.46-3.818-0.46-5.783
		c0-21.152,18.064-38.298,40.35-38.298c22.283,0,40.348,17.146,40.348,38.298c0,1.965-0.157,3.902-0.46,5.783h4.235
		c0.332-2.086,0.506-4.22,0.506-6.401C99.856,50.885,98.392,44.9,95.787,39.518z"/>
	<path fill="#212121" d="M16.78,63.949c0,0.967-0.725,1.755-1.619,1.755H5.62c-0.896,0-1.62-0.788-1.62-1.755l0,0
		c0-0.972,0.724-1.754,1.62-1.754h9.54C16.055,62.196,16.78,62.978,16.78,63.949L16.78,63.949z"/>
	<path fill="#212121" d="M107.007,63.949c0,0.967-0.723,1.755-1.618,1.755h-9.541c-0.895,0-1.618-0.788-1.618-1.755l0,0
		c0-0.972,0.724-1.754,1.618-1.754h9.541C106.284,62.196,107.007,62.978,107.007,63.949L107.007,63.949z"/>
	<path fill="#212121" d="M55.29,54.201c-5.315,0-9.628,4.674-9.628,10.44c0,5.76,4.313,10.434,9.628,10.434
		c5.318,0,9.628-4.674,9.628-10.434C64.918,58.875,60.608,54.201,55.29,54.201z M55.29,69.446c-2.444,0-4.43-2.151-4.43-4.804
		s1.985-4.8,4.43-4.8c2.447,0,4.431,2.147,4.431,4.8S57.737,69.446,55.29,69.446z"/>
	<path fill="#212121" d="M32.812,39.689l6.067,4.287c1.162-1.107,2.429-2.102,3.794-2.96L35.84,28.287
		c-5.484,3.28-10.03,7.917-13.178,13.429l11.77,8.001c0.613-1.101,1.319-2.147,2.091-3.133L32.812,39.689z"/>
	<polyline fill="#212121" points="47.677,63.46 37.203,44.644 54.5,56.476 	"/>
</g>
</svg>
