<?xml version="1.0" encoding="utf-8"?>
<!-- Generator: Adobe Illustrator 16.0.0, SVG Export Plug-In . SVG Version: 6.00 Build 0)  -->
<!DOCTYPE svg PUBLIC "-//W3C//DTD SVG 1.1//EN" "http://www.w3.org/Graphics/SVG/1.1/DTD/svg11.dtd">
<svg version="1.1" id="Calque_1" xmlns="http://www.w3.org/2000/svg" xmlns:xlink="http://www.w3.org/1999/xlink" x="0px" y="0px"
	 width="111.742px" height="96.766px" viewBox="0 0 111.742 96.766" enable-background="new 0 0 111.742 96.766"
	 xml:space="preserve">
<path fill="#FFFFFF" d="M97.461,5h-83.65C10.617,5,8,7.615,8,10.789v60.159c0,3.168,2.617,5.788,5.811,5.788h83.65
	c3.191,0,5.788-2.62,5.788-5.788V10.789C103.249,7.615,100.654,5,97.461,5L97.461,5z M96.004,66.675H15.266V13.124h80.738V66.675z"
	/>
<path fill="#FFFFFF" d="M44.909,79.49L33.948,90.628H77.46L66.521,79.49H44.909z"/>
<path fill="#FFFFFF" d="M27.581,55.938c2.136,0,3.893-1.736,3.893-3.871c0-0.381-0.122-0.741-0.24-1.1
	c4.973-3.993,13.729-11.038,17.727-14.114c0.619,0.439,1.352,0.759,2.19,0.759c0.682,0,1.301-0.218,1.863-0.54
	c2.568,2.175,6.922,5.89,10.036,8.521c-0.04,0.24-0.14,0.439-0.14,0.659c0,2.158,1.736,3.896,3.893,3.896
	c2.137,0,3.872-1.737,3.872-3.896c0-0.376-0.12-0.713-0.22-1.058l10.04-9.059c0.539,0.277,1.118,0.477,1.776,0.477
	c2.136,0,3.873-1.733,3.873-3.869c0-2.156-1.736-3.893-3.873-3.893c-2.156,0-3.873,1.736-3.873,3.893
	c0,0.496,0.101,0.998,0.279,1.438c-2.794,2.535-7.125,6.447-9.82,8.878c-0.599-0.396-1.276-0.678-2.056-0.678
	c-0.918,0-1.717,0.361-2.376,0.898c-2.574-2.196-6.708-5.707-9.662-8.22c0.164-0.42,0.262-0.839,0.262-1.318
	c0-2.159-1.738-3.895-3.875-3.895c-2.135,0-3.867,1.735-3.867,3.895c0,0.479,0.098,0.918,0.255,1.337L29.736,48.932
	c-0.619-0.438-1.337-0.741-2.156-0.741c-2.136,0-3.872,1.739-3.872,3.875C23.708,54.201,25.445,55.938,27.581,55.938L27.581,55.938z
	"/>
</svg>
