<?xml version="1.0" encoding="utf-8"?>
<!-- Generator: Adobe Illustrator 16.0.0, SVG Export Plug-In . SVG Version: 6.00 Build 0)  -->
<!DOCTYPE svg PUBLIC "-//W3C//DTD SVG 1.1//EN" "http://www.w3.org/Graphics/SVG/1.1/DTD/svg11.dtd">
<svg version="1.1" id="Calque_1" xmlns="http://www.w3.org/2000/svg" xmlns:xlink="http://www.w3.org/1999/xlink" x="0px" y="0px"
	 width="111.742px" height="96.766px" viewBox="0 0 111.742 96.766" enable-background="new 0 0 111.742 96.766"
	 xml:space="preserve">
<path fill="#212121" d="M80.031,66.211c-3.342,0-6.335,1.311-8.613,3.378L40.021,51.335c0.228-1.011,0.402-2.029,0.402-3.083
	c0-1.051-0.179-2.068-0.402-3.083l31.042-18.081c2.367,2.19,5.498,3.561,8.969,3.561c7.319,0,13.216-5.885,13.216-13.2
	c0-7.301-5.9-13.199-13.216-13.199c-7.303,0-13.204,5.898-13.204,13.196c0,1.066,0.18,2.066,0.402,3.082L36.189,38.624
	c-2.372-2.199-5.499-3.567-8.974-3.567C19.897,35.057,14,40.952,14,48.252c0,7.301,5.897,13.198,13.215,13.198
	c3.471,0,6.604-1.368,8.97-3.562l31.34,18.296c-0.217,0.931-0.353,1.902-0.353,2.868c0,7.088,5.779,12.852,12.854,12.852
	c7.085,0,12.865-5.762,12.865-12.852C92.893,71.967,87.116,66.211,80.031,66.211L80.031,66.211z"/>
</svg>
