<?xml version="1.0" encoding="utf-8"?>
<!-- Generator: Adobe Illustrator 16.0.0, SVG Export Plug-In . SVG Version: 6.00 Build 0)  -->
<!DOCTYPE svg PUBLIC "-//W3C//DTD SVG 1.1//EN" "http://www.w3.org/Graphics/SVG/1.1/DTD/svg11.dtd">
<svg version="1.1" id="Calque_1" xmlns="http://www.w3.org/2000/svg" xmlns:xlink="http://www.w3.org/1999/xlink" x="0px" y="0px"
	 width="136.984px" height="103.438px" viewBox="0 0 136.984 103.438" enable-background="new 0 0 136.984 103.438"
	 xml:space="preserve">
<g id="Calque_x0020_1">
	<g>
		<path fill="#FFFFFF" d="M38.56,90.047c0,7.397-6.109,13.392-13.647,13.392H13.648C6.109,103.438,0,97.445,0,90.047
			c0-7.396,6.109-13.394,13.648-13.394h11.265C32.451,76.654,38.56,82.65,38.56,90.047z"/>
		<path fill="#FFFFFF" d="M136.984,90.044c0,7.393-6.109,13.395-13.646,13.395h-11.266c-7.539,0-13.646-6.002-13.646-13.395
			c0-7.395,6.107-13.394,13.646-13.394h11.266C130.875,76.651,136.984,82.65,136.984,90.044z"/>
		<path fill="none" stroke="#FFFFFF" stroke-width="5" d="M19.996,81.096c0,0-1.938-18.03,12.154-18.03s35.23,0,35.23,0"/>
		<path fill="none" stroke="#FFFFFF" stroke-width="5" d="M117.236,81.093c0,0,1.938-18.027-12.154-18.027s-35.231,0-35.231,0"/>
		<path fill="#FFFFFF" d="M73.809,76.467h-1.347v-35.49h-8.571v35.49h-1.345c-7.544,0-13.649,5.999-13.649,13.392
			c0,7.394,6.105,13.396,13.649,13.396h11.262c7.539,0,13.647-6.003,13.647-13.396C87.456,82.466,81.347,76.467,73.809,76.467
			L73.809,76.467z"/>
		<path fill="#FFFFFF" d="M86.746,0H49.612c-11.93,0-21.601,9.671-21.601,21.601c0,11.936,9.671,21.605,21.601,21.605h37.134
			c11.93,0,21.599-9.671,21.599-21.605C108.344,9.671,98.676,0,86.746,0z M86.127,34.37H50.23c-7.052,0-12.768-5.717-12.768-12.768
			c0-7.052,5.716-12.768,12.768-12.768h35.896c7.054,0,12.769,5.716,12.769,12.768C98.895,28.654,93.18,34.37,86.127,34.37z"/>
	</g>
</g>
</svg>
