<?xml version="1.0" encoding="utf-8"?>
<!-- Generator: Adobe Illustrator 16.0.0, SVG Export Plug-In . SVG Version: 6.00 Build 0)  -->
<!DOCTYPE svg PUBLIC "-//W3C//DTD SVG 1.1//EN" "http://www.w3.org/Graphics/SVG/1.1/DTD/svg11.dtd">
<svg version="1.1" id="Calque_1" xmlns="http://www.w3.org/2000/svg" xmlns:xlink="http://www.w3.org/1999/xlink" x="0px" y="0px"
	 width="97.167px" height="73.924px" viewBox="0 0 97.167 73.924" enable-background="new 0 0 97.167 73.924" xml:space="preserve">
<g>
	<path fill="#FFFFFF" d="M43.985,1.462c-13.57,2.373-25.129,12.51-28.614,26.749c-4.702,19.194,7.045,38.569,26.243,43.271
		c18.027,4.415,36.208-5.681,42.25-22.823c-7.372,6.886-17.964,10.037-28.496,7.458c-16.593-4.067-26.75-20.813-22.688-37.407
		C34.436,11.557,38.545,5.6,43.985,1.462L43.985,1.462z M43.985,1.462"/>
	<polygon fill="#FFFFFF" points="67.317,47.605 63.351,43.6 57.805,44.593 60.39,39.587 57.73,34.617 63.292,35.529 67.194,31.463 
		68.047,37.034 73.12,39.489 68.085,42.021 	"/>
	<polygon fill="#FFFFFF" points="47.479,33.16 45.252,30.911 42.134,31.47 43.589,28.657 42.093,25.866 45.218,26.378 47.41,24.095 
		47.89,27.223 50.738,28.602 47.908,30.025 	"/>
	<polygon fill="#FFFFFF" points="61.865,22.934 59.515,20.564 56.237,21.152 57.764,18.19 56.19,15.252 59.481,15.792 
		61.789,13.385 62.294,16.681 65.292,18.132 62.316,19.631 	"/>
</g>
</svg>
