<?xml version="1.0" encoding="utf-8"?>
<!-- Generator: Adobe Illustrator 16.0.0, SVG Export Plug-In . SVG Version: 6.00 Build 0)  -->
<!DOCTYPE svg PUBLIC "-//W3C//DTD SVG 1.1//EN" "http://www.w3.org/Graphics/SVG/1.1/DTD/svg11.dtd">
<svg version="1.1" id="Calque_1" xmlns="http://www.w3.org/2000/svg" xmlns:xlink="http://www.w3.org/1999/xlink" x="0px" y="0px"
	 width="111.742px" height="96.766px" viewBox="0 0 111.742 96.766" enable-background="new 0 0 111.742 96.766"
	 xml:space="preserve">
<g>
	<path fill="#212121" d="M104.523,22.401c-0.8-0.8-2.19-1.917-4.004-2.253V15.9c0-0.905-0.59-1.717-1.452-2.002
		c-2.824-0.926-9.442-2.791-16.754-2.791c-10.41,0-19.376,3.171-26.667,9.43c-7.292-6.259-16.258-9.43-26.667-9.43
		c-7.312,0-13.93,1.865-16.752,2.791c-0.865,0.285-1.455,1.097-1.455,2.002v4.246C8.96,20.484,7.57,21.6,6.77,22.4
		C6.274,22.896,6,23.56,6,24.267v59.022c0,1.117,1.127,1.888,2.171,1.466c3.981-1.603,12.632-4.763,19.28-4.763
		c6.659,0,12.949,0.989,18.165,2.645c-0.178,0.37-0.273,0.76-0.273,1.148c0,2.792,4.604,5.057,10.304,5.057
		s10.305-2.265,10.305-5.057c0-0.389-0.095-0.778-0.273-1.148c5.216-1.655,11.505-2.645,18.163-2.645
		c6.649,0,15.299,3.16,19.282,4.763c1.044,0.422,2.171-0.349,2.171-1.466V24.267C105.293,23.56,105.019,22.896,104.523,22.401
		L104.523,22.401z M54.36,77.474c-4.404-1.77-16.057-5.911-27.731-5.911c-4.931,0-9.304,0.759-13.022,2.256V16.375
		c2.169-0.728,8.091-2.434,15.372-2.434c9.578,0,18.66,3.319,25.382,8.966V77.474z M97.687,73.819
		c-3.72-1.497-8.093-2.256-13.023-2.256c-11.673,0-23.326,4.143-27.73,5.911V22.908c6.722-5.647,15.805-8.966,25.383-8.966
		c7.279,0,13.201,1.706,15.371,2.434V73.819z"/>
	<path fill="#212121" d="M18.869,24.075l0.042,0.178c0.148,0.549,0.696,0.885,1.254,0.759c12.148-2.834,23.106,1.716,26.214,3.192
		c0.506,0.243,1.107,0.042,1.371-0.443l0.095-0.169c0.294-0.526,0.084-1.189-0.464-1.453c-3.371-1.633-14.761-6.396-27.731-3.361
		C19.069,22.915,18.721,23.506,18.869,24.075L18.869,24.075z"/>
	<path fill="#212121" d="M20.165,31.492c12.147-2.832,23.106,1.708,26.214,3.191c0.506,0.244,1.107,0.043,1.371-0.443l0.095-0.155
		c0.294-0.527,0.084-1.191-0.464-1.465c-3.371-1.632-14.761-6.396-27.731-3.361c-0.579,0.137-0.927,0.718-0.779,1.297l0.042,0.18
		C19.059,31.282,19.606,31.618,20.165,31.492L20.165,31.492z"/>
	<path fill="#212121" d="M18.911,36.813c0.148,0.549,0.696,0.884,1.254,0.76c12.147-2.834,23.106,1.716,26.214,3.19
		c0.506,0.245,1.107,0.043,1.371-0.441l0.095-0.168c0.294-0.526,0.084-1.191-0.464-1.465c-3.371-1.633-14.761-6.396-27.731-3.361
		c-0.579,0.147-0.927,0.738-0.779,1.308L18.911,36.813z"/>
	<path fill="#212121" d="M47.391,45.368c-3.361-1.633-14.761-6.396-27.743-3.359c-0.579,0.136-0.927,0.715-0.779,1.294l0.042,0.18
		c0.148,0.547,0.696,0.884,1.254,0.757c12.148-2.833,23.106,1.708,26.225,3.192c0.505,0.244,1.106,0.042,1.369-0.441l0.095-0.158
		C48.149,46.307,47.938,45.641,47.391,45.368L47.391,45.368z"/>
	<path fill="#212121" d="M47.391,51.543c-3.372-1.633-14.761-6.396-27.731-3.361c-0.59,0.137-0.938,0.727-0.791,1.296l0.042,0.178
		c0.148,0.551,0.696,0.887,1.254,0.76c12.148-2.833,23.106,1.708,26.225,3.192c0.505,0.242,1.106,0.043,1.369-0.443l0.095-0.168
		C48.149,52.47,47.938,51.806,47.391,51.543L47.391,51.543z"/>
	<path fill="#212121" d="M47.379,57.885c-3.371-1.631-14.761-6.396-27.731-3.359c-0.579,0.136-0.927,0.727-0.779,1.295l0.042,0.179
		c0.148,0.55,0.696,0.884,1.254,0.761c12.148-2.835,23.106,1.716,26.214,3.191c0.506,0.242,1.107,0.042,1.371-0.442l0.095-0.158
		C48.138,58.823,47.928,58.158,47.379,57.885L47.379,57.885z"/>
	<path fill="#212121" d="M47.369,64.25c-3.372-1.633-14.761-6.396-27.732-3.361c-0.568,0.138-0.917,0.729-0.769,1.306l0.042,0.169
		c0.148,0.549,0.696,0.885,1.254,0.76c12.147-2.834,23.106,1.716,26.214,3.191c0.506,0.243,1.107,0.042,1.371-0.441l0.084-0.159
		C48.128,65.187,47.916,64.522,47.369,64.25L47.369,64.25z"/>
	<path fill="#212121" d="M62.699,26.14c-0.549,0.264-0.759,0.927-0.464,1.453l0.095,0.169c0.264,0.485,0.863,0.686,1.368,0.443
		c3.109-1.477,14.067-6.026,26.215-3.192c0.559,0.125,1.106-0.21,1.254-0.759l0.042-0.178c0.148-0.569-0.2-1.16-0.779-1.297
		C77.46,19.745,66.071,24.507,62.699,26.14L62.699,26.14z"/>
	<path fill="#212121" d="M63.7,34.684c3.107-1.485,14.066-6.024,26.214-3.191c0.558,0.125,1.106-0.209,1.253-0.758l0.044-0.179
		c0.146-0.579-0.201-1.16-0.78-1.297c-12.971-3.035-24.359,1.729-27.73,3.361c-0.549,0.274-0.759,0.938-0.465,1.465l0.096,0.155
		C62.594,34.727,63.193,34.927,63.7,34.684L63.7,34.684z"/>
	<path fill="#212121" d="M62.331,40.322c0.264,0.484,0.865,0.686,1.369,0.441c3.107-1.474,14.066-6.025,26.214-3.19
		c0.558,0.124,1.106-0.211,1.253-0.76l0.044-0.179c0.146-0.568-0.201-1.16-0.78-1.308c-12.971-3.035-24.359,1.728-27.73,3.36
		c-0.549,0.275-0.759,0.94-0.465,1.465L62.331,40.322z"/>
	<path fill="#212121" d="M62.32,46.992c0.263,0.483,0.864,0.685,1.369,0.441c3.118-1.486,14.077-6.025,26.226-3.192
		c0.559,0.126,1.106-0.21,1.255-0.757l0.041-0.18c0.148-0.58-0.2-1.158-0.779-1.294c-12.98-3.037-24.38,1.727-27.742,3.359
		c-0.548,0.273-0.758,0.939-0.463,1.465L62.32,46.992z"/>
	<path fill="#212121" d="M62.32,53.164c0.263,0.486,0.864,0.686,1.369,0.443c3.118-1.485,14.077-6.025,26.226-3.192
		c0.559,0.126,1.106-0.21,1.255-0.76l0.041-0.178c0.148-0.569-0.2-1.159-0.79-1.297c-12.97-3.034-24.359,1.728-27.731,3.362
		c-0.548,0.262-0.758,0.926-0.463,1.451L62.32,53.164z"/>
	<path fill="#212121" d="M62.331,59.507c0.264,0.483,0.865,0.686,1.369,0.444c3.107-1.477,14.066-6.027,26.214-3.193
		c0.558,0.125,1.106-0.211,1.253-0.759l0.044-0.179c0.146-0.569-0.201-1.161-0.78-1.295c-12.971-3.037-24.359,1.729-27.731,3.359
		c-0.549,0.273-0.759,0.938-0.464,1.465L62.331,59.507z"/>
	<path fill="#212121" d="M90.441,60.889c-12.97-3.034-24.361,1.727-27.731,3.36c-0.549,0.271-0.759,0.937-0.465,1.463l0.085,0.158
		c0.264,0.484,0.863,0.686,1.368,0.442c3.109-1.476,14.067-6.026,26.215-3.191c0.559,0.125,1.106-0.211,1.254-0.761l0.042-0.168
		C91.357,61.616,91.01,61.025,90.441,60.889L90.441,60.889z"/>
</g>
</svg>
