<?xml version="1.0" encoding="utf-8"?>
<!-- Generator: Adobe Illustrator 16.0.0, SVG Export Plug-In . SVG Version: 6.00 Build 0)  -->
<!DOCTYPE svg PUBLIC "-//W3C//DTD SVG 1.1//EN" "http://www.w3.org/Graphics/SVG/1.1/DTD/svg11.dtd">
<svg version="1.1" id="Calque_1" xmlns="http://www.w3.org/2000/svg" xmlns:xlink="http://www.w3.org/1999/xlink" x="0px" y="0px"
	 width="111.742px" height="96.766px" viewBox="0 0 111.742 96.766" enable-background="new 0 0 111.742 96.766"
	 xml:space="preserve">
<path fill="#212121" d="M85.947,4H26.929C24.764,4,23,5.752,23,7.916v78.229c0,2.164,1.764,3.916,3.929,3.916h59.018
	c2.176,0,3.938-1.752,3.938-3.916V7.916C89.885,5.752,88.123,4,85.947,4L85.947,4z M82.018,11.823v11.729H30.868V11.823H82.018z
	 M30.868,82.239V31.384h51.149v50.845H30.868V82.239z"/>
<path fill="#212121" d="M44.297,36.82h-6.091c-0.81,0-1.459,0.657-1.459,1.46v6.09c0,0.811,0.657,1.467,1.459,1.467h6.091
	c0.804,0,1.46-0.656,1.46-1.467v-6.09C45.765,37.47,45.108,36.82,44.297,36.82L44.297,36.82z"/>
<path fill="#212121" d="M73.546,51.36h-6.373c-0.84,0-1.526,0.758-1.526,1.699v20.883c0,0.938,0.687,1.699,1.526,1.699h6.373
	c0.841,0,1.528-0.762,1.528-1.699V53.059C75.075,52.118,74.387,51.36,73.546,51.36L73.546,51.36z"/>
<path fill="#212121" d="M58.626,36.82h-6.091c-0.81,0-1.459,0.657-1.459,1.46v6.091c0,0.811,0.657,1.467,1.459,1.467h6.091
	c0.804,0,1.46-0.656,1.46-1.467v-6.091C60.096,37.471,59.438,36.82,58.626,36.82L58.626,36.82z"/>
<path fill="#212121" d="M73.404,36.82h-6.09c-0.811,0-1.459,0.657-1.459,1.46v6.091c0,0.811,0.656,1.467,1.459,1.467h6.09
	c0.805,0,1.461-0.656,1.461-1.467v-6.091C74.874,37.471,74.216,36.82,73.404,36.82L73.404,36.82z"/>
<path fill="#212121" d="M44.297,51.36h-6.091c-0.81,0-1.459,0.656-1.459,1.459v6.092c0,0.811,0.657,1.467,1.459,1.467h6.091
	c0.804,0,1.46-0.656,1.46-1.467v-6.092C45.765,52.01,45.108,51.36,44.297,51.36L44.297,51.36z"/>
<path fill="#212121" d="M58.626,51.36h-6.091c-0.81,0-1.459,0.656-1.459,1.459v6.092c0,0.811,0.657,1.467,1.459,1.467h6.091
	c0.804,0,1.46-0.656,1.46-1.467v-6.092C60.096,52.01,59.438,51.36,58.626,51.36L58.626,51.36z"/>
<path fill="#212121" d="M44.297,66.526h-6.091c-0.81,0-1.459,0.658-1.459,1.461v6.091c0,0.812,0.657,1.467,1.459,1.467h6.091
	c0.804,0,1.46-0.655,1.46-1.467v-6.091C45.765,67.177,45.108,66.526,44.297,66.526L44.297,66.526z"/>
<path fill="#212121" d="M58.626,66.526h-6.091c-0.81,0-1.459,0.658-1.459,1.461v6.091c0,0.812,0.657,1.467,1.459,1.467h6.091
	c0.804,0,1.46-0.655,1.46-1.467v-6.091C60.096,67.177,59.438,66.526,58.626,66.526L58.626,66.526z"/>
</svg>
