<svg height="512pt" viewBox="-79 0 512 512.15857" width="512pt" xmlns="http://www.w3.org/2000/svg"><path d="m198.183594 124.425781c25.667968-12.171875 39.46875-40.511719 33.226562-68.226562-6.238281-27.714844-30.851562-47.402344-59.261718-47.402344-28.40625 0-53.019532 19.6875-59.261719 47.402344-6.238281 27.714843 7.5625 56.054687 33.230469 68.226562zm0 0" fill="#3b97d3"/><path d="m102.726562 143.683594c-2.394531 0-4.6875-.988282-6.328124-2.734375-36.046876-38.15625-37.984376-97.199219-4.519532-137.640625 1.949219-2.472656 5.085938-3.699219 8.195313-3.199219s5.703125 2.644531 6.777343 5.605469c1.074219 2.960937.464844 6.269531-1.601562 8.648437-27.894531 33.703125-26.261719 82.917969 3.800781 114.699219 2.371094 2.519531 3.019531 6.210938 1.644531 9.390625-1.375 3.175781-4.507812 5.230469-7.96875 5.230469zm0 0" fill="#2980ba"/><path d="m257.089844 121.648438c-3.023438 0-5.824219-1.574219-7.398438-4.152344-1.574218-2.582032-1.695312-5.792969-.316406-8.480469 15.8125-30.773437 11.75-68.011719-10.328125-94.652344-2.0625-2.378906-2.675781-5.6875-1.601563-8.648437 1.078126-2.960938 3.671876-5.105469 6.78125-5.605469 3.109376-.5 6.246094.726563 8.195313 3.199219 26.496094 31.980468 31.371094 76.675781 12.398437 113.621094-1.484374 2.902343-4.472656 4.722656-7.730468 4.71875zm0 0" fill="#2980ba"/><path d="m354.386719 244.617188v137.371093s0 46.773438-29.589844 73.851563c-3.351563 3.210937-5.210937 7.679687-5.121094 12.320312v26.640625c-.027343 9.574219-7.78125 17.328125-17.355469 17.359375h-138.847656c-9.574218-.03125-17.328125-7.785156-17.355468-17.359375v-3.210937c.015624-13.910156-5.585938-27.242188-15.535157-36.964844-16.75-16.316406-42.609375-44.519531-53.890625-72.636719-17.355468-43.390625-52.066406-104.136719-69.421875-121.492187-17.355469-17.355469 0-34.710938 17.355469-34.710938s52.066406 34.710938 69.421875 60.746094c5.523437 8.378906 11.988281 16.09375 19.265625 22.996094 4.320312 4.015625 10.386719 5.554687 16.097656 4.078125 5.710938-1.476563 10.273438-5.761719 12.105469-11.367188 3.304687-10.699219 4.859375-21.867187 4.601563-33.0625v-199.59375c-.054688-11.03125 6.925781-20.875 17.355468-24.472656 2.769532-1.050781 5.710938-1.578125 8.675782-1.5625 14.378906 0 26.035156 11.65625 26.035156 26.035156v104.136719c-.054688-11.035156 6.925781-20.875 17.355468-24.472656 2.773438-1.050782 5.714844-1.582032 8.679688-1.5625 14.375 0 26.03125 11.65625 26.03125 26.035156v26.03125c0-6.902344 2.75-13.523438 7.636719-18.394531 2.71875-2.761719 6.046875-4.84375 9.71875-6.074219 2.773437-1.050781 5.714843-1.582031 8.679687-1.5625 14.378906 0 26.035156 11.65625 26.035156 26.03125v43.390625c0-6.902344 2.746094-13.523437 7.636719-18.394531 2.714844-2.761719 6.046875-4.84375 9.71875-6.078125 3.382813-1.242188 6.992188-1.746094 10.585938-1.472657 13.941406 1.488282 24.425781 13.402344 24.125 27.421876zm0 0" fill="#fdd7ad"/><g fill="#cbb292"><path d="m172.148438 43.546875c-2.964844-.015625-5.90625.511719-8.675782 1.5625-10.429687 3.597656-17.410156 13.441406-17.355468 24.472656v199.59375c.257812 11.195313-1.296876 22.363281-4.601563 33.0625-1.367187 4.019531-4.140625 7.410157-7.808594 9.546875 4.511719 2.648438 9.976563 3.109375 14.867188 1.253906 4.894531-1.855468 8.679687-5.828124 10.296875-10.800781 3.304687-10.699219 4.859375-21.867187 4.601562-33.0625v-199.59375c-.054687-11.03125 6.925782-20.875 17.355469-24.472656-2.773437-1.050781-5.714844-1.578125-8.679687-1.5625zm0 0"/><path d="m215.539062 149.246094c-10.429687 3.597656-17.410156 13.4375-17.355468 24.472656v78.101562c0 4.792969 3.886718 8.675782 8.679687 8.675782 4.789063 0 8.675781-3.882813 8.675781-8.675782v-78.101562c-.050781-11.035156 6.925782-20.875 17.355469-24.472656-5.597656-2.082032-11.757812-2.082032-17.355469 0zm0 0"/><path d="m267.605469 175.28125c-3.671875 1.230469-7 3.3125-9.71875 6.074219-4.886719 4.871093-7.636719 11.492187-7.636719 18.394531v52.070312c0 4.792969 3.886719 8.675782 8.679688 8.675782 4.792968 0 8.675781-3.882813 8.675781-8.675782v-52.070312c-.050781-11.03125 6.929687-20.871094 17.359375-24.46875-5.597656-2.082031-11.757813-2.082031-17.359375 0zm0 0"/><path d="m328.351562 217.109375c-2.960937-.019531-5.90625.507813-8.675781 1.558594-3.671875 1.234375-7.003906 3.316406-9.71875 6.078125-4.890625 4.871094-7.636719 11.492187-7.636719 18.394531v17.355469c0 4.792968 3.882813 8.679687 8.675782 8.679687 4.792968 0 8.679687-3.886719 8.679687-8.679687v-17.355469c-.054687-11.03125 6.925781-20.871094 17.355469-24.472656-2.773438-1.050781-5.714844-1.578125-8.679688-1.558594zm0 0"/></g><path d="m319.675781 303.886719c-4.792969 0-8.679687 3.886719-8.679687 8.679687v52.066406c0 4.792969 3.886718 8.679688 8.679687 8.679688s8.675781-3.886719 8.675781-8.679688v-52.066406c0-4.792968-3.882812-8.679687-8.675781-8.679687zm0 0" fill="#fee7ce"/><path d="m319.890625 390.789062c-4.675781.074219-8.527344 3.695313-8.894531 8.355469-.648438 4.40625-2.820313 8.445313-6.132813 11.421875-2.257812 2.179688-3.160156 5.40625-2.367187 8.4375.792968 3.035156 3.164062 5.40625 6.195312 6.199219 3.035156.792969 6.261719-.109375 8.441406-2.367187 6.601563-6.109376 10.617188-14.515626 11.21875-23.492188-.007812-4.683594-3.773437-8.492188-8.460937-8.554688zm0 0" fill="#fee7ce"/><path d="m189.503906 468.769531h-8.675781c-4.792969 0-8.679687 3.882813-8.679687 8.675781 0 4.792969 3.886718 8.679688 8.679687 8.679688h8.675781c4.792969 0 8.679688-3.886719 8.679688-8.679688 0-4.792968-3.886719-8.675781-8.679688-8.675781zm0 0" fill="#fee7ce"/><path d="m284.964844 468.769531h-60.746094c-4.792969 0-8.679688 3.882813-8.679688 8.675781 0 4.792969 3.886719 8.679688 8.679688 8.679688h60.746094c4.792968 0 8.675781-3.886719 8.675781-8.679688 0-4.792968-3.882813-8.675781-8.675781-8.675781zm0 0" fill="#fee7ce"/></svg>