<?xml version="1.0" encoding="utf-8"?>
<!-- Generator: Adobe Illustrator 16.0.0, SVG Export Plug-In . SVG Version: 6.00 Build 0)  -->
<!DOCTYPE svg PUBLIC "-//W3C//DTD SVG 1.1//EN" "http://www.w3.org/Graphics/SVG/1.1/DTD/svg11.dtd">
<svg version="1.1" id="Calque_1" xmlns="http://www.w3.org/2000/svg" xmlns:xlink="http://www.w3.org/1999/xlink" x="0px" y="0px"
	 width="87.898px" height="82.902px" viewBox="0 0 87.898 82.902" enable-background="new 0 0 87.898 82.902" xml:space="preserve">
<g id="Calque_x0020_1">
	<g>
		<path fill="#FFFFFF" d="M41.453,42.154v-0.703c9.947-20.109,15.394-31.114,18.38-37.154C54.292,1.552,48.056,0,41.453,0
			C18.56,0,0,18.56,0,41.451c0,22.895,18.56,41.451,41.453,41.451c22.893,0,41.45-18.559,41.45-41.451
			c0-0.306-0.016-0.605-0.022-0.912L41.453,42.154z"/>
		<path fill="#FFFFFF" d="M67.743,2.585c0,0,0.002,0,0.002,0.002c0.312,0.114,20.217,7.631,20.153,31.463l-35.98,1.231"/>
	</g>
</g>
</svg>
