<?xml version="1.0" encoding="utf-8"?>
<!-- Generator: Adobe Illustrator 16.0.0, SVG Export Plug-In . SVG Version: 6.00 Build 0)  -->
<!DOCTYPE svg PUBLIC "-//W3C//DTD SVG 1.1//EN" "http://www.w3.org/Graphics/SVG/1.1/DTD/svg11.dtd">
<svg version="1.1" id="Calque_1" xmlns="http://www.w3.org/2000/svg" xmlns:xlink="http://www.w3.org/1999/xlink" x="0px" y="0px"
	 width="119.758px" height="69.619px" viewBox="0 0 119.758 69.619" enable-background="new 0 0 119.758 69.619"
	 xml:space="preserve">
<g id="Calque_x0020_1">
	<g>
		<path fill="#212121" d="M119.758,6.466c0,1.927-2.908,3.486-6.492,3.486H28.278c-3.583,0-6.491-1.56-6.491-3.486
			c0-1.928,2.908-3.489,6.491-3.489h84.988C116.85,2.977,119.757,4.539,119.758,6.466L119.758,6.466z"/>
		<path fill="#212121" d="M12.931,6.468c0,3.568-2.896,6.463-6.466,6.463C2.896,12.931,0,10.036,0,6.468C0,2.895,2.896,0,6.465,0
			C10.035,0,12.931,2.895,12.931,6.468z"/>
		<path fill="#212121" d="M119.758,34.804c0,1.931-2.908,3.489-6.492,3.489H28.278c-3.583,0-6.491-1.56-6.491-3.489
			c0-1.924,2.908-3.486,6.491-3.486h84.988C116.85,31.318,119.757,32.881,119.758,34.804L119.758,34.804z"/>
		<path fill="#212121" d="M12.931,34.811c0,3.562-2.896,6.461-6.466,6.461C2.897,41.272,0,38.373,0,34.811
			c0-3.579,2.896-6.469,6.465-6.469C10.035,28.342,12.931,31.232,12.931,34.811z"/>
		<path fill="#212121" d="M119.758,63.149c0,1.93-2.908,3.49-6.492,3.49H28.278c-3.583,0-6.491-1.562-6.491-3.49
			c0-1.924,2.908-3.484,6.491-3.484h84.988C116.85,59.665,119.757,61.228,119.758,63.149L119.758,63.149z"/>
		<path fill="#212121" d="M12.931,63.155c0,3.566-2.896,6.464-6.466,6.464C2.896,69.619,0,66.722,0,63.155
			c0-3.576,2.896-6.469,6.465-6.469C10.035,56.687,12.931,59.579,12.931,63.155z"/>
	</g>
</g>
</svg>
