<svg height="512pt" viewBox="0 0 512 512" width="512pt" xmlns="http://www.w3.org/2000/svg"><path d="m512 256c0 141.386719-114.613281 256-256 256s-256-114.613281-256-256 114.613281-256 256-256 256 114.613281 256 256zm0 0" fill="#017296"/><path d="m271.832031 159v-11c0-1.105469.894531-2 2-2h120.167969c1.105469 0 2 .894531 2 2v11c0 1.105469-.894531 2-2 2h-120.167969c-1.101562 0-2-.894531-2-2zm152.167969 207h-150.167969c-1.105469 0-2 .894531-2 2v11c0 1.105469.894531 2 2 2h150.167969c1.105469 0 2-.894531 2-2v-11c0-1.105469-.894531-2-2-2zm-150.167969-15h120.167969c1.105469 0 2-.894531 2-2v-11c0-1.105469-.894531-2-2-2h-120.167969c-1.105469 0-2 .894531-2 2v11c0 1.105469.898438 2 2 2zm150.167969-45h-150.167969c-1.105469 0-2 .894531-2 2v11c0 1.105469.894531 2 2 2h150.167969c1.105469 0 2-.894531 2-2v-11c0-1.105469-.894531-2-2-2zm0-130h-150.167969c-1.105469 0-2 .894531-2 2v11c0 1.105469.894531 2 2 2h150.167969c1.105469 0 2-.894531 2-2v-11c0-1.105469-.894531-2-2-2zm0-60h-150.167969c-1.105469 0-2 .894531-2 2v11c0 1.105469.894531 2 2 2h150.167969c1.105469 0 2-.894531 2-2v-11c0-1.105469-.894531-2-2-2zm0 0" fill="#6caac9"/><path d="m151 278.5c-39.976562 0-72.5 32.523438-72.5 72.5s32.523438 72.5 72.5 72.5 72.5-32.523438 72.5-72.5-32.523438-72.5-72.5-72.5zm0 130c-31.707031 0-57.5-25.792969-57.5-57.5s25.792969-57.5 57.5-57.5 57.5 25.792969 57.5 57.5-25.792969 57.5-57.5 57.5zm0-175c39.976562 0 72.5-32.523438 72.5-72.5s-32.523438-72.5-72.5-72.5-72.5 32.523438-72.5 72.5 32.523438 72.5 72.5 72.5zm0-130c31.707031 0 57.5 25.792969 57.5 57.5s-25.792969 57.5-57.5 57.5-57.5-25.792969-57.5-57.5 25.792969-57.5 57.5-57.5zm0 0" fill="#88b9d3"/><path d="m488.070312 80.496094-28.285156 28.285156c-3.902344 3.90625-10.234375 3.90625-14.140625 0l-42.425781-42.425781c-3.90625-3.90625-3.90625-10.238281 0-14.140625l28.285156-28.285156c3.902344-3.90625 10.234375-3.90625 14.140625 0l42.425781 42.425781c3.90625 3.90625 3.90625 10.238281 0 14.140625zm0 0" fill="#024c67"/><path d="m257.195312 94.082031-101.15625 101.152344c-1.722656 1.722656-4.515624 1.726563-6.238281 0l-44.121093-44.109375c-.859376-.859375-.859376-2.257812 0-3.117188l12.476562-12.480468c.863281-.859375 2.257812-.859375 3.121094 0l30.078125 30.078125c.859375.863281 2.257812.863281 3.117187 0l87.125-87.121094c.859375-.859375 2.257813-.859375 3.117188 0l12.476562 12.476563c.863282.863281.863282 2.261718.003906 3.121093zm-115.554687 247.996094c-3.753906 3.75-5.859375 8.835937-5.859375 14.140625v18c0 1.105469.894531 2 2 2h18c5.304688 0 10.390625-2.105469 14.140625-5.859375l22.425781-22.425781-28.28125-28.28125zm0 0" fill="#fded32"/><path d="m481 87.566406-244.78125 244.78125c-2.792969 2.792969-6.347656 4.695313-10.21875 5.46875l-28.609375 5.722656c-4.914063.984376-9.992187-.554687-13.535156-4.097656l-11.300781-11.300781c-3.539063-3.539063-5.078126-8.621094-4.09375-13.53125l5.71875-28.609375c.773437-3.871094 2.679687-7.429688 5.46875-10.21875l244.78125-244.78125zm0 0" fill="#fc9302"/><path d="m481 87.566406-244.78125 244.78125c-2.792969 2.792969-6.347656 4.695313-10.21875 5.46875l-28.609375 5.722656c-4.914063.984376-9.992187-.554687-13.535156-4.097656l7.296875-36.46875c.773437-3.875 2.675781-7.429687 5.46875-10.222656l244.78125-244.78125zm0 0" fill="#fdbf43"/><path d="m236.21875 332.347656-15.585938 15.585938c-7.808593 7.8125-20.472656 7.8125-28.285156 0l-14.140625 14.144531-28.285156-28.285156 14.144531-14.140625c-7.8125-7.8125-7.8125-20.476563 0-28.285156l15.585938-15.585938zm0 0" fill="#024c67"/></svg>