<?xml version="1.0" encoding="utf-8"?>
<!-- Generator: Adobe Illustrator 16.0.0, SVG Export Plug-In . SVG Version: 6.00 Build 0)  -->
<!DOCTYPE svg PUBLIC "-//W3C//DTD SVG 1.1//EN" "http://www.w3.org/Graphics/SVG/1.1/DTD/svg11.dtd">
<svg version="1.1" id="Calque_1" xmlns="http://www.w3.org/2000/svg" xmlns:xlink="http://www.w3.org/1999/xlink" x="0px" y="0px"
	 width="111.742px" height="96.766px" viewBox="0 0 111.742 96.766" enable-background="new 0 0 111.742 96.766"
	 xml:space="preserve">
<path fill="#FFFFFF" d="M52.624,52.838h7.457c1.648,0,2.992-1.344,2.992-2.994V6.822c0-1.65-1.342-2.993-2.992-2.993h-7.457
	c-1.648,0-2.992,1.341-2.992,2.993v43.022C49.631,51.494,50.975,52.838,52.624,52.838L52.624,52.838z"/>
<path fill="#FFFFFF" d="M90.289,31.423c-3.331-5.169-7.877-9.577-13.146-12.745c-0.986-0.595-2.215-0.61-3.217-0.045
	c-0.999,0.565-1.618,1.627-1.618,2.778v6.6c0,0.997,0.464,1.935,1.256,2.538c7.07,5.388,11.29,13.875,11.29,22.706
	c0,15.717-12.784,28.502-28.5,28.502c-15.714,0-28.501-12.785-28.501-28.502c0-8.831,4.221-17.322,11.291-22.706
	c0.792-0.603,1.257-1.541,1.257-2.538v-6.6c0-1.151-0.619-2.212-1.619-2.778c-1.001-0.565-2.229-0.55-3.216,0.045
	c-5.27,3.168-9.816,7.576-13.146,12.745C18.218,37.932,16,45.481,16,53.255c0,10.782,4.198,20.914,11.818,28.535
	C35.44,89.41,45.573,93.61,56.352,93.61c10.779,0,20.911-4.199,28.535-11.819c7.62-7.621,11.818-17.753,11.818-28.535
	C96.705,45.481,94.484,37.932,90.289,31.423L90.289,31.423z"/>
</svg>
