<?xml version="1.0" encoding="utf-8"?>
<!-- Generator: Adobe Illustrator 16.0.0, SVG Export Plug-In . SVG Version: 6.00 Build 0)  -->
<!DOCTYPE svg PUBLIC "-//W3C//DTD SVG 1.1//EN" "http://www.w3.org/Graphics/SVG/1.1/DTD/svg11.dtd">
<svg version="1.1" id="Calque_1" xmlns="http://www.w3.org/2000/svg" xmlns:xlink="http://www.w3.org/1999/xlink" x="0px" y="0px"
	 width="111.742px" height="96.766px" viewBox="0 0 111.742 96.766" enable-background="new 0 0 111.742 96.766"
	 xml:space="preserve">
<g>
	<path fill="#FFFFFF" d="M23.835,18.585C6.721,35.706,6.721,63.557,23.84,80.677c17.111,17.115,44.967,17.115,62.083-0.004
		c17.12-17.116,17.115-44.967,0.004-62.083C68.807,1.472,40.952,1.472,23.835,18.585L23.835,18.585z M81.135,75.885
		C66.663,90.362,43.102,90.362,28.629,75.89c-14.481-14.478-14.477-38.038,0-52.514C43.101,8.902,66.658,8.902,81.14,23.379
		C95.616,37.851,95.612,61.412,81.135,75.885L81.135,75.885z"/>
	<circle fill="#FFFFFF" cx="39.044" cy="37.076" r="3.965"/>
	<circle fill="#FFFFFF" cx="69.557" cy="37.076" r="3.965"/>
	<path fill="none" stroke="#FFFFFF" stroke-width="4" stroke-linecap="round" d="M39.69,68.797c0,0,14.436-10.517,29.307,0.171"/>
</g>
</svg>
