<?xml version="1.0" encoding="utf-8"?>
<!-- Generator: Adobe Illustrator 16.0.0, SVG Export Plug-In . SVG Version: 6.00 Build 0)  -->
<!DOCTYPE svg PUBLIC "-//W3C//DTD SVG 1.1//EN" "http://www.w3.org/Graphics/SVG/1.1/DTD/svg11.dtd">
<svg version="1.1" id="Calque_1" xmlns="http://www.w3.org/2000/svg" xmlns:xlink="http://www.w3.org/1999/xlink" x="0px" y="0px"
	 width="111.742px" height="96.766px" viewBox="0 0 111.742 96.766" enable-background="new 0 0 111.742 96.766"
	 xml:space="preserve">
<path fill="#FFFFFF" d="M90.753,3.25h-71.13C18.177,3.25,17,4.623,17,6.306v82.981c0,1.687,1.177,3.059,2.623,3.059h71.131
	c1.445,0,2.62-1.372,2.62-3.059V6.306C93.374,4.623,92.199,3.25,90.753,3.25L90.753,3.25z M31.622,7.836h47.131v25.708H31.622V7.836
	z M81.043,85.846h-51.71V47.794h51.71V85.846z M65.445,11.654h6.545v18.325h-6.545V11.654z M76.3,57.211H34.076v-3.047H76.3V57.211z
	 M76.3,67.907H34.076v-3.061H76.3V67.907z M76.3,78.21H34.076v-3.048H76.3V78.21z"/>
</svg>
