<?xml version="1.0" encoding="utf-8"?>
<!-- Generator: Adobe Illustrator 16.0.0, SVG Export Plug-In . SVG Version: 6.00 Build 0)  -->
<!DOCTYPE svg PUBLIC "-//W3C//DTD SVG 1.1//EN" "http://www.w3.org/Graphics/SVG/1.1/DTD/svg11.dtd">
<svg version="1.1" id="Calque_1" xmlns="http://www.w3.org/2000/svg" xmlns:xlink="http://www.w3.org/1999/xlink" x="0px" y="0px"
	 width="97.167px" height="73.924px" viewBox="0 0 97.167 73.924" enable-background="new 0 0 97.167 73.924" xml:space="preserve">
<g>
	<path fill="#FF9800" d="M31.113,1.494c-11.333,0-20.522,9.188-20.522,20.521s9.189,20.521,20.522,20.521
		s20.522-9.188,20.522-20.521S42.446,1.494,31.113,1.494z M14.16,22.535h-1.375c-0.363,0-0.662-0.232-0.662-0.518
		s0.299-0.518,0.662-0.518h1.375c0.366,0,0.661,0.232,0.661,0.518S14.526,22.535,14.16,22.535z M31.094,2.851
		c0.287-0.003,0.526,0.291,0.529,0.656l0.016,1.373c0.006,0.367-0.227,0.666-0.51,0.67c-0.286,0.002-0.522-0.29-0.525-0.657
		l-0.019-1.372C30.581,3.155,30.808,2.855,31.094,2.851z M31.128,41.444c-0.286,0.003-0.522-0.292-0.525-0.655l-0.019-1.374
		c-0.003-0.368,0.224-0.666,0.51-0.667c0.287-0.005,0.526,0.289,0.529,0.656l0.016,1.372C31.645,41.142,31.412,41.44,31.128,41.444z
		 M31.113,23.885c-0.74,0-1.376-0.434-1.678-1.059h-5.786c-0.321,0-0.585-0.362-0.585-0.81s0.264-0.812,0.585-0.812h5.789
		c0.179-0.378,0.485-0.681,0.862-0.863v-8.958c0-0.384,0.366-0.696,0.812-0.696s0.809,0.312,0.809,0.696v8.958
		c0.626,0.301,1.061,0.935,1.061,1.675C32.983,23.048,32.142,23.885,31.113,23.885z M49.982,22.533H48.61
		c-0.365,0-0.661-0.23-0.661-0.517s0.296-0.518,0.661-0.518h1.372c0.365,0,0.664,0.232,0.664,0.518S50.347,22.533,49.982,22.533z"/>
	<polygon fill="#FF9800" points="42.767,72.079 43.907,62.128 31.469,62.656 	"/>
	<path fill="#FF9800" d="M52.296,32.32c1.936-0.058,3.475-0.905,3.475-1.948v-7.964c0-0.704-0.707-1.318-1.762-1.664
		c0.116,0.902,0.194,1.815,0.194,2.749C54.204,26.642,53.511,29.625,52.296,32.32z"/>
	<path fill="#FF9800" d="M64.411,32.33c2.029,0,3.68-0.877,3.68-1.958v-7.964c0-1.079-1.65-1.958-3.68-1.958
		c-2.028,0-3.675,0.879-3.675,1.958v7.964C60.736,31.453,62.382,32.33,64.411,32.33z"/>
	<path fill="#FF9800" d="M76.725,32.33c2.031,0,3.681-0.877,3.681-1.958v-7.964c0-1.079-1.649-1.958-3.681-1.958
		c-2.028,0-3.674,0.879-3.674,1.958v7.964C73.051,31.453,74.697,32.33,76.725,32.33z"/>
	<path fill="#FF9800" d="M81.85,28.282v3.055c0,1.25-2.231,2.267-4.978,2.267c-2.747,0-4.977-1.017-4.977-2.267v-3.055h-2.418v3.055
		c0,1.25-2.229,2.267-4.978,2.267c-2.744,0-4.973-1.017-4.973-2.267v-3.055H57.11v3.055c0,1.25-2.229,2.267-4.978,2.267
		c-0.154,0-0.296-0.014-0.447-0.02c-3.614,6.79-10.756,11.416-18.989,11.416c-0.377,0-0.749-0.036-1.124-0.054v14.976l0.473,0.396
		l14.695-0.624l-1.36,11.879l0.664,0.557H86.25V28.282H81.85z M49.608,53.624h-4.6c-0.843,0-1.53-0.688-1.53-1.533
		c0-0.848,0.687-1.533,1.53-1.533h4.6c0.844,0,1.53,0.686,1.53,1.533C51.138,52.936,50.452,53.624,49.608,53.624z M49.608,48.231
		h-4.6c-0.843,0-1.53-0.687-1.53-1.53c0-0.846,0.687-1.533,1.53-1.533h4.6c0.844,0,1.53,0.688,1.53,1.533
		C51.138,47.545,50.452,48.231,49.608,48.231z M61.457,58.889h-4.596c-0.843,0-1.533-0.69-1.533-1.533c0-0.844,0.69-1.53,1.533-1.53
		h4.596c0.845,0,1.53,0.687,1.53,1.53C62.987,58.198,62.301,58.889,61.457,58.889z M61.457,53.624h-4.596
		c-0.843,0-1.533-0.688-1.533-1.533c0-0.848,0.69-1.533,1.533-1.533h4.596c0.845,0,1.53,0.686,1.53,1.533
		C62.987,52.936,62.301,53.624,61.457,53.624z M61.457,48.231h-4.596c-0.843,0-1.533-0.687-1.533-1.53
		c0-0.846,0.69-1.533,1.533-1.533h4.596c0.845,0,1.53,0.688,1.53,1.533C62.987,47.545,62.301,48.231,61.457,48.231z M73.275,58.889
		h-4.596c-0.842,0-1.53-0.69-1.53-1.533c0-0.844,0.688-1.53,1.53-1.53h4.596c0.848,0,1.533,0.687,1.533,1.53
		C74.808,58.198,74.123,58.889,73.275,58.889z M73.275,53.624h-4.596c-0.842,0-1.53-0.688-1.53-1.533
		c0-0.848,0.688-1.533,1.53-1.533h4.596c0.848,0,1.533,0.686,1.533,1.533C74.808,52.936,74.123,53.624,73.275,53.624z
		 M73.275,48.231h-4.596c-0.842,0-1.53-0.687-1.53-1.53c0-0.846,0.688-1.533,1.53-1.533h4.596c0.848,0,1.533,0.688,1.533,1.533
		C74.808,47.545,74.123,48.231,73.275,48.231z"/>
</g>
</svg>
