<?xml version="1.0" encoding="utf-8"?>
<!-- Generator: Adobe Illustrator 16.0.0, SVG Export Plug-In . SVG Version: 6.00 Build 0)  -->
<!DOCTYPE svg PUBLIC "-//W3C//DTD SVG 1.1//EN" "http://www.w3.org/Graphics/SVG/1.1/DTD/svg11.dtd">
<svg version="1.1" id="Calque_1" xmlns="http://www.w3.org/2000/svg" xmlns:xlink="http://www.w3.org/1999/xlink" x="0px" y="0px"
	 width="111.742px" height="96.766px" viewBox="0 0 111.742 96.766" enable-background="new 0 0 111.742 96.766"
	 xml:space="preserve">
<path fill="#FFFFFF" d="M13.264,58.07V37.225h70.936V58.07h-4.866c0.103,0.689,0.188,1.389,0.243,2.092
	c0.1,1.248,0.117,2.502,0.061,3.747h8.839c1.313,0,2.375-1.422,2.375-3.177V34.564c0-1.753-1.062-3.177-2.375-3.177H8.983
	c-1.31,0-2.374,1.424-2.374,3.177v26.168c0,1.755,1.064,3.177,2.374,3.177h36.902c-0.085-1.95,0.014-3.916,0.304-5.839H13.264
	L13.264,58.07z M13.264,58.07"/>
<path fill="#FFFFFF" d="M103.136,84.872l-21.995-16.54c-0.912,3.093-2.722,5.738-5.084,7.661l21.799,16.388
	c1.99,1.499,4.785,1.027,6.241-1.042C105.557,89.263,105.128,86.367,103.136,84.872z"/>
<path fill="#FFFFFF" stroke="#FFFFFF" stroke-width="1.5" d="M64.012,44.178c-9.47-0.793-17.794,6.242-18.588,15.715
	c-0.793,9.472,6.243,17.794,15.715,18.59c9.474,0.793,17.798-6.243,18.59-15.717C80.524,53.295,73.486,44.974,64.012,44.178z
	 M61.39,75.475c-7.811-0.653-13.612-7.521-12.957-15.33c0.655-7.813,7.519-13.611,15.328-12.959
	c7.812,0.654,13.616,7.517,12.962,15.33C76.067,70.324,69.203,76.127,61.39,75.475z"/>
</svg>
