<?xml version="1.0" encoding="utf-8"?>
<!-- Generator: Adobe Illustrator 16.0.0, SVG Export Plug-In . SVG Version: 6.00 Build 0)  -->
<!DOCTYPE svg PUBLIC "-//W3C//DTD SVG 1.1//EN" "http://www.w3.org/Graphics/SVG/1.1/DTD/svg11.dtd">
<svg version="1.1" id="Calque_1" xmlns="http://www.w3.org/2000/svg" xmlns:xlink="http://www.w3.org/1999/xlink" x="0px" y="0px"
	 width="123.057px" height="101.402px" viewBox="0 0 123.057 101.402" enable-background="new 0 0 123.057 101.402"
	 xml:space="preserve">
<g id="Calque_x0020_1">
	<g>
		<path fill="#212121" d="M119.385,84.179l-45.5-34.208c-1.887,6.398-5.629,11.868-10.516,15.844l45.09,33.905
			c4.117,3.092,9.901,2.119,12.916-2.164C124.395,93.263,123.503,87.282,119.385,84.179z"/>
		<path fill="#212121" d="M38.453,0C18.861-1.638,1.643,12.909,0,32.51c-1.643,19.591,12.914,36.809,32.508,38.452
			c19.597,1.643,36.815-12.91,38.457-32.506C72.607,18.855,58.051,1.643,38.453,0z M33.029,64.743
			C16.871,63.387,4.869,49.188,6.223,33.031C7.576,16.87,21.773,4.868,37.932,6.225c16.163,1.354,28.167,15.55,26.813,31.71
			C63.391,54.091,49.19,66.098,33.029,64.743L33.029,64.743z"/>
	</g>
	<path fill="none" stroke="#212121" stroke-width="2" d="M9.89,40.179h5.797l1.271-9.637l2.965,5.297l3.652-19.378l4.766,19.535
		l3.494-11.542l4.129,14.931l4.501-8.101l3.548,8.207l4.473-12.338l5.321,13.501"/>
</g>
</svg>
