<?xml version="1.0" encoding="utf-8"?>
<!-- Generator: Adobe Illustrator 16.0.0, SVG Export Plug-In . SVG Version: 6.00 Build 0)  -->
<!DOCTYPE svg PUBLIC "-//W3C//DTD SVG 1.1//EN" "http://www.w3.org/Graphics/SVG/1.1/DTD/svg11.dtd">
<svg version="1.1" id="Calque_1" xmlns="http://www.w3.org/2000/svg" xmlns:xlink="http://www.w3.org/1999/xlink" x="0px" y="0px"
	 width="124.839px" height="88.777px" viewBox="0 0 124.839 88.777" enable-background="new 0 0 124.839 88.777"
	 xml:space="preserve">
<g id="Calque_x0020_1">
	<g>
		<path fill="#FFFFFF" d="M20.191,14.125c0-2.157,0.609-4.149,1.594-5.906H8.245C3.693,8.218,0,10.866,0,14.125
			c0,3.264,3.693,5.906,8.245,5.906h13.54C20.801,18.276,20.191,16.283,20.191,14.125z"/>
		<path fill="#FFFFFF" d="M116.171,8.218H42.867c0.984,1.757,1.595,3.749,1.595,5.906c0,2.158-0.61,4.151-1.595,5.906h73.306
			c4.55,0,8.244-2.645,8.244-5.906c0-3.259-3.694-5.906-8.244-5.906H116.171z"/>
	</g>
	<path fill="none" stroke="#FFFFFF" stroke-width="4" d="M44.789,14.125c0,6.703-5.434,12.136-12.135,12.136
		c-6.702,0-12.135-5.433-12.135-12.136S25.952,1.99,32.654,1.99C39.355,1.99,44.789,7.422,44.789,14.125z"/>
	<path fill="none" stroke="#FFFFFF" stroke-width="4" d="M107.435,44.705c0,6.552-5.139,11.861-11.48,11.861
		c-6.34,0-11.479-5.311-11.479-11.861c0-6.555,5.139-11.864,11.479-11.864C102.296,32.841,107.435,38.151,107.435,44.705z"/>
	<g>
		<path fill="#FFFFFF" d="M85.351,44.376c0-2.188,0.663-4.218,1.799-5.905H8.245C3.693,38.47,0,41.117,0,44.376
			c0,3.263,3.693,5.906,8.245,5.906H87.15C86.014,48.594,85.351,46.564,85.351,44.376z"/>
		<path fill="#FFFFFF" d="M116.171,38.47h-11.408c1.135,1.688,1.799,3.718,1.799,5.905c0,2.188-0.664,4.218-1.799,5.906h11.408
			c4.551,0,8.246-2.645,8.246-5.906C124.417,41.116,120.722,38.47,116.171,38.47z"/>
	</g>
	<path fill="none" stroke="#FFFFFF" stroke-width="4" d="M48.835,75.279c0,6.356-5.153,11.508-11.506,11.508
		c-6.355,0-11.508-5.149-11.508-11.508c0-6.354,5.152-11.505,11.508-11.505C43.682,63.774,48.835,68.924,48.835,75.279z"/>
	<g>
		<path fill="#FFFFFF" d="M27.936,75.284c0-2.222,0.724-4.253,1.906-5.908H8.273C3.705,69.375,0,72.022,0,75.282
			c0,3.262,3.705,5.906,8.273,5.906H29.84C28.657,79.533,27.936,77.503,27.936,75.284z"/>
		<path fill="#FFFFFF" d="M116.566,69.375H45.163c1.183,1.655,1.906,3.688,1.906,5.908c0,2.22-0.724,4.249-1.904,5.904h71.401
			c4.564,0,8.273-2.646,8.273-5.906C124.839,72.021,121.13,69.375,116.566,69.375z"/>
	</g>
</g>
</svg>
