<?xml version="1.0" encoding="utf-8"?>
<!-- Generator: Adobe Illustrator 16.0.0, SVG Export Plug-In . SVG Version: 6.00 Build 0)  -->
<!DOCTYPE svg PUBLIC "-//W3C//DTD SVG 1.1//EN" "http://www.w3.org/Graphics/SVG/1.1/DTD/svg11.dtd">
<svg version="1.1" id="Calque_1" xmlns="http://www.w3.org/2000/svg" xmlns:xlink="http://www.w3.org/1999/xlink" x="0px" y="0px"
	 width="111.742px" height="96.766px" viewBox="0 0 111.742 96.766" enable-background="new 0 0 111.742 96.766"
	 xml:space="preserve">
<path fill="#212121" d="M17.381,88.816c0.77,2.109,2.583,3.483,4.589,3.483h62.928c2.747,0,4.971-2.531,4.971-5.654V69.683
	c0-3.125-2.224-5.656-4.971-5.656c-2.744,0-4.968,2.531-4.968,5.656V80.99H33.905l22.758-26.071
	c1.821-2.089,1.935-5.417,0.257-7.657L32.741,15.026h47.193v3.765c0,3.126,2.223,5.656,4.969,5.656c2.744,0,4.966-2.53,4.966-5.656
	V9.37c0-3.123-2.223-5.654-4.966-5.654H21.969c-1.938,0-3.702,1.283-4.513,3.287c-0.813,2.006-0.523,4.363,0.731,6.041
	l28.201,37.601L18.442,82.657C17.028,84.277,16.611,86.708,17.381,88.816L17.381,88.816z"/>
</svg>
