<?xml version="1.0" encoding="utf-8"?>
<!-- Generator: Adobe Illustrator 16.0.0, SVG Export Plug-In . SVG Version: 6.00 Build 0)  -->
<!DOCTYPE svg PUBLIC "-//W3C//DTD SVG 1.1//EN" "http://www.w3.org/Graphics/SVG/1.1/DTD/svg11.dtd">
<svg version="1.1" id="Calque_1" xmlns="http://www.w3.org/2000/svg" xmlns:xlink="http://www.w3.org/1999/xlink" x="0px" y="0px"
	 width="111.742px" height="96.766px" viewBox="0 0 111.742 96.766" enable-background="new 0 0 111.742 96.766"
	 xml:space="preserve">
<path fill="#212121" d="M24.819,79.548c8.539,8.542,19.764,12.813,30.988,12.813s22.445-4.271,30.991-12.817
	c17.088-17.087,17.088-44.89,0-61.976C78.252,9.027,67.03,4.75,55.807,4.75S33.359,9.022,24.815,17.565
	C7.725,34.654,7.729,62.458,24.819,79.548L24.819,79.548z M29.595,22.344c7.229-7.225,16.719-10.837,26.211-10.837
	c9.489,0,18.984,3.613,26.209,10.842c14.453,14.452,14.453,37.968,0,52.417c-7.225,7.229-16.719,10.837-26.209,10.842
	c-9.492,0-18.983-3.613-26.211-10.839c-1.807-1.807-3.388-3.754-4.739-5.808C15.369,54.578,16.95,34.989,29.595,22.344
	L29.595,22.344z M45.572,71.291h20.471c1.024,0,1.86,1.287,1.86,2.872c0,1.59-0.836,2.876-1.86,2.876H45.572
	c-1.025,0-1.859-1.286-1.859-2.876C43.713,72.578,44.547,71.291,45.572,71.291L45.572,71.291z M32.395,47.966
	c-1-0.935-1.053-2.51-0.117-3.509c0.935-1.002,2.493-1.064,3.508-0.118c2.688,2.521,5.441,0.197,5.748-0.073
	c0.912-0.818,2.263-0.835,3.195-0.101c0.11,0.09,0.214,0.186,0.311,0.296c0.912,1.021,0.827,2.589-0.194,3.505
	C42.644,49.934,37.239,52.495,32.395,47.966L32.395,47.966z M66.681,47.939c-1.001-0.936-1.052-2.51-0.118-3.511
	c0.936-1,2.494-1.064,3.511-0.117c2.686,2.521,5.442,0.197,5.748-0.077c0.911-0.814,2.267-0.835,3.194-0.096
	c0.108,0.088,0.215,0.185,0.312,0.293c0.914,1.022,0.826,2.591-0.195,3.507C76.929,49.906,71.524,52.467,66.681,47.939
	L66.681,47.939z"/>
</svg>
