<?xml version="1.0" encoding="utf-8"?>
<!-- Generator: Adobe Illustrator 16.0.0, SVG Export Plug-In . SVG Version: 6.00 Build 0)  -->
<!DOCTYPE svg PUBLIC "-//W3C//DTD SVG 1.1//EN" "http://www.w3.org/Graphics/SVG/1.1/DTD/svg11.dtd">
<svg version="1.1" id="Calque_1" xmlns="http://www.w3.org/2000/svg" xmlns:xlink="http://www.w3.org/1999/xlink" x="0px" y="0px"
	 width="111.742px" height="96.766px" viewBox="0 0 111.742 96.766" enable-background="new 0 0 111.742 96.766"
	 xml:space="preserve">
<g>
	<path fill="#FFFFFF" d="M23.91,18.157C6.696,35.376,6.696,63.386,23.914,80.604C41.123,97.816,69.136,97.816,86.35,80.6
		c17.218-17.214,17.216-45.224,0.004-62.438C69.136,0.948,41.123,0.948,23.91,18.157L23.91,18.157z M81.534,75.784
		c-14.555,14.56-38.25,14.56-52.805,0.005c-14.564-14.56-14.56-38.254,0-52.813C43.284,8.42,66.976,8.42,81.539,22.98
		C96.099,37.534,96.094,61.23,81.534,75.784L81.534,75.784z"/>
	<circle fill="#FFFFFF" cx="39.251" cy="36.753" r="3.988"/>
	<circle fill="#FFFFFF" cx="69.937" cy="36.753" r="3.988"/>
	<path fill="none" stroke="#FFFFFF" stroke-width="4" stroke-linecap="round" d="M38.5,62.615c0,0,15.573,18.807,33.261-0.16"/>
</g>
</svg>
