<?xml version="1.0" encoding="utf-8"?>
<!-- Generator: Adobe Illustrator 16.0.0, SVG Export Plug-In . SVG Version: 6.00 Build 0)  -->
<!DOCTYPE svg PUBLIC "-//W3C//DTD SVG 1.1//EN" "http://www.w3.org/Graphics/SVG/1.1/DTD/svg11.dtd">
<svg version="1.1" id="Calque_1" xmlns="http://www.w3.org/2000/svg" xmlns:xlink="http://www.w3.org/1999/xlink" x="0px" y="0px"
	 width="111.742px" height="96.766px" viewBox="0 0 111.742 96.766" enable-background="new 0 0 111.742 96.766"
	 xml:space="preserve">
<path fill="#FFFFFF" d="M77.803,47.507c0-8.732-4.866-16.043-12.157-19.446v10.714l12.157,12.158V47.507z M89.958,47.507
	c0,4.393-0.974,8.769-2.444,12.655l7.311,7.29c3.396-5.836,4.844-13.13,4.844-20.419c0-20.912-14.577-38.418-34.022-42.809v10.238
	C79.75,19.307,89.958,31.962,89.958,47.507L89.958,47.507z M18.468,3.749l-6.315,6.317L35.019,32.93H12.152v29.186h19.445
	L55.91,86.428V53.823l20.918,20.923c-3.419,2.418-6.813,4.363-11.183,5.841v10.204c6.813-1.473,12.631-4.363,17.999-8.754
	l9.709,9.729l6.314-6.316L55.91,41.666L18.468,3.749z M55.91,8.615L45.704,18.826L55.91,29.035V8.615z M55.91,8.615"/>
</svg>
