<?xml version="1.0" encoding="utf-8"?>
<!-- Generator: Adobe Illustrator 16.0.0, SVG Export Plug-In . SVG Version: 6.00 Build 0)  -->
<!DOCTYPE svg PUBLIC "-//W3C//DTD SVG 1.1//EN" "http://www.w3.org/Graphics/SVG/1.1/DTD/svg11.dtd">
<svg version="1.1" id="Calque_1" xmlns="http://www.w3.org/2000/svg" xmlns:xlink="http://www.w3.org/1999/xlink" x="0px" y="0px"
	 width="111.742px" height="96.766px" viewBox="0 0 111.742 96.766" enable-background="new 0 0 111.742 96.766"
	 xml:space="preserve">
<path fill="#212121" d="M13.035,34.195v28.742h19.159l23.949,23.95V10.243L32.193,34.195H13.035z M77.707,48.552
	c0-8.604-4.792-15.818-11.974-19.157v38.311C72.915,64.363,77.707,57.181,77.707,48.552L77.707,48.552z M65.733,6.402v10.064
	c13.893,4.291,23.951,16.759,23.951,32.086c0,15.349-10.059,27.786-23.951,32.09V90.7C84.89,86.397,99.25,69.158,99.25,48.552
	C99.25,27.973,84.89,10.71,65.733,6.402L65.733,6.402z M65.733,6.402"/>
</svg>
