<svg height="439.32261pt" viewBox="0 0 439.32261 439.32261" width="439.32261pt" xmlns="http://www.w3.org/2000/svg"><path d="m230.976562 4.699219 203.644532 203.648437c6.25 6.25 6.25 16.378906 0 22.628906l-203.644532 203.644532c-6.25 6.25-16.378906 6.25-22.628906 0l-203.648437-203.644532c-6.246094-6.25-6.246094-16.378906 0-22.628906l203.648437-203.648437c6.25-6.246094 16.378906-6.246094 22.628906 0zm0 0" fill="#787d82"/><path d="m230.976562 49.957031 158.390626 158.390625c6.25 6.25 6.25 16.378906 0 22.628906l-158.390626 158.390626c-6.25 6.25-16.378906 6.25-22.628906 0l-158.390625-158.390626c-6.25-6.25-6.25-16.378906 0-22.628906l158.390625-158.390625c6.25-6.25 16.378906-6.25 22.628906 0zm0 0" fill="#fbb540"/><g fill="#787d82"><path d="m219.238281 256.207031h-1.703125c-8.507812.011719-15.535156-6.636719-16-15.128906l-5.871094-107.144531c-.351562-6.238282 1.878907-12.347656 6.171876-16.886719 4.292968-4.542969 10.265624-7.113281 16.515624-7.113281 6.246094 0 12.222657 2.570312 16.515626 7.113281 4.289062 4.539063 6.523437 10.648437 6.171874 16.886719l-5.863281 107.199218c-.492187 8.449219-7.476562 15.054688-15.9375 15.074219zm0 0"/><path d="m235.664062 304.207031c0 8.835938-7.164062 16-16 16-8.835937 0-16-7.164062-16-16 0-8.839843 7.164063-16 16-16 8.835938 0 16 7.160157 16 16zm0 0"/></g></svg>