<?xml version="1.0" encoding="utf-8"?>
<!-- Generator: Adobe Illustrator 16.0.0, SVG Export Plug-In . SVG Version: 6.00 Build 0)  -->
<!DOCTYPE svg PUBLIC "-//W3C//DTD SVG 1.1//EN" "http://www.w3.org/Graphics/SVG/1.1/DTD/svg11.dtd">
<svg version="1.1" id="Calque_1" xmlns="http://www.w3.org/2000/svg" xmlns:xlink="http://www.w3.org/1999/xlink" x="0px" y="0px"
	 width="84.312px" height="109.312px" viewBox="0 0 84.312 109.312" enable-background="new 0 0 84.312 109.312"
	 xml:space="preserve">
<g id="Calque_x0020_1">
	<path fill="none" stroke="#212121" stroke-width="5" stroke-linecap="round" stroke-linejoin="round" d="M81.813,106.813H2.5V7.606
		h79.312V106.813z"/>
	<path fill="none" stroke="#212121" stroke-width="3" stroke-linecap="round" stroke-linejoin="round" d="M12.242,65.034
		l5.992-19.898l2.663,10.97l6.991-14.031l7.326,22.708c0,0,5.327-23.729,5.661-22.198c0.331,1.532,3.66,12.499,3.66,12.499
		l5.326-14.796l3.331,20.921c0,0,12.647-22.958,12.985-21.173c0.331,1.782,5.659,21.173,5.659,21.173"/>
	<path fill="none" stroke="#212121" stroke-width="0.75" d="M13.712,83.604"/>
	<path fill="none" stroke="#212121" stroke-width="2" stroke-linecap="round" stroke-linejoin="round" d="M37.984,83.604H15.149"/>
	<path fill="none" stroke="#212121" stroke-width="2" stroke-linecap="round" stroke-linejoin="round" d="M37.984,88.579H15.149"/>
	<path fill="none" stroke="#212121" stroke-width="2" stroke-linecap="round" stroke-linejoin="round" d="M37.984,93.555H15.149"/>
	<path fill="none" stroke="#212121" stroke-width="3" stroke-linecap="round" stroke-linejoin="round" d="M31.817,26.705h-18.58"/>
	<path fill="none" stroke="#212121" stroke-width="3" stroke-linecap="round" stroke-linejoin="round" d="M71.347,26.705h-18.58"/>
	<path fill="#212121" stroke="#212121" stroke-width="0.75" stroke-linejoin="round" d="M62.749,7.238
		c0,3.79-3.207,6.864-7.162,6.864H28.729c-3.957,0-7.164-3.074-7.164-6.864c0-3.788,3.207-6.862,7.164-6.862h26.857
		C59.541,0.375,62.748,3.45,62.749,7.238L62.749,7.238z"/>
	<path fill="none" stroke="#212121" stroke-width="2" stroke-linecap="round" stroke-linejoin="round" d="M68.749,93.961
		l0.009-11.017"/>
	<path fill="none" stroke="#212121" stroke-width="2" stroke-linecap="round" stroke-linejoin="round" d="M62.979,93.959
		l0.008-11.021"/>
	<path fill="none" stroke="#212121" stroke-width="2" stroke-linecap="round" stroke-linejoin="round" d="M57.205,93.956
		l0.011-11.021"/>
</g>
</svg>
