<?xml version="1.0" encoding="utf-8"?>
<!-- Generator: Adobe Illustrator 16.0.0, SVG Export Plug-In . SVG Version: 6.00 Build 0)  -->
<!DOCTYPE svg PUBLIC "-//W3C//DTD SVG 1.1//EN" "http://www.w3.org/Graphics/SVG/1.1/DTD/svg11.dtd">
<svg version="1.1" id="Calque_1" xmlns="http://www.w3.org/2000/svg" xmlns:xlink="http://www.w3.org/1999/xlink" x="0px" y="0px"
	 width="111.742px" height="96.766px" viewBox="0 0 111.742 96.766" enable-background="new 0 0 111.742 96.766"
	 xml:space="preserve">
<path fill="#FFFFFF" d="M91.817,12.659c-1.668-2.695-4.243-4.625-7.254-5.601C83.918,5.004,81.955,3.5,79.602,3.5
	c-2.873,0-5.202,2.23-5.202,4.983s2.329,4.984,5.202,4.984c1.673,0,3.143-0.767,4.094-1.942c1.641,0.688,3.037,1.838,3.979,3.362
	c1.587,2.563,1.587,5.626,0,8.189L72.315,47.913c-1.584,2.563-4.425,4.094-7.596,4.094s-6.01-1.53-7.599-4.094L41.763,23.077
	c-1.585-2.562-1.585-5.624,0-8.187c0.921-1.487,2.271-2.611,3.856-3.307c0.953,1.14,2.4,1.885,4.045,1.885
	c2.873,0,5.203-2.232,5.203-4.984c0-2.754-2.33-4.984-5.204-4.984c-2.377,0-4.359,1.534-4.981,3.618
	c-2.927,0.995-5.428,2.904-7.061,5.54c-2.449,3.963-2.449,8.691,0,12.65l15.361,24.838c2.044,3.303,5.436,5.49,9.348,6.126v11.977
	c0,11.701-7.4,21.22-16.495,21.22S29.34,79.95,29.34,68.249V53.99c5.449-1.035,9.557-5.544,9.557-10.929
	c0-6.151-5.357-11.154-11.948-11.154C20.362,31.907,15,36.91,15,43.061c0,5.385,4.112,9.892,9.559,10.929v14.262
	c0,14.162,9.543,25.683,21.276,25.683c11.73,0,21.273-11.521,21.273-25.683V56.275c3.911-0.637,7.304-2.824,9.348-6.127
	L91.818,25.31C94.267,21.35,94.267,16.619,91.817,12.659z"/>
</svg>
