<?xml version="1.0" encoding="utf-8"?>
<!-- Generator: Adobe Illustrator 16.0.0, SVG Export Plug-In . SVG Version: 6.00 Build 0)  -->
<!DOCTYPE svg PUBLIC "-//W3C//DTD SVG 1.1//EN" "http://www.w3.org/Graphics/SVG/1.1/DTD/svg11.dtd">
<svg version="1.1" id="Calque_1" xmlns="http://www.w3.org/2000/svg" xmlns:xlink="http://www.w3.org/1999/xlink" x="0px" y="0px"
	 width="111.742px" height="96.766px" viewBox="0 0 111.742 96.766" enable-background="new 0 0 111.742 96.766"
	 xml:space="preserve">
<g>
	<circle fill="#212121" cx="54.887" cy="54.942" r="2.451"/>
	<path fill="#212121" d="M94.583,30.755L83.312,17.226l-7.811,6.525c-3.475-2.316-7.345-4.04-11.497-5.113v-6.2h6.271V2H44.629
		v10.438h7.158v5.028C31.833,18.793,16,35.389,16,55.67c0,21.13,17.188,38.316,38.318,38.316c21.127,0,38.33-17.188,38.33-38.316
		c0-6.936-1.877-13.433-5.112-19.039L94.583,30.755z M55.816,86.755V77.76h-1.498v9.066c-8.122,0-15.507-3.149-21.062-8.264
		c0.666-0.422,1.132-1.143,1.132-1.99c0-1.354-1.104-2.443-2.443-2.443c-0.793,0-1.469,0.409-1.921,1.02
		c-4.282-5.342-6.866-12.105-6.866-19.465H30.9v-1.481h-7.669c0.355-7.586,3.417-14.449,8.263-19.675
		c0.452,0.522,1.101,0.89,1.85,0.89c1.342,0,2.429-1.087,2.429-2.444c0-0.676-0.28-1.298-0.732-1.736
		c5.307-4.194,12.003-6.736,19.277-6.736v10.466h1.498V24.584c6.553,0.31,12.568,2.641,17.455,6.412
		c-0.338,0.409-0.578,0.933-0.578,1.525c0,1.342,1.088,2.443,2.43,2.443c0.691,0,1.299-0.298,1.751-0.749
		c5,5.254,8.178,12.245,8.544,19.985h-7.344v1.481h7.416c0,6.088-1.795,11.767-4.831,16.567c-0.41-0.325-0.904-0.551-1.483-0.551
		c-1.341,0-2.429,1.087-2.429,2.429c0,0.834,0.438,1.525,1.06,1.963C72.396,82.307,64.57,86.332,55.816,86.755L55.816,86.755z"/>
</g>
</svg>
