<?xml version="1.0" encoding="iso-8859-1"?>
<!-- Generator: Adobe Illustrator 19.0.0, SVG Export Plug-In . SVG Version: 6.00 Build 0)  -->
<svg version="1.1" id="Layer_1" xmlns="http://www.w3.org/2000/svg" xmlns:xlink="http://www.w3.org/1999/xlink" x="0px" y="0px"
	 viewBox="0 0 512 512" style="enable-background:new 0 0 512 512;" xml:space="preserve">
<g transform="translate(-1)">
	<path style="fill:#FABA81;" d="M124.586,185.379v44.138c0,77.683,59.145,158.897,132.414,158.897S389.414,307.2,389.414,229.517
		v-44.138H124.586z"/>
	<path style="fill:#F4BA48;" d="M292.31,26.483v-8.828C292.31,7.945,284.366,0,274.655,0h-35.31c-9.71,0-17.655,7.945-17.655,17.655
		v8.828c-66.207,15.89-114.759,70.621-114.759,141.241v17.655h300.138v-17.655C407.069,97.103,358.517,42.372,292.31,26.483"/>
	<g>
		<path style="fill:#B58024;" d="M292.31,70.621c-5.297,0-8.828-3.531-8.828-8.828V35.31c0-5.297,3.531-8.828,8.828-8.828
			s8.828,3.531,8.828,8.828v26.483C301.138,67.09,297.607,70.621,292.31,70.621"/>
		<path style="fill:#B58024;" d="M221.69,70.621c-5.297,0-8.828-3.531-8.828-8.828V35.31c0-5.297,3.531-8.828,8.828-8.828
			s8.828,3.531,8.828,8.828v26.483C230.517,67.09,226.986,70.621,221.69,70.621"/>
		<path style="fill:#B58024;" d="M424.724,194.207H89.276c-5.297,0-8.828-3.531-8.828-8.828s3.531-8.828,8.828-8.828h335.448
			c5.297,0,8.828,3.531,8.828,8.828S430.021,194.207,424.724,194.207"/>
	</g>
	<g>
		<path style="fill:#364875;" d="M292.31,467.862H221.69L257,388.414L292.31,467.862z"/>
		<path style="fill:#364875;" d="M212.862,512l8.828-44.138h70.621L301.138,512H212.862z"/>
	</g>
	<g>
		<path style="fill:#5869A0;" d="M162.545,336.331l-2.648-0.883l-8.828,35.31l70.621,97.103L257,388.414
			C219.924,388.414,186.379,367.228,162.545,336.331"/>
		<path style="fill:#5869A0;" d="M351.455,336.331c-23.834,30.897-57.379,52.083-94.455,52.083l35.31,79.448l70.621-97.103
			l-8.828-35.31L351.455,336.331z"/>
	</g>
	<g>
		<path style="fill:#7383BF;" d="M491.814,438.731c-48.552-25.6-95.338-45.021-137.71-50.317h-4.414l-57.379,79.448L301.138,512
			h-3.531l0,0H513v-37.959C513,459.034,505.055,445.793,491.814,438.731"/>
		<path style="fill:#7383BF;" d="M164.31,388.414h-4.414c-42.372,5.297-89.159,24.717-137.71,50.317
			C8.945,445.793,1,459.034,1,474.041V512h211.862l8.828-44.138L164.31,388.414z"/>
	</g>
	<g>
		<path style="fill:#B58024;" d="M128.117,92.69l67.09,13.241L181.966,41.49C159.897,53.848,141.359,71.503,128.117,92.69"/>
		<path style="fill:#B58024;" d="M385.883,92.69l-67.09,13.241l13.241-64.441C354.103,53.848,372.641,71.503,385.883,92.69"/>
	</g>
</g>
<g>
</g>
<g>
</g>
<g>
</g>
<g>
</g>
<g>
</g>
<g>
</g>
<g>
</g>
<g>
</g>
<g>
</g>
<g>
</g>
<g>
</g>
<g>
</g>
<g>
</g>
<g>
</g>
<g>
</g>
</svg>
