<?xml version="1.0" encoding="utf-8"?>
<!-- Generator: Adobe Illustrator 16.0.0, SVG Export Plug-In . SVG Version: 6.00 Build 0)  -->
<!DOCTYPE svg PUBLIC "-//W3C//DTD SVG 1.1//EN" "http://www.w3.org/Graphics/SVG/1.1/DTD/svg11.dtd">
<svg version="1.1" id="Calque_1" xmlns="http://www.w3.org/2000/svg" xmlns:xlink="http://www.w3.org/1999/xlink" x="0px" y="0px"
	 width="97.167px" height="73.924px" viewBox="0 0 97.167 73.924" enable-background="new 0 0 97.167 73.924" xml:space="preserve">
<polygon fill="#FF9800" points="59.111,11.064 56.337,11.068 53.563,11.071 54.946,6.142 56.319,1.216 57.717,6.137 "/>
<polygon fill="#FF9800" points="74.294,32.755 74.292,29.983 74.287,27.209 79.215,28.589 84.144,29.966 79.218,31.36 "/>
<polygon fill="#FF9800" points="70.929,40.835 72.208,38.378 73.493,35.919 77.22,39.428 80.947,42.934 75.936,41.887 "/>
<polygon fill="#FF9800" points="71.22,19.239 72.499,21.696 73.783,24.155 77.509,20.647 81.238,17.138 76.225,18.188 "/>
<polygon fill="#FF9800" points="63.22,12.455 65.554,13.957 67.887,15.45 69.381,10.556 70.873,5.66 67.047,9.055 "/>
<polygon fill="#FF9800" points="53.563,48.001 56.335,47.999 59.111,47.995 57.731,52.926 56.354,57.854 54.956,52.931 "/>
<polygon fill="#FF9800" points="63.893,47.138 66.202,45.595 68.505,44.06 70.085,48.923 71.665,53.794 67.781,50.466 "/>
<path fill="#FF9800" d="M55.877,13.719c-3.287,0-6.342,0.988-8.894,2.674v24.331c2.279,1.167,4.22,2.889,5.661,4.982
	c1.045,0.211,2.126,0.324,3.232,0.324c8.923,0,16.157-7.23,16.157-16.156C72.035,20.951,64.8,13.719,55.877,13.719z"/>
<path fill="#FF9800" d="M24.929,27.695c0,0.602-0.53,1.09-1.187,1.09h-7.844c-0.658,0-1.19-0.488-1.19-1.09l0,0
	c0-0.603,0.533-1.089,1.19-1.089h7.844C24.399,26.606,24.929,27.093,24.929,27.695L24.929,27.695z"/>
<path fill="#FF9800" d="M24.929,30.732c0,0.532-0.385,0.964-0.857,0.964h-5.656c-0.476,0-0.857-0.433-0.857-0.964l0,0
	c0-0.533,0.382-0.964,0.857-0.964h5.656C24.544,29.769,24.929,30.2,24.929,30.732L24.929,30.732z"/>
<path fill="#FF9800" d="M24.929,24.658c0,0.602-0.636,1.09-1.423,1.09h-9.385c-0.787,0-1.424-0.488-1.424-1.09l0,0
	c0-0.602,0.637-1.089,1.424-1.089h9.385C24.293,23.569,24.929,24.056,24.929,24.658L24.929,24.658z"/>
<path fill="none" stroke="#FF9800" stroke-width="2" d="M42.795,43.416V10.137c0-3.673-3.116-6.65-6.961-6.65
	c-3.848,0-6.963,2.978-6.963,6.65v33.279c-4.955,2.537-8.354,7.683-8.354,13.631c0,8.46,6.857,15.318,15.317,15.318
	c8.46,0,15.317-6.858,15.317-15.318C51.152,51.099,47.75,45.953,42.795,43.416z"/>
<path fill="#FF9800" d="M40.106,45.865V29.665h-8.543v16.201c-4.552,1.726-7.797,6.116-7.797,11.274
	c0,6.665,5.404,12.067,12.069,12.067c6.665,0,12.067-5.402,12.067-12.067C47.901,51.981,44.659,47.591,40.106,45.865z"/>
<g>
	<path fill="#FF9800" d="M44.43,4.738l-0.127-0.14c0.028,0.044,0.047,0.095,0.076,0.14H44.43z"/>
	<polygon fill="#FF9800" points="47.194,7.745 46.674,7.179 46.674,13.51 48.182,12.743 50.645,11.495 	"/>
</g>
</svg>
