<?xml version="1.0" encoding="utf-8"?>
<!-- Generator: Adobe Illustrator 16.0.0, SVG Export Plug-In . SVG Version: 6.00 Build 0)  -->
<!DOCTYPE svg PUBLIC "-//W3C//DTD SVG 1.1//EN" "http://www.w3.org/Graphics/SVG/1.1/DTD/svg11.dtd">
<svg version="1.1" id="Calque_1" xmlns="http://www.w3.org/2000/svg" xmlns:xlink="http://www.w3.org/1999/xlink" x="0px" y="0px"
	 width="111.742px" height="96.766px" viewBox="0 0 111.742 96.766" enable-background="new 0 0 111.742 96.766"
	 xml:space="preserve">
<g>
	<path fill="#212121" d="M24,26.102l8.908-11.751l8.907-11.753l8.899,11.787l8.896,11.788l-12.067-0.025l-0.072,16.136
		c-0.011,2.421-2.586,4.369-5.756,4.356c-3.168-0.013-5.728-1.984-5.717-4.406l0.07-16.107L24,26.102z"/>
	<path fill="#212121" d="M84.504,69.114l-8.908,11.752l-8.906,11.752L57.79,80.83l-8.897-11.788l12.067,0.024l0.071-16.136
		c0.011-2.421,2.588-4.369,5.756-4.356c3.169,0.013,5.728,1.984,5.718,4.406l-0.071,16.108L84.504,69.114z"/>
</g>
</svg>
