<?xml version="1.0" encoding="utf-8"?>
<!-- Generator: Adobe Illustrator 16.0.0, SVG Export Plug-In . SVG Version: 6.00 Build 0)  -->
<!DOCTYPE svg PUBLIC "-//W3C//DTD SVG 1.1//EN" "http://www.w3.org/Graphics/SVG/1.1/DTD/svg11.dtd">
<svg version="1.1" id="Calque_1" xmlns="http://www.w3.org/2000/svg" xmlns:xlink="http://www.w3.org/1999/xlink" x="0px" y="0px"
	 width="91.217px" height="92.795px" viewBox="0 0 91.217 92.795" enable-background="new 0 0 91.217 92.795" xml:space="preserve">
<g id="Calque_x0020_1">
	<path fill="#FFFFFF" d="M91.217,51.508c0,0,0.168-1.569-0.311-3.473l0.012-0.001c-0.007-0.018-0.015-0.034-0.021-0.049
		c-0.006-0.018-0.008-0.03-0.012-0.049l-0.01,0.008c-0.715-1.826-1.758-3.014-1.758-3.014c-2.866,1.17-7.723-1.012-9.24-1.758
		c-0.033-0.053-0.072-0.095-0.107-0.141c-0.035-0.236-1.111-7.089,1.293-9.826c0,0-0.775-1.379-2.272-2.647l0.009-0.01
		c-0.02-0.009-0.037-0.021-0.057-0.031c-0.01-0.011-0.016-0.017-0.024-0.024l-0.004,0.002c-1.641-1.068-3.18-1.424-3.18-1.424
		c-1.978,3.132-9.079,4.019-9.079,4.019l0.412,0.3c-0.516-0.179-1.033-0.347-1.564-0.496l0.977,0.011c0,0-5.155-4.961-4.863-8.66
		c0,0-1.448-0.634-3.404-0.76v-0.008c-0.014,0.002-0.027,0.002-0.043,0.002c-0.02,0-0.035-0.002-0.057-0.002v0.011
		c-1.957,0.123-3.402,0.757-3.402,0.757c0.29,3.699-4.863,8.66-4.863,8.66l0.978-0.011c-0.627,0.176-1.24,0.383-1.847,0.601
		c-1.922-0.393-6.636-1.595-8.13-4.108c0,0-1.554,0.313-3.221,1.344l-0.006-0.011c-0.014,0.014-0.023,0.022-0.038,0.036
		c-0.015,0.008-0.027,0.014-0.041,0.023l0.006,0.008c-1.522,1.228-2.339,2.583-2.339,2.583c2.21,2.661,1.183,8.956,1.037,9.781
		c-0.992,0.519-6.417,3.229-9.537,1.983c0,0-1.036,1.195-1.734,3.028l-0.014-0.004c-0.006,0.021-0.009,0.041-0.013,0.063
		c-0.007,0.01-0.009,0.018-0.015,0.032l0.008,0.001c-0.461,1.903-0.283,3.473-0.283,3.473c3.386,0.765,6.413,6.416,6.785,7.14
		c0.001,0.12,0.012,0.239,0.019,0.364l-0.278-0.771c0,0-2.854,6.561-6.417,7.579c0,0-0.093,1.575,0.476,3.451l-0.009,0.005
		c0.006,0.013,0.013,0.021,0.02,0.038c0.006,0.018,0.009,0.036,0.016,0.055l0.011-0.004c0.796,1.787,1.896,2.927,1.896,2.927
		c2.843-1.32,7.875,0.688,9.369,1.342c0.062,0.086,0.128,0.168,0.191,0.254l-0.141-0.105c0,0,1.327,7.036-1.051,9.877
		c0,0,0.813,1.357,2.336,2.59l-0.009,0.008c0.022,0.019,0.039,0.025,0.06,0.035c0.008,0.01,0.014,0.018,0.021,0.023l0.004-0.006
		c1.667,1.029,3.216,1.344,3.216,1.344c1.852-3.096,8.602-4.178,8.946-4.229c1.041,1.067,4.844,5.188,4.592,8.383
		c0,0,1.445,0.635,3.402,0.76v0.008c0.014,0,0.023,0,0.037-0.002c0.021,0.002,0.041,0.002,0.062,0.006v-0.014
		c1.956-0.123,3.404-0.758,3.404-0.758c-0.27-3.416,4.057-7.854,4.729-8.523c0.256-0.08,0.5-0.182,0.752-0.27
		c1.957,0.434,6.557,1.697,8,4.205c0,0,1.556-0.295,3.238-1.306l0.006,0.013c0.014-0.013,0.021-0.025,0.035-0.029
		c0.016-0.012,0.029-0.02,0.045-0.027l-0.007-0.012c1.538-1.207,2.376-2.547,2.376-2.547c-1.996-2.469-1.224-7.953-0.961-9.475
		c1.566-0.718,6.452-2.726,9.271-1.478c0,0,1.08-1.157,1.847-2.956l0.012,0.001c0.007-0.019,0.013-0.039,0.017-0.062
		c0.004-0.012,0.011-0.018,0.015-0.028h-0.007c0.533-1.888,0.41-3.464,0.41-3.464c-3.33-0.889-6.123-6.573-6.5-7.364
		c0.004-0.136,0.021-0.261,0.021-0.386c0-0.019-0.003-0.03-0.003-0.045c0.822-1.514,3.505-6.062,6.507-6.766L91.217,51.508z
		 M49.728,83.483c0.018,0.008,0.035,0.016,0.054,0.016c0.022,0.027,0.024,0.029,0.055,0.057L49.728,83.483L49.728,83.483z
		 M57.837,78.565c-11.279,0-20.425-9.149-20.425-20.428c0-11.283,9.146-20.429,20.425-20.429c11.281,0,20.43,9.146,20.43,20.429
		C78.267,69.415,69.119,78.565,57.837,78.565z"/>
	<path fill="#FFFFFF" d="M57.836,42.082c-8.862,0-16.051,7.19-16.051,16.056c0,8.862,7.188,16.049,16.051,16.049
		c8.864,0,16.052-7.187,16.052-16.049C73.888,49.272,66.7,42.082,57.836,42.082z M57.837,68.543c-5.749,0-10.406-4.661-10.406-10.41
		s4.657-10.405,10.406-10.405s10.408,4.656,10.408,10.405S63.586,68.543,57.837,68.543L57.837,68.543z"/>
	<path fill="#FFFFFF" d="M37.224,15.628c0,0,0.094-0.874-0.173-1.936l0.006-0.002c-0.004-0.01-0.008-0.018-0.013-0.026
		c-0.001-0.007-0.002-0.02-0.004-0.027l-0.005,0.004c-0.399-1.018-0.981-1.68-0.981-1.68c-1.598,0.653-4.307-0.565-5.152-0.982
		c-0.02-0.027-0.04-0.052-0.06-0.078c-0.021-0.131-0.62-3.952,0.722-5.478c0,0-0.433-0.77-1.268-1.477l0.005-0.005
		c-0.011-0.003-0.02-0.011-0.031-0.017c-0.006-0.004-0.011-0.008-0.015-0.014l-0.002,0.001c-0.915-0.596-1.772-0.794-1.772-0.794
		c-1.104,1.749-5.063,2.24-5.063,2.24l0.231,0.167c-0.289-0.1-0.577-0.194-0.874-0.276l0.545,0.008c0,0-2.875-2.766-2.712-4.829
		c0,0-0.807-0.354-1.898-0.425V0c-0.007,0-0.015,0-0.024,0c-0.01,0-0.021,0-0.032,0v0.004c-1.09,0.07-1.896,0.425-1.896,0.425
		c0.163,2.063-2.712,4.829-2.712,4.829l0.545-0.008c-0.351,0.1-0.692,0.214-1.03,0.336c-1.072-0.218-3.7-0.889-4.534-2.289
		c0,0-0.866,0.172-1.796,0.747L7.228,4.038C7.219,4.043,7.215,4.051,7.207,4.057C7.199,4.061,7.191,4.067,7.184,4.07l0.002,0.004
		C6.338,4.762,5.882,5.516,5.882,5.516c1.232,1.483,0.66,4.994,0.578,5.454c-0.552,0.287-3.578,1.799-5.316,1.103
		c0,0-0.579,0.669-0.967,1.691L0.168,13.76c-0.002,0.013-0.004,0.025-0.007,0.034c-0.003,0.008-0.004,0.014-0.008,0.018l0.004,0.001
		C-0.099,14.877,0,15.75,0,15.75c1.888,0.426,3.576,3.579,3.784,3.981c0,0.067,0.007,0.135,0.011,0.205l-0.156-0.432
		c0,0-1.591,3.656-3.578,4.225c0,0-0.052,0.878,0.266,1.926l-0.005,0.003c0.002,0.007,0.005,0.011,0.011,0.019
		c0.003,0.012,0.005,0.022,0.008,0.034l0.006-0.004c0.445,0.994,1.059,1.631,1.059,1.631c1.584-0.735,4.39,0.385,5.223,0.75
		c0.035,0.045,0.071,0.093,0.108,0.141l-0.08-0.06c0,0,0.74,3.922-0.585,5.507c0,0,0.452,0.758,1.302,1.445l-0.005,0.005
		c0.011,0.005,0.022,0.012,0.034,0.021c0.004,0.001,0.007,0.007,0.011,0.011l0.003-0.004c0.928,0.572,1.792,0.75,1.792,0.75
		c1.035-1.728,4.797-2.329,4.988-2.357c0.583,0.594,2.701,2.894,2.561,4.674c0,0,0.806,0.355,1.896,0.423v0.003
		c0.008,0,0.014,0,0.022,0c0.011,0,0.021,0,0.034,0.004v-0.008c1.091-0.067,1.898-0.422,1.898-0.422
		c-0.15-1.905,2.261-4.379,2.636-4.752c0.142-0.048,0.278-0.101,0.42-0.151c1.09,0.243,3.655,0.946,4.46,2.345
		c0,0,0.867-0.167,1.806-0.728l0.003,0.007c0.007-0.007,0.013-0.015,0.019-0.018c0.009-0.004,0.018-0.007,0.024-0.015l-0.002-0.006
		c0.857-0.672,1.324-1.422,1.324-1.422c-1.113-1.375-0.683-4.435-0.535-5.282c0.874-0.4,3.597-1.519,5.169-0.821
		c0,0,0.604-0.647,1.029-1.651l0.007,0.002c0.004-0.012,0.007-0.021,0.01-0.034c0.003-0.006,0.005-0.01,0.008-0.018h-0.003
		c0.296-1.053,0.228-1.93,0.228-1.93c-1.856-0.494-3.414-3.666-3.623-4.107c0-0.072,0.011-0.142,0.011-0.216
		c0-0.005-0.002-0.014-0.002-0.023C34.056,18.557,35.55,16.021,37.224,15.628L37.224,15.628z M14.09,33.456
		c0.009,0.005,0.02,0.01,0.029,0.01c0.013,0.015,0.014,0.015,0.031,0.033L14.09,33.456L14.09,33.456z M18.613,30.715
		c-6.29,0-11.389-5.103-11.389-11.388c0-6.292,5.099-11.394,11.389-11.394c6.288,0,11.39,5.102,11.39,11.394
		C30.003,25.612,24.901,30.715,18.613,30.715z"/>
	<path fill="#FFFFFF" d="M18.611,10.374c-4.942,0-8.949,4.009-8.949,8.953c0,4.938,4.007,8.945,8.949,8.945
		c4.943,0,8.95-4.007,8.95-8.945C27.561,14.383,23.555,10.374,18.611,10.374z M18.611,25.125c-3.205,0-5.801-2.597-5.801-5.802
		c0-3.205,2.597-5.801,5.801-5.801c3.207,0,5.805,2.595,5.805,5.801C24.416,22.529,21.818,25.125,18.611,25.125z"/>
</g>
</svg>
