<?xml version="1.0" encoding="iso-8859-1"?>
<!-- Generator: Adobe Illustrator 19.0.0, SVG Export Plug-In . SVG Version: 6.00 Build 0)  -->
<svg version="1.1" id="Capa_1" xmlns="http://www.w3.org/2000/svg" xmlns:xlink="http://www.w3.org/1999/xlink" x="0px" y="0px"
	 viewBox="0 0 512 512" style="enable-background:new 0 0 512 512;" xml:space="preserve">
<path style="fill:#D19546;" d="M284.49,21.119c-7.713,0-14.99,1.853-21.427,5.119c5.738,8.751,9.089,19.2,9.089,30.422v47.184
	h29.265c5.921,0,10.738,4.811,10.738,10.725v43.974h13.764c2.087,0,4.095,0.334,5.983,0.94V68.507
	C331.902,42.335,310.676,21.119,284.49,21.119z"/>
<path style="fill:#B2762F;" d="M116.765,114.569c0-5.914,4.817-10.725,10.738-10.725h145.648V56.66
	c0-31.293-25.38-56.66-56.688-56.66h-64.778c-31.308,0-56.689,25.367-56.689,56.66v103.608c2.448-1.1,5.152-1.726,8.005-1.726
	h13.763L116.765,114.569L116.765,114.569z"/>
<path style="opacity:0.1;enable-background:new    ;" d="M116.765,114.569c0-3.462,1.658-6.537,4.214-8.499V56.66
	c0-31.293,25.38-56.66,56.689-56.66h-25.982c-31.308,0-56.689,25.367-56.689,56.66v103.608c2.448-1.1,5.152-1.726,8.005-1.726
	h13.763V114.569z"/>
<path style="fill:#FFC502;" d="M325.667,388.037c0-25.381,12.596-47.862,31.854-61.574h-78.44v-11.266
	c0-2.833-2.319-5.151-5.153-5.151h-20.01c-12.074,5.346-25.424,8.322-39.459,8.322s-27.384-2.977-39.458-8.322h-20.126
	c-2.834,0-5.153,2.318-5.153,5.151v11.266H65.739c-17.441,0-31.631,14.172-31.631,31.592v148.697c0,2.898,2.353,5.248,5.255,5.248
	h350.078c2.903,0,5.254-2.35,5.254-5.248v-43.445C356.077,459.958,325.667,427.489,325.667,388.037z"/>
<path style="fill:#083E63;" d="M223.546,353h-1.847l-4.119,3.677c-0.839,0.748-1.967,1.16-3.178,1.16
	c-1.21,0-2.339-0.412-3.178-1.16L207.104,353h-1.846c-2.75,0-5,2.25-5,5v24.383c3.944-2.961,8.842-4.717,14.144-4.717
	s10.199,1.756,14.143,4.717V358C228.546,355.25,226.296,353,223.546,353z"/>
<path style="fill:#FFB98A;" d="M214.459,318.368c-14.295,0-27.883-3.083-40.132-8.617v10.182c0,2.833,1.73,6.695,3.844,8.582
	l32.387,28.908c2.114,1.886,5.574,1.886,7.688,0l32.387-28.908c2.114-1.887,3.844-5.749,3.844-8.582v-10.131
	C242.257,315.303,228.709,318.368,214.459,318.368z"/>
<g style="opacity:0.1;">
	<path d="M60.167,506.752V358.055c0-17.42,14.19-31.592,31.631-31.592H65.739c-17.441,0-31.631,14.172-31.631,31.592v148.697
		c0,2.898,2.353,5.248,5.255,5.248h26.059C62.519,512,60.167,509.65,60.167,506.752z"/>
</g>
<g>
	<path style="fill:#FFB98A;" d="M325.919,157.543h-13.764v63.25c0,0.757-0.012,1.512-0.029,2.265h13.793
		c11.338,0,20.614-9.271,20.614-20.604v-24.308C346.534,166.814,337.258,157.543,325.919,157.543z"/>
	<path style="fill:#FFB98A;" d="M116.765,220.793v-63.25h-13.763c-11.338,0-20.614,9.271-20.614,20.604v24.308
		c0,11.332,9.276,20.604,20.614,20.604h13.792C116.776,222.305,116.765,221.55,116.765,220.793z"/>
</g>
<g>
	<path style="fill:#D19546;" d="M116.765,181.915h-14.232c-4.142,0-7.5,3.358-7.5,7.5c0,4.143,3.358,7.5,7.5,7.5h14.232V181.915z"/>
	<path style="fill:#D19546;" d="M326.385,181.915h-14.23v15h14.23c4.142,0,7.5-3.357,7.5-7.5
		C333.885,185.273,330.527,181.915,326.385,181.915z"/>
</g>
<path style="fill:#FFD5B3;" d="M214.459,319.368c-54.42,0-98.694-44.222-98.694-98.575V114.569c0-6.475,5.256-11.725,11.738-11.725
	h173.913c6.481,0,11.738,5.251,11.738,11.725v106.224C313.155,275.147,268.88,319.368,214.459,319.368z"/>
<g style="opacity:0.1;">
	<path d="M141.593,220.793V114.569c0-6.475,5.256-11.725,11.738-11.725h-25.828c-6.482,0-11.738,5.251-11.738,11.725v106.224
		c0,54.354,44.274,98.575,98.694,98.575c4.376,0,8.686-0.29,12.914-0.844C179.033,312.186,141.593,270.775,141.593,220.793z"/>
</g>
<g>
	<path style="fill:#775436;" d="M166.714,200.047c-4.142,0-7.5-3.357-7.5-7.5v-19.314c0-4.143,3.358-7.5,7.5-7.5s7.5,3.357,7.5,7.5
		v19.314C174.214,196.689,170.856,200.047,166.714,200.047z"/>
	<path style="fill:#775436;" d="M262.203,200.047c-4.142,0-7.5-3.357-7.5-7.5v-19.314c0-4.143,3.358-7.5,7.5-7.5s7.5,3.357,7.5,7.5
		v19.314C269.703,196.689,266.345,200.047,262.203,200.047z"/>
</g>
<path style="fill:#D19546;" d="M223.322,230.688h-12.573c-6.977,0-12.653-5.676-12.653-12.651v-32.089c0-4.143,3.358-7.5,7.5-7.5
	s7.5,3.357,7.5,7.5v29.74h10.226c4.142,0,7.5,3.357,7.5,7.5S227.464,230.688,223.322,230.688z"/>
<g>
	<path style="fill:#B2762F;" d="M144.199,157.667c-1.921,0-3.842-0.733-5.307-2.2c-2.927-2.931-2.924-7.68,0.007-10.606
		c15.339-15.319,40.297-15.317,55.633,0c2.931,2.928,2.933,7.677,0.006,10.606c-2.927,2.932-7.676,2.933-10.606,0.007
		c-9.492-9.481-24.939-9.481-34.433,0C148.035,156.936,146.117,157.667,144.199,157.667z"/>
	<path style="fill:#B2762F;" d="M284.72,157.667c-1.918,0-3.836-0.732-5.3-2.193c-9.493-9.481-24.939-9.483-34.431-0.001
		c-2.931,2.928-7.679,2.925-10.607-0.005c-2.927-2.931-2.925-7.679,0.005-10.607c15.337-15.322,40.293-15.321,55.633-0.001
		c2.931,2.928,2.934,7.676,0.006,10.606C288.563,156.934,286.642,157.667,284.72,157.667z"/>
</g>
<path style="fill:#D19546;" d="M214.401,278.685c-14.326,0-28.651-5.449-39.557-16.35c-2.93-2.928-2.931-7.677-0.003-10.606
	c2.928-2.93,7.677-2.932,10.606-0.003c15.965,15.955,41.941,15.955,57.906,0c2.929-2.929,7.678-2.928,10.607,0.003
	c2.928,2.93,2.927,7.679-0.003,10.606C243.052,273.235,228.727,278.685,214.401,278.685z"/>
<g>
	<path style="fill:#F7931E;" d="M221.901,512v-30.391c0-4.143-3.358-7.5-7.5-7.5s-7.5,3.357-7.5,7.5V512H221.901z"/>
	<path style="fill:#F7931E;" d="M214.401,424.845c-2.622,0-5.142-0.435-7.5-1.228v25.025c0,4.143,3.358,7.5,7.5,7.5
		s7.5-3.357,7.5-7.5v-25.025C219.544,424.409,217.023,424.845,214.401,424.845z"/>
</g>
<path style="fill:#C5CCD3;" d="M376.155,253.439c-1.202,1.202-2.186,3.575-2.186,5.275v25.024h52.067v-145.11
	c0-1.7-1.391-3.091-3.092-3.091h-25.056c-1.701,0-3.839,1.173-4.752,2.607l-17.506,27.496c-0.914,1.435-1.66,3.998-1.66,5.698
	v17.982c0,1.7,0.984,4.074,2.186,5.275l9.015,9.011c1.203,1.202,1.203,3.168,0,4.37l-9.015,9.012
	c-1.203,1.201-2.186,3.575-2.186,5.275v3.504c0,1.7,0.984,4.073,2.186,5.275l9.016,9.013c1.202,1.202,1.202,3.168,0,4.37
	L376.155,253.439z"/>
<path style="opacity:0.1;enable-background:new    ;" d="M376.155,253.439c-1.202,1.202-2.186,3.575-2.186,5.275v25.024h25.8
	v-25.024c0-1.7,0.984-4.073,2.186-5.275l9.016-9.012c1.203-1.202,1.203-3.168,0-4.37l-9.016-9.013
	c-1.202-1.202-2.186-3.575-2.186-5.275v-3.504c0-1.7,0.984-4.074,2.187-5.275l9.015-9.012c1.203-1.202,1.203-3.168,0-4.37
	l-9.015-9.011c-1.203-1.201-2.187-3.575-2.187-5.275V171.34c0-1.7,0.747-4.264,1.66-5.698l17.506-27.496
	c0.842-1.32,2.718-2.408,4.339-2.574c-0.11-0.012-0.217-0.033-0.331-0.033h-25.056c-1.701,0-3.839,1.173-4.752,2.607l-17.506,27.496
	c-0.914,1.435-1.66,3.998-1.66,5.698v17.982c0,1.7,0.984,4.074,2.186,5.275l9.015,9.011c1.203,1.202,1.203,3.168,0,4.37
	l-9.015,9.012c-1.203,1.201-2.186,3.575-2.186,5.275v3.504c0,1.7,0.984,4.073,2.186,5.275l9.016,9.013
	c1.202,1.202,1.202,3.168,0,4.37L376.155,253.439z"/>
<path style="fill:#9EA7AF;" d="M401.28,312.463c14.555,0,28.156,4.142,39.705,11.294v-35.866c0-2.833-2.319-5.151-5.154-5.151
	H366.73c-2.834,0-5.153,2.318-5.153,5.151v35.866C373.124,316.604,386.725,312.463,401.28,312.463z"/>
<path style="opacity:0.1;enable-background:new    ;" d="M387.887,313.674v-25.783c0-2.833,2.319-5.151,5.153-5.151h-26.311
	c-2.834,0-5.153,2.318-5.153,5.151v35.866C369.497,318.852,378.387,315.379,387.887,313.674z"/>
<ellipse style="fill:#C5CCD3;" cx="401.281" cy="388.04" rx="76.61" ry="76.57"/>
<g style="opacity:0.1;">
	<path d="M350.827,388.037c0-37.832,27.456-69.234,63.534-75.439c-4.252-0.732-8.618-1.135-13.08-1.135
		c-42.313,0-76.613,34.282-76.613,76.574c0,42.29,34.3,76.574,76.613,76.574c4.461,0,8.827-0.402,13.08-1.135
		C378.283,457.271,350.827,425.867,350.827,388.037z"/>
</g>
<ellipse style="fill:#FFFFFF;" cx="401.281" cy="408.06" rx="20.777" ry="20.767"/>
<path style="fill:#9EA7AF;" d="M416.079,358.637h-24.717c-4.142,0-7.5-3.357-7.5-7.5s3.358-7.5,7.5-7.5h24.717
	c4.142,0,7.5,3.357,7.5,7.5C423.579,355.279,420.221,358.637,416.079,358.637z"/>
<ellipse style="fill:#046699;" cx="214.401" cy="401.26" rx="24.603" ry="24.589"/>
<g style="opacity:0.1;">
	<path d="M215.803,401.256c0-8.81,4.637-16.53,11.601-20.874c-3.773-2.352-8.227-3.716-13.002-3.716
		c-13.587,0-24.603,11.008-24.603,24.59c0,13.581,11.015,24.589,24.603,24.589c4.775,0,9.229-1.364,13.002-3.716
		C220.44,417.786,215.803,410.065,215.803,401.256z"/>
</g>
<g>
</g>
<g>
</g>
<g>
</g>
<g>
</g>
<g>
</g>
<g>
</g>
<g>
</g>
<g>
</g>
<g>
</g>
<g>
</g>
<g>
</g>
<g>
</g>
<g>
</g>
<g>
</g>
<g>
</g>
</svg>
