<?xml version="1.0" encoding="utf-8"?>
<!-- Generator: Adobe Illustrator 16.0.0, SVG Export Plug-In . SVG Version: 6.00 Build 0)  -->
<!DOCTYPE svg PUBLIC "-//W3C//DTD SVG 1.1//EN" "http://www.w3.org/Graphics/SVG/1.1/DTD/svg11.dtd">
<svg version="1.1" id="Calque_1" xmlns="http://www.w3.org/2000/svg" xmlns:xlink="http://www.w3.org/1999/xlink" x="0px" y="0px"
	 width="111.742px" height="96.766px" viewBox="0 0 111.742 96.766" enable-background="new 0 0 111.742 96.766"
	 xml:space="preserve">
<path fill="#FFFFFF" d="M53.019,13.48c-2.256,0-4.088,1.832-4.088,4.098v24.833c-1.851,1.293-3.066,3.441-3.066,5.857
	c0,3.956,3.209,7.163,7.163,7.163c1.083,0,2.094-0.252,3.014-0.688l14.24,8.218c0.646,0.374,1.341,0.558,2.043,0.558
	c1.417,0,2.792-0.74,3.551-2.055c1.124-1.953,0.457-4.454-1.498-5.587l-14.257-8.226c-0.195-2.166-1.315-4.058-3.006-5.241V17.578
	C57.116,15.323,55.285,13.48,53.019,13.48L53.019,13.48z M53.019,51.348c-1.69,0-3.067-1.378-3.067-3.079
	c0-1.69,1.377-3.063,3.067-3.063c1.7,0,3.076,1.373,3.076,3.063C56.095,49.969,54.719,51.348,53.019,51.348L53.019,51.348z"/>
<path fill="#FFFFFF" d="M105.214,41.266c-0.345-0.715-1.065-1.173-1.863-1.173h-6.064C93.423,19.158,75.056,3.25,53.019,3.25
	C28.198,3.25,8,23.447,8,48.269c0,24.833,20.198,45.028,45.019,45.028c16.03,0,30.962-8.62,38.998-22.507
	c1.132-1.949,0.468-4.458-1.498-5.593c-1.952-1.134-4.461-0.465-5.586,1.497c-6.576,11.354-18.801,18.417-31.914,18.417
	c-20.309,0-36.832-16.523-36.832-36.843c0-20.308,16.523-36.833,36.832-36.833c17.495,0,32.159,12.275,35.893,28.645H82.89
	c-0.801,0-1.517,0.47-1.85,1.185c-0.346,0.719-0.233,1.568,0.283,2.176L91.55,55.726c0.388,0.466,0.963,0.729,1.568,0.729
	c0.609,0,1.187-0.264,1.567-0.729l10.243-12.284C105.435,42.835,105.545,41.985,105.214,41.266L105.214,41.266z"/>
</svg>
