<?xml version="1.0" encoding="utf-8"?>
<!-- Generator: Adobe Illustrator 16.0.0, SVG Export Plug-In . SVG Version: 6.00 Build 0)  -->
<!DOCTYPE svg PUBLIC "-//W3C//DTD SVG 1.1//EN" "http://www.w3.org/Graphics/SVG/1.1/DTD/svg11.dtd">
<svg version="1.1" id="Calque_1" xmlns="http://www.w3.org/2000/svg" xmlns:xlink="http://www.w3.org/1999/xlink" x="0px" y="0px"
	 width="91.727px" height="85.791px" viewBox="0 0 91.727 85.791" enable-background="new 0 0 91.727 85.791" xml:space="preserve">
<g id="Calque_x0020_1">
	<g>
		<path fill="#212121" d="M39.559,85.138L40.94,73.06l-15.092,0.646L39.559,85.14V85.138z"/>
		<path fill="#212121" d="M50.525,36.488c2.35-0.072,4.22-1.1,4.22-2.366v-9.661c0-0.856-0.859-1.601-2.14-2.021
			c0.142,1.096,0.236,2.204,0.236,3.337C52.841,29.596,52,33.216,50.525,36.488L50.525,36.488z"/>
		<path fill="#212121" d="M65.227,36.5c2.464,0,4.465-1.064,4.465-2.377v-9.661c0-1.311-2.001-2.375-4.465-2.375
			c-2.461,0-4.459,1.064-4.459,2.375v9.661C60.768,35.436,62.766,36.5,65.227,36.5L65.227,36.5z"/>
		<path fill="#212121" d="M80.17,36.5c2.465,0,4.465-1.064,4.465-2.377v-9.661c0-1.311-2-2.375-4.465-2.375
			c-2.461,0-4.459,1.064-4.459,2.375v9.661C75.711,35.436,77.709,36.5,80.17,36.5z"/>
		<path fill="#212121" d="M86.386,32.589v3.708c0,1.516-2.706,2.748-6.04,2.748c-3.332,0-6.035-1.232-6.035-2.748v-3.708h-2.936
			v3.708c0,1.516-2.705,2.748-6.038,2.748s-6.036-1.232-6.036-2.748v-3.708h-2.934v3.708c0,1.516-2.704,2.748-6.039,2.748
			c-0.187,0-0.36-0.016-0.541-0.025C45.4,47.26,36.732,52.875,26.746,52.875c-0.461,0-0.91-0.047-1.365-0.067v18.17l0.572,0.481
			l17.832-0.756l-1.648,14.412l0.802,0.676h48.788V32.589H86.386z M47.263,63.335h-5.577c-1.025,0-1.857-0.834-1.857-1.857
			c0-1.026,0.832-1.86,1.857-1.86h5.577c1.026,0,1.858,0.834,1.858,1.86C49.121,62.501,48.289,63.335,47.263,63.335z M47.263,56.796
			h-5.577c-1.025,0-1.857-0.834-1.857-1.859c0-1.026,0.832-1.86,1.857-1.86h5.577c1.026,0,1.858,0.834,1.858,1.86
			C49.121,55.962,48.289,56.796,47.263,56.796z M61.643,69.726h-5.577c-1.025,0-1.857-0.838-1.857-1.86
			c0-1.025,0.832-1.859,1.857-1.859h5.577c1.025,0,1.857,0.834,1.857,1.859C63.5,68.888,62.668,69.726,61.643,69.726z
			 M61.643,63.335h-5.577c-1.025,0-1.857-0.834-1.857-1.857c0-1.026,0.832-1.86,1.857-1.86h5.577c1.025,0,1.857,0.834,1.857,1.86
			C63.5,62.501,62.668,63.335,61.643,63.335z M61.643,56.796h-5.577c-1.025,0-1.857-0.834-1.857-1.859
			c0-1.026,0.832-1.86,1.857-1.86h5.577c1.025,0,1.857,0.834,1.857,1.86C63.5,55.962,62.668,56.796,61.643,56.796z M75.984,69.726
			h-5.578c-1.021,0-1.856-0.838-1.856-1.86c0-1.025,0.836-1.859,1.856-1.859h5.578c1.027,0,1.859,0.834,1.859,1.859
			C77.843,68.888,77.011,69.726,75.984,69.726z M75.984,63.335h-5.578c-1.021,0-1.856-0.834-1.856-1.857
			c0-1.026,0.836-1.86,1.856-1.86h5.578c1.027,0,1.859,0.834,1.859,1.86C77.843,62.501,77.011,63.335,75.984,63.335z M75.984,56.796
			h-5.578c-1.021,0-1.856-0.834-1.856-1.859c0-1.026,0.836-1.86,1.856-1.86h5.578c1.027,0,1.859,0.834,1.859,1.86
			C77.843,55.962,77.011,56.796,75.984,56.796z"/>
		<path fill="#212121" d="M24.901,0C11.148,0,0,11.148,0,24.9c0,13.751,11.147,24.902,24.9,24.902
			c13.751,0,24.899-11.15,24.899-24.902C49.801,11.148,38.652,0,24.901,0z M3.493,26.859c-1.082,0-1.959-0.877-1.959-1.959
			s0.877-1.959,1.959-1.959c1.081,0,1.958,0.877,1.958,1.959S4.574,26.859,3.493,26.859z M24.9,1.43
			c1.081,0,1.958,0.877,1.958,1.959S25.981,5.348,24.9,5.348c-1.082,0-1.959-0.877-1.959-1.959S23.818,1.43,24.9,1.43z M24.9,48.722
			c-1.082,0-1.959-0.877-1.959-1.957c0-1.082,0.877-1.959,1.959-1.959c1.081,0,1.958,0.877,1.958,1.959
			C26.858,47.845,25.981,48.722,24.9,48.722z M24.901,27.166c-0.749,0-1.396-0.378-1.808-0.939l-8.483,0.02
			c-0.573,0-1.042-0.596-1.043-1.332c-0.002-0.736,0.463-1.334,1.037-1.334l8.505-0.02c0.136-0.165,0.285-0.316,0.457-0.443V11.605
			c0-0.668,0.599-1.209,1.334-1.209c0.736,0,1.333,0.541,1.333,1.209v11.496c0.561,0.41,0.937,1.053,0.937,1.799
			C27.169,26.152,26.152,27.166,24.901,27.166z M46.743,26.859c-1.082,0-1.959-0.877-1.959-1.959s0.877-1.959,1.959-1.959
			c1.081,0,1.958,0.877,1.958,1.959S47.824,26.859,46.743,26.859z"/>
	</g>
</g>
</svg>
