<?xml version="1.0" encoding="utf-8"?>
<!-- Generator: Adobe Illustrator 16.0.0, SVG Export Plug-In . SVG Version: 6.00 Build 0)  -->
<!DOCTYPE svg PUBLIC "-//W3C//DTD SVG 1.1//EN" "http://www.w3.org/Graphics/SVG/1.1/DTD/svg11.dtd">
<svg version="1.1" id="Calque_1" xmlns="http://www.w3.org/2000/svg" xmlns:xlink="http://www.w3.org/1999/xlink" x="0px" y="0px"
	 width="82.529px" height="96.885px" viewBox="0 0 82.529 96.885" enable-background="new 0 0 82.529 96.885" xml:space="preserve">
<g id="Calque_x0020_1">
	<g>
		<path fill="#FFFFFF" d="M71.777,60.877V58.81l7.715-0.064l0.023-10.098c0-12.404-13.521-13.798-15.766-13.942v-0.017h-6.387
			c-0.831-1.394-1.893-2.666-3.147-3.779v-3.028h1.551v-8.959H26.133v8.959h1.55v3.028c-1.258,1.113-2.315,2.385-3.149,3.779h-7.729
			c-1.678-3.337-4.367-5.513-7.413-5.513c-0.864,0-1.702,0.186-2.497,0.516v-7.065H0v40.146h6.894v-7.063
			c0.795,0.328,1.633,0.517,2.497,0.517c2.991,0,5.643-2.101,7.327-5.343h9.148c3.332,4.06,8.842,6.72,15.084,6.72
			c6.239,0,11.749-2.66,15.083-6.72h7.5l0.064,9.994h-1.744v8.271H82.53v-8.271H71.777z"/>
		<path fill="#FFFFFF" d="M58.013,0c-2.569,0-4.808,1.248-5.993,3.103h-6.781c-0.434-1.623-2.225-2.842-4.367-2.842
			c-2.148,0-3.938,1.219-4.37,2.842h-6.782C28.533,1.25,26.295,0,23.728,0c-3.808,0-6.896,2.738-6.896,6.116
			c0,3.38,3.089,6.119,6.896,6.119c2.567,0,4.807-1.254,5.99-3.104h7.275v7.81h8.009v-7.81h7.018
			c1.187,1.849,3.424,3.104,5.993,3.104c3.807,0,6.892-2.739,6.892-6.119C64.905,2.736,61.819,0,58.013,0z"/>
		<path fill="#FFFFFF" d="M71.79,72.522c-1.591,1.582-7.571,7.707-8.67,11.406c-0.338,1.002-0.535,2.077-0.535,3.2
			c0,5.388,4.225,9.756,9.437,9.756c5.209,0,9.434-4.368,9.434-9.756c0-1.536-0.354-2.979-0.964-4.276
			c-0.03-0.059-0.057-0.115-0.083-0.178c-0.062-0.119-0.119-0.234-0.182-0.354c-1.947-3.657-6.615-8.434-7.99-9.801l-0.054-0.389
			c0,0-0.062,0.062-0.169,0.164 M69.694,93.784c-7.322-2.023-4.264-10.118-4.264-10.118s-1.251,6.028,4.564,8.183
			c5.814,2.152,9.133-1.293,9.133-1.293S77.017,95.81,69.694,93.784L69.694,93.784z"/>
	</g>
</g>
</svg>
