<?xml version="1.0" encoding="utf-8"?>
<!-- Generator: Adobe Illustrator 16.0.0, SVG Export Plug-In . SVG Version: 6.00 Build 0)  -->
<!DOCTYPE svg PUBLIC "-//W3C//DTD SVG 1.1//EN" "http://www.w3.org/Graphics/SVG/1.1/DTD/svg11.dtd">
<svg version="1.1" id="Calque_1" xmlns="http://www.w3.org/2000/svg" xmlns:xlink="http://www.w3.org/1999/xlink" x="0px" y="0px"
	 width="111.742px" height="96.766px" viewBox="0 0 111.742 96.766" enable-background="new 0 0 111.742 96.766"
	 xml:space="preserve">
<path fill="#212121" d="M96.738,4.75H16.689c-4.101,0-7.439,3.054-7.439,6.799v73.104c0,3.747,3.339,6.799,7.439,6.799h80.049
	c4.099,0,7.437-3.052,7.437-6.799V11.549C104.176,7.797,100.838,4.75,96.738,4.75L96.738,4.75z M91.692,12.493
	c1.762,0,3.188,1.303,3.188,2.909c0,1.611-1.426,2.917-3.188,2.917c-1.763,0-3.188-1.305-3.188-2.917
	C88.504,13.797,89.93,12.493,91.692,12.493L91.692,12.493z M80.268,12.493c1.765,0,3.188,1.303,3.188,2.909
	c0,1.611-1.424,2.917-3.188,2.917c-1.763,0-3.188-1.305-3.188-2.917C77.08,13.797,78.505,12.493,80.268,12.493L80.268,12.493z
	 M62.442,83.677H17.748V25.556h44.695V83.677z M95.67,83.677H65.716V25.556H95.67V83.677z M92.309,42.488H69.601V29.584H92.31
	L92.309,42.488L92.309,42.488z M92.309,60.446H69.601V47.541H92.31L92.309,60.446L92.309,60.446z M92.309,78.681H69.601V65.777
	H92.31L92.309,78.681L92.309,78.681z"/>
</svg>
