<?xml version="1.0" encoding="utf-8"?>
<!-- Generator: Adobe Illustrator 16.0.0, SVG Export Plug-In . SVG Version: 6.00 Build 0)  -->
<!DOCTYPE svg PUBLIC "-//W3C//DTD SVG 1.1//EN" "http://www.w3.org/Graphics/SVG/1.1/DTD/svg11.dtd">
<svg version="1.1" id="Calque_1" xmlns="http://www.w3.org/2000/svg" xmlns:xlink="http://www.w3.org/1999/xlink" x="0px" y="0px"
	 width="97.167px" height="73.924px" viewBox="0 0 97.167 73.924" enable-background="new 0 0 97.167 73.924" xml:space="preserve">
<path fill="none" stroke="#9E9E9E" stroke-width="2" d="M43.969,43.626V10.32c0-3.675-3.118-6.655-6.967-6.655
	c-3.851,0-6.969,2.98-6.969,6.655v33.306c-4.956,2.539-8.36,7.688-8.36,13.641c0,8.468,6.862,15.331,15.329,15.331
	c8.467,0,15.33-6.863,15.33-15.331C52.333,51.313,48.931,46.165,43.969,43.626z"/>
<path fill="#9E9E9E" d="M41.278,46.076V29.863h-8.55v16.213c-4.556,1.727-7.801,6.121-7.801,11.284
	c0,6.67,5.406,12.076,12.076,12.076c6.67,0,12.079-5.406,12.079-12.076C49.082,52.197,45.836,47.803,41.278,46.076z"/>
<path fill="#9E9E9E" d="M26.092,27.892c0,0.602-0.533,1.091-1.191,1.091h-7.848c-0.658,0-1.194-0.489-1.194-1.091l0,0
	c0-0.604,0.536-1.089,1.194-1.089h7.848C25.559,26.803,26.092,27.289,26.092,27.892L26.092,27.892z"/>
<path fill="#9E9E9E" d="M26.092,30.932c0,0.532-0.385,0.965-0.858,0.965H19.57c-0.473,0-0.858-0.433-0.858-0.965l0,0
	c0-0.533,0.385-0.964,0.858-0.964h5.664C25.707,29.967,26.092,30.399,26.092,30.932L26.092,30.932z"/>
<path fill="#9E9E9E" d="M26.092,24.852c0,0.602-0.637,1.091-1.428,1.091h-9.39c-0.789,0-1.427-0.489-1.427-1.091l0,0
	c0-0.602,0.638-1.089,1.427-1.089h9.39C25.455,23.763,26.092,24.25,26.092,24.852L26.092,24.852z"/>
<path fill="#9E9E9E" d="M83.545,38.143l-6.857-3.879l6.531-3.134l-1.739-2.5l-8.214,3.99l-9.741-5.56l9.642-5.39l8.231,3.843
	l1.676-2.501l-6.306-3.286l6.704-3.815l-1.932-3.139l-6.941,3.755l0.229-7.282l-2.762,0.953l-0.79,8.612l-9.444,5.212l0.171-10.634
	l7.65-5.125L68.46,5.459l-6.628,4.21l0.319-7.83l-3.678-0.221v7.808l-6.218-3.904l-1.45,2.802l7.846,5.064l0.044,10.634
	l-9.331-5.309l-0.803-8.593l-0.227-0.078v12.14l8.853,4.729l-8.853,5.116v8.676c0.185,0.097,0.367,0.201,0.547,0.306l0.629-5.733
	l9.185-5.159v10.389l-5.828,3.867c0.669,0.818,1.243,1.716,1.714,2.672l4.07-2.491l-0.178,7.969l3.595-0.166l-0.167-7.706
	l6.41,3.877l1.267-2.812l-7.746-4.995l0.069-10.761l9.192,5.465l0.879,8.509l2.804,1.106l-0.097-7.376l6.639,3.524L83.545,38.143z"
	/>
</svg>
