<?xml version="1.0" encoding="utf-8"?>
<!-- Generator: Adobe Illustrator 16.0.0, SVG Export Plug-In . SVG Version: 6.00 Build 0)  -->
<!DOCTYPE svg PUBLIC "-//W3C//DTD SVG 1.1//EN" "http://www.w3.org/Graphics/SVG/1.1/DTD/svg11.dtd">
<svg version="1.1" id="Calque_1" xmlns="http://www.w3.org/2000/svg" xmlns:xlink="http://www.w3.org/1999/xlink" x="0px" y="0px"
	 width="75.996px" height="96.238px" viewBox="0 0 75.996 96.238" enable-background="new 0 0 75.996 96.238" xml:space="preserve">
<g id="Calque_x0020_1">
	<g>
		<path fill="#212121" d="M69.951,63.08c0,0-21.765-7.771-22.799-11.396c0,0-2.088-0.445-4.07,0.167v4.414h-3.24l5.931,32.029
			l-7.773,7.607l-7.772-7.607l5.928-32.029h-3.239v-4.414c-1.985-0.614-4.074-0.167-4.074-0.167
			C27.805,55.309,6.044,63.08,6.044,63.08C-1.207,66.71,0,93.993,0,93.993L37.693,96.2l-0.041,0.038l0.346-0.021l0.34,0.021
			L38.303,96.2l37.692-2.207C75.996,93.993,77.203,66.71,69.951,63.08L69.951,63.08z"/>
		<path fill="#212121" d="M24.836,14.094c0,0,25.018,6.692,27.482,0.88l1.057,17.264c0,0,4.406-2.111,4.937-5.108L57.425,8.457
			c0,0-3.521-10.044-27.832-8.457c0,0-14.623-0.176-11.98,28.539c0,0,2.293,3.521,5.109,4.403
			C22.723,32.942,22.723,18.321,24.836,14.094L24.836,14.094z"/>
	</g>
</g>
</svg>
