<?xml version="1.0" encoding="iso-8859-1"?>
<!-- Generator: Adobe Illustrator 16.0.0, SVG Export Plug-In . SVG Version: 6.00 Build 0)  -->
<!DOCTYPE svg PUBLIC "-//W3C//DTD SVG 1.1//EN" "http://www.w3.org/Graphics/SVG/1.1/DTD/svg11.dtd">
<svg version="1.1" id="Capa_1" xmlns="http://www.w3.org/2000/svg" xmlns:xlink="http://www.w3.org/1999/xlink" x="0px" y="0px"
	 width="612px" height="612px" fill="#ffffff" viewBox="0 0 612 612" style="enable-background:new 0 0 612 612;" xml:space="preserve">
<g>
	<g id="Zoom_-">
		<g>
			<path d="M598.221,531.586l-110.58-110.542c30.314-43.443,48.228-96.149,48.228-153.105
				c0-147.976-119.958-267.934-267.934-267.934S0,119.963,0,267.939s119.958,267.934,267.934,267.934
				c56.956,0,109.662-17.913,153.105-48.228l110.542,110.542c18.411,18.41,48.229,18.41,66.64,0
				C616.593,579.814,616.593,549.997,598.221,531.586z M267.934,459.32c-105.681,0-191.381-85.7-191.381-191.381
				c0-105.681,85.701-191.381,191.381-191.381c105.681,0,191.381,85.701,191.381,191.381
				C459.315,373.62,373.615,459.32,267.934,459.32z M153.105,306.216h229.657v-76.553H153.105V306.216z"/>
		</g>
	</g>
</g>
<g>
</g>
<g>
</g>
<g>
</g>
<g>
</g>
<g>
</g>
<g>
</g>
<g>
</g>
<g>
</g>
<g>
</g>
<g>
</g>
<g>
</g>
<g>
</g>
<g>
</g>
<g>
</g>
<g>
</g>
</svg>
