<?xml version="1.0" encoding="utf-8"?>
<!-- Generator: Adobe Illustrator 16.0.0, SVG Export Plug-In . SVG Version: 6.00 Build 0)  -->
<!DOCTYPE svg PUBLIC "-//W3C//DTD SVG 1.1//EN" "http://www.w3.org/Graphics/SVG/1.1/DTD/svg11.dtd">
<svg version="1.1" id="Calque_1" xmlns="http://www.w3.org/2000/svg" xmlns:xlink="http://www.w3.org/1999/xlink" x="0px" y="0px"
	 width="102.268px" height="84.682px" viewBox="0 0 102.268 84.682" enable-background="new 0 0 102.268 84.682"
	 xml:space="preserve">
<g id="Calque_x0020_1">
	<g>
		<path fill="#FFFFFF" d="M99.21,70.34L61.314,41.846c-1.571,5.328-4.688,9.883-8.758,13.199L90.11,83.278
			c3.429,2.576,8.247,1.767,10.758-1.803C103.383,77.901,102.638,72.918,99.21,70.34z"/>
		<path fill="#FFFFFF" d="M32.027,0C15.71-1.368,1.369,10.751,0,27.071c-1.367,16.32,10.757,30.66,27.074,32.029
			c16.321,1.367,30.661-10.756,32.028-27.076C60.473,15.704,48.348,1.367,32.027,0z M27.509,53.92
			C14.051,52.792,4.056,40.961,5.184,27.506C6.311,14.046,18.135,4.055,31.593,5.18c13.46,1.128,23.458,12.95,22.331,26.41
			C52.795,45.045,40.969,55.045,27.509,53.92z"/>
		<path fill="#FFFFFF" d="M41.333,27.75h-9.977l0.029-9.976c0.002-0.997-0.801-1.803-1.795-1.808
			c-0.994-0.004-1.802,0.803-1.805,1.795l-0.029,9.987H17.77c-0.993,0-1.8,0.806-1.8,1.802c0,0.992,0.807,1.798,1.8,1.798h9.977
			l-0.028,9.979c-0.004,0.991,0.799,1.799,1.792,1.803c0.995,0.004,1.804-0.799,1.807-1.795l0.029-9.987h9.987
			c0.993,0,1.8-0.806,1.8-1.798C43.133,28.555,42.326,27.749,41.333,27.75L41.333,27.75z"/>
	</g>
</g>
</svg>
