<?xml version="1.0" encoding="utf-8"?>
<!-- Generator: Adobe Illustrator 16.0.0, SVG Export Plug-In . SVG Version: 6.00 Build 0)  -->
<!DOCTYPE svg PUBLIC "-//W3C//DTD SVG 1.1//EN" "http://www.w3.org/Graphics/SVG/1.1/DTD/svg11.dtd">
<svg version="1.1" id="Calque_1" xmlns="http://www.w3.org/2000/svg" xmlns:xlink="http://www.w3.org/1999/xlink" x="0px" y="0px"
	 width="103.936px" height="85.34px" viewBox="0 0 103.936 85.34" enable-background="new 0 0 103.936 85.34" xml:space="preserve">
<g id="Calque_x0020_1">
	<g>
		<path fill="#FFFFFF" d="M100.842,70.823l-38.355-28.84c-1.591,5.394-4.742,10.003-8.863,13.359L91.631,83.92
			c3.471,2.607,8.348,1.787,10.887-1.822C105.064,78.479,104.312,73.434,100.842,70.823z"/>
		<path fill="#FFFFFF" d="M32.413,0C15.898-1.381,1.385,10.882,0,27.403c-1.385,16.514,10.886,31.027,27.4,32.412
			C43.92,61.2,58.433,48.934,59.817,32.415C61.202,15.894,48.932,1.385,32.413,0z M27.84,54.573
			C14.221,53.43,4.104,41.461,5.245,27.843C6.387,14.22,18.354,4.104,31.974,5.246c13.624,1.143,23.741,13.108,22.602,26.729
			C53.432,45.593,41.464,55.715,27.84,54.573L27.84,54.573z"/>
		<path fill="#FFFFFF" d="M43.617,29.91c0,0.991-0.814,1.799-1.816,1.799H18.017c-1.003,0-1.815-0.808-1.815-1.799
			c0-0.992,0.812-1.8,1.815-1.8h23.784C42.803,28.11,43.617,28.918,43.617,29.91z"/>
	</g>
</g>
</svg>
