<?xml version="1.0" encoding="iso-8859-1"?>
<!-- Generator: Adobe Illustrator 16.0.0, SVG Export Plug-In . SVG Version: 6.00 Build 0)  -->
<!DOCTYPE svg PUBLIC "-//W3C//DTD SVG 1.1//EN" "http://www.w3.org/Graphics/SVG/1.1/DTD/svg11.dtd">
<svg version="1.1" id="Capa_1" xmlns="http://www.w3.org/2000/svg" xmlns:xlink="http://www.w3.org/1999/xlink" x="0px" y="0px"
	 width="612.014px" height="612.014px" viewBox="0 0 612.014 612.014" style="enable-background:new 0 0 612.014 612.014;"
	 xml:space="preserve">
<g>
	<g id="Zoom__x2B_">
		<g>
			<path d="M306.21,153.117h-76.553v76.552h-76.552v76.553h76.552v76.552h76.553v-76.552h76.552v-76.553H306.21V153.117z
				 M598.221,531.593l-110.58-110.542c30.314-43.443,48.228-96.149,48.228-153.105c0-147.976-119.958-267.934-267.934-267.934
				S0,119.97,0,267.946S119.958,535.88,267.934,535.88c56.956,0,109.662-17.913,153.105-48.228l110.542,110.542
				c18.411,18.41,48.229,18.41,66.64,0C616.632,579.783,616.593,550.004,598.221,531.593z M267.934,459.327
				c-105.681,0-191.381-85.7-191.381-191.381c0-105.681,85.701-191.381,191.381-191.381c105.681,0,191.381,85.701,191.381,191.381
				C459.315,373.627,373.615,459.327,267.934,459.327z"/>
		</g>
	</g>
</g>
<g>
</g>
<g>
</g>
<g>
</g>
<g>
</g>
<g>
</g>
<g>
</g>
<g>
</g>
<g>
</g>
<g>
</g>
<g>
</g>
<g>
</g>
<g>
</g>
<g>
</g>
<g>
</g>
<g>
</g>
</svg>
