<?xml version="1.0" encoding="iso-8859-1"?>
<!-- Generator: Adobe Illustrator 16.0.0, SVG Export Plug-In . SVG Version: 6.00 Build 0)  -->
<!DOCTYPE svg PUBLIC "-//W3C//DTD SVG 1.1//EN" "http://www.w3.org/Graphics/SVG/1.1/DTD/svg11.dtd">
<svg version="1.1" id="Capa_1" xmlns="http://www.w3.org/2000/svg" xmlns:xlink="http://www.w3.org/1999/xlink" x="0px" y="0px"
	 width="181.996px" height="181.996px" viewBox="0 0 181.996 181.996" style="enable-background:new 0 0 181.996 181.996;"
	 xml:space="preserve" fill="#FF9800">
<g>
	<path d="M143.424,75.265c-8.169-11.349-17.533-21.499-28.431-30.214c-7.013-5.608-18.271-18.128-27.571-18.87
		c-0.242-0.019-0.451,0.023-0.642,0.091c0.401-1.526,0.612-3.021,0.544-4.412c-0.041-0.843-0.597-1.58-1.307-1.973
		c0-0.614-0.242-1.216-0.826-1.68c-12.095-9.609-27.038-9.991-40.032-1.836c-5.013-5.737-12.84-8.241-16.651-15.238
		c-0.648-1.191-2.095-1.39-3.222-0.845c-4.674,2.261-8.997,5.119-11.94,9.47c-0.587,0.868-0.448,2.01,0,2.889
		c4.193,8.225,11.927,14.127,20.879,15.872c-8.11,12.005-10.322,38.413,8.236,40.889c0.993,0.132,1.615-1.125,1.245-1.948
		c0.249,0.126,0.545,0.165,0.873,0.047c0.213-0.077,0.397-0.141,0.604-0.214c-0.145,0.447-0.192,0.931,0.022,1.462
		C60.293,106.147,92.023,218.627,153.3,170.001C185.042,144.815,161.977,101.039,143.424,75.265z M149.036,164.472
		c-53.96,41.59-84.526-64.985-98.931-97.782c-0.186-0.423-0.471-0.701-0.791-0.915c1.702-0.684,3.327-1.477,5.054-2.701
		c1.144-0.811,1.548-2.105,0.888-3.385c-2.029-3.931-2.11-8.395-2.937-12.651c2.899,1.637,5.879,3.155,8.661,4.989
		c2.039,1.344,3.846-1.517,2.452-3.177c-3.66-4.356-9.994-5.13-14.019-9.072c-1.924-1.884-4.743,0.489-3.601,2.778
		c2.165,4.339,1.935,9.506,2.842,14.201c0.14,0.727,1.978,4.406,1.511,4.945c-1.444,1.667-4.666,2.426-6.576,3.453
		c-0.631,0.339-0.731,1.045-0.503,1.608c-10.712-9.19-12.118-25.038-3.638-36.445c0.883-1.188,0.345-2.543-0.647-3.356
		c-0.118-0.639-0.514-1.244-1.192-1.496c-8.038-2.987-13.175-7.852-18.252-14.344c1.69-2.308,3.974-4.105,6.423-5.624
		c4.403,6.09,11.46,10.229,17.452,14.533c0.735,0.528,1.435,0.453,1.962,0.073c0.537,0.255,1.185,0.324,1.883,0.018
		c11.911-5.239,24.119-5.788,34.901,2.253c0.018,0.013,0.036,0.012,0.054,0.024c-1.994,3.316-3.091,7.343-4.922,10.721
		c-3.131,5.776-7.134,9.988-12.537,13.705c-1.7,1.169-0.67,4.418,1.498,3.553c5.797-2.312,10.08-6.344,13.901-11.214
		c2.1-2.677,4.529-6.523,6.006-10.406c0.064,0.126,0.135,0.249,0.231,0.357c0.041,0.046,0.1,0.071,0.147,0.111
		c-0.023,0.203,0.102,0.498,0.463,0.939c0.961,1.172,2.114,1.999,3.293,2.952c4.612,3.726,9.347,7.296,13.999,10.972
		c8.571,6.774,16.44,13.734,23.734,21.852C148.174,88.567,181.95,139.104,149.036,164.472z"/>
</g>
</svg>
