<svg height="496pt" viewBox="-80 0 496 496.00458" width="496pt" xmlns="http://www.w3.org/2000/svg" fill="#FF9800">
<path d="m136.003906 192.003906c0 4.417969-3.582031 8-8 8-4.417968 0-8-3.582031-8-8 0-4.417968 3.582032-8 8-8 4.417969 0 8 3.582032 8 8zm0 0"/><path d="m216.003906 192.003906c0 4.417969-3.582031 8-8 8-4.417968 0-8-3.582031-8-8 0-4.417968 3.582032-8 8-8 4.417969 0 8 3.582032 8 8zm0 0"/><path d="m200.003906 248.003906h-16c0 8.824219-7.175781 16-16 16-8.824218 0-16-7.175781-16-16h-16c0 17.648438 14.351563 32 32 32 17.644532 0 32-14.351562 32-32zm0 0"/><path d="m297.714844 349.476562-81.710938-27.238281v-16.578125c17.679688-11.558594 30.910156-29.304687 36.710938-50.136718 19.816406-2.359376 35.289062-19.078126 35.289062-39.519532v-120.878906c11.878906-12.089844 17.550782-28.496094 15.636719-45.558594-2.757813-24.449218-22.316406-44.992187-46.519531-48.84375-17.070313-2.710937-33.832032 2.28125-46.328125 13.449219-12.367188-9.183594-27.292969-14.16796875-42.789063-14.16796875s-30.425781 4.98437475-42.792968 14.16796875c-12.496094-11.167969-29.289063-16.128906-46.320313-13.449219-24.199219 3.84375-43.777344 24.386719-46.527344 48.832032-1.921875 17.074218 3.75 33.472656 15.640625 45.570312v120.878906c0 20.441406 15.46875 37.160156 35.285156 39.519532 5.792969 20.839843 19.035157 38.578124 36.714844 50.136718v16.578125l-81.714844 27.230469c-22.894531 7.640625-38.28515575 28.992188-38.28515575 53.136719v93.398437h335.99999975v-93.398437c0-24.144531-15.394531-45.496094-38.289062-53.128907zm-26.472656 130.527344h-23.238282v-48h18.871094zm-202.113282-48h18.875v48h-23.242187zm34.875 0h32v48h-32zm48 0h32v48h-32zm48 0h32v48h-32zm-102.417968-16 10.359374-56.976562 26.3125 46.042968 33.746094-33.753906 33.75 33.753906 26.3125-46.042968 10.351563 56.976562zm122.632812-75.496094-21.960938 38.433594-18.273437-18.273437 29.625-23.695313zm51.785156-172.503906v16.207032c-4.671875-3.535157-10.058594-6.183594-16-7.390626v-8.816406zm-16.335937 70.632813c.167969-2.199219.335937-4.390625.335937-6.632813v-38.527344c9.285156 3.3125 16 12.113282 16 22.527344 0 10.535156-6.875 19.417969-16.335937 22.632813zm-207.402344-187.289063c1.960937-17.4375 15.898437-32.085937 33.144531-34.824218 14.082032-2.253907 27.984375 2.863281 37.128906 13.664062l5.398438 6.378906 6.144531-5.664062c10.390625-9.601563 23.863281-14.898438 37.921875-14.898438 14.054688 0 27.527344 5.296875 37.925782 14.898438l6.144531 5.664062 5.398437-6.378906c9.144532-10.800781 23.074219-15.917969 37.136719-13.664062 17.234375 2.738281 31.167969 17.386718 33.136719 34.824218 1.480468 13.089844-3.296875 25.625-13.078125 34.402344l-2.664063 2.390625v31.863281h-160v16h160v16h-208v-16h32v-16h-32v-31.863281l-2.65625-2.382813c-9.792968-8.777343-14.554687-21.320312-13.082031-34.410156zm31.738281 125.464844c-5.945312 1.214844-11.328125 3.855469-16 7.390625v-16.199219h16zm-16 39.191406c0-10.414062 6.710938-19.214844 16-22.527344v38.527344c0 2.242188.167969 4.433594.335938 6.632813-9.464844-3.214844-16.335938-12.097657-16.335938-22.632813zm32 16v-64h144v64c0 39.695313-32.296875 72-72 72-39.707031 0-72-32.304687-72-72zm72 88c11.292969 0 22.0625-2.214844 32-6.113281v10.265625l-32 25.601562-32-25.601562v-10.265625c9.933594 3.898437 20.703125 6.113281 32 6.113281zm-41.601562 16.96875 29.625 23.695313-18.273438 18.273437-21.960937-38.433594zm-110.398438 65.632813c0-17.25 10.992188-32.496094 27.351563-37.953125l50.367187-16.792969-12.390625 68.144531h-10.746093l1.390624-15.28125-15.933593-1.445312-7.34375 80.726562h-32.695313zm304 77.398437h-32.699218l-7.335938-80.71875-15.933594 1.449219 1.382813 15.269531h-10.742188l-12.394531-68.136718 50.367188 16.792968c16.363281 5.449219 27.355468 20.695313 27.355468 37.945313zm0 0"/>
</svg>