<?xml version="1.0"?>
<svg 	xmlns="http://www.w3.org/2000/svg" 
		id="Layer_1" 
		data-name="Layer 1" 
		viewBox="0 0 512 512" 
		width="512" 
		height="512"
		fill="#000000">
<title>oxygen mask</title>
<path d="M62,118a7,7,0,0,0,7-7v-8H86v2a10.869,10.869,0,0,0,10.83,11H114v12.174a47.451,47.451,0,0,0-33,45.683V465.464C81,480.9,92.567,493,107.552,493H161.97c15.362,0,28.03-12.353,28.03-27.536V173.857a47.612,47.612,0,0,0-34-45.695V116h16.83A11.159,11.159,0,0,0,184,105v-1.4c15,3.327,27,16.986,27,33.291V362.786a48,48,0,1,0,96,0V269.349a33.971,33.971,0,0,1,33.853-34.072A48.085,48.085,0,0,0,388.4,193.541c11.176-2.745,19.6-13.747,19.6-26.872v-5.157c8-.991,18.837-3.777,28.056-9.317,13.671-8.215,21.156-20.529,21.156-34.674,0-16.8-11.194-25.073-21.052-32.376-1.559-1.155-3.181-2.349-4.718-3.551-4.272-3.342-9.735-14.25-14.551-23.875C407.573,39.1,397.94,19.85,383.027,19.027c-.2-.018-.415-.027-.625-.027h-.372q-.315,0-.622.027C366.5,19.85,356.864,39.1,347.546,57.72,342.73,67.344,337.272,78.252,333,81.594,331.454,82.8,329.835,84,328.27,85.16c-9.848,7.292-21.009,15.557-21.009,32.343,0,14.145,7.614,26.46,21.284,34.679A71.368,71.368,0,0,0,358,161.64v5.029c0,11.879,6.779,22.023,16.367,25.878a33.985,33.985,0,0,1-33.472,28.73A48.023,48.023,0,0,0,293,269.349v93.437a34,34,0,1,1-68,0V136.893a48.283,48.283,0,0,0-41.223-47.542A11.093,11.093,0,0,0,172.83,80H156V64.06l25.13-27.312a6.987,6.987,0,0,0,1.226-7.555A7.06,7.06,0,0,0,175.9,25H93.758A6.949,6.949,0,0,0,88.7,36.748L114,64.061V80H96.83a11.011,11.011,0,0,0-10.809,9H69V80a7,7,0,0,0-14,0v31A7,7,0,0,0,62,118Zm259.261-.5c0-9.28,5.543-13.837,15.341-21.091,1.637-1.214,3.332-2.468,5.022-3.79,6.757-5.285,12.172-16.107,18.441-28.638C366.184,51.757,375.4,33.336,382.216,33c6.816.332,16.032,18.753,22.149,30.979,6.27,12.532,11.685,23.354,18.442,28.639,1.681,1.315,3.368,2.564,5,3.772,9.813,7.27,15.365,11.835,15.365,21.127s-4.849,16.928-14.411,22.674a58.455,58.455,0,0,1-23.34,7.5c-4.017-9.3-12.631-15.751-22.589-15.751-9.992,0-18.63,6.493-22.629,15.847a58.592,58.592,0,0,1-24.527-7.61C326.11,134.434,321.261,126.8,321.261,117.5ZM372,159.482c0-7.337,5.037-13.536,11-13.536s11,6.2,11,13.536v7.187c0,7.338-5.037,13.537-11,13.537s-11-6.2-11-13.537ZM176,425H134V274h42Zm0-251.143V260H126.674A6.729,6.729,0,0,0,120,267V431.6c0,3.866,2.808,7.4,6.674,7.4H176v26.464C176,472.8,169.482,479,161.97,479H107.552C100.3,479,95,473.181,95,465.464V173.857C95,154.872,109.438,140,128.086,140h13.349C160.4,140,176,155.188,176,173.857ZM142,126.01s-.432-.01-.565-.01H128.086c-.085,0-.086.006-.086.006V116h14ZM159.912,39,146.064,54H123.6L109.748,39ZM128,68h14V80H128ZM100,94h70v8H100Z"/></svg>
