<?xml version="1.0" encoding="utf-8"?>
<!-- Generator: Adobe Illustrator 16.0.0, SVG Export Plug-In . SVG Version: 6.00 Build 0)  -->
<!DOCTYPE svg PUBLIC "-//W3C//DTD SVG 1.1//EN" "http://www.w3.org/Graphics/SVG/1.1/DTD/svg11.dtd">
<svg version="1.1" id="Calque_1" xmlns="http://www.w3.org/2000/svg" xmlns:xlink="http://www.w3.org/1999/xlink" x="0px" y="0px"
	 width="97.167px" height="73.924px" viewBox="0 0 97.167 73.924" enable-background="new 0 0 97.167 73.924" xml:space="preserve">
<g>
	<polygon fill="#9E9E9E" points="11.101,11.44 48.112,4.456 37.451,29.088 2.521,32.889 1.42,31.662 	"/>
	<polygon fill="#9E9E9E" points="85.308,11.44 48.296,4.456 58.962,29.088 93.887,32.889 94.99,31.662 	"/>
	<path fill="#9E9E9E" d="M80.04,37.731l-0.615,0.631v19.207l0,0l0,0L48.48,63.303V24.25c-0.223-0.397-1.042-1.556-2.391-0.002
		l-4.167,10.54l-1.345,0.616l-28.312,2.08l-0.812,0.975v23.481l0.688,1.035l34.684,6.985l3.309,0.124l35.419-8.038V38.979
		L80.04,37.731z"/>
</g>
</svg>
