<?xml version="1.0" encoding="utf-8"?>
<!-- Generator: Adobe Illustrator 16.0.0, SVG Export Plug-In . SVG Version: 6.00 Build 0)  -->
<!DOCTYPE svg PUBLIC "-//W3C//DTD SVG 1.1//EN" "http://www.w3.org/Graphics/SVG/1.1/DTD/svg11.dtd">
<svg version="1.1" id="Calque_1" xmlns="http://www.w3.org/2000/svg" xmlns:xlink="http://www.w3.org/1999/xlink" x="0px" y="0px"
	 width="97.167px" height="73.924px" viewBox="0 0 97.167 73.924" enable-background="new 0 0 97.167 73.924" xml:space="preserve">
<path fill="#F44336" d="M81.519,30.04c0,0,0.169-1.576-0.311-3.487l0.009-0.003c-0.006-0.016-0.013-0.031-0.019-0.046
	c-0.006-0.015-0.009-0.034-0.012-0.049l-0.01,0.006c-0.717-1.831-1.764-3.025-1.764-3.025c-2.877,1.175-7.751-1.016-9.274-1.767
	c-0.034-0.049-0.071-0.092-0.107-0.138c-0.037-0.237-1.117-7.116,1.298-9.861c0,0-0.778-1.385-2.28-2.659l0.007-0.009
	C69.038,8.992,69.019,8.981,69,8.97c-0.01-0.009-0.016-0.016-0.024-0.024l-0.003,0.003c-1.646-1.071-3.191-1.43-3.191-1.43
	c-1.985,3.144-9.112,4.035-9.112,4.035l0.412,0.301c-0.517-0.18-1.037-0.349-1.569-0.5l0.979,0.012c0,0-5.173-4.979-4.88-8.688
	c0,0-1.453-0.639-3.416-0.765V1.906c-0.016,0.001-0.027,0.003-0.043,0.003c-0.021,0-0.037-0.003-0.059-0.003v0.009
	c-1.964,0.125-3.416,0.763-3.416,0.763c0.292,3.709-4.88,8.688-4.88,8.688l0.981-0.012c-0.631,0.177-1.243,0.385-1.853,0.604
	c-1.929-0.394-6.659-1.599-8.161-4.122c0,0-1.557,0.315-3.231,1.349l-0.006-0.011c-0.015,0.012-0.024,0.023-0.04,0.034
	c-0.012,0.009-0.024,0.016-0.04,0.025l0.006,0.009c-1.526,1.232-2.348,2.591-2.348,2.591c2.219,2.67,1.188,8.99,1.04,9.817
	c-0.994,0.52-6.44,3.241-9.57,1.991c0,0-1.04,1.2-1.741,3.037l-0.013-0.003c-0.006,0.021-0.009,0.04-0.014,0.062
	c-0.004,0.012-0.008,0.021-0.014,0.031l0.006,0.003c-0.461,1.911-0.283,3.487-0.283,3.487c3.397,0.766,6.434,6.441,6.81,7.164
	c0,0.123,0.012,0.243,0.019,0.366l-0.28-0.772c0,0-2.862,6.583-6.437,7.604c0,0-0.095,1.582,0.476,3.465l-0.008,0.007
	c0.005,0.012,0.012,0.021,0.019,0.036c0.006,0.019,0.009,0.034,0.016,0.056l0.012-0.006c0.797,1.794,1.901,2.936,1.901,2.936
	c2.856-1.323,7.906,0.692,9.404,1.348c0.062,0.086,0.126,0.17,0.191,0.256l-0.142-0.104c0,0,1.333,7.059-1.053,9.908
	c0,0,0.816,1.367,2.342,2.601l-0.006,0.013c0.019,0.012,0.04,0.021,0.059,0.033c0.009,0.01,0.012,0.016,0.021,0.021l0.006-0.006
	c1.671,1.034,3.225,1.352,3.225,1.352c1.859-3.111,8.635-4.191,8.98-4.244c1.046,1.068,4.858,5.207,4.606,8.413
	c0,0,1.452,0.638,3.416,0.761v0.009c0.016,0,0.024,0,0.037-0.003c0.021,0.003,0.043,0.003,0.064,0.006v-0.012
	c1.963-0.123,3.416-0.761,3.416-0.761c-0.271-3.428,4.071-7.884,4.745-8.555c0.255-0.08,0.501-0.185,0.754-0.273
	c1.966,0.439,6.582,1.704,8.028,4.222c0,0,1.563-0.295,3.25-1.308l0.006,0.009c0.016-0.009,0.024-0.021,0.037-0.03
	c0.016-0.01,0.03-0.016,0.043-0.024l-0.006-0.01c1.545-1.212,2.385-2.561,2.385-2.561c-2.003-2.477-1.228-7.979-0.963-9.509
	c1.572-0.717,6.475-2.732,9.303-1.48c0,0,1.086-1.16,1.855-2.969l0.012,0.006c0.007-0.021,0.01-0.043,0.016-0.064
	c0.006-0.01,0.01-0.019,0.016-0.028l-0.006-0.003c0.532-1.893,0.409-3.474,0.409-3.474c-3.343-0.89-6.146-6.599-6.521-7.393
	c0-0.132,0.019-0.258,0.019-0.388c0-0.015-0.003-0.027-0.003-0.043C75.814,35.308,78.506,30.745,81.519,30.04z M39.88,62.13
	c0.015,0.006,0.034,0.013,0.052,0.016c0.021,0.027,0.024,0.027,0.055,0.059L39.88,62.13z M48.019,57.194
	c-11.321,0-20.501-9.183-20.501-20.505c0-11.321,9.18-20.5,20.501-20.5s20.501,9.179,20.501,20.5
	C68.52,48.012,59.34,57.194,48.019,57.194z"/>
<path fill="#F44336" d="M48.016,20.58c-8.896,0-16.106,7.213-16.106,16.109c0,8.897,7.21,16.107,16.106,16.107
	s16.109-7.21,16.109-16.107C64.125,27.793,56.913,20.58,48.016,20.58z M48.016,47.135c-5.767,0-10.444-4.675-10.444-10.445
	c0-5.77,4.678-10.444,10.444-10.444c5.771,0,10.447,4.674,10.447,10.444C58.463,42.46,53.787,47.135,48.016,47.135z"/>
</svg>
