<?xml version="1.0" encoding="utf-8"?>
<!-- Generator: Adobe Illustrator 16.0.0, SVG Export Plug-In . SVG Version: 6.00 Build 0)  -->
<!DOCTYPE svg PUBLIC "-//W3C//DTD SVG 1.1//EN" "http://www.w3.org/Graphics/SVG/1.1/DTD/svg11.dtd">
<svg version="1.1" id="Calque_1" xmlns="http://www.w3.org/2000/svg" xmlns:xlink="http://www.w3.org/1999/xlink" x="0px" y="0px"
	 width="111.742px" height="96.766px" viewBox="0 0 111.742 96.766" enable-background="new 0 0 111.742 96.766"
	 xml:space="preserve">
<g>
	<g>
		<path fill="#212121" d="M22.681,47.194c0-2.006-1.627-3.623-3.622-3.623H11.8c-1.994,0-3.623,1.617-3.623,3.623
			c0,2.007,1.629,3.625,3.623,3.625h7.259C21.054,50.819,22.681,49.201,22.681,47.194z"/>
		<path fill="#212121" d="M28.473,25.586c0.651,0.658,1.56,1.06,2.562,1.06c2.007,0,3.624-1.617,3.624-3.623
			c0-1.003-0.402-1.912-1.061-2.562l-4.829-4.837c-0.662-0.648-1.572-1.062-2.575-1.062c-1.994,0-3.622,1.627-3.622,3.622
			c0,1.003,0.414,1.914,1.062,2.562L28.473,25.586z"/>
		<path fill="#212121" d="M79.377,26.647c1.003,0,1.913-0.403,2.562-1.061l4.839-4.828c0.648-0.661,1.061-1.571,1.061-2.574
			c0-1.995-1.628-3.622-3.623-3.622c-1.003,0-1.911,0.413-2.572,1.062l-4.826,4.837c-0.661,0.651-1.062,1.56-1.062,2.562
			C75.754,25.03,77.37,26.647,79.377,26.647z"/>
		<path fill="#212121" d="M55.206,15.505c2.007,0,3.623-1.626,3.623-3.622v-7.26C58.829,2.629,57.213,1,55.206,1
			c-2.006,0-3.623,1.629-3.623,3.623v7.26C51.583,13.878,53.2,15.505,55.206,15.505z"/>
		<path fill="#212121" d="M99.726,43.571h-7.259c-1.994,0-3.622,1.617-3.622,3.623c0,2.007,1.628,3.625,3.622,3.625h7.259
			c1.995,0,3.623-1.617,3.623-3.625C103.349,45.188,101.721,43.571,99.726,43.571z"/>
		<path fill="#212121" d="M31.035,67.742c-1.003,0-1.911,0.402-2.562,1.062l-4.837,4.826c-0.65,0.662-1.062,1.57-1.062,2.574
			c0,1.994,1.628,3.623,3.622,3.623c1.003,0,1.913-0.414,2.562-1.061l4.841-4.84c0.658-0.65,1.061-1.559,1.061-2.562
			C34.659,69.362,33.042,67.742,31.035,67.742z"/>
		<path fill="#212121" d="M81.938,68.807c-0.648-0.662-1.559-1.064-2.562-1.064c-2.007,0-3.623,1.619-3.623,3.623
			c0,1.004,0.401,1.912,1.062,2.562l4.826,4.84c0.661,0.646,1.569,1.061,2.572,1.061c1.995,0,3.623-1.629,3.623-3.623
			c0-1.004-0.412-1.912-1.061-2.574L81.938,68.807z"/>
		<path fill="#212121" d="M55.206,78.885c-2.006,0-3.623,1.629-3.623,3.623v7.26c0,1.994,1.617,3.621,3.623,3.621
			c2.007,0,3.623-1.627,3.623-3.621v-7.26C58.829,80.514,57.213,78.885,55.206,78.885z"/>
	</g>
	<path fill="#212121" d="M55.762,21.82c-13.997,0-25.372,11.375-25.372,25.372c0,14,11.375,25.376,25.372,25.376
		c13.998,0,25.374-11.377,25.374-25.376C81.136,33.196,69.76,21.82,55.762,21.82z M55.762,68.065
		c-11.526,0-20.871-9.344-20.871-20.871c0-11.526,9.345-20.871,20.871-20.871c11.527,0,20.872,9.344,20.872,20.871
		C76.634,58.723,67.289,68.065,55.762,68.065z"/>
</g>
</svg>
