<?xml version="1.0" encoding="utf-8"?>
<!-- Generator: Adobe Illustrator 16.0.0, SVG Export Plug-In . SVG Version: 6.00 Build 0)  -->
<!DOCTYPE svg PUBLIC "-//W3C//DTD SVG 1.1//EN" "http://www.w3.org/Graphics/SVG/1.1/DTD/svg11.dtd">
<svg version="1.1" id="Calque_1" xmlns="http://www.w3.org/2000/svg" xmlns:xlink="http://www.w3.org/1999/xlink" x="0px" y="0px"
	 width="111.742px" height="96.766px" viewBox="0 0 111.742 96.766" enable-background="new 0 0 111.742 96.766"
	 xml:space="preserve">
<path fill="#212121" d="M42.973,30.731c-10.943,0-19.856,8.549-19.987,19.101c0.051,0.389,0.092,0.779,0.105,1.183l0.168,4.734
	l-4.632,1.562c-5.361,1.807-8.965,6.674-8.965,12.101c0,7.113,5.973,12.893,13.324,12.893h66.622
	c7.345,0,13.323-5.779,13.323-12.893c0-7.039-5.868-12.78-13.116-12.895c-0.313,0.045-0.637,0.082-0.962,0.102l-5.062,0.32
	l-1.666-4.628c-1.874-5.199-6.896-8.688-12.504-8.688c-0.651,0-1.366,0.076-2.329,0.239l-4.666,0.813l-2.32-3.998
	C56.739,34.545,50.103,30.731,42.973,30.731 M42.973,24.283c9.981,0,18.576,5.377,23.142,13.234
	c1.138-0.196,2.304-0.341,3.506-0.341c8.731,0,16.078,5.452,18.796,13.009c0.396-0.027,0.78-0.115,1.191-0.115
	c11.034,0,19.985,8.664,19.985,19.342c0,10.677-8.951,19.34-19.985,19.34H22.986C11.953,88.751,3,80.089,3,69.412
	c0-8.449,5.635-15.565,13.442-18.195c-0.014-0.392-0.117-0.756-0.117-1.146C16.325,35.831,28.256,24.283,42.973,24.283
	L42.973,24.283z"/>
</svg>
