<?xml version="1.0" encoding="utf-8"?>
<!-- Generator: Adobe Illustrator 16.0.0, SVG Export Plug-In . SVG Version: 6.00 Build 0)  -->
<!DOCTYPE svg PUBLIC "-//W3C//DTD SVG 1.1//EN" "http://www.w3.org/Graphics/SVG/1.1/DTD/svg11.dtd">
<svg version="1.1" id="Calque_1" xmlns="http://www.w3.org/2000/svg" xmlns:xlink="http://www.w3.org/1999/xlink" x="0px" y="0px"
	 width="111.742px" height="96.766px" viewBox="0 0 111.742 96.766" enable-background="new 0 0 111.742 96.766"
	 xml:space="preserve">
<path fill="#212121" d="M74.157,40.316c-2.099,0-4.134,0.287-6.056,0.84c-0.912-1.42-1.938-2.732-3.107-3.974H20.991
	c-1.762,1.883-3.268,3.989-4.453,6.264h68.99C82.245,41.461,78.338,40.316,74.157,40.316L74.157,40.316z"/>
<path fill="#212121" d="M89.55,46.575H15.145c-0.737,1.989-1.249,4.077-1.49,6.242h80.188C92.817,50.484,91.36,48.38,89.55,46.575
	L89.55,46.575z"/>
<path fill="#212121" d="M99.802,55.949H12.438c-2.531,1.6-4.646,3.736-6.167,6.26h99.698
	C104.448,59.686,102.332,57.548,99.802,55.949L99.802,55.949z"/>
<path fill="#212121" d="M23.315,90.349h65.611c5.814,0,11.053-2.412,14.656-6.261H8.642C12.246,87.937,17.484,90.349,23.315,90.349
	L23.315,90.349z"/>
<path fill="#212121" d="M6.255,80.974h99.714c1.154-1.908,1.971-4.015,2.37-6.258H3.899C4.3,76.959,5.101,79.066,6.255,80.974
	L6.255,80.974z"/>
<path fill="#212121" d="M107.492,65.342H4.749c-0.721,1.954-1.122,4.062-1.122,6.245h104.984
	C108.611,69.404,108.212,67.296,107.492,65.342L107.492,65.342z"/>
<path fill="#212121" d="M43.001,27.812c-7.032,0-13.488,2.34-18.566,6.264h37.116C56.488,30.152,50.033,27.812,43.001,27.812
	L43.001,27.812z"/>
</svg>
