<?xml version="1.0" encoding="utf-8"?>
<!-- Generator: Adobe Illustrator 16.0.0, SVG Export Plug-In . SVG Version: 6.00 Build 0)  -->
<!DOCTYPE svg PUBLIC "-//W3C//DTD SVG 1.1//EN" "http://www.w3.org/Graphics/SVG/1.1/DTD/svg11.dtd">
<svg version="1.1" id="Calque_1" xmlns="http://www.w3.org/2000/svg" xmlns:xlink="http://www.w3.org/1999/xlink" x="0px" y="0px"
	 width="111.742px" height="96.766px" viewBox="0 0 111.742 96.766" enable-background="new 0 0 111.742 96.766"
	 xml:space="preserve">
<g>
	<path fill="#FFFFFF" d="M88.085,31.509c-0.396,0-0.768,0.086-1.152,0.11c-2.628-7.307-9.732-12.58-18.177-12.58
		c-1.164,0-2.289,0.14-3.391,0.329C60.948,11.77,52.637,6.57,42.985,6.57c-14.231,0-25.77,11.168-25.77,24.939
		c0,0.377,0.1,0.73,0.113,1.108c-7.55,2.544-13,9.424-13,17.596c0,10.326,8.658,18.703,19.329,18.703h1.497
		c0.123,0.013,0.247,0.019,0.372,0.019c1.919,0,3.477-1.406,3.477-3.143c0-1.735-1.557-3.142-3.477-3.142
		c-0.156,0-0.309,0.013-0.458,0.03h-1.411c-7.11,0-12.886-5.59-12.886-12.468c0-5.248,3.485-9.955,8.67-11.702l4.48-1.512
		l-0.164-4.577c-0.012-0.39-0.051-0.768-0.101-1.145c0.125-10.204,8.745-18.473,19.328-18.473c6.896,0,13.313,3.689,16.762,9.62
		l2.246,3.866l4.512-0.787c0.931-0.156,1.622-0.23,2.252-0.23c5.424,0,10.281,3.374,12.094,8.402l1.61,4.475l4.896-0.312
		c0.314-0.018,0.629-0.054,0.932-0.097c7.008,0.11,12.683,5.662,12.683,12.47c0,6.879-5.781,12.468-12.885,12.468H86.84v0.03
		c-1.812,0.106-3.247,1.451-3.247,3.102s1.435,2.996,3.247,3.102v0.002h0.031c0.065,0.003,0.131,0.009,0.198,0.009
		c0.066,0,0.132-0.006,0.198-0.009h0.817c10.672,0,19.329-8.377,19.329-18.704S98.757,31.509,88.085,31.509z"/>
	<g>
		<ellipse fill="#FFFFFF" cx="41.341" cy="83.198" rx="4.241" ry="3.833"/>
		<path fill="#FFFFFF" d="M45.009,72.078c0,1.67-1.642,3.024-3.667,3.024l0,0c-2.025,0-3.667-1.354-3.667-3.024v-8.316
			c0-1.67,1.643-3.023,3.667-3.023l0,0c2.025,0,3.667,1.354,3.667,3.023V72.078z"/>
	</g>
	<g>
		<ellipse fill="#FFFFFF" cx="56.89" cy="88.926" rx="4.24" ry="3.833"/>
		<path fill="#FFFFFF" d="M60.557,77.807c0,1.669-1.643,3.023-3.667,3.023l0,0c-2.025,0-3.667-1.354-3.667-3.023V69.49
			c0-1.669,1.643-3.023,3.667-3.023l0,0c2.024,0,3.667,1.354,3.667,3.023V77.807z"/>
	</g>
	<g>
		<ellipse fill="#FFFFFF" cx="71.254" cy="83.198" rx="4.24" ry="3.833"/>
		<path fill="#FFFFFF" d="M74.921,72.078c0,1.67-1.643,3.024-3.667,3.024l0,0c-2.025,0-3.668-1.354-3.668-3.024v-8.316
			c0-1.67,1.643-3.023,3.668-3.023l0,0c2.024,0,3.667,1.354,3.667,3.023V72.078z"/>
	</g>
</g>
</svg>
