<?xml version="1.0" encoding="utf-8"?>
<!-- Generator: Adobe Illustrator 16.0.0, SVG Export Plug-In . SVG Version: 6.00 Build 0)  -->
<!DOCTYPE svg PUBLIC "-//W3C//DTD SVG 1.1//EN" "http://www.w3.org/Graphics/SVG/1.1/DTD/svg11.dtd">
<svg version="1.1" id="Calque_1" xmlns="http://www.w3.org/2000/svg" xmlns:xlink="http://www.w3.org/1999/xlink" x="0px" y="0px"
	 width="111.742px" height="96.766px" viewBox="0 0 111.742 96.766" enable-background="new 0 0 111.742 96.766"
	 xml:space="preserve">
<path fill="#FFFFFF" d="M48.031,32.199c0.529,0.535,1.271,0.863,2.087,0.863c1.634,0,2.951-1.317,2.951-2.951
	c0-0.816-0.328-1.557-0.865-2.087l-3.932-3.939c-0.538-0.528-1.279-0.865-2.097-0.865c-1.625,0-2.949,1.324-2.949,2.95
	c0,0.816,0.335,1.559,0.865,2.087L48.031,32.199z"/>
<path fill="#FFFFFF" d="M89.49,33.063c0.816,0,1.559-0.328,2.086-0.864l3.941-3.933c0.527-0.538,0.864-1.279,0.864-2.096
	c0-1.625-1.327-2.95-2.95-2.95c-0.817,0-1.559,0.336-2.097,0.865l-3.93,3.939c-0.539,0.53-0.865,1.271-0.865,2.088
	C86.54,31.746,87.856,33.063,89.49,33.063z"/>
<path fill="#FFFFFF" d="M69.805,23.988c1.634,0,2.95-1.325,2.95-2.949v-5.913c0-1.624-1.316-2.951-2.95-2.951
	c-1.635,0-2.951,1.327-2.951,2.951v5.913C66.854,22.663,68.17,23.988,69.805,23.988z"/>
<path fill="#FFFFFF" d="M106.063,46.848h-5.911c-1.625,0-2.951,1.317-2.951,2.95s1.326,2.952,2.951,2.952h5.911
	c1.624,0,2.951-1.319,2.951-2.952S107.688,46.848,106.063,46.848z"/>
<path fill="#FFFFFF" d="M56.347,40.035c3.075-4.374,8.157-7.235,13.911-7.235c9.387,0,16.998,7.611,16.998,16.998
	c0,3.268-0.924,6.317-2.52,8.908c1.344,0.035,2.651,0.207,3.91,0.508c1.451-2.827,2.277-6.025,2.277-9.417
	c0-11.4-9.265-20.665-20.666-20.665c-7.034,0-13.249,3.529-16.984,8.907C54.35,38.632,55.379,39.296,56.347,40.035z"/>
<path fill="#FFFFFF" d="M38.624,36.643c-10.065,0-18.264,7.863-18.384,17.569c0.048,0.357,0.084,0.718,0.096,1.089l0.155,4.354
	l-4.26,1.438c-4.931,1.66-8.246,6.139-8.246,11.13c0,6.543,5.494,11.858,12.255,11.858h61.277c6.757,0,12.256-5.316,12.256-11.858
	c0-6.475-5.398-11.755-12.063-11.86c-0.287,0.041-0.587,0.075-0.886,0.093l-4.656,0.297l-1.531-4.258
	c-1.725-4.782-6.344-7.99-11.502-7.99c-0.599,0-1.257,0.069-2.143,0.22l-4.291,0.748l-2.135-3.678
	C51.286,40.152,45.183,36.643,38.624,36.643 M38.624,30.712c9.18,0,17.084,4.946,21.286,12.173c1.047-0.18,2.118-0.314,3.225-0.314
	c8.03,0,14.787,5.017,17.287,11.966c0.366-0.024,0.72-0.106,1.096-0.106c10.15,0,18.385,7.969,18.385,17.791
	c0,9.823-8.234,17.79-18.385,17.79H20.24c-10.148,0-18.384-7.967-18.384-17.79c0-7.772,5.184-14.315,12.365-16.735
	c-0.013-0.359-0.108-0.694-0.108-1.054C14.113,41.334,25.087,30.712,38.624,30.712L38.624,30.712z"/>
</svg>
