<?xml version="1.0" encoding="utf-8"?>
<!-- Generator: Adobe Illustrator 16.0.0, SVG Export Plug-In . SVG Version: 6.00 Build 0)  -->
<!DOCTYPE svg PUBLIC "-//W3C//DTD SVG 1.1//EN" "http://www.w3.org/Graphics/SVG/1.1/DTD/svg11.dtd">
<svg version="1.1" id="Calque_1" xmlns="http://www.w3.org/2000/svg" xmlns:xlink="http://www.w3.org/1999/xlink" x="0px" y="0px"
	 width="111.742px" height="96.766px" viewBox="0 0 111.742 96.766" enable-background="new 0 0 111.742 96.766"
	 xml:space="preserve">
<g>
	<g>
		<path fill="#212121" d="M62.771,43.752c1.052-0.18,2.126-0.313,3.235-0.313c8.057,0,14.836,5.032,17.346,12.004
			c0.365-0.024,0.721-0.106,1.099-0.106c4.724,0,9.032,1.722,12.296,4.551c5.181-3.222,9.307-8.148,11.45-14.23
			c-5.688,5.313-13.86,7.744-21.987,5.754c-12.803-3.136-20.641-16.058-17.504-28.861c1.352-5.52,4.524-10.117,8.721-13.309
			c-10.471,1.83-19.39,9.652-22.079,20.638c-0.445,1.816-0.696,3.635-0.772,5.433C57.96,37.432,60.783,40.333,62.771,43.752z"/>
	</g>
	<path fill="#212121" d="M41.416,36.907c-10.098,0-18.324,7.889-18.443,17.626c0.048,0.36,0.084,0.721,0.096,1.093l0.156,4.368
		l-4.274,1.442c-4.947,1.666-8.273,6.157-8.273,11.165c0,6.565,5.511,11.898,12.296,11.898H84.45
		c6.777,0,12.295-5.334,12.295-11.898c0-6.494-5.416-11.793-12.103-11.897c-0.288,0.04-0.588,0.075-0.889,0.093l-4.672,0.296
		l-1.537-4.27c-1.729-4.799-6.363-8.018-11.539-8.018c-0.6,0-1.26,0.07-2.149,0.221l-4.304,0.751l-2.143-3.689
		C54.119,40.427,47.996,36.907,41.416,36.907 M41.416,30.956c9.21,0,17.14,4.963,21.355,12.212c1.052-0.18,2.126-0.313,3.235-0.313
		c8.057,0,14.836,5.032,17.346,12.004c0.365-0.024,0.721-0.106,1.099-0.106c10.183,0,18.444,7.996,18.444,17.849
		c0,9.854-8.262,17.849-18.444,17.849H22.972c-10.182,0-18.444-7.994-18.444-17.849c0-7.796,5.2-14.362,12.405-16.79
		c-0.012-0.361-0.108-0.697-0.108-1.058C16.825,41.614,27.835,30.956,41.416,30.956L41.416,30.956z"/>
	<polygon fill="#212121" points="17.841,35.914 12.315,32.596 6.449,35.265 7.898,28.984 3.546,24.229 9.967,23.666 13.145,18.058 
		15.664,23.991 21.979,25.281 17.115,29.51 	"/>
</g>
</svg>
