<?xml version="1.0" encoding="utf-8"?>
<!-- Generator: Adobe Illustrator 16.0.0, SVG Export Plug-In . SVG Version: 6.00 Build 0)  -->
<!DOCTYPE svg PUBLIC "-//W3C//DTD SVG 1.1//EN" "http://www.w3.org/Graphics/SVG/1.1/DTD/svg11.dtd">
<svg version="1.1" id="Calque_1" xmlns="http://www.w3.org/2000/svg" xmlns:xlink="http://www.w3.org/1999/xlink" x="0px" y="0px"
	 width="111.742px" height="96.766px" viewBox="0 0 111.742 96.766" enable-background="new 0 0 111.742 96.766"
	 xml:space="preserve">
<path fill="#212121" d="M73.428,74.395c2.192,1.133,4.889,0.273,6.022-1.917c1.132-2.193,1.27-12.186,1.27-12.186
	s-8.076,5.89-9.209,8.081C70.378,70.566,71.236,73.262,73.428,74.395L73.428,74.395z"/>
<path fill="#212121" d="M46.411,9.551c-8.758,0-15.891,6.841-15.996,15.286c0.042,0.313,0.073,0.625,0.084,0.948l0.135,3.789
	l-3.708,1.25c-4.29,1.446-7.175,5.341-7.175,9.683c0,5.694,4.78,10.318,10.663,10.318h53.316c5.878,0,10.663-4.625,10.663-10.318
	c0-5.633-4.697-10.228-10.496-10.318c-0.25,0.036-0.511,0.065-0.771,0.081l-4.052,0.257l-1.333-3.703
	c-1.499-4.162-5.52-6.954-10.007-6.954c-0.521,0-1.094,0.062-1.864,0.191l-3.733,0.651l-1.857-3.2
	C57.428,12.603,52.117,9.551,46.411,9.551 M46.411,4.39c7.987,0,14.864,4.303,18.52,10.591c0.911-0.156,1.842-0.272,2.806-0.272
	c6.987,0,12.866,4.364,15.042,10.411c0.318-0.021,0.624-0.093,0.953-0.093c8.831,0,15.995,6.933,15.995,15.479
	c0,8.545-7.164,15.479-15.995,15.479H30.415c-8.83,0-15.995-6.934-15.995-15.479c0-6.762,4.51-12.456,10.758-14.561
	c-0.011-0.312-0.094-0.604-0.094-0.917C25.084,13.632,34.633,4.39,46.411,4.39L46.411,4.39z"/>
<path fill="#212121" d="M51.544,74.395c2.192,1.133,4.889,0.273,6.022-1.917c1.133-2.193,1.27-12.186,1.27-12.186
	s-8.077,5.89-9.208,8.081C48.494,70.566,49.354,73.262,51.544,74.395L51.544,74.395z"/>
<path fill="#212121" d="M29.662,74.395c2.193,1.133,4.888,0.273,6.022-1.917c1.133-2.193,1.27-12.186,1.27-12.186
	s-8.078,5.89-9.209,8.081C26.611,70.566,27.47,73.262,29.662,74.395L29.662,74.395z"/>
<path fill="#212121" d="M36.237,91.298c2.192,1.133,4.888,0.273,6.022-1.917c1.133-2.192,1.27-12.186,1.27-12.186
	s-8.078,5.89-9.209,8.081C33.187,87.468,34.046,90.164,36.237,91.298L36.237,91.298z"/>
<path fill="#212121" d="M58.621,91.298c2.191,1.133,4.887,0.273,6.021-1.917c1.133-2.192,1.271-12.186,1.271-12.186
	s-8.079,5.89-9.211,8.081C55.569,87.468,56.428,90.164,58.621,91.298L58.621,91.298z"/>
</svg>
