<?xml version="1.0" encoding="utf-8"?>
<!-- Generator: Adobe Illustrator 16.0.0, SVG Export Plug-In . SVG Version: 6.00 Build 0)  -->
<!DOCTYPE svg PUBLIC "-//W3C//DTD SVG 1.1//EN" "http://www.w3.org/Graphics/SVG/1.1/DTD/svg11.dtd">
<svg version="1.1" id="Calque_1" xmlns="http://www.w3.org/2000/svg" xmlns:xlink="http://www.w3.org/1999/xlink" x="0px" y="0px"
	 width="111.742px" height="96.766px" viewBox="0 0 111.742 96.766" enable-background="new 0 0 111.742 96.766"
	 xml:space="preserve">
<path fill="#212121" d="M44.744,11.267c-9.785,0-17.755,7.644-17.872,17.08c0.047,0.348,0.082,0.697,0.093,1.059l0.151,4.232
	l-4.142,1.397c-4.793,1.615-8.017,5.967-8.017,10.819c0,6.36,5.341,11.529,11.915,11.529h59.571c6.568,0,11.914-5.169,11.914-11.529
	c0-6.293-5.247-11.427-11.727-11.529c-0.279,0.04-0.571,0.072-0.861,0.09l-4.526,0.287l-1.489-4.138
	c-1.676-4.65-6.167-7.77-11.183-7.77c-0.581,0-1.222,0.069-2.083,0.214l-4.171,0.727l-2.076-3.575
	C57.054,14.677,51.12,11.267,44.744,11.267 M44.744,5.501c8.924,0,16.609,4.808,20.693,11.833c1.019-0.175,2.06-0.304,3.135-0.304
	c7.808,0,14.377,4.876,16.807,11.632c0.356-0.023,0.698-0.104,1.065-0.104c9.868,0,17.873,7.748,17.873,17.296
	s-8.005,17.294-17.873,17.294H26.872C17.006,63.149,9,55.403,9,45.855c0-7.556,5.039-13.917,12.021-16.27
	c-0.012-0.349-0.105-0.674-0.105-1.025C20.916,15.827,31.584,5.501,44.744,5.501L44.744,5.501z"/>
<path fill="#212121" d="M20.249,91.383c2.96,1.53,6.6,0.371,8.131-2.589c1.531-2.96,1.715-16.452,1.715-16.452
	s-10.908,7.951-12.436,10.911C16.129,86.213,17.29,89.853,20.249,91.383L20.249,91.383z"/>
<path fill="#212121" d="M75.199,85.155c2.45,1.267,5.461,0.308,6.729-2.143c1.266-2.448,1.419-13.613,1.419-13.613
	s-9.025,6.58-10.289,9.029C71.789,80.877,72.751,83.89,75.199,85.155L75.199,85.155z"/>
<polygon fill="#212121" stroke="#212121" stroke-width="0.5" stroke-linecap="round" stroke-linejoin="round" stroke-miterlimit="10" points="
	52.759,75.745 52.822,71.892 55.593,70.035 55.161,69.021 52.759,70.545 52.875,67.708 51.543,67.63 51.543,70.457 49.292,69.042 
	48.766,70.058 51.607,71.892 51.625,75.745 48.244,73.821 47.953,70.708 46.892,70.339 46.967,72.972 44.545,71.669 43.734,72.714 
	46.223,74.123 43.848,75.348 44.426,76.196 47.523,74.893 51.077,76.79 47.557,78.825 44.513,77.44 43.878,78.319 46.281,79.475 
	43.764,80.84 44.482,82.027 46.911,80.635 46.892,83.268 47.953,82.957 48.297,79.821 51.625,77.952 51.625,81.715 48.824,83.573 
	49.257,84.621 51.607,83.181 51.543,86.069 52.846,86.007 52.786,83.216 55.107,84.621 55.566,83.603 52.759,81.792 52.786,77.895 
	56.115,79.874 56.434,82.957 57.448,83.357 57.414,80.686 59.818,81.963 60.625,80.859 58.14,79.453 60.507,78.319 59.877,77.413 
	56.901,78.858 53.373,76.844 56.865,74.893 59.847,76.284 60.454,75.378 58.17,74.188 60.599,72.806 59.898,71.669 57.385,73.03 
	57.467,70.391 56.467,70.736 56.181,73.856 "/>
</svg>
