<?xml version="1.0" encoding="utf-8"?>
<!-- Generator: Adobe Illustrator 16.0.0, SVG Export Plug-In . SVG Version: 6.00 Build 0)  -->
<!DOCTYPE svg PUBLIC "-//W3C//DTD SVG 1.1//EN" "http://www.w3.org/Graphics/SVG/1.1/DTD/svg11.dtd">
<svg version="1.1" id="Calque_1" xmlns="http://www.w3.org/2000/svg" xmlns:xlink="http://www.w3.org/1999/xlink" x="0px" y="0px"
	 width="111.742px" height="96.766px" viewBox="0 0 111.742 96.766" enable-background="new 0 0 111.742 96.766"
	 xml:space="preserve">
<path fill="#FFFFFF" d="M96.064,14.755L37.112,3.067c-0.549,0-1.073,0.314-1.572,0.896l-0.038-0.042L18.366,19.609v-4.866
	c0-1.598-1.192-2.913-2.683-2.913C14.202,11.829,13,13.116,13,14.742v76.045c0,1.608,1.188,2.912,2.682,2.912
	c1.478,0,2.683-1.285,2.683-2.912V27.349l17.098,15.659c0.521,0.641,1.071,0.983,1.648,0.983l58.952-11.688
	c1.479,0,2.682-3.925,2.682-8.765C98.746,18.682,97.543,14.755,96.064,14.755L96.064,14.755z M33.083,37.011L18.366,23.536v-0.101
	L33.108,9.918c-0.837,3.624-1.346,8.395-1.346,13.619C31.762,28.69,32.258,33.415,33.083,37.011L33.083,37.011z M38.46,41.065
	c-2.224,0-4.032-7.85-4.032-17.529c0-9.694,1.808-17.543,4.032-17.543c2.212,0,4.015,7.85,4.015,17.543
	C42.476,33.215,40.672,41.065,38.46,41.065L38.46,41.065z M66.588,35.228L54.145,37.94c1.049-3.169,1.728-8.438,1.728-14.404
	c0-5.981-0.679-11.25-1.728-14.419l12.443,2.711c1.479,0,2.682,5.24,2.682,11.708C69.271,29.988,68.066,35.228,66.588,35.228
	L66.588,35.228z M90.7,30.846l-9.672,2.113c0.997-2.141,1.639-5.569,1.639-9.421c0-3.869-0.642-7.296-1.639-9.424l9.672,2.115
	c0.745,0,1.347,3.267,1.347,7.31C92.047,27.56,91.445,30.846,90.7,30.846L90.7,30.846z"/>
</svg>
