<?xml version="1.0" encoding="utf-8"?>
<!-- Generator: Adobe Illustrator 16.0.0, SVG Export Plug-In . SVG Version: 6.00 Build 0)  -->
<!DOCTYPE svg PUBLIC "-//W3C//DTD SVG 1.1//EN" "http://www.w3.org/Graphics/SVG/1.1/DTD/svg11.dtd">
<svg version="1.1" id="Calque_1" xmlns="http://www.w3.org/2000/svg" xmlns:xlink="http://www.w3.org/1999/xlink" x="0px" y="0px"
	 width="97.167px" height="73.924px" viewBox="0 0 97.167 73.924" enable-background="new 0 0 97.167 73.924" xml:space="preserve">
<g>
	<path fill="#FF9800" d="M8.527,25.812v10.985h5.141V25.812H8.527z M11.121,35.493l-1.628,0.015l0.801-1.418l0.801-1.418l0.83,1.403
		l0.826,1.403L11.121,35.493z M11.937,28.615l-0.816,1.412l-0.815-1.412l-0.812-1.409h1.628h1.629L11.937,28.615z"/>
	<path fill="#FF9800" d="M25.42,72.516V10.039h51.176v62.477h7.174c0.033-0.452,0.055-0.914,0.055-1.381V15.119
		c0-7.842-4.744-14.202-10.595-14.202H28.788c-5.853,0-10.594,6.359-10.594,14.202v56.016c0,0.467,0.021,0.929,0.053,1.381H25.42z"
		/>
	<g>
		<rect x="53.554" y="15.816" fill="#FF9800" width="17.871" height="48.104"/>
		<rect x="30.592" y="15.816" fill="#FF9800" width="17.871" height="48.104"/>
	</g>
</g>
</svg>
