<?xml version="1.0" encoding="utf-8"?>
<!-- Generator: Adobe Illustrator 16.0.0, SVG Export Plug-In . SVG Version: 6.00 Build 0)  -->
<!DOCTYPE svg PUBLIC "-//W3C//DTD SVG 1.1//EN" "http://www.w3.org/Graphics/SVG/1.1/DTD/svg11.dtd">
<svg version="1.1" id="Calque_1" xmlns="http://www.w3.org/2000/svg" xmlns:xlink="http://www.w3.org/1999/xlink" x="0px" y="0px"
	 width="97.167px" height="73.924px" viewBox="0 0 97.167 73.924" enable-background="new 0 0 97.167 73.924" xml:space="preserve">
<path fill="none" stroke="#9C27B0" stroke-width="2" d="M55.735,42.728V7.779c0-3.858-3.272-6.986-7.312-6.986
	c-4.041,0-7.313,3.128-7.313,6.986v34.948c-5.203,2.664-8.774,8.066-8.774,14.316c0,8.883,7.204,16.086,16.087,16.086
	c8.884,0,16.084-7.203,16.084-16.086C64.507,50.794,60.94,45.392,55.735,42.728z"/>
<path fill="#9C27B0" d="M52.908,45.3V28.285h-8.969V45.3c-4.783,1.811-8.188,6.422-8.188,11.842c0,7,5.672,12.672,12.672,12.672
	s12.673-5.672,12.673-12.672C61.096,51.722,57.691,47.11,52.908,45.3z"/>
<path fill="#9C27B0" d="M36.972,26.217c0,0.633-0.559,1.144-1.248,1.144h-8.236c-0.692,0-1.253-0.511-1.253-1.144l0,0
	c0-0.632,0.561-1.144,1.253-1.144h8.236C36.413,25.073,36.972,25.585,36.972,26.217L36.972,26.217z"/>
<path fill="#9C27B0" d="M36.972,29.407c0,0.559-0.402,1.013-0.899,1.013h-5.942c-0.499,0-0.901-0.454-0.901-1.013l0,0
	c0-0.559,0.402-1.011,0.901-1.011h5.942C36.569,28.396,36.972,28.848,36.972,29.407L36.972,29.407z"/>
<path fill="#9C27B0" d="M36.972,23.028c0,0.632-0.668,1.144-1.496,1.144H25.62c-0.825,0-1.496-0.511-1.496-1.144l0,0
	c0-0.633,0.67-1.145,1.496-1.145h9.855C36.304,21.883,36.972,22.395,36.972,23.028L36.972,23.028z"/>
</svg>
