<?xml version="1.0" encoding="utf-8"?>
<!-- Generator: Adobe Illustrator 16.0.0, SVG Export Plug-In . SVG Version: 6.00 Build 0)  -->
<!DOCTYPE svg PUBLIC "-//W3C//DTD SVG 1.1//EN" "http://www.w3.org/Graphics/SVG/1.1/DTD/svg11.dtd">
<svg version="1.1" id="Calque_1" xmlns="http://www.w3.org/2000/svg" xmlns:xlink="http://www.w3.org/1999/xlink" x="0px" y="0px"
	 width="97.167px" height="73.924px" viewBox="0 0 97.167 73.924" enable-background="new 0 0 97.167 73.924" xml:space="preserve">
<g>
	<g>
		<path fill="#9C27B0" d="M59.64,63.723c0,0.702-0.596,1.27-1.327,1.27H42.861c-0.732,0-1.325-0.567-1.325-1.27l0,0
			c0-0.702,0.593-1.271,1.325-1.271h15.452C59.044,62.452,59.64,63.021,59.64,63.723L59.64,63.723z"/>
		<path fill="#9C27B0" d="M59.64,66.687c0,0.702-0.593,1.271-1.325,1.271H42.861c-0.729,0-1.325-0.568-1.325-1.271l0,0
			c0-0.702,0.596-1.27,1.325-1.27h15.454C59.047,65.417,59.64,65.984,59.64,66.687L59.64,66.687z"/>
		<path fill="#9C27B0" d="M55.318,70.656c0,1.198-0.311,2.171-0.689,2.171H46.55c-0.382,0-0.692-0.973-0.692-2.171l0,0
			c0-1.2,0.31-2.171,0.692-2.171h8.079C55.007,68.485,55.318,69.456,55.318,70.656L55.318,70.656z"/>
		<path fill="#9C27B0" d="M50.892,8.003c-11.989-0.055-21.746,9.058-21.798,20.355c-0.018,3.741,1.052,7.242,2.903,10.269
			c3.528,8.6,9.333,19.781,9.671,20.429h5.919L42.98,45.259c-0.231-0.694,0.122-1.437,0.786-1.657
			c0.667-0.224,1.392,0.158,1.625,0.854l4.873,14.601h0.652L54.4,44.532c0.171-0.71,0.86-1.154,1.543-0.99
			c0.686,0.166,1.098,0.873,0.929,1.585l-3.345,13.929h5.68c0.796-1.435,6.564-11.887,10.182-20.066
			c1.95-3.054,3.101-6.614,3.118-10.438C72.556,17.257,62.877,8.055,50.892,8.003z"/>
		<path fill="#9C27B0" d="M59.64,60.76c0,0.702-0.596,1.271-1.327,1.271H42.861c-0.732,0-1.325-0.568-1.325-1.271l0,0
			c0-0.702,0.593-1.271,1.325-1.271h15.452C59.044,59.489,59.64,60.058,59.64,60.76L59.64,60.76z"/>
	</g>
	<path fill="#9C27B0" d="M27.144,28.453c0,0.762-0.638,1.377-1.419,1.377H22.78c-0.787,0-1.419-0.615-1.419-1.377l0,0
		c0-0.76,0.633-1.377,1.419-1.377h2.945C26.506,27.075,27.144,27.693,27.144,28.453L27.144,28.453z"/>
	<path fill="#9C27B0" d="M80.111,28.453c0,0.762-0.635,1.377-1.417,1.377h-2.947c-0.784,0-1.419-0.615-1.419-1.377l0,0
		c0-0.76,0.635-1.377,1.419-1.377h2.947C79.476,27.075,80.111,27.693,80.111,28.453L80.111,28.453z"/>
	<path fill="#9C27B0" d="M50.723,6.275c-0.784,0.005-1.422-0.609-1.424-1.37l-0.018-2.858c-0.003-0.76,0.63-1.379,1.414-1.382l0,0
		c0.784-0.005,1.422,0.609,1.424,1.37l0.015,2.858C52.137,5.653,51.504,6.272,50.723,6.275L50.723,6.275z"/>
	<path fill="#9C27B0" d="M32.532,13.428c-0.536,0.557-1.434,0.588-2.004,0.069l-2.156-1.95c-0.573-0.519-0.605-1.387-0.072-1.945
		l0,0c0.536-0.556,1.432-0.587,2.007-0.067l2.153,1.947C33.036,12.001,33.066,12.872,32.532,13.428L32.532,13.428z"/>
	<path fill="#9C27B0" d="M68.153,12.718c0.573,0.519,1.471,0.491,2.004-0.066l2.015-2.088c0.534-0.556,0.504-1.425-0.066-1.945l0,0
		c-0.576-0.519-1.472-0.491-2.008,0.065l-2.012,2.088C67.549,11.329,67.582,12.198,68.153,12.718L68.153,12.718z"/>
	<path fill="#9C27B0" d="M28.228,20.615c-0.266,0.714-1.077,1.086-1.816,0.829l-2.771-0.964c-0.737-0.257-1.122-1.043-0.856-1.762
		l0,0c0.263-0.714,1.077-1.088,1.816-0.83l2.771,0.965C28.109,19.11,28.493,19.898,28.228,20.615L28.228,20.615z"/>
	<path fill="#9C27B0" d="M72.862,19.873c0.265,0.715,1.076,1.088,1.815,0.83l2.771-0.964c0.739-0.258,1.121-1.044,0.855-1.762l0,0
		c-0.263-0.714-1.076-1.088-1.813-0.83l-2.773,0.964C72.981,18.37,72.598,19.156,72.862,19.873L72.862,19.873z"/>
	<path fill="#9C27B0" d="M40.794,7.872c-0.697,0.347-1.553,0.082-1.91-0.594l-1.347-2.543c-0.36-0.675-0.084-1.503,0.61-1.854l0,0
		c0.697-0.347,1.553-0.082,1.91,0.596l1.347,2.541C41.764,6.694,41.491,7.523,40.794,7.872L40.794,7.872z"/>
	<path fill="#9C27B0" d="M60.405,8.083c0.696,0.348,1.55,0.082,1.907-0.595l1.35-2.542c0.357-0.676,0.085-1.504-0.612-1.853l0,0
		c-0.697-0.348-1.551-0.083-1.91,0.594l-1.348,2.542C59.432,6.905,59.708,7.734,60.405,8.083L60.405,8.083z"/>
</g>
</svg>
