<?xml version="1.0" encoding="utf-8"?>
<!-- Generator: Adobe Illustrator 16.0.0, SVG Export Plug-In . SVG Version: 6.00 Build 0)  -->
<!DOCTYPE svg PUBLIC "-//W3C//DTD SVG 1.1//EN" "http://www.w3.org/Graphics/SVG/1.1/DTD/svg11.dtd">
<svg version="1.1" id="Calque_1" xmlns="http://www.w3.org/2000/svg" xmlns:xlink="http://www.w3.org/1999/xlink" x="0px" y="0px"
	 width="97.167px" height="73.924px" viewBox="0 0 97.167 73.924" enable-background="new 0 0 97.167 73.924" xml:space="preserve">
<g>
	<g>
		<path fill="#3F51B5" d="M25,23.25"/>
		<path fill="#3F51B5" d="M38.845,5.855c0-1.565-1.317-2.834-2.943-2.834c-1.623,0-2.94,1.27-2.94,2.834v3.336c0,0,0,0.001,0,0.004
			v11.832h5.847V9.612c0.022-0.14,0.037-0.278,0.037-0.421V5.855z"/>
		<path fill="#3F51B5" d="M62.945,5.855c0-1.565-1.317-2.834-2.94-2.834s-2.941,1.27-2.941,2.834v3.334c0,0,0,0.003,0,0.006v11.832
			h5.845V9.612c0.022-0.14,0.037-0.278,0.037-0.423V5.855z"/>
		<path fill="#3F51B5" d="M70.118,23.25H25.321v7.701l-0.054,0.014c0,0,0.02,0,0.054,0.003v0.028h0.147
			c0.62,0.178,2.478,1.303,2.478,8.488c0,8.628,10.828,14.38,10.828,14.38h0.003c-0.187,0.444-0.292,0.935-0.292,1.453
			c0,2.018,1.589,3.655,3.549,3.655h11.837c1.96,0,3.548-1.638,3.548-3.655c0-0.592-0.135-1.151-0.379-1.646l0.807,0.085
			c0,0,9.522-5.753,9.522-14.379c0-6.356,1.28-7.968,1.95-8.381h0.798V23.25z"/>
		<rect x="45.8" y="61.558" fill="#3F51B5" width="4.306" height="11.404"/>
	</g>
	<polygon fill="#3F51B5" points="45.545,0.822 52.8,0.822 49.937,6.06 51.952,6.06 49.805,9.995 51.401,9.995 44.341,18.486 
		45.969,11.621 44.635,11.621 46,7.686 43.625,7.686 	"/>
</g>
</svg>
