<?xml version="1.0" encoding="utf-8"?>
<!-- Generator: Adobe Illustrator 16.0.0, SVG Export Plug-In . SVG Version: 6.00 Build 0)  -->
<!DOCTYPE svg PUBLIC "-//W3C//DTD SVG 1.1//EN" "http://www.w3.org/Graphics/SVG/1.1/DTD/svg11.dtd">
<svg version="1.1" id="Calque_1" xmlns="http://www.w3.org/2000/svg" xmlns:xlink="http://www.w3.org/1999/xlink" x="0px" y="0px"
	 width="97.167px" height="73.924px" viewBox="0 0 97.167 73.924" enable-background="new 0 0 97.167 73.924" xml:space="preserve">
<g>
	<path fill="#9C27B0" d="M70.573,46.221v-1.536l5.73-0.048l0.017-7.5c0-9.214-10.044-10.249-11.71-10.357v-0.012h-4.743
		c-0.619-1.035-1.408-1.98-2.339-2.808v-2.249h1.151v-6.656H36.666v6.656h1.152v2.249c-0.934,0.828-1.72,1.772-2.339,2.808h-5.742
		c-1.246-2.479-3.246-4.096-5.507-4.096c-0.641,0-1.265,0.139-1.854,0.383v-5.248h-5.12v29.821h5.12v-5.246
		c0.589,0.243,1.214,0.382,1.854,0.382c2.224,0,4.191-1.56,5.443-3.968h6.797c2.474,3.015,6.568,4.992,11.203,4.992
		s8.727-1.978,11.206-4.992h5.57l0.049,7.424h-1.295v6.144h15.356v-6.144H70.573z"/>
	<path fill="#9C27B0" d="M60.349,1c-1.908,0-3.572,0.927-4.453,2.304h-5.035c-0.324-1.205-1.653-2.11-3.247-2.11
		c-1.596,0-2.923,0.906-3.246,2.11h-5.037C38.451,1.929,36.788,1,34.879,1c-2.827,0-5.123,2.034-5.123,4.544
		c0,2.51,2.296,4.545,5.123,4.545c1.909,0,3.572-0.931,4.452-2.306h5.402v5.801h5.95V7.783h5.213
		c0.881,1.373,2.545,2.306,4.453,2.306c2.826,0,5.117-2.035,5.117-4.545C65.466,3.032,63.175,1,60.349,1z"/>
	<path fill="#9C27B0" d="M70.583,54.871c-1.185,1.175-5.627,5.726-6.441,8.474c-0.251,0.745-0.396,1.544-0.396,2.377
		c0,4.003,3.137,7.248,7.007,7.248c3.871,0,7.007-3.245,7.007-7.248c0-1.141-0.261-2.215-0.713-3.176
		c-0.024-0.045-0.043-0.086-0.062-0.134c-0.045-0.087-0.091-0.173-0.134-0.26c-1.448-2.719-4.916-6.265-5.936-7.281l-0.041-0.289
		c0,0-0.048,0.047-0.126,0.122 M69.025,70.665c-5.44-1.504-3.166-7.517-3.166-7.517s-0.932,4.478,3.389,6.078
		s6.784-0.959,6.784-0.959S74.464,72.17,69.025,70.665z"/>
</g>
</svg>
