<?xml version="1.0" encoding="utf-8"?>
<!-- Generator: Adobe Illustrator 16.0.0, SVG Export Plug-In . SVG Version: 6.00 Build 0)  -->
<!DOCTYPE svg PUBLIC "-//W3C//DTD SVG 1.1//EN" "http://www.w3.org/Graphics/SVG/1.1/DTD/svg11.dtd">
<svg version="1.1" id="Calque_1" xmlns="http://www.w3.org/2000/svg" xmlns:xlink="http://www.w3.org/1999/xlink" x="0px" y="0px"
	 width="97.167px" height="73.924px" viewBox="0 0 97.167 73.924" enable-background="new 0 0 97.167 73.924" xml:space="preserve">
<path fill="#FFFFFF" d="M47.084,1C27.156,1,11,17.155,11,37.083c0,19.927,16.156,36.083,36.084,36.083
	c19.928,0,36.083-16.156,36.083-36.083C83.167,17.155,67.012,1,47.084,1z M47.087,59.698c-2.386,0-4.319-1.934-4.319-4.315
	c0-2.384,1.934-4.317,4.319-4.317c2.383,0,4.316,1.934,4.316,4.317C51.404,57.765,49.47,59.698,47.087,59.698z M60.791,30.668
	c-1.017,1.678-3.195,3.96-6.526,6.849c-1.728,1.495-2.8,2.697-3.217,3.606c-0.417,0.912-0.604,2.537-0.565,4.881h-7.411
	c-0.019-1.112-0.028-1.788-0.028-2.031c0-2.505,0.398-4.564,1.196-6.182c0.797-1.617,2.392-3.434,4.784-5.454
	c2.393-2.021,3.824-3.344,4.293-3.972c0.719-0.991,1.078-2.081,1.078-3.273c0-1.663-0.632-3.085-1.895-4.272
	c-1.262-1.184-2.963-1.778-5.101-1.778c-2.063,0-3.785,0.61-5.171,1.831c-1.389,1.22-2.344,3.079-2.863,5.58l-7.511-0.967
	c0.211-3.585,1.682-6.63,4.415-9.134c2.731-2.504,6.316-3.756,10.759-3.756c4.672,0,8.389,1.277,11.151,3.829
	c2.757,2.552,4.142,5.521,4.142,8.908C62.32,27.214,61.808,28.991,60.791,30.668z"/>
</svg>
