<?xml version="1.0" encoding="utf-8"?>
<!-- Generator: Adobe Illustrator 16.0.0, SVG Export Plug-In . SVG Version: 6.00 Build 0)  -->
<!DOCTYPE svg PUBLIC "-//W3C//DTD SVG 1.1//EN" "http://www.w3.org/Graphics/SVG/1.1/DTD/svg11.dtd">
<svg version="1.1" id="Calque_1" xmlns="http://www.w3.org/2000/svg" xmlns:xlink="http://www.w3.org/1999/xlink" x="0px" y="0px"
	 width="97.167px" height="73.924px" viewBox="0 0 97.167 73.924" enable-background="new 0 0 97.167 73.924" xml:space="preserve">
<rect x="3.281" y="44.683" fill="#FF9800" width="87.25" height="12.863"/>
<rect x="19.247" y="20.924" fill="#FF9800" width="14.115" height="31.265"/>
<rect x="3.198" y="14.581" fill="#FF9800" width="66.788" height="12.863"/>
<line fill="none" stroke="#FF9800" stroke-width="0.75" x1="69.841" y1="27.298" x2="73.239" y2="31.266"/>
<line fill="none" stroke="#FF9800" stroke-width="0.75" x1="73.348" y1="18.62" x2="69.906" y2="14.652"/>
<line fill="none" stroke="#FF9800" stroke-width="0.75" x1="73.268" y1="18.488" x2="73.268" y2="31.352"/>
<line fill="none" stroke="#FF9800" stroke-width="0.75" x1="6.683" y1="31.195" x2="29.908" y2="31.195"/>
<line fill="none" stroke="#FF9800" stroke-width="0.75" x1="36.577" y1="31.195" x2="73.379" y2="31.195"/>
<line fill="none" stroke="#FF9800" stroke-width="0.75" x1="3.437" y1="27.292" x2="6.833" y2="31.26"/>
<line fill="none" stroke="#FF9800" stroke-width="0.75" x1="6.653" y1="61.238" x2="93.97" y2="61.238"/>
<line fill="none" stroke="#FF9800" stroke-width="0.75" x1="3.469" y1="57.385" x2="6.868" y2="61.296"/>
<line fill="none" stroke="#FF9800" stroke-width="0.75" x1="90.282" y1="57.248" x2="93.646" y2="61.167"/>
<line fill="none" stroke="#FF9800" stroke-width="0.75" x1="93.792" y1="48.814" x2="90.302" y2="44.879"/>
<line fill="none" stroke="#FF9800" stroke-width="0.75" x1="93.722" y1="48.613" x2="93.722" y2="61.401"/>
<line fill="none" stroke="#FF9800" stroke-width="0.75" x1="36.815" y1="31.36" x2="36.815" y2="45.562"/>
<line fill="none" stroke="#FF9800" stroke-width="0.75" x1="36.899" y1="31.467" x2="33.255" y2="27.355"/>
</svg>
