<?xml version="1.0" encoding="utf-8"?>
<!-- Generator: Adobe Illustrator 16.0.0, SVG Export Plug-In . SVG Version: 6.00 Build 0)  -->
<!DOCTYPE svg PUBLIC "-//W3C//DTD SVG 1.1//EN" "http://www.w3.org/Graphics/SVG/1.1/DTD/svg11.dtd">
<svg version="1.1" id="Calque_1" xmlns="http://www.w3.org/2000/svg" xmlns:xlink="http://www.w3.org/1999/xlink" x="0px" y="0px"
	 width="97.167px" height="73.924px" viewBox="0 0 97.167 73.924" enable-background="new 0 0 97.167 73.924" xml:space="preserve">
<circle fill="none" stroke="#212121" stroke-width="3" cx="40.805" cy="43.32" r="27.623"/>
<polygon fill="none" stroke="#212121" stroke-width="3" points="26.217,63.34 26.208,43.168 26.206,22.997 45.839,33.076 
	65.477,43.158 45.848,53.247 "/>
<polygon fill="#212121" points="85.731,18.149 82.704,16.419 85.601,15.045 84.835,13.936 81.195,15.685 76.894,13.206 
	81.174,10.836 84.807,12.555 85.552,11.453 82.769,9.985 85.739,8.311 84.894,6.916 81.81,8.564 81.934,5.342 80.708,5.759 
	80.34,9.569 76.151,11.857 76.246,7.15 79.641,4.897 79.12,3.655 76.178,5.507 76.332,2.04 75.481,1.985 75.481,1.98 75.44,1.983 
	75.401,1.98 75.401,1.985 74.541,2.034 74.669,5.497 71.744,3.62 71.211,4.859 74.585,7.145 74.641,11.85 70.472,9.525 70.14,5.711 
	68.918,5.286 69.006,8.505 65.94,6.833 65.083,8.217 68.04,9.919 65.24,11.361 65.982,12.472 69.628,10.791 73.886,13.194 
	69.566,15.634 65.94,13.85 65.163,14.955 68.046,16.356 65.001,18.059 65.985,19.409 68.926,17.861 68.873,21.129 70.12,20.643 
	70.518,16.88 74.6,14.48 74.61,19.241 71.173,21.439 71.722,22.687 74.572,20.979 74.485,24.392 75.297,24.432 75.297,24.438 
	75.342,24.435 75.383,24.438 75.383,24.432 76.2,24.396 76.14,20.989 78.967,22.717 79.535,21.472 76.116,19.248 76.168,14.485 
	80.229,16.922 80.599,20.687 81.839,21.184 81.807,17.921 84.741,19.497 "/>
</svg>
