<?xml version="1.0" encoding="utf-8"?>
<!-- Generator: Adobe Illustrator 16.0.0, SVG Export Plug-In . SVG Version: 6.00 Build 0)  -->
<!DOCTYPE svg PUBLIC "-//W3C//DTD SVG 1.1//EN" "http://www.w3.org/Graphics/SVG/1.1/DTD/svg11.dtd">
<svg version="1.1" id="Calque_1" xmlns="http://www.w3.org/2000/svg" xmlns:xlink="http://www.w3.org/1999/xlink" x="0px" y="0px"
	 width="97.167px" height="73.924px" viewBox="0 0 97.167 73.924" enable-background="new 0 0 97.167 73.924" xml:space="preserve">
<path fill="#3F51B5" d="M86.813,71.976H11.278c-0.54,0-0.978-0.438-0.978-0.979V48.203c0-0.369,0.21-0.707,0.541-0.872l18.881-9.42
	c0.305-0.151,0.664-0.135,0.951,0.043c0.289,0.181,0.464,0.492,0.464,0.833v7.838l17.472-8.714c0.3-0.151,0.664-0.135,0.951,0.043
	c0.286,0.178,0.458,0.492,0.458,0.831v7.84l4.866-2.425v-24c0-0.537,0.437-0.976,0.976-0.976h3.546c0.539,0,0.975,0.439,0.975,0.976
	v21.258l4.615-2.301l0.81-35.197c0.014-0.531,0.446-0.956,0.978-0.956H75.3c0.531,0,0.959,0.425,0.978,0.956l0.886,38.548
	l9.215-4.597c0.304-0.151,0.658-0.135,0.945,0.043c0.288,0.178,0.467,0.492,0.467,0.831v32.212
	C87.791,71.536,87.352,71.976,86.813,71.976L86.813,71.976z M12.25,70.022h73.587V40.364l-17.475,8.715
	c-0.144,0.072-0.293,0.104-0.453,0.104c-0.175-0.002-0.371-0.045-0.531-0.146c-0.287-0.177-0.461-0.49-0.461-0.828V40.38
	l-7.068,3.527c-0.008,0.006-0.012,0.007-0.02,0.011l-3.531,1.763c0,0-0.008,0.002-0.008,0.006l-6.811,3.395
	c-0.303,0.15-0.664,0.135-0.95-0.043c-0.287-0.178-0.464-0.49-0.464-0.828v-7.844l-17.47,8.715c-0.304,0.15-0.663,0.135-0.952-0.043
	c-0.285-0.178-0.46-0.49-0.46-0.828v-7.839L12.25,48.81V70.022z M67.927,37.81c0.18,0,0.357,0.051,0.514,0.146
	c0.29,0.181,0.461,0.492,0.461,0.833v7.822l6.33-3.157L74.344,4.958h-6.605l-0.767,33.195l0.484-0.242
	c0.143-0.068,0.299-0.104,0.453-0.102H67.927L67.927,37.81z M56.835,21.179v22.05l1.593-0.799V21.179H56.835z M51.847,65.187h-3.715
	c-0.539,0-0.978-0.437-0.978-0.976v-5.526c0-0.543,0.438-0.979,0.978-0.979h3.715c0.54,0,0.979,0.436,0.979,0.979v5.526
	C52.826,64.75,52.387,65.187,51.847,65.187L51.847,65.187z M49.109,63.231h1.764v-3.57h-1.764V63.231z M43.954,65.187h-3.716
	c-0.539,0-0.98-0.437-0.98-0.976v-5.526c0-0.543,0.441-0.979,0.98-0.979h3.716c0.539,0,0.974,0.436,0.974,0.979v5.526
	C44.928,64.75,44.493,65.187,43.954,65.187L43.954,65.187z M41.215,63.231h1.759v-3.57h-1.759V63.231z M36.057,65.187h-3.715
	c-0.539,0-0.976-0.437-0.976-0.976v-5.526c0-0.543,0.438-0.979,0.976-0.979h3.715c0.538,0,0.976,0.436,0.976,0.979v5.526
	C37.033,64.75,36.595,65.187,36.057,65.187L36.057,65.187z M33.321,63.231h1.759v-3.57h-1.759V63.231z M28.161,65.187h-3.715
	c-0.539,0-0.978-0.437-0.978-0.976v-5.526c0-0.543,0.438-0.979,0.978-0.979h3.715c0.541,0,0.974,0.436,0.974,0.979v5.526
	C29.135,64.75,28.702,65.187,28.161,65.187L28.161,65.187z M25.422,63.231h1.76v-3.57h-1.76V63.231z M20.264,65.187h-3.713
	c-0.542,0-0.979-0.437-0.979-0.976v-5.526c0-0.543,0.438-0.979,0.979-0.979h3.713c0.541,0,0.976,0.436,0.976,0.979v5.526
	C21.24,64.75,20.805,65.187,20.264,65.187L20.264,65.187z M17.527,63.231h1.761v-3.57h-1.761V63.231z"/>
<polygon fill="#3F51B5" points="32.575,24.963 29.312,23.084 32.435,21.588 31.611,20.383 27.682,22.282 23.046,19.591 
	27.661,17.014 31.582,18.882 32.383,17.685 29.381,16.09 32.584,14.27 31.675,12.754 28.35,14.545 28.479,11.045 27.16,11.498 
	26.761,15.637 22.246,18.125 22.349,13.007 26.008,10.56 25.447,9.211 22.274,11.221 22.442,7.454 21.525,7.395 21.525,7.391 
	21.48,7.395 21.437,7.391 21.437,7.395 20.509,7.448 20.648,11.212 17.493,9.169 16.922,10.52 20.558,13.002 20.62,18.116 
	16.121,15.589 15.766,11.444 14.448,10.982 14.542,14.479 11.237,12.663 10.31,14.17 13.499,16.019 10.48,17.584 11.279,18.794 
	15.215,16.965 19.805,19.578 15.146,22.227 11.235,20.293 10.399,21.492 13.509,23.015 10.227,24.865 11.283,26.331 14.456,24.65 
	14.398,28.203 15.743,27.675 16.174,23.583 20.573,20.974 20.586,26.148 16.876,28.539 17.472,29.895 20.543,28.038 20.45,31.748 
	21.325,31.792 21.325,31.797 21.373,31.796 21.417,31.797 21.417,31.792 22.296,31.755 22.237,28.05 25.286,29.928 25.896,28.575 
	22.208,26.159 22.264,20.981 26.642,23.629 27.044,27.722 28.38,28.261 28.344,24.716 31.51,26.425 "/>
</svg>
