<?xml version="1.0" encoding="utf-8"?>
<!-- Generator: Adobe Illustrator 16.0.0, SVG Export Plug-In . SVG Version: 6.00 Build 0)  -->
<!DOCTYPE svg PUBLIC "-//W3C//DTD SVG 1.1//EN" "http://www.w3.org/Graphics/SVG/1.1/DTD/svg11.dtd">
<svg version="1.1" id="Calque_1" xmlns="http://www.w3.org/2000/svg" xmlns:xlink="http://www.w3.org/1999/xlink" x="0px" y="0px"
	 width="97.167px" height="73.924px" viewBox="0 0 97.167 73.924" enable-background="new 0 0 97.167 73.924" xml:space="preserve">
<path fill="#9C27B0" d="M52.602,42.558c-1.15-1.053-2.918-1.04-4.051,0.035l-5.099,4.837c-1.191,1.128-1.239,3.009-0.111,4.2
	c1.13,1.188,3.008,1.239,4.201,0.109l0.068-0.064v11.987c0,1.64,1.329,2.97,2.969,2.97c1.642,0,2.973-1.33,2.973-2.97V51.479
	l0.325,0.298c0.568,0.521,1.29,0.78,2.005,0.78c0.804,0,1.604-0.327,2.192-0.966c1.107-1.211,1.023-3.09-0.188-4.197L52.602,42.558z
	 M52.602,42.558"/>
<path fill="#9C27B0" d="M32.778,49.257c-1.153-1.054-2.921-1.039-4.051,0.034l-5.1,4.837c-1.189,1.13-1.24,3.011-0.111,4.201
	c1.13,1.188,3.011,1.239,4.199,0.109l0.07-0.064v9.245c0,1.64,1.33,2.97,2.971,2.97c1.64,0,2.97-1.33,2.97-2.97v-9.441l0.325,0.3
	c0.573,0.521,1.289,0.778,2.006,0.778c0.805,0,1.605-0.326,2.191-0.966c1.108-1.21,1.024-3.091-0.187-4.197L32.778,49.257z
	 M32.778,49.257"/>
<path fill="#9C27B0" d="M83.76,43.337c-3.206-3.388-8.483-6.07-15.001-7.798V6.306c0-1.642-1.33-2.972-2.97-2.972H35.626
	c-1.638,0-2.969,1.33-2.969,2.972v29.233c-6.516,1.729-11.792,4.411-15,7.798c-1.128,1.193-1.077,3.071,0.115,4.2
	c1.192,1.128,3.071,1.076,4.198-0.116c4.679-4.941,15.96-8.136,28.741-8.136c12.778,0,24.06,3.194,28.737,8.136
	c0.585,0.618,1.368,0.93,2.157,0.93c0.732,0,1.468-0.271,2.043-0.813C84.838,46.408,84.89,44.53,83.76,43.337L83.76,43.337z
	 M38.598,34.284V9.275H62.82v25.009c-3.797-0.613-7.872-0.938-12.11-0.938C46.469,33.347,42.394,33.671,38.598,34.284L38.598,34.284
	z M38.598,34.284"/>
<path fill="#9C27B0" d="M73.243,49.257c-1.148-1.054-2.918-1.039-4.047,0.034l-5.104,4.837c-1.188,1.13-1.239,3.011-0.109,4.201
	c1.13,1.188,3.011,1.239,4.2,0.109l0.067-0.064v9.245c0,1.64,1.329,2.97,2.969,2.97c1.644,0,2.974-1.33,2.974-2.97v-9.441l0.325,0.3
	c0.569,0.521,1.289,0.778,2.005,0.778c0.805,0,1.605-0.326,2.192-0.966c1.106-1.21,1.022-3.091-0.188-4.197L73.243,49.257z
	 M73.243,49.257"/>
</svg>
