<?xml version="1.0" encoding="utf-8"?>
<!-- Generator: Adobe Illustrator 16.0.0, SVG Export Plug-In . SVG Version: 6.00 Build 0)  -->
<!DOCTYPE svg PUBLIC "-//W3C//DTD SVG 1.1//EN" "http://www.w3.org/Graphics/SVG/1.1/DTD/svg11.dtd">
<svg version="1.1" id="Calque_1" xmlns="http://www.w3.org/2000/svg" xmlns:xlink="http://www.w3.org/1999/xlink" x="0px" y="0px"
	 width="97.167px" height="73.924px" viewBox="0 0 97.167 73.924" enable-background="new 0 0 97.167 73.924" xml:space="preserve">
<circle fill="none" stroke="#FDD835" stroke-width="2" cx="48.584" cy="36.963" r="33.854"/>
<path fill="#FDD835" d="M76.667,31.389c-4.669-12.298-11.594-6.08-11.594-6.08C61.337,35.517,56.792,36.03,54.794,35.67
	c-0.252-1.375-0.936-2.6-1.907-3.529c12.691-8.252,7.698-16.489,7.698-16.489c-4.805-10.67-17.668-7.135-17.668-7.135
	c-12.298,4.662-6.077,11.587-6.077,11.587c10.294,3.778,10.722,8.369,10.344,10.336c-1.235,0.229-2.345,0.81-3.229,1.627
	c-8.234-12.355-16.347-7.413-16.347-7.413c-10.659,4.834-7.089,17.692-7.089,17.692c4.701,12.28,11.608,6.041,11.608,6.041
	c3.468-9.545,7.662-10.625,9.829-10.438c0.255,1.501,1.02,2.821,2.111,3.787l-0.087-0.012c-12.81,8.243-7.81,16.524-7.81,16.524
	c4.784,10.68,17.655,7.175,17.655,7.175c12.308-4.639,6.102-11.576,6.102-11.576c-10.73-3.962-10.723-8.787-10.272-10.595
	c1.326-0.262,2.506-0.927,3.411-1.862c8.248,12.653,16.467,7.665,16.467,7.665C80.203,44.249,76.667,31.389,76.667,31.389z
	 M48.583,40.119c-1.742,0-3.156-1.414-3.156-3.156c0-1.741,1.414-3.158,3.156-3.158c1.745,0,3.159,1.417,3.159,3.158
	C51.742,38.705,50.328,40.119,48.583,40.119z"/>
</svg>
