<?xml version="1.0" encoding="utf-8"?>
<!-- Generator: Adobe Illustrator 16.0.0, SVG Export Plug-In . SVG Version: 6.00 Build 0)  -->
<!DOCTYPE svg PUBLIC "-//W3C//DTD SVG 1.1//EN" "http://www.w3.org/Graphics/SVG/1.1/DTD/svg11.dtd">
<svg version="1.1" id="Calque_1" xmlns="http://www.w3.org/2000/svg" xmlns:xlink="http://www.w3.org/1999/xlink" x="0px" y="0px"
	 width="97.167px" height="73.924px" viewBox="0 0 97.167 73.924" enable-background="new 0 0 97.167 73.924" xml:space="preserve">
<g>
	<path fill="#9E9E9E" d="M26.837,21.971c-0.001-1.752-1.49-3.17-3.323-3.169l0,0c-1.836,0.002-3.318,1.422-3.316,3.176l0.054,47.036
		c0.001,1.753,1.49,3.172,3.324,3.171l0,0c1.833-0.001,3.316-1.423,3.316-3.173L26.837,21.971z"/>
	<path fill="#9E9E9E" d="M37.951,21.954c-0.002-1.751-1.489-3.168-3.321-3.164l0,0c-1.837,0.002-3.321,1.422-3.321,3.174
		l0.059,47.039c0,1.752,1.487,3.172,3.321,3.169l0,0c1.834-0.002,3.319-1.429,3.319-3.179L37.951,21.954z"/>
	<path fill="#9E9E9E" d="M49.084,21.944c0-1.752-1.487-3.168-3.321-3.168l0,0c-1.834,0.004-3.319,1.422-3.319,3.173L42.5,68.985
		c0.004,1.757,1.49,3.176,3.325,3.176l0,0c1.834-0.004,3.319-1.428,3.319-3.182L49.084,21.944z"/>
	<path fill="#9E9E9E" d="M60.18,21.927c0-1.75-1.49-3.167-3.321-3.164l0,0c-1.834,0.001-3.321,1.423-3.318,3.174l0.053,47.037
		c0.003,1.755,1.489,3.175,3.324,3.172l0,0c1.835-0.002,3.322-1.427,3.318-3.181L60.18,21.927z"/>
	<path fill="#9E9E9E" d="M71.295,21.917c-0.003-1.752-1.49-3.167-3.321-3.167l0,0c-1.838,0.002-3.32,1.423-3.318,3.174l0.054,47.037
		c0.002,1.753,1.492,3.174,3.324,3.172l0,0c1.835,0,3.317-1.424,3.317-3.177L71.295,21.917z"/>
	<polygon fill="#9E9E9E" points="75.454,62.13 16.176,62.195 16.179,65.911 75.454,65.842 	"/>
	
		<rect x="16.153" y="25.336" transform="matrix(1 -0.0011 0.0011 1 -0.0312 0.0537)" fill="#9E9E9E" width="61.169" height="3.715"/>
	<path fill="#9E9E9E" d="M84.6,27.148c0-2.226-1.874-4.022-4.185-4.019c-2.31,0.002-4.178,1.805-4.174,4.029
		c0.002,2.221,1.876,4.022,4.184,4.02C82.736,31.174,84.604,29.37,84.6,27.148z"/>
</g>
<g>
	<path fill="none" stroke="#9E9E9E" stroke-linecap="round" stroke-linejoin="round" stroke-miterlimit="10" d="M34.329,4.121
		c0,0,5.648-3.385,12.776,0c7.134,3.39,12.792,0,12.792,0"/>
	<path fill="none" stroke="#9E9E9E" stroke-linecap="round" stroke-linejoin="round" stroke-miterlimit="10" d="M34.329,8.353
		c0,0,5.648-3.383,12.776,0c7.134,3.386,12.792,0,12.792,0"/>
	<path fill="none" stroke="#9E9E9E" stroke-linecap="round" stroke-linejoin="round" stroke-miterlimit="10" d="M34.329,12.589
		c0,0,5.648-3.386,12.776,0c7.134,3.384,12.792,0,12.792,0"/>
</g>
</svg>
