<?xml version="1.0" encoding="utf-8"?>
<!-- Generator: Adobe Illustrator 16.0.0, SVG Export Plug-In . SVG Version: 6.00 Build 0)  -->
<!DOCTYPE svg PUBLIC "-//W3C//DTD SVG 1.1//EN" "http://www.w3.org/Graphics/SVG/1.1/DTD/svg11.dtd">
<svg version="1.1" id="Calque_1" xmlns="http://www.w3.org/2000/svg" xmlns:xlink="http://www.w3.org/1999/xlink" x="0px" y="0px"
	 width="97.167px" height="73.924px" viewBox="0 0 97.167 73.924" enable-background="new 0 0 97.167 73.924" xml:space="preserve">
<polygon fill="none" stroke="#FF9800" stroke-width="3" points="26.217,63.34 26.208,43.168 26.206,22.997 45.839,33.076 
	65.477,43.158 45.848,53.247 "/>
<circle fill="none" stroke="#FF9800" stroke-width="3" cx="41.065" cy="43.449" r="28.474"/>
<g>
	<path fill="none" stroke="#FF9800" stroke-linecap="round" stroke-linejoin="round" stroke-miterlimit="10" d="M65.226,7.526
		c0,0,5.069-3.692,11.461,0c6.403,3.694,11.48,0,11.48,0"/>
	<path fill="none" stroke="#FF9800" stroke-linecap="round" stroke-linejoin="round" stroke-miterlimit="10" d="M65.226,12.139
		c0,0,5.069-3.686,11.461,0c6.403,3.695,11.48,0,11.48,0"/>
	<path fill="none" stroke="#FF9800" stroke-linecap="round" stroke-linejoin="round" stroke-miterlimit="10" d="M65.226,16.759
		c0,0,5.069-3.692,11.461,0c6.403,3.69,11.48,0,11.48,0"/>
</g>
</svg>
