<?xml version="1.0" encoding="utf-8"?>
<!-- Generator: Adobe Illustrator 16.0.0, SVG Export Plug-In . SVG Version: 6.00 Build 0)  -->
<!DOCTYPE svg PUBLIC "-//W3C//DTD SVG 1.1//EN" "http://www.w3.org/Graphics/SVG/1.1/DTD/svg11.dtd">
<svg version="1.1" id="Calque_1" xmlns="http://www.w3.org/2000/svg" xmlns:xlink="http://www.w3.org/1999/xlink" x="0px" y="0px"
	 width="97.167px" height="73.924px" viewBox="0 0 97.167 73.924" enable-background="new 0 0 97.167 73.924" xml:space="preserve">
<g>
	<path fill="none" stroke="#212121" stroke-width="1.5" stroke-linecap="round" stroke-linejoin="round" stroke-miterlimit="10" d="
		M10.783,12.841c0,0,6.436-4.689,14.552,0c8.129,4.692,14.576,0,14.576,0"/>
	<path fill="none" stroke="#212121" stroke-width="1.5" stroke-linecap="round" stroke-linejoin="round" stroke-miterlimit="10" d="
		M10.783,18.698c0,0,6.436-4.68,14.552,0c8.129,4.691,14.576,0,14.576,0"/>
	<path fill="none" stroke="#212121" stroke-width="1.5" stroke-linecap="round" stroke-linejoin="round" stroke-miterlimit="10" d="
		M10.783,24.565c0,0,6.436-4.689,14.552,0c8.129,4.684,14.576,0,14.576,0"/>
</g>
<path fill="#212121" d="M86.813,71.975H11.278c-0.54,0-0.978-0.438-0.978-0.978V48.203c0-0.369,0.21-0.707,0.541-0.872l18.881-9.42
	c0.305-0.151,0.664-0.135,0.951,0.043c0.289,0.181,0.464,0.492,0.464,0.833v7.838l17.472-8.714c0.3-0.151,0.664-0.135,0.951,0.043
	c0.286,0.178,0.458,0.492,0.458,0.831v7.84l4.866-2.425v-24c0-0.537,0.437-0.976,0.976-0.976h3.546c0.539,0,0.975,0.439,0.975,0.976
	v21.258l4.614-2.301L65.805,3.96c0.014-0.531,0.446-0.956,0.978-0.956H75.3c0.532,0,0.96,0.425,0.978,0.956l0.885,38.548
	l9.215-4.597c0.304-0.151,0.659-0.135,0.945,0.043c0.289,0.178,0.468,0.492,0.468,0.831v32.212
	C87.791,71.536,87.352,71.975,86.813,71.975L86.813,71.975z M12.25,70.023h73.588V40.364l-17.475,8.715
	c-0.144,0.072-0.293,0.104-0.453,0.104c-0.175-0.002-0.372-0.045-0.532-0.146c-0.286-0.177-0.461-0.49-0.461-0.828v-7.829
	l-7.068,3.527c-0.007,0.006-0.012,0.007-0.019,0.011l-3.532,1.763c0,0-0.007,0.001-0.008,0.006l-6.81,3.394
	c-0.303,0.151-0.664,0.135-0.95-0.043c-0.287-0.177-0.464-0.49-0.464-0.828v-7.844l-17.47,8.715
	c-0.304,0.151-0.663,0.135-0.952-0.043c-0.285-0.177-0.46-0.49-0.46-0.828v-7.839L12.25,48.809V70.023z M67.927,37.81
	c0.18,0,0.358,0.05,0.514,0.145c0.29,0.181,0.461,0.492,0.461,0.833v7.822l6.33-3.157L74.344,4.958h-6.605l-0.767,33.196
	l0.484-0.243c0.143-0.068,0.3-0.104,0.454-0.102H67.927z M56.836,21.179v22.05l1.592-0.798V21.179H56.836z M51.847,65.187h-3.715
	c-0.539,0-0.978-0.437-0.978-0.976v-5.527c0-0.543,0.438-0.978,0.978-0.978h3.715c0.54,0,0.978,0.435,0.978,0.978v5.527
	C52.825,64.75,52.387,65.187,51.847,65.187L51.847,65.187z M49.109,63.232h1.764v-3.571h-1.764V63.232z M43.954,65.187h-3.716
	c-0.539,0-0.98-0.437-0.98-0.976v-5.527c0-0.543,0.441-0.978,0.98-0.978h3.716c0.539,0,0.974,0.435,0.974,0.978v5.527
	C44.928,64.75,44.493,65.187,43.954,65.187L43.954,65.187z M41.215,63.232h1.759v-3.571h-1.759V63.232z M36.057,65.187h-3.715
	c-0.539,0-0.976-0.437-0.976-0.976v-5.527c0-0.543,0.438-0.978,0.976-0.978h3.715c0.538,0,0.976,0.435,0.976,0.978v5.527
	C37.033,64.75,36.595,65.187,36.057,65.187L36.057,65.187z M33.321,63.232h1.759v-3.571h-1.759V63.232z M28.161,65.187h-3.715
	c-0.539,0-0.978-0.437-0.978-0.976v-5.527c0-0.543,0.438-0.978,0.978-0.978h3.715c0.541,0,0.974,0.435,0.974,0.978v5.527
	C29.135,64.75,28.702,65.187,28.161,65.187L28.161,65.187z M25.422,63.232h1.76v-3.571h-1.76V63.232z M20.264,65.187h-3.713
	c-0.542,0-0.979-0.437-0.979-0.976v-5.527c0-0.543,0.438-0.978,0.979-0.978h3.713c0.541,0,0.976,0.435,0.976,0.978v5.527
	C21.24,64.75,20.805,65.187,20.264,65.187L20.264,65.187z M17.527,63.232h1.761v-3.571h-1.761V63.232z M17.527,63.232"/>
</svg>
