<?xml version="1.0" encoding="utf-8"?>
<!-- Generator: Adobe Illustrator 16.0.0, SVG Export Plug-In . SVG Version: 6.00 Build 0)  -->
<!DOCTYPE svg PUBLIC "-//W3C//DTD SVG 1.1//EN" "http://www.w3.org/Graphics/SVG/1.1/DTD/svg11.dtd">
<svg version="1.1" id="Calque_1" xmlns="http://www.w3.org/2000/svg" xmlns:xlink="http://www.w3.org/1999/xlink" x="0px" y="0px"
	 width="97.167px" height="73.924px" viewBox="0 0 97.167 73.924" enable-background="new 0 0 97.167 73.924" xml:space="preserve">
<path fill="#9C27B0" d="M77.493,12.554c0.061,0.048,0.133,0.068,0.204,0.06c0.074,0,0.133-0.049,0.168-0.112l2.878-4.993
	c0.105-0.192-0.133-0.431-0.327-0.321l-4.981,2.874c-0.071,0.036-0.11,0.095-0.119,0.164c-0.011,0.088,0.009,0.16,0.059,0.208
	L77.493,12.554z M77.493,12.554"/>
<path fill="#9C27B0" d="M56.05,12.622c0.071,0,0.144-0.021,0.19-0.068l2.12-2.122c0.05-0.048,0.074-0.12,0.074-0.189
	c0-0.074-0.05-0.137-0.109-0.16l-4.612-2.5c-0.169-0.097-0.422,0.143-0.325,0.318l2.507,4.615
	C55.929,12.579,55.976,12.613,56.05,12.622L56.05,12.622z M56.05,12.622"/>
<path fill="#9C27B0" d="M47.627,57.49h-5.417v10.768h-6.374v3.666h18.318v-3.666h-6.528V57.49z M47.627,57.49"/>
<path fill="#9C27B0" d="M55.03,23.29v7.571h12.856L65.74,23.29H55.03z M55.03,23.29"/>
<path fill="#9C27B0" d="M55.09,40.872h14.999l-2.144-7.569H55.09V40.872z M55.09,40.872"/>
<path fill="#9C27B0" d="M35.179,23.29H23.619l-2.145,7.571h13.706V23.29z M35.179,23.29"/>
<path fill="#9C27B0" d="M19.389,40.872H35.24v-7.569H21.534L19.389,40.872z M19.389,40.872"/>
<rect x="38.366" y="33.303" fill="#9C27B0" width="13.717" height="7.571"/>
<path fill="#9C27B0" d="M17.676,50.972H35.24v-7.57H19.82L17.676,50.972z M17.676,50.972"/>
<path fill="#9C27B0" d="M55.09,43.401v7.57h17.143l-2.144-7.57H55.09z M55.09,43.401"/>
<rect x="38.366" y="43.401" fill="#9C27B0" width="13.717" height="7.574"/>
<rect x="38.316" y="23.29" fill="#9C27B0" width="13.709" height="7.558"/>
<path fill="#9C27B0" d="M67.633,18.527H20.934c-1.354,0-2.466,0.885-2.466,1.98l-6.423,33.246c0,1.088,1.102,1.977,2.456,1.977
	h61.28c1.353,0,2.457-0.889,2.457-1.977l-8.148-33.246C70.089,19.412,68.99,18.527,67.633,18.527L67.633,18.527z M14.991,53.359
	l6.435-32.457h45.719l8.145,32.457H14.991z M14.991,53.359"/>
<path fill="#9C27B0" d="M69.144,16.925c1.353,0,2.456,0.887,2.456,1.987l2.288,9.347c2.24-1.856,3.702-4.639,3.702-7.775
	c0-5.595-4.542-10.138-10.154-10.138c-4.342,0-8.021,2.745-9.458,6.593h11.166V16.925z M69.144,16.925"/>
<path fill="#9C27B0" d="M65.715,7.471c-0.021,0.07,0,0.146,0.052,0.202c0.035,0.065,0.105,0.088,0.177,0.088l0,0h2.997
	c0.07,0,0.144-0.023,0.189-0.088c0.049-0.057,0.063-0.132,0.039-0.202l-1.501-5.572c-0.046-0.2-0.394-0.2-0.454,0"/>
<path fill="#9C27B0" d="M80.958,18.755c-0.071-0.02-0.158,0-0.215,0.051c-0.063,0.037-0.088,0.105-0.088,0.181v2.99
	c0,0.077,0.024,0.146,0.088,0.195c0.057,0.048,0.144,0.059,0.215,0.034l5.558-1.497c0.205-0.044,0.205-0.395,0-0.452l0,0
	 M86.515,20.257"/>
<path fill="#9C27B0" d="M79.281,33.795c0.176,0.095,0.433-0.146,0.319-0.328l-2.873-4.995c-0.046-0.057-0.109-0.106-0.179-0.118
	c-0.074-0.014-0.146,0.012-0.191,0.072l-1.953,1.943l0.18,0.72"/>
</svg>
