<?xml version="1.0" encoding="utf-8"?>
<!-- Generator: Adobe Illustrator 16.0.0, SVG Export Plug-In . SVG Version: 6.00 Build 0)  -->
<!DOCTYPE svg PUBLIC "-//W3C//DTD SVG 1.1//EN" "http://www.w3.org/Graphics/SVG/1.1/DTD/svg11.dtd">
<svg version="1.1" id="Calque_1" xmlns="http://www.w3.org/2000/svg" xmlns:xlink="http://www.w3.org/1999/xlink" x="0px" y="0px"
	 width="97.167px" height="73.924px" viewBox="0 0 97.167 73.924" enable-background="new 0 0 97.167 73.924" xml:space="preserve">
<g>
	<path fill="#9C27B0" d="M71.025,46.176v-1.5l5.593-0.047l0.016-7.318c0-8.99-9.799-10-11.425-10.104v-0.012h-4.628
		c-0.604-1.01-1.373-1.932-2.282-2.74v-2.194h1.124v-6.494H37.943v6.494h1.124v2.194c-0.911,0.808-1.678,1.729-2.282,2.74h-5.602
		c-1.216-2.419-3.166-3.996-5.374-3.996c-0.625,0-1.233,0.135-1.809,0.374v-5.12h-4.996v29.096H24V42.43
		c0.576,0.237,1.184,0.374,1.809,0.374c2.169,0,4.09-1.522,5.311-3.872h6.631c2.414,2.942,6.409,4.871,10.932,4.871
		c4.521,0,8.515-1.929,10.935-4.871h5.433l0.048,7.244h-1.263v5.993h14.982v-5.993H71.025z"/>
	<path fill="#9C27B0" d="M61.051,2.054c-1.863,0-3.486,0.905-4.344,2.248h-4.915c-0.315-1.175-1.612-2.059-3.168-2.059
		s-2.852,0.884-3.167,2.059h-4.914c-0.859-1.342-2.481-2.248-4.342-2.248c-2.759,0-4.998,1.984-4.998,4.434s2.239,4.434,4.998,4.434
		c1.861,0,3.483-0.908,4.342-2.249h5.271v5.659h5.805V8.672h5.088c0.857,1.339,2.48,2.249,4.344,2.249
		c2.757,0,4.992-1.985,4.992-4.434C66.043,4.037,63.808,2.054,61.051,2.054z"/>
	<path fill="#9C27B0" d="M71.037,54.615c-1.155,1.146-5.489,5.586-6.286,8.268c-0.243,0.727-0.385,1.507-0.385,2.319
		c0,3.905,3.059,7.071,6.836,7.071c3.776,0,6.837-3.166,6.837-7.071c0-1.113-0.256-2.162-0.696-3.099
		c-0.023-0.044-0.043-0.085-0.061-0.131c-0.044-0.086-0.089-0.169-0.131-0.253c-1.413-2.653-4.797-6.113-5.791-7.104l-0.039-0.282
		c0,0-0.048,0.045-0.124,0.119 M69.516,70.025c-5.309-1.469-3.089-7.334-3.089-7.334s-0.909,4.368,3.307,5.93
		c4.215,1.562,6.618-0.937,6.618-0.937S74.823,71.493,69.516,70.025z"/>
</g>
</svg>
