<?xml version="1.0" encoding="utf-8"?>
<!-- Generator: Adobe Illustrator 16.0.0, SVG Export Plug-In . SVG Version: 6.00 Build 0)  -->
<!DOCTYPE svg PUBLIC "-//W3C//DTD SVG 1.1//EN" "http://www.w3.org/Graphics/SVG/1.1/DTD/svg11.dtd">
<svg version="1.1" id="Calque_1" xmlns="http://www.w3.org/2000/svg" xmlns:xlink="http://www.w3.org/1999/xlink" x="0px" y="0px"
	 width="97.167px" height="73.924px" viewBox="0 0 97.167 73.924" enable-background="new 0 0 97.167 73.924" xml:space="preserve">
<polygon fill="#FFFFFF" points="60.554,11.296 57.788,11.3 55.02,11.302 56.399,6.385 57.77,1.47 59.165,6.38 "/>
<polygon fill="#FFFFFF" points="75.703,32.936 75.701,30.17 75.695,27.403 80.613,28.779 85.53,30.153 80.615,31.544 "/>
<polygon fill="#FFFFFF" points="72.346,40.997 73.622,38.546 74.902,36.092 78.622,39.593 82.339,43.091 77.341,42.046 "/>
<polygon fill="#FFFFFF" points="72.636,19.451 73.912,21.902 75.192,24.355 78.91,20.856 82.629,17.355 77.628,18.402 "/>
<polygon fill="#FFFFFF" points="64.655,12.683 66.983,14.181 69.31,15.67 70.801,10.788 72.289,5.904 68.473,9.291 "/>
<polygon fill="#FFFFFF" points="55.02,48.146 57.786,48.144 60.554,48.14 59.177,53.06 57.803,57.976 56.409,53.063 "/>
<polygon fill="#FFFFFF" points="65.327,47.284 67.628,45.745 69.927,44.214 71.503,49.065 73.08,53.925 69.205,50.606 "/>
<path fill="#FFFFFF" d="M57.33,13.944c-3.28,0-6.327,0.985-8.873,2.667v24.274c2.273,1.164,4.21,2.881,5.648,4.969
	c1.042,0.213,2.12,0.324,3.225,0.324c8.901,0,16.118-7.213,16.118-16.118C73.448,21.159,66.231,13.944,57.33,13.944z"/>
<path fill="#FFFFFF" d="M26.454,27.887c0,0.6-0.53,1.087-1.186,1.087h-7.824c-0.656,0-1.189-0.487-1.189-1.087l0,0
	c0-0.601,0.533-1.086,1.189-1.086h7.824C25.924,26.801,26.454,27.286,26.454,27.887L26.454,27.887z"/>
<path fill="#FFFFFF" d="M26.454,30.917c0,0.53-0.384,0.962-0.855,0.962h-5.643c-0.475,0-0.855-0.432-0.855-0.962l0,0
	c0-0.531,0.381-0.961,0.855-0.961h5.643C26.07,29.956,26.454,30.386,26.454,30.917L26.454,30.917z"/>
<path fill="#FFFFFF" d="M26.454,24.857c0,0.6-0.635,1.087-1.42,1.087H15.67c-0.785,0-1.42-0.487-1.42-1.087l0,0
	c0-0.6,0.635-1.086,1.42-1.086h9.363C25.819,23.771,26.454,24.257,26.454,24.857L26.454,24.857z"/>
<path fill="none" stroke="#FFFFFF" stroke-width="2" d="M44.278,43.571V10.371c0-3.664-3.108-6.635-6.945-6.635
	c-3.839,0-6.947,2.971-6.947,6.635v33.201c-4.943,2.531-8.335,7.664-8.335,13.6c0,8.439,6.842,15.281,15.282,15.281
	c8.439,0,15.28-6.842,15.28-15.281C52.614,51.235,49.222,46.103,44.278,43.571z"/>
<path fill="#FFFFFF" d="M41.594,46.015V29.853h-8.522v16.162c-4.542,1.721-7.779,6.102-7.779,11.248
	c0,6.65,5.392,12.039,12.041,12.039s12.038-5.389,12.038-12.039C49.372,52.116,46.137,47.735,41.594,46.015z"/>
<g>
	<path fill="#FFFFFF" d="M45.909,4.984l-0.128-0.14c0.028,0.044,0.048,0.095,0.077,0.14H45.909z"/>
	<polygon fill="#FFFFFF" points="48.667,7.984 48.148,7.419 48.148,13.735 49.652,12.971 52.109,11.725 	"/>
</g>
</svg>
