<?xml version="1.0" encoding="utf-8"?>
<!-- Generator: Adobe Illustrator 16.0.0, SVG Export Plug-In . SVG Version: 6.00 Build 0)  -->
<!DOCTYPE svg PUBLIC "-//W3C//DTD SVG 1.1//EN" "http://www.w3.org/Graphics/SVG/1.1/DTD/svg11.dtd">
<svg version="1.1" id="Calque_1" xmlns="http://www.w3.org/2000/svg" xmlns:xlink="http://www.w3.org/1999/xlink" x="0px" y="0px"
	 width="73.396px" height="90.064px" viewBox="0 0 73.396 90.064" enable-background="new 0 0 73.396 90.064" xml:space="preserve">
<g id="Calque_x0020_1">
	<path fill="#F14336" stroke="#F14336" d="M25.847,81.909c-0.084,0.341-0.177,0.679-0.177,1.036c0,3.658,5.008,6.62,11.179,6.62
		s11.174-2.962,11.174-6.62c0-0.357-0.084-0.695-0.172-1.036H25.847z"/>
	<path fill="#F14336" d="M72.191,70.99C52.526,46.363,58.944,21.525,58.944,21.525c-5.551-8.35-10.99-12.659-16.047-14.417
		c0.682-0.715,1.092-1.548,1.092-2.454C43.989,2.087,40.79,0,36.849,0c-3.945,0-7.142,2.087-7.142,4.655
		c0,0.905,0.411,1.741,1.097,2.454c-5.063,1.758-10.5,6.067-16.052,14.419c0,0,6.414,24.835-13.247,49.462
		c0,0-2.479,3.934,2.484,6.416l0.004-0.004H69.6v-0.104l0.105,0.108C74.671,74.922,72.19,70.99,72.191,70.99L72.191,70.99z
		 M33.512,22.764c-9.834,3.727-11.798,12.212-11.798,12.212c-3.312-19.659,14.901-20.49,14.901-20.49
		C45.72,16.04,33.512,22.764,33.512,22.764z"/>
	<path fill="none" stroke="#F14336" stroke-width="3" stroke-linecap="round" d="M65.563,6.999c0,0,8.482,8.583,5.817,24.187"/>
	<path fill="none" stroke="#F14336" stroke-width="3" stroke-linecap="round" d="M10.84,6.999c0,0-12.513,8.583-8.581,24.187"/>
</g>
</svg>
