<?xml version="1.0" encoding="utf-8"?>
<!-- Generator: Adobe Illustrator 16.0.0, SVG Export Plug-In . SVG Version: 6.00 Build 0)  -->
<!DOCTYPE svg PUBLIC "-//W3C//DTD SVG 1.1//EN" "http://www.w3.org/Graphics/SVG/1.1/DTD/svg11.dtd">
<svg version="1.1" id="Calque_1" xmlns="http://www.w3.org/2000/svg" xmlns:xlink="http://www.w3.org/1999/xlink" x="0px" y="0px"
	 width="62.057px" height="79.189px" viewBox="0 0 62.057 79.189" enable-background="new 0 0 62.057 79.189" xml:space="preserve">
<g id="Calque_x0020_1">
	<g>
		<path fill="none" stroke="#F8D832" stroke-width="2" d="M32.668,77.181L46.534,66.67L60.4,56.162L46.491,45.66l-13.907-10.5
			l0.031,14.241l-19.042,0.082c-2.855,0.014-5.154,3.055-5.14,6.789c0.016,3.741,2.34,6.76,5.199,6.749l19.006-0.083L32.668,77.181z
			"/>
		<path fill="#F8D832" d="M27.732,42.021l-13.866-10.51L0,21.003l13.908-10.504L27.816,0l-0.03,14.24l19.041,0.081
			c2.855,0.014,5.154,3.057,5.141,6.793c-0.015,3.74-2.341,6.76-5.199,6.748l-19.006-0.085L27.732,42.021L27.732,42.021z"/>
	</g>
</g>
</svg>
