<?xml version="1.0" encoding="utf-8"?>
<!-- Generator: Adobe Illustrator 16.0.0, SVG Export Plug-In . SVG Version: 6.00 Build 0)  -->
<!DOCTYPE svg PUBLIC "-//W3C//DTD SVG 1.1//EN" "http://www.w3.org/Graphics/SVG/1.1/DTD/svg11.dtd">
<svg version="1.1" id="Calque_1" xmlns="http://www.w3.org/2000/svg" xmlns:xlink="http://www.w3.org/1999/xlink" x="0px" y="0px"
	 width="44.432px" height="88.062px" viewBox="0 0 44.432 88.062" enable-background="new 0 0 44.432 88.062" xml:space="preserve">
<g id="Calque_x0020_1">
	<g>
		<path fill="#FFFFFF" d="M40.675,88.063H12.486V81.17h28.188L40.675,88.063L40.675,88.063z"/>
		<path fill="#FFFFFF" d="M43.977,53.1c-0.025-0.386-0.098-0.651-0.202-0.853c0.001-0.02,0.013-0.032,0.013-0.052
			c0-1.271-2.113-2.305-4.721-2.305c-0.428,0-0.834,0.039-1.227,0.089c-0.105-1.229-2.16-2.21-4.699-2.21
			c-0.588,0-1.145,0.062-1.663,0.154c-0.136-0.065-0.264-0.149-0.377-0.287c-0.101-0.121-0.286-0.204-0.513-0.271
			c-0.846-0.616-2.285-1.023-3.922-1.023c-1.568,0-2.948,0.377-3.809,0.953c-0.1-0.062-0.165-0.141-0.146-0.243
			c0.195-1.174-0.781-14.047-2.341-21.463c-0.186-0.866-0.406-1.528-0.652-2.044c-0.058-0.14-0.139-0.26-0.219-0.388
			c-0.125-0.207-0.254-0.383-0.389-0.521c-0.029-0.03-0.061-0.062-0.094-0.087c-0.221-0.206-0.449-0.359-0.686-0.422
			c-0.371-0.166-0.771-0.271-1.204-0.257c-1.493,0.061-2.659,1.301-2.604,2.773l0.006,0.141c-0.004,0.006-0.017,0.023-0.017,0.023
			s0.025,0.464,0.065,1.252l0.082,2.13c0.002,0.041,0.022,0.073,0.026,0.113c0.436,9.105,1.413,32.975-0.176,34.154
			c-1.885,1.403,0.213-1.638-8.778-6.046c-6.764-3.318-7.169,5.573-3.837,6.289c9.314,2,8.594,11.026,9.727,13.217h29.586
			c4.712-7.909,2.949-20.222,2.764-22.824L43.977,53.1z"/>
		<path fill="#FFFFFF" d="M10.714,32.955c-0.028-0.58-0.056-1.158-0.079-1.701c-0.01-0.102-0.067-0.183-0.068-0.28l-0.2-5.204
			c-0.099-1.939-0.159-3.064-0.159-3.064s0.029-0.045,0.04-0.062l-0.019-0.346c-0.139-3.604,2.713-6.648,6.371-6.795
			c1.064-0.031,2.041,0.223,2.947,0.626c0.58,0.155,1.141,0.53,1.683,1.029c0.079,0.067,0.151,0.148,0.229,0.216
			c0.326,0.349,0.641,0.771,0.942,1.276c0.197,0.31,0.396,0.601,0.54,0.952c0.604,1.265,1.146,2.873,1.597,5.001
			c0.465,2.205,0.901,4.61,1.322,7.131c4.984-2.985,8.354-8.387,8.354-14.624C34.215,7.66,26.556,0,17.107,0
			C7.658,0,0,7.66,0,17.109C0,24.291,4.438,30.42,10.714,32.955L10.714,32.955z"/>
	</g>
</g>
</svg>
