<?xml version="1.0" encoding="utf-8"?>
<!-- Generator: Adobe Illustrator 16.0.0, SVG Export Plug-In . SVG Version: 6.00 Build 0)  -->
<!DOCTYPE svg PUBLIC "-//W3C//DTD SVG 1.1//EN" "http://www.w3.org/Graphics/SVG/1.1/DTD/svg11.dtd">
<svg version="1.1" id="Calque_1" xmlns="http://www.w3.org/2000/svg" xmlns:xlink="http://www.w3.org/1999/xlink" x="0px" y="0px"
	 width="44.432px" height="88.062px" viewBox="0 0 44.432 88.062" enable-background="new 0 0 44.432 88.062" xml:space="preserve">
<g id="Calque_x0020_1">
	<g>
		<path fill="#7B1C8A" d="M40.675,88.063H12.486V81.17h28.188L40.675,88.063L40.675,88.063z"/>
		<path fill="#7B1C8A" d="M43.977,53.1c-0.026-0.385-0.098-0.651-0.202-0.852c0.001-0.02,0.012-0.032,0.012-0.052
			c0-1.271-2.113-2.305-4.72-2.305c-0.428,0-0.834,0.039-1.227,0.089c-0.105-1.229-2.16-2.21-4.699-2.21
			c-0.588,0-1.145,0.062-1.663,0.155c-0.136-0.066-0.264-0.15-0.377-0.288c-0.101-0.121-0.286-0.204-0.513-0.27
			c-0.846-0.616-2.285-1.023-3.922-1.023c-1.568,0-2.948,0.376-3.808,0.953c-0.1-0.063-0.165-0.141-0.146-0.244
			c0.195-1.173-0.781-14.046-2.341-21.462c-0.185-0.867-0.406-1.529-0.652-2.044c-0.058-0.14-0.139-0.26-0.219-0.388
			c-0.125-0.207-0.254-0.383-0.388-0.521c-0.03-0.03-0.061-0.061-0.094-0.086c-0.221-0.207-0.449-0.36-0.686-0.422
			c-0.371-0.166-0.771-0.272-1.204-0.257c-1.493,0.06-2.659,1.301-2.603,2.773l0.006,0.141c-0.004,0.006-0.017,0.023-0.017,0.023
			s0.025,0.464,0.065,1.252l0.082,2.13c0.002,0.041,0.023,0.073,0.027,0.113c0.435,9.106,1.413,32.975-0.176,34.155
			c-1.885,1.403,0.213-1.638-8.778-6.046c-6.764-3.319-7.169,5.573-3.837,6.289c9.314,2,8.593,11.026,9.726,13.217h29.586
			c4.712-7.909,2.949-20.222,2.764-22.825L43.977,53.1z"/>
		<path fill="#7B1C8A" d="M10.714,32.955c-0.028-0.58-0.056-1.158-0.079-1.701c-0.01-0.102-0.067-0.183-0.068-0.281l-0.201-5.204
			c-0.098-1.939-0.159-3.064-0.159-3.064s0.03-0.045,0.04-0.063l-0.018-0.345c-0.139-3.604,2.713-6.649,6.371-6.795
			c1.064-0.032,2.041,0.222,2.947,0.626c0.58,0.155,1.141,0.53,1.683,1.029c0.079,0.067,0.151,0.148,0.229,0.216
			c0.326,0.348,0.641,0.77,0.943,1.276c0.197,0.31,0.396,0.601,0.54,0.952c0.603,1.265,1.146,2.873,1.596,5.001
			c0.465,2.205,0.902,4.611,1.323,7.131c4.984-2.985,8.354-8.387,8.354-14.624C34.215,7.66,26.556,0,17.107,0
			C7.658,0,0,7.66,0,17.109C0,24.291,4.438,30.42,10.714,32.955L10.714,32.955z"/>
	</g>
</g>
</svg>
