<?xml version="1.0" encoding="utf-8"?>
<!-- Generator: Adobe Illustrator 16.0.0, SVG Export Plug-In . SVG Version: 6.00 Build 0)  -->
<!DOCTYPE svg PUBLIC "-//W3C//DTD SVG 1.1//EN" "http://www.w3.org/Graphics/SVG/1.1/DTD/svg11.dtd">
<svg version="1.1" id="Calque_1" xmlns="http://www.w3.org/2000/svg" xmlns:xlink="http://www.w3.org/1999/xlink" x="0px" y="0px"
	 width="58.602px" height="51.421px" viewBox="0 0 58.602 51.421" enable-background="new 0 0 58.602 51.421" xml:space="preserve">
<g id="Calque_x0020_1">
	<g>
		<path fill="none" stroke="#616061" stroke-width="5" stroke-linecap="round" stroke-linejoin="round" d="M2.5,48.919L29.303,2.5
			l26.799,46.421L2.5,48.919z"/>
		<g>
			<path fill="#616061" d="M34.285,19.795c0.02,0.026,0.032,0.04,0.032,0.04s-0.008-0.021-0.021-0.057
				C34.292,19.785,34.289,19.79,34.285,19.795L34.285,19.795z"/>
			<path fill="#616061" d="M29.66,6.344L6.377,46.762l46.645-0.044L29.66,6.344z M29.7,45.367c-2.354,0-4.26-1.908-4.26-4.26
				s1.906-4.258,4.26-4.258c2.353,0,4.257,1.906,4.257,4.258S32.053,45.367,29.7,45.367z M35.15,26.051
				c-0.041,0.092-0.078,0.185-0.116,0.275c-1.267,2.889-4.3,6.654-5.193,7.732l-0.034,0.309c0,0-0.042-0.053-0.11-0.133
				l-0.146-0.176c-1.034-1.246-4.921-6.08-5.635-8.998c-0.221-0.789-0.348-1.64-0.348-2.523c0-4.251,2.745-7.696,6.133-7.696
				c3.386,0,6.13,3.445,6.13,7.696c0,1.211-0.229,2.352-0.625,3.372C35.184,25.958,35.168,26.001,35.15,26.051z"/>
		</g>
	</g>
</g>
</svg>
