<?xml version="1.0" encoding="utf-8"?>
<!-- Generator: Adobe Illustrator 16.0.0, SVG Export Plug-In . SVG Version: 6.00 Build 0)  -->
<!DOCTYPE svg PUBLIC "-//W3C//DTD SVG 1.1//EN" "http://www.w3.org/Graphics/SVG/1.1/DTD/svg11.dtd">
<svg version="1.1" id="Calque_1" xmlns="http://www.w3.org/2000/svg" xmlns:xlink="http://www.w3.org/1999/xlink" x="0px" y="0px"
	 width="73.211px" height="72.964px" viewBox="0 0 73.211 72.964" enable-background="new 0 0 73.211 72.964" xml:space="preserve">
<g id="Calque_x0020_1">
	<g>
		<path fill="#FFFFFF" d="M38.65,67.274c-0.063,0.255-0.129,0.506-0.129,0.771c0,2.717,3.717,4.918,8.302,4.918
			s8.302-2.201,8.302-4.918c0-0.266-0.062-0.517-0.129-0.771H38.65z"/>
		<path fill="#FFFFFF" d="M72.751,58.975C58.145,40.678,62.91,22.228,62.91,22.228c-4.123-6.203-8.164-9.405-11.922-10.712
			c0.508-0.531,0.812-1.149,0.812-1.822c0-1.908-2.376-3.457-5.305-3.457c-2.93,0-5.305,1.549-5.305,3.457
			c0,0.673,0.305,1.294,0.812,1.822c-3.76,1.307-7.799,4.509-11.924,10.712c0,0,4.767,18.45-9.84,36.747c0,0-1.842,2.92,1.844,4.767
			l0.005-0.004h48.737V63.66l0.08,0.082C74.594,61.895,72.751,58.975,72.751,58.975z M44.018,23.146
			c-7.306,2.77-8.764,9.072-8.764,9.072c-2.462-14.604,11.07-15.223,11.07-15.223c6.764,1.156-2.309,6.15-2.309,6.15L44.018,23.146z
			"/>
		<path fill="#FFFFFF" d="M24.602,40.179c3.473-11.549,1.185-20.435,1.185-20.435c3.98-5.985,7.878-9.16,11.525-10.548
			C33.682,3.663,27.432,0,20.32,0C9.098,0,0,9.101,0,20.321c0,11.22,9.098,20.317,20.32,20.317
			C21.79,40.638,23.22,40.474,24.602,40.179L24.602,40.179z M3.535,20.835H2.176c-0.363,0-0.656-0.231-0.656-0.514
			c0-0.283,0.293-0.515,0.656-0.515h1.359c0.361,0,0.655,0.231,0.655,0.515C4.19,20.603,3.896,20.835,3.535,20.835z M20.303,1.346
			c0.283-0.003,0.52,0.288,0.522,0.649l0.017,1.359c0.004,0.362-0.223,0.659-0.506,0.662c-0.283,0.002-0.518-0.289-0.521-0.65
			l-0.016-1.359C19.793,1.645,20.018,1.349,20.303,1.346z M18.66,21.124h-5.73c-0.32,0-0.579-0.359-0.579-0.803
			c0-0.444,0.259-0.803,0.579-0.803h5.73c0.182-0.376,0.483-0.676,0.856-0.856V9.793c0-0.379,0.359-0.689,0.804-0.689
			c0.442,0,0.803,0.311,0.803,0.689v8.869c0.617,0.3,1.047,0.927,1.047,1.659c0,1.022-0.829,1.848-1.85,1.848
			C19.588,22.169,18.96,21.742,18.66,21.124z M19.814,38.91l-0.016-1.363c-0.006-0.36,0.219-0.657,0.504-0.661
			c0.283-0.003,0.52,0.288,0.522,0.651l0.017,1.358c0.004,0.36-0.223,0.658-0.506,0.661S19.817,39.271,19.814,38.91z"/>
	</g>
</g>
</svg>
